# Created by Metasequoia

v 0.000000 -4.000000 -300.000000
v -58.527096 -4.000000 -294.235565
v -114.805038 -4.000000 -277.163849
v -166.671066 -4.000000 -249.440872
v -212.132034 -4.000000 -212.132034
v -249.440872 -4.000000 -166.671066
v -277.163849 -4.000000 -114.805038
v -294.235565 -4.000000 -58.527096
v -300.000000 -4.000000 0.000000
v -294.235565 -4.000000 58.527096
v -277.163849 -4.000000 114.805038
v -249.440872 -4.000000 166.671066
v -212.132034 -4.000000 212.132034
v -166.671066 -4.000000 249.440872
v -114.805038 -4.000000 277.163849
v -58.527096 -4.000000 294.235565
v 0.000000 -4.000000 300.000000
v 58.527096 -4.000000 294.235565
v 114.805038 -4.000000 277.163849
v 166.671066 -4.000000 249.440872
v 212.132034 -4.000000 212.132034
v 249.440872 -4.000000 166.671066
v 277.163849 -4.000000 114.805038
v 294.235565 -4.000000 58.527096
v 300.000000 -4.000000 0.000000
v 294.235565 -4.000000 -58.527096
v 277.163849 -4.000000 -114.805038
v 249.440872 -4.000000 -166.671066
v 212.132034 -4.000000 -212.132034
v 166.671066 -4.000000 -249.440872
v 114.805038 -4.000000 -277.163849
v 58.527096 -4.000000 -294.235565
v -0.000000 -4.100000 -283.500031
v -55.308109 -4.100000 -278.052643
v -108.490761 -4.100000 -261.919861
v -157.504181 -4.100000 -235.721634
v -200.464767 -4.100000 -200.464767
v -235.721634 -4.100000 -157.504181
v -261.919861 -4.100000 -108.490761
v -278.052643 -4.100000 -55.308109
v -283.500031 -4.100000 0.000000
v -278.052643 -4.100000 55.308109
v -261.919861 -4.100000 108.490761
v -235.721634 -4.100000 157.504181
v -200.464767 -4.100000 200.464767
v -157.504181 -4.100000 235.721634
v -108.490761 -4.100000 261.919861
v -55.308109 -4.100000 278.052643
v 0.000000 -4.100000 283.500031
v 55.308109 -4.100000 278.052643
v 108.490761 -4.100000 261.919861
v 157.504181 -4.100000 235.721634
v 200.464767 -4.100000 200.464767
v 235.721634 -4.100000 157.504181
v 261.919861 -4.100000 108.490761
v 278.052643 -4.100000 55.308109
v 283.500031 -4.100000 0.000000
v 278.052643 -4.100000 -55.308109
v 261.919861 -4.100000 -108.490761
v 235.721634 -4.100000 -157.504181
v 200.464767 -4.100000 -200.464767
v 157.504181 -4.100000 -235.721634
v 108.490761 -4.100000 -261.919861
v 55.308109 -4.100000 -278.052643
v 0.000000 0.000000 -300.000000
v -58.527096 0.000000 -294.235565
v -114.805038 0.000000 -277.163849
v -166.671066 0.000000 -249.440872
v -212.132034 0.000000 -212.132034
v -249.440872 0.000000 -166.671066
v -277.163849 0.000000 -114.805038
v -294.235565 0.000000 -58.527096
v -300.000000 0.000000 0.000000
v -294.235565 0.000000 58.527096
v -277.163849 0.000000 114.805038
v -249.440872 0.000000 166.671066
v -212.132034 0.000000 212.132034
v -166.671066 0.000000 249.440872
v -114.805038 0.000000 277.163849
v -58.527096 0.000000 294.235565
v 0.000000 0.000000 300.000000
v 58.527096 0.000000 294.235565
v 114.805038 0.000000 277.163849
v 166.671066 0.000000 249.440872
v 212.132034 0.000000 212.132034
v 249.440872 0.000000 166.671066
v 277.163849 0.000000 114.805038
v 294.235565 0.000000 58.527096
v 300.000000 0.000000 0.000000
v 294.235565 0.000000 -58.527096
v 277.163849 0.000000 -114.805038
v 249.440872 0.000000 -166.671066
v 212.132034 0.000000 -212.132034
v 166.671066 0.000000 -249.440872
v 114.805038 0.000000 -277.163849
v 58.527096 0.000000 -294.235565
v 0.000000 0.100000 -283.500031
v -55.308109 0.100000 -278.052643
v -108.490761 0.100000 -261.919861
v -157.504181 0.100000 -235.721634
v -200.464767 0.100000 -200.464767
v -235.721634 0.100000 -157.504181
v -261.919861 0.100000 -108.490761
v -278.052643 0.100000 -55.308109
v -283.500031 0.100000 0.000000
v -278.052643 0.100000 55.308109
v -261.919861 0.100000 108.490761
v -235.721634 0.100000 157.504181
v -200.464767 0.100000 200.464767
v -157.504181 0.100000 235.721634
v -108.490761 0.100000 261.919861
v -55.308109 0.100000 278.052643
v 0.000000 0.100000 283.500031
v 55.308109 0.100000 278.052643
v 108.490761 0.100000 261.919861
v 157.504181 0.100000 235.721634
v 200.464767 0.100000 200.464767
v 235.721634 0.100000 157.504181
v 261.919861 0.100000 108.490761
v 278.052643 0.100000 55.308109
v 283.500031 0.100000 0.000000
v 278.052643 0.100000 -55.308109
v 261.919861 0.100000 -108.490761
v 235.721634 0.100000 -157.504181
v 200.464767 0.100000 -200.464767
v 157.504181 0.100000 -235.721634
v 108.490761 0.100000 -261.919861
v 55.308109 0.100000 -278.052643
# 128 vertices

vt 0.00000 0.00000
# 1 texture vertices

vn 0.00232 -0.99998 -0.00560
vn 0.00232 -0.99998 -0.00560
vn 0.00337 -0.99998 -0.00504
vn 0.00337 -0.99998 -0.00504
vn 0.00118 -0.99998 0.00594
vn 0.00118 -0.99998 0.00594
vn 0.00000 -0.99998 0.00606
vn -0.00000 -0.99998 0.00606
vn -0.00429 -0.99998 -0.00429
vn -0.00337 -0.99998 -0.00504
vn -0.00337 -0.99998 -0.00504
vn 0.00118 -0.99998 -0.00594
vn 0.00118 -0.99998 -0.00594
vn 0.00232 -0.99998 0.00560
vn 0.00232 -0.99998 0.00560
vn -0.00504 -0.99998 -0.00337
vn -0.00504 -0.99998 -0.00337
vn 0.00000 -0.99998 -0.00606
vn 0.00000 -0.99998 -0.00606
vn 0.00337 -0.99998 0.00504
vn 0.00337 -0.99998 0.00504
vn -0.00560 -0.99998 -0.00232
vn -0.00560 -0.99998 -0.00232
vn 0.00429 -0.99998 0.00429
vn -0.00594 -0.99998 -0.00118
vn -0.00594 -0.99998 -0.00118
vn 0.00504 -0.99998 0.00337
vn 0.00504 -0.99998 0.00337
vn -0.00606 -0.99998 -0.00000
vn -0.00606 -0.99998 0.00000
vn 0.00560 -0.99998 0.00232
vn 0.00560 -0.99998 0.00232
vn -0.00594 -0.99998 0.00118
vn -0.00594 -0.99998 0.00118
vn 0.00594 -0.99998 0.00118
vn 0.00594 -0.99998 0.00118
vn -0.00560 -0.99998 0.00232
vn -0.00560 -0.99998 0.00232
vn 0.00606 -0.99998 0.00000
vn 0.00606 -0.99998 0.00000
vn -0.00504 -0.99998 0.00337
vn -0.00504 -0.99998 0.00337
vn 0.00594 -0.99998 -0.00118
vn 0.00594 -0.99998 -0.00118
vn -0.00429 -0.99998 0.00429
vn 0.00560 -0.99998 -0.00232
vn 0.00560 -0.99998 -0.00232
vn -0.00337 -0.99998 0.00504
vn -0.00337 -0.99998 0.00504
vn 0.00504 -0.99998 -0.00337
vn 0.00504 -0.99998 -0.00337
vn -0.00232 -0.99998 0.00560
vn -0.00232 -0.99998 0.00560
vn -0.00118 -0.99998 -0.00594
vn -0.00118 -0.99998 -0.00594
vn 0.00429 -0.99998 -0.00429
vn -0.00118 -0.99998 0.00594
vn -0.00118 -0.99998 0.00594
vn -0.00232 -0.99998 -0.00560
vn -0.00232 -0.99998 -0.00560
vn 0.00232 0.99998 -0.00560
vn 0.00337 0.99998 -0.00504
vn 0.00337 0.99998 -0.00504
vn 0.00232 0.99998 -0.00560
vn 0.00118 0.99998 0.00594
vn 0.00000 0.99998 0.00606
vn 0.00000 0.99998 0.00606
vn -0.00429 0.99998 -0.00429
vn -0.00337 0.99998 -0.00504
vn -0.00337 0.99998 -0.00504
vn 0.00118 0.99998 -0.00594
vn 0.00118 0.99998 -0.00594
vn 0.00232 0.99998 0.00560
vn 0.00232 0.99998 0.00560
vn -0.00504 0.99998 -0.00337
vn -0.00504 0.99998 -0.00337
vn 0.00000 0.99998 -0.00606
vn 0.00000 0.99998 -0.00606
vn 0.00337 0.99998 0.00504
vn 0.00337 0.99998 0.00504
vn -0.00560 0.99998 -0.00232
vn -0.00560 0.99998 -0.00232
vn 0.00429 0.99998 0.00429
vn -0.00594 0.99998 -0.00118
vn -0.00594 0.99998 -0.00118
vn 0.00504 0.99998 0.00337
vn 0.00504 0.99998 0.00337
vn -0.00606 0.99998 -0.00000
vn -0.00606 0.99998 -0.00000
vn 0.00560 0.99998 0.00232
vn 0.00560 0.99998 0.00232
vn -0.00594 0.99998 0.00118
vn -0.00594 0.99998 0.00118
vn 0.00594 0.99998 0.00118
vn 0.00594 0.99998 0.00118
vn -0.00560 0.99998 0.00232
vn -0.00560 0.99998 0.00232
vn 0.00606 0.99998 0.00000
vn 0.00606 0.99998 0.00000
vn -0.00504 0.99998 0.00337
vn -0.00504 0.99998 0.00337
vn 0.00594 0.99998 -0.00118
vn 0.00594 0.99998 -0.00118
vn -0.00429 0.99998 0.00429
vn 0.00560 0.99998 -0.00232
vn 0.00560 0.99998 -0.00232
vn -0.00337 0.99998 0.00504
vn -0.00337 0.99998 0.00504
vn 0.00504 0.99998 -0.00337
vn 0.00504 0.99998 -0.00337
vn -0.00232 0.99998 0.00560
vn -0.00232 0.99998 0.00560
vn -0.00118 0.99998 -0.00594
vn 0.00429 0.99998 -0.00429
vn -0.00118 0.99998 0.00594
vn -0.00118 0.99998 0.00594
vn -0.00232 0.99998 -0.00560
vn -0.00232 0.99998 -0.00560
vn 0.00000 0.00000 -1.00000
vn -0.19509 0.00000 -0.98079
vn 0.98079 0.00000 0.19509
vn 0.92388 0.00000 0.38268
vn -0.38268 0.00000 -0.92388
vn 1.00000 0.00000 0.00000
vn -0.55557 0.00000 -0.83147
vn 0.98079 0.00000 -0.19509
vn -0.70711 0.00000 -0.70711
vn 0.92388 0.00000 -0.38268
vn -0.83147 0.00000 -0.55557
vn 0.83147 0.00000 -0.55557
vn -0.19509 0.00000 -0.98079
vn -0.92388 0.00000 -0.38268
vn 0.70711 0.00000 -0.70711
vn -0.38268 0.00000 -0.92388
vn -0.98079 0.00000 -0.19509
vn 0.55557 0.00000 -0.83147
vn -0.55557 0.00000 -0.83147
vn -1.00000 0.00000 0.00000
vn 0.38268 0.00000 -0.92388
vn -0.70711 0.00000 -0.70711
vn -0.98079 0.00000 0.19509
vn 0.19509 0.00000 -0.98079
vn -0.83147 0.00000 -0.55557
vn -0.92388 0.00000 0.38268
vn -0.92388 0.00000 -0.38268
vn -0.83147 0.00000 0.55557
vn 0.00000 0.00000 1.00000
vn 0.19509 0.00000 0.98079
vn -0.98079 0.00000 -0.19509
vn -0.70711 0.00000 0.70711
vn 0.38268 0.00000 0.92388
vn -0.55557 0.00000 0.83147
vn 0.55557 0.00000 0.83147
vn -0.98079 0.00000 0.19509
vn -0.38268 0.00000 0.92388
vn 0.70711 0.00000 0.70711
vn -0.92388 0.00000 0.38268
vn -0.19509 0.00000 0.98079
vn 0.83147 0.00000 0.55557
vn -0.83147 0.00000 0.55557
vn 0.92388 0.00000 0.38268
vn -0.70711 0.00000 0.70711
vn 0.98079 0.00000 0.19509
vn -0.55557 0.00000 0.83147
vn -0.38268 0.00000 0.92388
vn 0.98079 0.00000 -0.19509
vn -0.19509 0.00000 0.98079
vn 0.92388 0.00000 -0.38268
vn 0.83147 0.00000 -0.55557
vn 0.19509 0.00000 0.98079
vn 0.70711 0.00000 -0.70711
vn 0.38268 0.00000 0.92388
vn 0.55557 0.00000 -0.83147
vn 0.55557 0.00000 0.83147
vn 0.38268 0.00000 -0.92388
vn 0.70711 0.00000 0.70711
vn 0.19509 0.00000 -0.98079
vn 0.83147 0.00000 0.55557
# 178 normal vertices

g huan
s 1
f 30/1/4 63/1/2 31/1/1
f 30/1/4 62/1/3 63/1/2
f 18/1/5 49/1/7 50/1/6
f 18/1/5 17/1/8 49/1/7
f 36/1/10 5/1/9 4/1/11
f 36/1/10 37/1/9 5/1/9
f 31/1/1 64/1/13 32/1/12
f 31/1/1 63/1/2 64/1/13
f 19/1/14 50/1/6 51/1/15
f 19/1/14 18/1/5 50/1/6
f 37/1/9 6/1/16 5/1/9
f 37/1/9 38/1/17 6/1/16
f 32/1/12 33/1/19 1/1/18
f 32/1/12 64/1/13 33/1/19
f 20/1/20 51/1/15 52/1/21
f 20/1/20 19/1/14 51/1/15
f 38/1/17 7/1/22 6/1/16
f 38/1/17 39/1/23 7/1/22
f 21/1/24 52/1/21 53/1/24
f 21/1/24 20/1/20 52/1/21
f 39/1/23 8/1/25 7/1/22
f 39/1/23 40/1/26 8/1/25
f 22/1/27 53/1/24 54/1/28
f 22/1/27 21/1/24 53/1/24
f 40/1/26 9/1/29 8/1/25
f 40/1/26 41/1/30 9/1/29
f 23/1/31 54/1/28 55/1/32
f 23/1/31 22/1/27 54/1/28
f 42/1/34 9/1/29 41/1/30
f 42/1/34 10/1/33 9/1/29
f 24/1/35 55/1/32 56/1/36
f 24/1/35 23/1/31 55/1/32
f 43/1/38 10/1/33 42/1/34
f 43/1/38 11/1/37 10/1/33
f 24/1/35 57/1/40 25/1/39
f 24/1/35 56/1/36 57/1/40
f 44/1/42 11/1/37 43/1/38
f 44/1/42 12/1/41 11/1/37
f 25/1/39 58/1/44 26/1/43
f 25/1/39 57/1/40 58/1/44
f 45/1/45 12/1/41 44/1/42
f 45/1/45 13/1/45 12/1/41
f 26/1/43 59/1/47 27/1/46
f 26/1/43 58/1/44 59/1/47
f 46/1/49 13/1/45 45/1/45
f 46/1/49 14/1/48 13/1/45
f 27/1/46 60/1/51 28/1/50
f 27/1/46 59/1/47 60/1/51
f 47/1/53 14/1/48 46/1/49
f 47/1/53 15/1/52 14/1/48
f 33/1/19 2/1/54 1/1/18
f 33/1/19 34/1/55 2/1/54
f 28/1/50 61/1/56 29/1/56
f 28/1/50 60/1/51 61/1/56
f 48/1/58 15/1/52 47/1/53
f 48/1/58 16/1/57 15/1/52
f 34/1/55 3/1/59 2/1/54
f 34/1/55 35/1/60 3/1/59
f 29/1/56 62/1/3 30/1/4
f 29/1/56 61/1/56 62/1/3
f 49/1/7 16/1/57 48/1/58
f 49/1/7 17/1/8 16/1/57
f 35/1/60 4/1/11 3/1/59
f 35/1/60 36/1/10 4/1/11
f 127/1/64 94/1/62 95/1/61
f 127/1/64 126/1/63 94/1/62
f 113/1/67 82/1/65 114/1/65
f 113/1/67 81/1/66 82/1/65
f 69/1/68 100/1/70 68/1/69
f 69/1/68 101/1/68 100/1/70
f 128/1/72 95/1/61 96/1/71
f 128/1/72 127/1/64 95/1/61
f 114/1/65 83/1/73 115/1/74
f 114/1/65 82/1/65 83/1/73
f 70/1/75 101/1/68 69/1/68
f 70/1/75 102/1/76 101/1/68
f 97/1/78 96/1/71 65/1/77
f 97/1/78 128/1/72 96/1/71
f 115/1/74 84/1/79 116/1/80
f 115/1/74 83/1/73 84/1/79
f 71/1/81 102/1/76 70/1/75
f 71/1/81 103/1/82 102/1/76
f 116/1/80 85/1/83 117/1/83
f 116/1/80 84/1/79 85/1/83
f 72/1/84 103/1/82 71/1/81
f 72/1/84 104/1/85 103/1/82
f 117/1/83 86/1/86 118/1/87
f 117/1/83 85/1/83 86/1/86
f 73/1/88 104/1/85 72/1/84
f 73/1/88 105/1/89 104/1/85
f 118/1/87 87/1/90 119/1/91
f 118/1/87 86/1/86 87/1/90
f 74/1/92 105/1/89 73/1/88
f 74/1/92 106/1/93 105/1/89
f 119/1/91 88/1/94 120/1/95
f 119/1/91 87/1/90 88/1/94
f 74/1/92 107/1/97 106/1/93
f 74/1/92 75/1/96 107/1/97
f 121/1/99 88/1/94 89/1/98
f 121/1/99 120/1/95 88/1/94
f 75/1/96 108/1/101 107/1/97
f 75/1/96 76/1/100 108/1/101
f 122/1/103 89/1/98 90/1/102
f 122/1/103 121/1/99 89/1/98
f 76/1/100 109/1/104 108/1/101
f 76/1/100 77/1/104 109/1/104
f 123/1/106 90/1/102 91/1/105
f 123/1/106 122/1/103 90/1/102
f 77/1/104 110/1/108 109/1/104
f 77/1/104 78/1/107 110/1/108
f 124/1/110 91/1/105 92/1/109
f 124/1/110 123/1/106 91/1/105
f 78/1/107 111/1/112 110/1/108
f 78/1/107 79/1/111 111/1/112
f 66/1/113 97/1/78 65/1/77
f 66/1/113 98/1/113 97/1/78
f 125/1/114 92/1/109 93/1/114
f 125/1/114 124/1/110 92/1/109
f 79/1/111 112/1/116 111/1/112
f 79/1/111 80/1/115 112/1/116
f 67/1/117 98/1/113 66/1/113
f 67/1/117 99/1/118 98/1/113
f 126/1/63 93/1/114 94/1/62
f 126/1/63 125/1/114 93/1/114
f 80/1/115 113/1/67 112/1/116
f 80/1/115 81/1/66 113/1/67
f 68/1/69 99/1/118 67/1/117
f 68/1/69 100/1/70 99/1/118
f 113/1/119 50/1/120 49/1/119
f 113/1/119 114/1/120 50/1/120
f 88/1/121 23/1/122 24/1/121
f 88/1/121 87/1/122 23/1/122
f 114/1/120 51/1/123 50/1/120
f 114/1/120 115/1/123 51/1/123
f 89/1/124 24/1/121 25/1/124
f 89/1/124 88/1/121 24/1/121
f 115/1/123 52/1/125 51/1/123
f 115/1/123 116/1/125 52/1/125
f 90/1/126 25/1/124 26/1/126
f 90/1/126 89/1/124 25/1/124
f 116/1/125 53/1/127 52/1/125
f 116/1/125 117/1/127 53/1/127
f 91/1/128 26/1/126 27/1/128
f 91/1/128 90/1/126 26/1/126
f 117/1/127 54/1/129 53/1/127
f 117/1/127 118/1/129 54/1/129
f 92/1/130 27/1/128 28/1/130
f 92/1/130 91/1/128 27/1/128
f 66/1/131 1/1/119 2/1/131
f 66/1/131 65/1/119 1/1/119
f 118/1/129 55/1/132 54/1/129
f 118/1/129 119/1/132 55/1/132
f 93/1/133 28/1/130 29/1/133
f 93/1/133 92/1/130 28/1/130
f 67/1/134 2/1/131 3/1/134
f 67/1/134 66/1/131 2/1/131
f 119/1/132 56/1/135 55/1/132
f 119/1/132 120/1/135 56/1/135
f 94/1/136 29/1/133 30/1/136
f 94/1/136 93/1/133 29/1/133
f 68/1/137 3/1/134 4/1/137
f 68/1/137 67/1/134 3/1/134
f 120/1/135 57/1/138 56/1/135
f 120/1/135 121/1/138 57/1/138
f 95/1/139 30/1/136 31/1/139
f 95/1/139 94/1/136 30/1/136
f 69/1/140 4/1/137 5/1/140
f 69/1/140 68/1/137 4/1/137
f 121/1/138 58/1/141 57/1/138
f 121/1/138 122/1/141 58/1/141
f 96/1/142 31/1/139 32/1/142
f 96/1/142 95/1/139 31/1/139
f 70/1/143 5/1/140 6/1/143
f 70/1/143 69/1/140 5/1/140
f 122/1/141 59/1/144 58/1/141
f 122/1/141 123/1/144 59/1/144
f 65/1/119 32/1/142 1/1/119
f 65/1/119 96/1/142 32/1/142
f 71/1/145 6/1/143 7/1/145
f 71/1/145 70/1/143 6/1/143
f 123/1/144 60/1/146 59/1/144
f 123/1/144 124/1/146 60/1/146
f 97/1/147 34/1/148 33/1/147
f 97/1/147 98/1/148 34/1/148
f 72/1/149 7/1/145 8/1/149
f 72/1/149 71/1/145 7/1/145
f 124/1/146 61/1/150 60/1/146
f 124/1/146 125/1/150 61/1/150
f 98/1/148 35/1/151 34/1/148
f 98/1/148 99/1/151 35/1/151
f 73/1/138 8/1/149 9/1/138
f 73/1/138 72/1/149 8/1/149
f 125/1/150 62/1/152 61/1/150
f 125/1/150 126/1/152 62/1/152
f 99/1/151 36/1/153 35/1/151
f 99/1/151 100/1/153 36/1/153
f 74/1/154 9/1/138 10/1/154
f 74/1/154 73/1/138 9/1/138
f 126/1/152 63/1/155 62/1/152
f 126/1/152 127/1/155 63/1/155
f 100/1/153 37/1/156 36/1/153
f 100/1/153 101/1/156 37/1/156
f 75/1/157 10/1/154 11/1/157
f 75/1/157 74/1/154 10/1/154
f 127/1/155 64/1/158 63/1/155
f 127/1/155 128/1/158 64/1/158
f 101/1/156 38/1/159 37/1/156
f 101/1/156 102/1/159 38/1/159
f 76/1/160 11/1/157 12/1/160
f 76/1/160 75/1/157 11/1/157
f 128/1/158 33/1/147 64/1/158
f 128/1/158 97/1/147 33/1/147
f 102/1/159 39/1/161 38/1/159
f 102/1/159 103/1/161 39/1/161
f 77/1/162 12/1/160 13/1/162
f 77/1/162 76/1/160 12/1/160
f 103/1/161 40/1/163 39/1/161
f 103/1/161 104/1/163 40/1/163
f 78/1/164 13/1/162 14/1/164
f 78/1/164 77/1/162 13/1/162
f 104/1/163 41/1/124 40/1/163
f 104/1/163 105/1/124 41/1/124
f 79/1/165 14/1/164 15/1/165
f 79/1/165 78/1/164 14/1/164
f 105/1/124 42/1/166 41/1/124
f 105/1/124 106/1/166 42/1/166
f 80/1/167 15/1/165 16/1/167
f 80/1/167 79/1/165 15/1/165
f 106/1/166 43/1/168 42/1/166
f 106/1/166 107/1/168 43/1/168
f 81/1/147 16/1/167 17/1/147
f 81/1/147 80/1/167 16/1/167
f 107/1/168 44/1/169 43/1/168
f 107/1/168 108/1/169 44/1/169
f 82/1/170 17/1/147 18/1/170
f 82/1/170 81/1/147 17/1/147
f 108/1/169 45/1/171 44/1/169
f 108/1/169 109/1/171 45/1/171
f 83/1/172 18/1/170 19/1/172
f 83/1/172 82/1/170 18/1/170
f 109/1/171 46/1/173 45/1/171
f 109/1/171 110/1/173 46/1/173
f 84/1/174 19/1/172 20/1/174
f 84/1/174 83/1/172 19/1/172
f 110/1/173 47/1/175 46/1/173
f 110/1/173 111/1/175 47/1/175
f 85/1/176 20/1/174 21/1/176
f 85/1/176 84/1/174 20/1/174
f 111/1/175 48/1/177 47/1/175
f 111/1/175 112/1/177 48/1/177
f 86/1/178 21/1/176 22/1/178
f 86/1/178 85/1/176 21/1/176
f 112/1/177 49/1/119 48/1/177
f 112/1/177 113/1/119 49/1/119
f 87/1/122 22/1/178 23/1/122
f 87/1/122 86/1/178 22/1/178
# 256 elements

