# Blender 4.1.0
# www.blender.org
mtllib ss.mtl
o ss
v 462.821838 -16.404251 -193.322464
v 789.894287 -25.088507 -314.482941
v 454.075012 -25.088533 -235.891006
v 322.633545 -25.088545 -141.391235
v 483.918427 -25.088533 -155.328781
v 462.821838 -33.772816 -193.322464
v 470.382355 -16.528492 -196.123184
v 464.976227 -25.088533 -206.320389
v 472.924194 -25.088533 -184.864929
v 470.382355 -33.648575 -196.123184
v 454.927979 -17.221077 -190.398285
v 451.304718 -25.088533 -201.836395
v 459.630829 -25.088533 -179.360077
v 454.927979 -32.955994 -190.398285
v 96.720276 -2.975618 634.631409
v 132.874817 -11.659873 981.545166
v 140.127533 -11.659899 636.728271
v 81.223938 -11.659911 485.938904
v 54.678162 -11.659899 645.633545
v 96.720276 -20.344181 634.631409
v 97.556091 -3.099857 642.650635
v 108.776215 -11.659899 639.945740
v 86.019165 -11.659899 642.317383
v 97.556091 -20.219940 642.650635
v 95.847656 -3.792442 626.258728
v 107.827240 -11.659901 625.588989
v 83.987488 -11.659901 628.073486
v 95.847656 -19.527357 626.258728
v -642.329285 -14.906094 155.317352
v -939.194641 -23.590349 338.421936
v -625.383240 -23.590374 195.335083
v -515.088257 -23.590387 76.835938
v -670.484436 -23.590374 122.213348
v -642.329285 -32.274658 155.317352
v -649.191589 -15.030333 159.549927
v -641.885925 -23.590374 168.485107
v -653.897278 -23.590374 149.011230
v -649.191589 -32.150414 159.549927
v -635.164490 -15.722919 150.898132
v -629.362976 -23.590376 161.400543
v -641.945862 -23.590376 141.000061
v -635.164490 -31.457834 150.898132
v -157.101196 -10.617363 -538.179199
v -253.218567 -19.301619 -873.466858
v -200.208740 -19.301643 -532.671753
v -115.903870 -19.301657 -394.469910
v -117.622986 -19.301643 -556.346741
v -157.101196 -27.985928 -538.179199
v -159.323059 -10.741602 -545.929688
v -169.899353 -19.301643 -541.308960
v -147.905029 -19.301643 -547.614136
v -159.323059 -27.861685 -545.929688
v -154.781433 -11.434187 -530.087158
v -166.460510 -19.301645 -527.337952
v -143.419617 -19.301645 -533.943054
v -154.781433 -27.169104 -530.087158
v -209.893188 8.638979 0.000031
v -173.270447 0.000000 -4.805573
v -199.051086 0.000000 -7.743134
v -172.858948 -0.000013 -197.910477
v -222.735229 0.000000 -8.490570
v -246.515930 0.000002 4.534760
v -209.893188 -8.638979 0.000031
v -205.946899 5.911854 -66.274353
v -197.546936 -0.000004 -63.007751
v -217.447144 -0.000004 -63.970184
v -205.946838 -5.911869 -66.274338
v -200.167236 3.930525 -112.965378
v -193.537476 -0.000006 -107.754440
v -206.835632 -0.000008 -118.180832
v -200.167236 -3.930542 -112.965393
v -193.658386 2.634218 -142.324997
v -188.966125 -0.000010 -137.923203
v -198.384705 -0.000010 -146.743607
v -193.658386 -2.634239 -142.324997
v -187.127563 1.686728 -163.012482
v -184.026062 -0.000010 -159.578568
v -190.219543 -0.000013 -166.438522
v -187.127563 -1.686749 -163.012482
v -214.851807 -0.000004 -54.164246
v -220.735229 0.000002 7.743164
v -246.927490 0.000015 197.910522
v -197.051147 0.000002 8.490616
v -213.839478 5.911865 66.274384
v -222.239441 0.000006 63.007782
v -202.339233 0.000006 63.970215
v -213.839478 -5.911858 66.274384
v -219.619141 3.930544 112.965424
v -226.248901 0.000008 107.754486
v -212.950684 0.000010 118.180878
v -219.619141 -3.930523 112.965454
v -226.127930 2.634239 142.325012
v -230.820251 0.000011 137.923248
v -221.401733 0.000011 146.743652
v -226.127930 -2.634216 142.325012
v -232.658752 1.686750 163.012512
v -235.760315 0.000011 159.578613
v -229.566833 0.000013 166.438568
v -232.658752 -1.686726 163.012512
v -204.934570 0.000006 54.164276
v 0.000000 8.684278 -48.792587
v -0.000031 0.000023 300.000000
v 42.956055 -0.000004 -42.207611
v 0.000000 -0.000015 -198.290405
v -42.956116 -0.000004 -42.207626
v 0.000000 -8.684284 -48.792587
v -0.000031 8.560038 -40.729980
v 11.440094 -0.000004 -42.257217
v -11.440125 -0.000004 -42.257217
v -0.000031 -8.560043 -40.729980
v 0.000000 7.867456 -57.210632
v 11.984375 -0.000004 -56.634979
v -11.984497 -0.000004 -56.634995
v 0.000000 -7.867462 -57.210632
v 207.249939 8.638979 0.000015
v 243.872711 -0.000002 -4.805573
v 218.091980 -0.000002 -7.743134
v 244.284241 -0.000015 -197.910492
v 194.407898 0.000000 -8.490570
v 170.627228 0.000002 4.534760
v 207.249939 -8.638979 0.000015
v 211.196228 5.911854 -66.274353
v 219.596222 -0.000006 -63.007751
v 199.695923 -0.000004 -63.970184
v 211.196228 -5.911869 -66.274338
v 216.975891 3.930525 -112.965385
v 223.605682 -0.000008 -107.754440
v 210.307434 -0.000008 -118.180824
v 216.975891 -3.930542 -112.965401
v 223.484741 2.634216 -142.325012
v 228.177032 -0.000010 -137.923187
v 218.758484 -0.000011 -146.743607
v 223.484741 -2.634241 -142.325012
v 230.015533 1.686726 -163.012497
v 233.117096 -0.000011 -159.578568
v 226.923645 -0.000013 -166.438538
v 230.015533 -1.686750 -163.012497
v 202.291382 -0.000006 -54.164246
v 196.407959 0.000000 7.743164
v 170.215698 0.000015 197.910522
v 220.092010 0.000000 8.490601
v 203.303650 5.911865 66.274384
v 194.903687 0.000006 63.007812
v 214.803986 0.000004 63.970215
v 203.303650 -5.911858 66.274353
v 197.523987 3.930542 112.965424
v 190.894226 0.000008 107.754456
v 204.192444 0.000008 118.180878
v 197.523987 -3.930525 112.965424
v 191.015167 2.634237 142.325012
v 186.322906 0.000010 137.923248
v 195.741425 0.000010 146.743622
v 191.015167 -2.634218 142.325012
v 184.484375 1.686750 163.012543
v 181.382812 0.000011 159.578613
v 187.576294 0.000013 166.438538
v 184.484375 -1.686726 163.012543
v 212.208527 0.000004 54.164276
v 25.891296 8.638979 -289.269226
v 17.706543 0.000000 -325.287659
v 17.175049 0.000000 -299.345581
v -174.602600 -0.000015 -307.770325
v 18.629578 0.000000 -275.694397
v 33.806366 0.000000 -253.225616
v 25.891296 -8.638979 -289.269226
v -40.463196 5.911856 -287.045807
v -37.990540 -0.000004 -295.712769
v -37.101318 -0.000004 -275.809082
v -40.463196 -5.911867 -287.045807
v -87.489136 3.930525 -288.465942
v -82.916199 -0.000008 -295.550781
v -92.063049 -0.000008 -281.342072
v -87.489197 -3.930542 -288.465881
v -117.326294 2.634218 -292.221008
v -113.379089 -0.000010 -297.301636
v -121.286987 -0.000010 -287.104919
v -117.326294 -2.634239 -292.221008
v -138.530701 1.686726 -296.803040
v -135.399536 -0.000011 -300.210022
v -141.654907 -0.000011 -293.406403
v -138.530701 -1.686750 -296.803040
v -27.578735 -0.000004 -279.303650
v 34.607544 0.000000 -279.192871
v 226.385223 0.000015 -270.768066
v 33.153015 0.000002 -302.844025
v 92.245819 5.911865 -291.492584
v 89.773132 0.000004 -282.825684
v 88.883972 0.000006 -302.729340
v 92.245819 -5.911858 -291.492584
v 139.271790 3.930542 -290.072510
v 134.698792 0.000008 -282.987610
v 143.845642 0.000010 -297.196350
v 139.271790 -3.930525 -290.072510
v 169.108856 2.634237 -286.317413
v 165.161713 0.000010 -281.236755
v 173.069580 0.000011 -291.433472
v 169.108856 -2.634218 -286.317413
v 190.313263 1.686750 -281.735352
v 187.182159 0.000011 -278.328400
v 193.437500 0.000011 -285.132019
v 190.313263 -1.686726 -281.735352
v 79.361328 0.000004 -299.234772
v 2.402069 8.638979 322.971680
v -5.782654 0.000000 286.953247
v -6.314148 0.000000 312.895325
v -198.091858 -0.000015 304.470581
v -4.859680 -0.000002 336.546509
v 10.317108 0.000000 359.015320
v 2.402069 -8.638979 322.971680
v -63.952454 5.911854 325.195068
v -61.479797 -0.000004 316.528137
v -60.590637 -0.000006 336.431824
v -63.952454 -5.911869 325.195068
v -110.978455 3.930525 323.775024
v -106.405518 -0.000008 316.690125
v -115.552307 -0.000010 330.898865
v -110.978455 -3.930540 323.775024
v -140.815430 2.634218 320.019897
v -136.868286 -0.000010 314.939209
v -144.776245 -0.000011 325.135986
v -140.815430 -2.634239 320.019897
v -162.019958 1.686726 315.437866
v -158.888794 -0.000011 312.030884
v -165.144165 -0.000011 318.834473
v -162.019958 -1.686750 315.437866
v -51.067932 -0.000004 332.937256
v 11.118286 0.000000 333.048096
v 202.895966 0.000015 341.472839
v 9.663788 0.000000 309.396912
v 68.756561 5.911863 320.748352
v 66.283875 0.000004 329.415283
v 65.394684 0.000004 309.511597
v 68.756561 -5.911860 320.748352
v 115.782532 3.930540 322.168396
v 111.209564 0.000008 329.253296
v 120.356384 0.000008 315.044556
v 115.782532 -3.930525 322.168396
v 145.619568 2.634239 325.923523
v 141.672394 0.000010 331.004150
v 149.580322 0.000010 320.807434
v 145.619568 -2.634218 325.923523
v 166.824036 1.686750 330.505554
v 163.692841 0.000011 333.912476
v 169.948242 0.000011 327.108887
v 166.824036 -1.686726 330.505554
v 55.872040 0.000004 313.006165
v 399.813538 -16.404251 -380.257874
v 632.051086 -25.088507 -640.492310
v 372.148438 -25.088531 -413.772461
v 300.272949 -25.088545 -268.717377
v 436.247589 -25.088531 -356.569336
v 399.813538 -33.772812 -380.257874
v 405.181885 -16.528492 -386.273376
v 395.629486 -25.088531 -392.751099
v 412.700470 -25.088531 -377.516663
v 405.181885 -33.648575 -386.273376
v 394.208496 -17.221075 -373.977142
v 385.650177 -25.088533 -382.386292
v 403.533386 -25.088533 -366.426971
v 394.208496 -32.955990 -373.977142
v 464.117676 -2.975618 522.738831
v 658.538330 -11.659873 812.319397
v 503.451965 -11.659899 504.261780
v 380.786041 -11.659911 398.620117
v 432.124542 -11.659900 552.150085
v 464.117676 -20.344181 522.738831
v 468.611938 -3.099857 529.432617
v 477.258606 -11.659898 521.787903
v 458.262512 -11.659898 534.541504
v 468.611938 -20.219940 529.432617
v 459.425415 -3.792442 515.749817
v 469.696167 -11.659901 509.547546
v 449.796295 -11.659901 522.907959
v 459.425415 -19.527357 515.749817
v -413.351074 -14.906094 445.376465
v -589.887756 -23.590349 746.193848
v -379.636292 -23.590374 472.797363
v -337.684631 -23.590385 316.441650
v -453.731384 -23.590374 429.314026
v -413.351074 -32.274658 445.376465
v -417.431824 -15.030333 452.330200
v -406.792175 -23.590374 456.803162
v -426.525452 -23.590374 445.222656
v -417.431824 -32.150414 452.330200
v -409.090149 -15.722919 438.116333
v -399.045654 -23.590376 444.678589
v -419.717590 -23.590376 432.546936
v -409.090149 -31.457832 438.116333
v -309.428772 -10.617364 -394.613892
v -551.384216 -19.301617 -645.838806
v -344.936768 -19.301643 -369.558502
v -205.723083 -19.301655 -286.935120
v -283.056824 -19.301643 -429.155212
v -309.428772 -27.985926 -394.613892
v -315.021790 -10.741603 -400.421173
v -322.202332 -19.301643 -391.385193
v -305.722351 -19.301643 -407.257080
v -315.021790 -27.861685 -400.421173
v -303.589294 -11.434187 -388.550659
v -312.620667 -19.301645 -380.651733
v -295.356567 -19.301645 -397.278809
v -303.589294 -27.169102 -388.550659
v 383.511871 -16.404251 -19.025208
v 732.281494 -25.088507 -23.025192
v 389.603760 -25.088531 -62.053986
v 234.023834 -25.088545 -17.310760
v 390.588989 -25.088531 23.852539
v 383.511871 -33.772816 -19.025208
v 391.573914 -16.528492 -19.117676
v 389.915588 -25.088531 -30.539536
v 390.177979 -25.088531 -7.660767
v 391.573914 -33.648575 -19.117676
v 375.094360 -17.221075 -18.928680
v 375.532532 -25.088533 -30.918945
v 375.807373 -25.088533 -6.951599
v 375.094360 -32.955990 -18.928680
v -239.912231 -2.975616 637.389648
v -322.636414 -11.659873 976.230347
v -199.743469 -11.659898 653.974854
v -204.455261 -11.659911 492.157410
v -283.204407 -11.659899 633.598755
v -239.912231 -20.344181 637.389648
v -241.824402 -3.099857 645.222290
v -230.348450 -11.659898 646.451782
v -252.575867 -11.659899 641.025330
v -241.824402 -20.219940 645.222290
v -237.915588 -3.792440 629.211792
v -226.409729 -11.659901 632.613464
v -249.694641 -11.659900 626.928711
v -237.915588 -19.527357 629.211792
v -774.503723 -14.906095 -62.716187
v -1115.678711 -23.590349 9.781006
v -772.016174 -23.590374 -19.329575
v -628.270691 -23.590385 -93.789673
v -789.873230 -23.590374 -103.365417
v -774.503723 -32.274658 -62.716187
v -782.390198 -15.030333 -61.040375
v -778.518372 -23.590374 -50.167511
v -783.274109 -23.590374 -72.548096
v -782.390198 -32.150414 -61.040375
v -766.269348 -15.722919 -64.465912
v -764.341370 -23.590376 -52.623535
v -769.323425 -23.590376 -76.069000
v -766.269348 -31.457832 -64.465912
v -84.161743 -10.617363 -552.422119
v -61.814636 -19.301617 -900.498169
v -126.607727 -19.301643 -561.745728
v -93.739990 -19.301655 -403.231445
v -40.871948 -19.301643 -556.241333
v -84.161743 -27.985926 -552.422119
v -83.645142 -10.741602 -560.468201
v -95.159668 -19.301643 -559.677002
v -72.326355 -19.301643 -558.211060
v -83.645142 -27.861685 -560.468201
v -84.701111 -11.434187 -544.021362
v -96.623962 -19.301643 -545.363647
v -72.704346 -19.301645 -543.827942
v -84.701111 -27.169102 -544.021362
v 466.230286 -16.404251 -186.031982
v 768.937378 -25.088507 -359.308289
v 450.605072 -25.088531 -226.583679
v 336.485413 -25.088545 -111.763107
v 493.285309 -25.088531 -152.022964
v 466.230286 -33.772816 -186.031982
v 473.227600 -16.528492 -190.037399
v 466.218811 -25.088531 -199.207245
v 477.585480 -25.088531 -179.350113
v 473.227600 -33.648575 -190.037399
v 458.924500 -17.221075 -181.849991
v 453.470337 -25.088533 -192.536926
v 465.377838 -25.088533 -171.734985
v 458.924500 -32.955990 -181.849991
v 241.207306 -2.975616 690.838867
v 333.895538 -11.659873 1027.090576
v 284.368835 -11.659899 685.771973
v 201.479797 -11.659912 546.716309
v 201.545654 -11.659899 708.602295
v 241.207306 -20.344181 690.838867
v 243.349915 -3.099855 698.611633
v 253.972809 -11.659900 694.099121
v 231.915222 -11.659899 700.179443
v 243.349915 -20.219940 698.611633
v 238.970337 -3.792440 682.723572
v 250.676880 -11.659901 680.093750
v 227.569733 -11.659901 686.463196
v 238.970337 -19.527357 682.723572
v -566.578430 -14.906094 339.529419
v -829.306824 -23.590349 568.941711
v -543.284729 -23.590374 376.217163
v -453.968994 -23.590385 241.199768
v -599.792175 -23.590374 311.503784
v -566.578430 -32.274658 339.529419
v -572.651550 -15.030333 344.832397
v -563.976501 -23.590374 352.445190
v -579.025574 -23.590374 335.210571
v -572.651550 -32.150414 344.832397
v -560.237488 -15.722918 333.992554
v -552.788635 -23.590376 343.398499
v -568.553528 -23.590376 325.343811
v -560.237488 -31.457832 333.992554
v -201.947449 -10.617364 -424.295166
v -351.871643 -19.301619 -739.222168
v -243.563171 -19.301643 -411.776611
v -137.687561 -19.301655 -289.312683
v -165.992493 -19.301643 -448.704895
v -201.947449 -27.985926 -424.295166
v -205.413025 -10.741603 -431.574951
v -215.085876 -19.301643 -425.278564
v -194.427124 -19.301643 -435.113403
v -205.413025 -27.861685 -431.574951
v -198.329041 -11.434188 -416.694489
v -209.397278 -19.301643 -412.062805
v -187.755493 -19.301645 -422.365540
v -198.329041 -27.169102 -416.694489
v 264.500305 -16.404251 -424.155273
v 373.524872 -25.088507 -755.470764
v 225.754944 -25.088531 -443.837372
v 217.770691 -25.088545 -282.148438
v 307.362274 -25.088531 -416.983185
v 264.500305 -33.772812 -424.155273
v 267.020477 -16.528492 -431.813904
v 255.676208 -25.088531 -433.939087
v 277.410004 -25.088531 -426.787231
v 267.020477 -33.648575 -431.813904
v 261.868988 -17.221075 -416.159027
v 250.664978 -25.088533 -420.451904
v 273.432861 -25.088533 -412.959778
v 261.868988 -32.955990 -416.159027
v 683.983276 -2.975618 378.074097
v 977.852478 -11.659873 565.949646
v 712.669434 -11.659898 345.429138
v 558.026489 -11.659910 297.547882
v 666.393311 -11.659900 417.812988
v 683.983276 -20.344181 378.074097
v 690.776245 -3.099855 382.416931
v 695.651733 -11.659899 371.955688
v 683.327393 -11.659899 391.233093
v 690.776245 -20.219940 382.416931
v 676.890869 -3.792442 373.539856
v 683.831177 -11.659901 363.752502
v 670.920410 -11.659901 383.947144
v 676.890869 -19.527357 373.539856
v -151.402161 -14.906094 657.479492
v -193.155151 -23.590349 1003.764038
v -109.543213 -23.590374 669.159180
v -133.506226 -23.590385 509.056763
v -194.837585 -23.590374 658.875000
v -151.402161 -32.274658 657.479492
v -152.367310 -15.030333 665.484131
v -140.826660 -23.590374 665.337280
v -163.542419 -23.590374 662.598389
v -152.367310 -32.150414 665.484131
v -150.394470 -15.722919 649.122009
v -138.565125 -23.590376 651.128174
v -162.361633 -23.590376 648.258789
v -150.394470 -31.457832 649.122009
v -391.492981 -10.617363 -154.148575
v -713.630066 -19.301617 -287.879578
v -414.044617 -19.301643 -117.000031
v -253.420105 -19.301655 -96.829468
v -381.104919 -19.301643 -196.346619
v -391.492981 -27.985926 -154.148575
v -398.939453 -10.741602 -157.239868
v -401.915222 -19.301643 -146.088440
v -393.142639 -19.301643 -167.220184
v -398.939453 -27.861685 -157.239868
v -383.718262 -11.434187 -150.921021
v -388.844910 -19.301643 -140.073166
v -379.654968 -19.301645 -162.210266
v -383.718262 -27.169102 -150.921021
v 156.536560 -16.404251 -422.153412
v 203.428589 -25.088507 -767.779541
v 114.855713 -25.088531 -434.453644
v 136.437866 -25.088545 -274.012756
v 199.987976 -25.088531 -422.903503
v 156.536560 -33.772812 -422.153412
v 157.620483 -16.528492 -430.142822
v 146.078918 -25.088531 -430.167450
v 168.751434 -25.088531 -427.091431
v 157.620483 -33.648575 -430.142822
v 155.404816 -17.221075 -413.811737
v 143.606537 -25.088533 -415.993378
v 167.357849 -25.088533 -412.770935
v 155.404816 -32.955990 -413.811737
v 715.044495 -2.975618 290.311981
v 1038.203613 -11.659872 421.554077
v 737.308838 -11.659899 252.990479
v 576.533569 -11.659910 234.059570
v 704.982178 -11.659898 332.588806
v 715.044495 -20.344181 290.311981
v 722.514526 -3.099857 293.345612
v 725.404175 -11.659898 282.171661
v 716.794922 -11.659899 303.370422
v 722.514526 -20.219940 293.345612
v 707.245117 -3.792440 287.144409
v 712.287903 -11.659900 276.257385
v 703.268921 -11.659901 298.464722
v 707.245117 -19.527357 287.144409
v -55.521851 -14.906094 717.118164
v -33.541382 -23.590349 1065.217529
v -12.236267 -23.590374 720.982971
v -64.943054 -23.590385 567.917603
v -97.977661 -23.590374 726.397217
v -55.521851 -32.274658 717.118164
v -55.013733 -15.030333 725.164856
v -43.692627 -23.590374 722.919678
v -66.527405 -23.590374 724.361511
v -55.013733 -32.150414 725.164856
v -56.052368 -15.722918 708.716919
v -44.055481 -23.590376 708.536133
v -67.976807 -23.590376 710.046631
v -56.052368 -31.457832 708.716919
v -439.345825 -10.617362 -37.244339
v -780.444397 -19.301619 -110.100800
v -454.758301 -19.301643 3.388702
v -293.145874 -19.301655 -6.016968
v -436.812805 -19.301643 -80.628357
v -439.345825 -27.985926 -37.244339
v -447.230530 -10.741602 -38.928482
v -448.126648 -19.301643 -27.421722
v -443.347412 -19.301643 -49.797256
v -447.230530 -27.861685 -38.928482
v -431.113525 -11.434187 -35.485962
v -434.179749 -19.301645 -23.886154
v -429.173035 -19.301645 -47.326324
v -431.113525 -27.169102 -35.485962
vn 0.7504 0.6002 -0.2767
vn 0.7500 0.6002 -0.2778
vn -0.5790 0.8140 -0.0471
vn -0.4304 0.8581 -0.2802
vn -0.1812 0.9812 0.0671
vn -0.1440 0.8581 0.4929
vn -0.4086 0.8140 0.4129
vn -0.1811 0.9812 0.0671
vn 0.7496 0.6002 -0.2790
vn 0.7500 0.6002 -0.2779
vn 0.7500 -0.6002 -0.2778
vn 0.7504 -0.6002 -0.2767
vn -0.1811 -0.9812 0.0671
vn -0.4304 -0.8581 -0.2802
vn -0.5790 -0.8140 -0.0471
vn -0.4086 -0.8140 0.4129
vn -0.1440 -0.8581 0.4929
vn 0.7500 -0.6002 -0.2779
vn 0.7496 -0.6002 -0.2790
vn -0.1932 0.7995 -0.5687
vn -0.1898 0.7992 -0.5703
vn -0.1918 0.7994 -0.5694
vn 0.2255 0.7994 0.5569
vn 0.2275 0.7992 0.5563
vn 0.2240 0.7995 0.5573
vn -0.1918 -0.7994 -0.5694
vn -0.1898 -0.7992 -0.5703
vn -0.1932 -0.7995 -0.5687
vn 0.2240 -0.7995 0.5573
vn 0.2275 -0.7992 0.5563
vn 0.2255 -0.7994 0.5569
vn -0.1812 0.9812 0.0672
vn -0.1811 -0.9812 0.0672
vn -0.1812 -0.9812 0.0671
vn -0.2346 0.8340 -0.4994
vn -0.2506 0.8329 -0.4935
vn 0.1313 0.8329 0.5377
vn 0.1474 0.8340 0.5317
vn -0.2506 -0.8329 -0.4935
vn -0.2346 -0.8340 -0.4994
vn 0.1474 -0.8340 0.5317
vn 0.1313 -0.8329 0.5377
vn 0.0817 0.6002 0.7956
vn 0.0828 0.6002 0.7955
vn 0.1894 0.8140 -0.5491
vn 0.3783 0.8581 -0.3473
vn -0.0200 0.9812 -0.1921
vn -0.4418 0.8581 -0.2619
vn -0.2985 0.8140 -0.4983
vn 0.0842 0.6003 0.7954
vn 0.0830 0.6002 0.7955
vn 0.0828 -0.6002 0.7955
vn 0.0817 -0.6002 0.7956
vn -0.0200 -0.9812 -0.1921
vn 0.3783 -0.8581 -0.3473
vn 0.1894 -0.8140 -0.5491
vn -0.2985 -0.8140 -0.4983
vn -0.4418 -0.8581 -0.2619
vn 0.0830 -0.6003 0.7955
vn 0.0842 -0.6003 0.7954
vn 0.5989 0.7995 -0.0459
vn 0.5995 0.7992 -0.0423
vn 0.5992 0.7994 -0.0444
vn -0.5954 0.7994 0.0801
vn -0.5954 0.7992 0.0822
vn -0.5955 0.7995 0.0786
vn 0.5992 -0.7994 -0.0444
vn 0.5995 -0.7992 -0.0423
vn 0.5989 -0.7995 -0.0459
vn -0.5955 -0.7995 0.0786
vn -0.5954 -0.7992 0.0822
vn -0.5954 -0.7994 0.0801
vn -0.0201 0.9812 -0.1922
vn -0.0201 -0.9812 -0.1922
vn -0.0200 0.9812 -0.1922
vn -0.0200 -0.9812 -0.1922
vn 0.5420 0.8340 -0.1032
vn 0.5403 0.8329 -0.1203
vn -0.5534 0.8329 -0.0063
vn -0.5516 0.8340 0.0107
vn 0.5403 -0.8329 -0.1203
vn 0.5420 -0.8340 -0.1032
vn -0.5516 -0.8340 0.0107
vn -0.5534 -0.8329 -0.0063
vn -0.6814 0.6002 0.4188
vn -0.6808 0.6002 0.4198
vn 0.5769 0.8140 -0.0677
vn 0.4771 0.8581 0.1901
vn 0.1644 0.9812 -0.1014
vn 0.0443 0.8581 -0.5116
vn 0.3194 0.8140 -0.4852
vn -0.6801 0.6002 0.4210
vn -0.6807 0.6002 0.4199
vn -0.6808 -0.6002 0.4198
vn -0.6814 -0.6002 0.4188
vn 0.1644 -0.9812 -0.1014
vn 0.4771 -0.8581 0.1901
vn 0.5769 -0.8140 -0.0677
vn 0.3194 -0.8140 -0.4852
vn 0.0443 -0.8581 -0.5116
vn -0.6807 -0.6002 0.4199
vn -0.6801 -0.6002 0.4210
vn 0.3012 0.7995 0.5197
vn 0.2983 0.7992 0.5218
vn 0.3000 0.7994 0.5206
vn -0.3306 0.7994 -0.5017
vn -0.3324 0.7992 -0.5007
vn -0.3292 0.7995 -0.5024
vn 0.3000 -0.7994 0.5206
vn 0.2983 -0.7992 0.5218
vn 0.3012 -0.7995 0.5197
vn -0.3292 -0.7995 -0.5024
vn -0.3324 -0.7992 -0.5007
vn -0.3306 -0.7994 -0.5017
vn 0.1644 0.9812 -0.1015
vn 0.1644 -0.9812 -0.1015
vn 0.1645 0.9812 -0.1014
vn 0.1645 -0.9812 -0.1014
vn 0.3282 0.8340 0.4435
vn 0.3428 0.8329 0.4346
vn -0.2345 0.8329 -0.5014
vn -0.2490 0.8340 -0.4923
vn 0.3428 -0.8329 0.4346
vn 0.3282 -0.8340 0.4435
vn -0.2490 -0.8340 -0.4923
vn -0.2345 -0.8329 -0.5013
vn -0.2192 0.6002 -0.7692
vn -0.2203 0.6002 -0.7689
vn -0.0907 0.8140 0.5738
vn -0.3119 0.8581 0.4080
vn 0.0532 0.9812 0.1857
vn 0.4807 0.8581 0.1808
vn 0.3809 0.8140 0.4386
vn 0.0533 0.9812 0.1857
vn -0.2216 0.6002 -0.7685
vn -0.2205 0.6002 -0.7688
vn -0.2203 -0.6002 -0.7689
vn -0.2192 -0.6002 -0.7692
vn 0.0532 -0.9812 0.1857
vn -0.3119 -0.8581 0.4080
vn -0.0907 -0.8140 0.5738
vn 0.0533 -0.9812 0.1857
vn 0.3809 -0.8140 0.4386
vn 0.4807 -0.8581 0.1808
vn -0.2205 -0.6002 -0.7688
vn -0.2216 -0.6002 -0.7685
vn -0.5817 0.7995 0.1497
vn -0.5830 0.7992 0.1462
vn -0.5822 0.7994 0.1482
vn 0.5723 0.7994 -0.1828
vn 0.5719 0.7992 -0.1848
vn 0.5726 0.7995 -0.1813
vn -0.5822 -0.7994 0.1482
vn -0.5830 -0.7992 0.1462
vn -0.5817 -0.7995 0.1497
vn 0.5726 -0.7995 -0.1813
vn 0.5719 -0.7992 -0.1848
vn 0.5723 -0.7994 -0.1828
vn -0.5156 0.8340 0.1962
vn -0.5110 0.8329 0.2127
vn 0.5461 0.8329 -0.0904
vn 0.5413 0.8340 -0.1068
vn -0.5110 -0.8329 0.2127
vn -0.5156 -0.8340 0.1962
vn 0.5413 -0.8340 -0.1068
vn 0.5461 -0.8329 -0.0904
vn 0.0788 0.7184 -0.6912
vn 0.3803 0.8364 -0.3948
vn -0.0310 0.9863 -0.1622
vn -0.4071 0.8689 -0.2815
vn -0.2574 0.8444 -0.4699
vn -0.2001 -0.9606 -0.1927
vn 0.3803 -0.8364 -0.3948
vn 0.0788 -0.7184 -0.6912
vn -0.2001 -0.9606 -0.1928
vn -0.2574 -0.8444 -0.4699
vn -0.4071 -0.8689 -0.2815
vn 0.3955 0.9136 0.0943
vn 0.0171 0.9990 -0.0413
vn 0.0203 0.9992 -0.0344
vn -0.3277 0.9302 -0.1653
vn 0.0203 -0.9992 -0.0344
vn 0.0171 -0.9990 -0.0413
vn 0.3955 -0.9136 0.0943
vn -0.3277 -0.9302 -0.1653
vn -0.5999 -0.7984 -0.0514
vn -0.4534 -0.8910 0.0229
vn -0.4505 -0.8916 -0.0464
vn -0.1734 0.9843 -0.0329
vn -0.4534 0.8910 0.0229
vn -0.5999 0.7984 -0.0514
vn -0.0854 0.7223 0.6863
vn -0.3837 0.8368 0.3905
vn 0.1101 0.8095 0.5767
vn 0.4087 0.8690 0.2790
vn 0.2606 0.8455 0.4661
vn 0.1101 0.8095 0.5766
vn 0.3646 -0.8621 0.3518
vn -0.3837 -0.8369 0.3904
vn -0.0854 -0.7223 0.6863
vn 0.3646 -0.8621 0.3519
vn 0.2606 -0.8455 0.4661
vn 0.4087 -0.8690 0.2790
vn -0.3955 0.9136 -0.0943
vn -0.0171 0.9990 0.0413
vn -0.0203 0.9992 0.0344
vn 0.3277 0.9302 0.1653
vn -0.0203 -0.9992 0.0344
vn -0.0171 -0.9990 0.0413
vn -0.3955 -0.9136 -0.0943
vn 0.3277 -0.9302 0.1653
vn 0.5999 -0.7984 0.0514
vn 0.4534 -0.8910 -0.0229
vn 0.4505 -0.8916 0.0464
vn -0.0318 0.9994 0.0105
vn 0.4534 0.8910 -0.0229
vn 0.5999 0.7984 0.0514
vn 0.5617 0.8258 0.0503
vn 0.5674 0.8229 0.0301
vn 0.4909 0.8702 0.0425
vn 0.0061 0.9995 -0.0318
vn 0.4909 -0.8702 0.0425
vn 0.5674 -0.8229 0.0301
vn 0.5706 -0.8206 0.0335
vn 0.0061 -0.9995 -0.0318
vn 0.4384 0.8958 0.0726
vn 0.0140 0.9994 -0.0328
vn 0.4384 -0.8958 0.0726
vn 0.0140 -0.9994 -0.0328
vn -0.4909 -0.8702 -0.0425
vn -0.5674 -0.8229 -0.0301
vn -0.5706 -0.8206 -0.0335
vn -0.0061 -0.9995 0.0318
vn -0.4384 -0.8958 -0.0726
vn -0.0140 -0.9994 0.0328
vn -0.0140 0.9994 0.0328
vn -0.4384 0.8958 -0.0726
vn -0.4909 0.8702 -0.0425
vn -0.0061 0.9995 0.0318
vn -0.5674 0.8229 -0.0301
vn 0.4382 0.8916 0.1141
vn 0.3798 0.9139 0.1430
vn -0.4382 0.8916 -0.1141
vn -0.3798 0.9139 -0.1430
vn 0.4382 -0.8916 0.1141
vn 0.3798 -0.9139 0.1430
vn -0.4382 -0.8916 -0.1141
vn -0.3798 -0.9139 -0.1430
vn 0.4088 0.8690 0.2789
vn -0.0310 0.9863 -0.1621
vn -0.3838 0.8368 0.3904
vn 0.4088 -0.8690 0.2789
vn -0.3838 -0.8368 0.3904
vn -0.0013 0.6002 0.7998
vn -0.0001 0.6002 0.7998
vn 0.2453 0.8140 -0.5265
vn 0.4122 0.8581 -0.3063
vn -0.0000 0.9812 -0.1932
vn -0.4122 0.8581 -0.3063
vn -0.2453 0.8140 -0.5265
vn 0.0013 0.6002 0.7998
vn 0.0001 0.6002 0.7998
vn -0.0001 -0.6002 0.7998
vn -0.0013 -0.6002 0.7998
vn -0.0000 -0.9812 -0.1932
vn 0.4122 -0.8581 -0.3063
vn 0.2453 -0.8140 -0.5265
vn -0.2453 -0.8140 -0.5265
vn -0.4122 -0.8581 -0.3063
vn 0.0001 -0.6002 0.7998
vn 0.0013 -0.6002 0.7998
vn 0.6004 0.7995 0.0164
vn 0.6007 0.7992 0.0201
vn 0.6005 0.7994 0.0180
vn -0.6005 0.7994 0.0180
vn -0.6007 0.7992 0.0201
vn -0.6004 0.7995 0.0164
vn 0.6005 -0.7994 0.0180
vn 0.6007 -0.7992 0.0201
vn 0.6004 -0.7995 0.0164
vn -0.6004 -0.7995 0.0164
vn -0.6007 -0.7992 0.0201
vn -0.6005 -0.7994 0.0180
vn -0.0001 0.9812 -0.1932
vn -0.0001 -0.9812 -0.1932
vn 0.0001 0.9812 -0.1932
vn 0.5498 0.8340 -0.0465
vn 0.5498 0.8329 -0.0636
vn -0.5498 0.8329 -0.0636
vn -0.5498 0.8340 -0.0465
vn 0.5498 -0.8329 -0.0636
vn 0.5498 -0.8340 -0.0465
vn -0.5498 -0.8340 -0.0465
vn -0.5498 -0.8329 -0.0636
vn -0.0311 0.9863 -0.1622
vn -0.6955 0.7184 -0.0143
vn -0.4284 0.8364 -0.3420
vn -0.1586 0.9863 0.0460
vn -0.2425 0.8689 0.4314
vn -0.4440 0.8444 0.2999
vn -0.1733 -0.9606 0.2171
vn -0.4284 -0.8364 -0.3420
vn -0.6955 -0.7184 -0.0143
vn -0.4440 -0.8444 0.2999
vn -0.2425 -0.8689 0.4314
vn 0.0572 0.9136 -0.4026
vn -0.0427 0.9990 -0.0132
vn -0.0361 0.9992 -0.0170
vn -0.1341 0.9302 0.3416
vn -0.0361 -0.9992 -0.0170
vn -0.0427 -0.9990 -0.0132
vn 0.0572 -0.9136 -0.4026
vn -0.1341 -0.9302 0.3416
vn 0.0045 -0.7984 0.6021
vn 0.0649 -0.8910 0.4494
vn -0.0044 -0.8916 0.4529
vn -0.0167 0.9843 0.1757
vn 0.0649 0.8910 0.4494
vn 0.0045 0.7984 0.6021
vn 0.6912 0.7223 0.0213
vn 0.4244 0.8368 0.3458
vn 0.5640 0.8095 -0.1631
vn 0.2399 0.8690 -0.4329
vn 0.4399 0.8455 -0.3027
vn 0.5639 0.8095 -0.1632
vn 0.3165 -0.8621 -0.3957
vn 0.4244 -0.8369 0.3458
vn 0.6912 -0.7223 0.0213
vn 0.4399 -0.8455 -0.3027
vn 0.2398 -0.8690 -0.4329
vn -0.0572 0.9136 0.4026
vn 0.0427 0.9990 0.0132
vn 0.0361 0.9992 0.0170
vn 0.1341 0.9302 -0.3416
vn 0.0361 -0.9992 0.0170
vn 0.0427 -0.9990 0.0132
vn -0.0572 -0.9136 0.4026
vn 0.1341 -0.9302 -0.3416
vn -0.0045 -0.7984 -0.6021
vn -0.0649 -0.8910 -0.4494
vn 0.0044 -0.8916 -0.4529
vn 0.0134 0.9994 0.0307
vn -0.0649 0.8910 -0.4494
vn -0.0045 0.7984 -0.6021
vn -0.0020 0.8258 -0.5639
vn -0.0227 0.8229 -0.5678
vn -0.0033 0.8702 -0.4928
vn -0.0322 0.9995 -0.0032
vn -0.0032 0.8702 -0.4928
vn -0.0033 -0.8702 -0.4928
vn -0.0227 -0.8229 -0.5678
vn -0.0196 -0.8206 -0.5712
vn -0.0322 -0.9995 -0.0032
vn 0.0316 0.8958 -0.4433
vn -0.0340 0.9994 -0.0109
vn 0.0316 -0.8958 -0.4433
vn -0.0340 -0.9994 -0.0109
vn 0.0033 -0.8702 0.4928
vn 0.0227 -0.8229 0.5678
vn 0.0196 -0.8206 0.5712
vn 0.0322 -0.9995 0.0032
vn -0.0316 -0.8958 0.4433
vn 0.0340 -0.9994 0.0109
vn 0.0340 0.9994 0.0109
vn -0.0316 0.8958 0.4433
vn 0.0033 0.8702 0.4928
vn 0.0322 0.9995 0.0032
vn 0.0227 0.8229 0.5678
vn 0.0730 0.8916 -0.4469
vn 0.1071 0.9139 -0.3915
vn -0.0730 0.8916 0.4469
vn -0.1071 0.9139 0.3915
vn 0.0730 -0.8916 -0.4469
vn 0.1071 -0.9139 -0.3915
vn -0.0730 -0.8916 0.4469
vn -0.1071 -0.9139 0.3915
vn 0.2398 0.8690 -0.4329
vn -0.1585 0.9863 0.0460
vn 0.4244 0.8368 0.3459
vn -0.1734 -0.9606 0.2171
vn 0.4244 -0.8368 0.3459
vn 0.5335 0.6002 -0.5959
vn 0.5326 0.6002 -0.5967
vn -0.5336 0.8140 0.2295
vn -0.5115 0.8581 -0.0460
vn -0.1286 0.9812 0.1441
vn 0.1036 0.8581 0.5030
vn -0.1676 0.8140 0.5562
vn 0.5316 0.6002 -0.5976
vn 0.5325 0.6002 -0.5968
vn 0.5326 -0.6002 -0.5967
vn 0.5335 -0.6002 -0.5959
vn -0.1286 -0.9812 0.1441
vn -0.5115 -0.8581 -0.0460
vn -0.5336 -0.8140 0.2295
vn -0.1676 -0.8140 0.5562
vn 0.1036 -0.8581 0.5030
vn 0.5325 -0.6002 -0.5968
vn 0.5316 -0.6002 -0.5976
vn -0.4370 0.7995 -0.4120
vn -0.4348 0.7992 -0.4149
vn -0.4361 0.7994 -0.4133
vn 0.4600 0.7994 0.3864
vn 0.4616 0.7992 0.3850
vn 0.4589 0.7995 0.3875
vn -0.4361 -0.7994 -0.4133
vn -0.4348 -0.7992 -0.4149
vn -0.4370 -0.7995 -0.4120
vn 0.4589 -0.7995 0.3875
vn 0.4616 -0.7992 0.3850
vn 0.4600 -0.7994 0.3864
vn -0.1286 0.9812 0.1442
vn -0.1286 -0.9812 0.1442
vn -0.1287 0.9812 0.1441
vn -0.1287 -0.9812 0.1441
vn -0.4411 0.8340 -0.3313
vn -0.4526 0.8329 -0.3186
vn 0.3679 0.8329 0.4135
vn 0.3792 0.8340 0.4007
vn -0.4526 -0.8329 -0.3186
vn -0.4411 -0.8340 -0.3313
vn 0.3792 -0.8340 0.4007
vn 0.3679 -0.8329 0.4135
vn 0.4448 0.6002 0.6647
vn 0.4458 0.6002 0.6641
vn -0.0899 0.8140 -0.5739
vn 0.1715 0.8581 -0.4841
vn -0.1077 0.9812 -0.1604
vn -0.5130 0.8581 -0.0245
vn -0.4971 0.8140 -0.3004
vn 0.4469 0.6002 0.6633
vn 0.4459 0.6002 0.6640
vn 0.4458 -0.6002 0.6641
vn 0.4448 -0.6002 0.6647
vn -0.1077 -0.9812 -0.1604
vn 0.1715 -0.8581 -0.4841
vn -0.0899 -0.8140 -0.5739
vn -0.4971 -0.8140 -0.3004
vn -0.5130 -0.8581 -0.0245
vn 0.4459 -0.6002 0.6640
vn 0.4469 -0.6002 0.6633
vn 0.5077 0.7995 -0.3210
vn 0.5099 0.7992 -0.3182
vn 0.5086 0.7994 -0.3198
vn -0.4886 0.7994 0.3497
vn -0.4875 0.7992 0.3515
vn -0.4893 0.7995 0.3483
vn 0.5086 -0.7994 -0.3198
vn 0.5099 -0.7992 -0.3182
vn 0.5077 -0.7995 -0.3210
vn -0.4893 -0.7995 0.3483
vn -0.4875 -0.7992 0.3515
vn -0.4886 -0.7994 0.3497
vn -0.1076 0.9812 -0.1604
vn 0.4305 0.8340 -0.3451
vn 0.4210 0.8329 -0.3593
vn -0.4919 0.8329 0.2536
vn -0.4823 0.8340 0.2678
vn 0.4210 -0.8329 -0.3593
vn 0.4305 -0.8340 -0.3451
vn -0.4823 -0.8340 0.2678
vn -0.4919 -0.8329 0.2536
vn -0.4059 0.6002 0.6892
vn -0.4049 0.6002 0.6898
vn 0.4780 0.8140 -0.3300
vn 0.5105 0.8581 -0.0555
vn 0.0978 0.9812 -0.1666
vn -0.2005 0.8581 -0.4728
vn 0.0550 0.8140 -0.5783
vn -0.4037 0.6002 0.6904
vn -0.4048 0.6002 0.6898
vn -0.4049 -0.6002 0.6898
vn -0.4059 -0.6002 0.6892
vn 0.0978 -0.9812 -0.1666
vn 0.5105 -0.8581 -0.0555
vn 0.4780 -0.8140 -0.3300
vn 0.0550 -0.8140 -0.5783
vn -0.2005 -0.8581 -0.4728
vn -0.4048 -0.6002 0.6898
vn -0.4037 -0.6002 0.6904
vn 0.5095 0.7995 0.3181
vn 0.5079 0.7992 0.3214
vn 0.5088 0.7994 0.3195
vn -0.5270 0.7994 -0.2884
vn -0.5282 0.7992 -0.2867
vn -0.5262 0.7995 -0.2897
vn 0.5088 -0.7994 0.3195
vn 0.5079 -0.7992 0.3214
vn 0.5095 -0.7995 0.3181
vn -0.5262 -0.7995 -0.2897
vn -0.5282 -0.7992 -0.2867
vn -0.5270 -0.7994 -0.2884
vn 0.0977 0.9812 -0.1667
vn 0.0977 -0.9812 -0.1667
vn 0.4977 0.8340 0.2381
vn 0.5064 0.8329 0.2234
vn -0.4420 0.8329 -0.3332
vn -0.4506 0.8340 -0.3184
vn 0.5064 -0.8329 0.2234
vn 0.4977 -0.8340 0.2381
vn -0.4506 -0.8340 -0.3184
vn -0.4420 -0.8329 -0.3332
vn -0.5539 0.6002 -0.5770
vn -0.5548 0.6002 -0.5761
vn 0.1886 0.8140 0.5494
vn -0.0845 0.8581 0.5066
vn 0.1340 0.9812 0.1391
vn 0.5094 0.8581 -0.0654
vn 0.5419 0.8140 0.2091
vn -0.5557 0.6002 -0.5752
vn -0.5549 0.6002 -0.5760
vn -0.5548 -0.6002 -0.5761
vn -0.5539 -0.6002 -0.5770
vn 0.1340 -0.9812 0.1392
vn -0.0845 -0.8581 0.5066
vn 0.1886 -0.8140 0.5494
vn 0.1340 -0.9812 0.1391
vn 0.5419 -0.8140 0.2091
vn 0.5094 -0.8581 -0.0654
vn -0.5549 -0.6002 -0.5760
vn -0.5557 -0.6002 -0.5752
vn -0.4439 0.7995 0.4047
vn -0.4466 0.7992 0.4022
vn -0.4450 0.7994 0.4036
vn 0.4201 0.7994 -0.4295
vn 0.4187 0.7992 -0.4312
vn 0.4211 0.7995 -0.4284
vn -0.4450 -0.7994 0.4036
vn -0.4466 -0.7992 0.4022
vn -0.4439 -0.7995 0.4047
vn 0.4211 -0.7995 -0.4284
vn 0.4187 -0.7992 -0.4312
vn 0.4201 -0.7994 -0.4295
vn 0.1341 0.9812 0.1391
vn 0.1340 0.9812 0.1392
vn -0.3637 0.8340 0.4149
vn -0.3519 0.8329 0.4272
vn 0.4401 0.8329 -0.3356
vn 0.4282 0.8340 -0.3479
vn -0.3519 -0.8329 0.4272
vn -0.3637 -0.8340 0.4149
vn 0.4282 -0.8340 -0.3479
vn 0.4401 -0.8329 -0.3356
vn 0.7998 0.6002 -0.0079
vn 0.7998 0.6002 -0.0091
vn -0.5293 0.8140 -0.2392
vn -0.3110 0.8581 -0.4087
vn -0.1932 0.9812 0.0022
vn -0.3015 0.8581 0.4157
vn -0.5237 0.8140 0.2513
vn 0.7998 0.6002 -0.0104
vn 0.7998 0.6002 -0.0092
vn 0.7998 -0.6002 -0.0091
vn 0.7998 -0.6002 -0.0079
vn -0.1932 -0.9812 0.0022
vn -0.3110 -0.8581 -0.4087
vn -0.5293 -0.8140 -0.2392
vn -0.5237 -0.8140 0.2513
vn -0.3015 -0.8581 0.4157
vn 0.7998 -0.6002 -0.0092
vn 0.7998 -0.6002 -0.0104
vn 0.0095 0.7995 -0.6006
vn 0.0132 0.7992 -0.6009
vn 0.0111 0.7994 -0.6007
vn 0.0249 0.7994 0.6003
vn 0.0270 0.7992 0.6004
vn 0.0233 0.7995 0.6002
vn 0.0111 -0.7994 -0.6007
vn 0.0132 -0.7992 -0.6009
vn 0.0095 -0.7995 -0.6006
vn 0.0233 -0.7995 0.6002
vn 0.0270 -0.7992 0.6004
vn 0.0249 -0.7994 0.6003
vn -0.1932 0.9812 0.0023
vn -0.1932 -0.9812 0.0023
vn -0.0528 0.8340 -0.5492
vn -0.0699 0.8329 -0.5490
vn -0.0573 0.8329 0.5505
vn -0.0402 0.8340 0.5502
vn -0.0699 -0.8329 -0.5490
vn -0.0528 -0.8340 -0.5492
vn -0.0402 -0.8340 0.5502
vn -0.0573 -0.8329 0.5505
vn -0.1909 0.6002 0.7767
vn -0.1898 0.6002 0.7770
vn 0.3632 0.8140 -0.4534
vn 0.4731 0.8581 -0.1998
vn 0.0458 0.9812 -0.1877
vn -0.3278 0.8581 -0.3953
vn -0.1134 0.8140 -0.5697
vn -0.1885 0.6002 0.7773
vn -0.1896 0.6002 0.7770
vn -0.1898 -0.6002 0.7770
vn -0.1909 -0.6002 0.7767
vn 0.0458 -0.9812 -0.1877
vn 0.4731 -0.8581 -0.1998
vn 0.3632 -0.8140 -0.4533
vn -0.1134 -0.8140 -0.5697
vn -0.3278 -0.8581 -0.3953
vn -0.1896 -0.6002 0.7770
vn -0.1885 -0.6002 0.7773
vn 0.5794 0.7995 0.1584
vn 0.5788 0.7992 0.1620
vn 0.5791 0.7994 0.1599
vn -0.5877 0.7994 -0.1250
vn -0.5883 0.7992 -0.1230
vn -0.5872 0.7995 -0.1264
vn 0.5791 -0.7994 0.1599
vn 0.5788 -0.7992 0.1620
vn 0.5794 -0.7995 0.1584
vn -0.5872 -0.7995 -0.1264
vn -0.5883 -0.7992 -0.1230
vn -0.5877 -0.7994 -0.1250
vn 0.0459 0.9812 -0.1877
vn 0.0459 -0.9812 -0.1877
vn 0.5451 0.8340 0.0852
vn 0.5492 0.8329 0.0686
vn -0.5190 0.8329 -0.1922
vn -0.5230 0.8340 -0.1756
vn 0.5492 -0.8329 0.0686
vn 0.5451 -0.8340 0.0852
vn -0.5230 -0.8340 -0.1756
vn -0.5190 -0.8329 -0.1922
vn -0.7826 0.6002 0.1650
vn -0.7824 0.6002 0.1662
vn 0.5660 0.8140 0.1305
vn 0.3853 0.8581 0.3396
vn 0.1890 0.9812 -0.0401
vn 0.2139 0.8581 -0.4669
vn 0.4641 0.8140 -0.3494
vn 0.1889 0.9812 -0.0402
vn -0.7821 0.6002 0.1675
vn -0.7823 0.6002 0.1663
vn -0.7824 -0.6002 0.1662
vn -0.7826 -0.6002 0.1650
vn 0.1889 -0.9812 -0.0401
vn 0.3853 -0.8581 0.3396
vn 0.5660 -0.8140 0.1305
vn 0.1890 -0.9812 -0.0402
vn 0.4641 -0.8140 -0.3494
vn 0.2139 -0.8581 -0.4669
vn -0.7823 -0.6002 0.1663
vn -0.7821 -0.6002 0.1675
vn 0.1087 0.7995 0.5907
vn 0.1052 0.7992 0.5918
vn 0.1072 0.7994 0.5912
vn -0.1424 0.7994 -0.5837
vn -0.1445 0.7992 -0.5834
vn -0.1409 0.7995 -0.5839
vn 0.1072 -0.7994 0.5912
vn 0.1052 -0.7992 0.5918
vn 0.1087 -0.7995 0.5907
vn -0.1409 -0.7995 -0.5839
vn -0.1445 -0.7992 -0.5834
vn -0.1424 -0.7994 -0.5837
vn 0.1890 0.9812 -0.0402
vn 0.1890 -0.9812 -0.0401
vn 0.1598 0.8340 0.5281
vn 0.1765 0.8329 0.5246
vn -0.0520 0.8329 -0.5510
vn -0.0688 0.8340 -0.5474
vn 0.1765 -0.8329 0.5246
vn 0.1598 -0.8340 0.5281
vn -0.0688 -0.8340 -0.5474
vn -0.0520 -0.8329 -0.5510
vn 0.0525 0.6002 -0.7981
vn 0.0513 0.6002 -0.7982
vn -0.2785 0.8140 0.5098
vn -0.4310 0.8581 0.2792
vn -0.0124 0.9812 0.1928
vn 0.3918 0.8581 0.3320
vn 0.2110 0.8140 0.5412
vn 0.0500 0.6002 -0.7983
vn 0.0512 0.6002 -0.7982
vn 0.0513 -0.6002 -0.7982
vn 0.0525 -0.6002 -0.7981
vn -0.0124 -0.9812 0.1928
vn -0.4310 -0.8581 0.2792
vn -0.2785 -0.8140 0.5098
vn 0.2110 -0.8140 0.5412
vn 0.3918 -0.8581 0.3320
vn 0.0512 -0.6002 -0.7982
vn 0.0500 -0.6002 -0.7983
vn -0.5981 0.7995 -0.0549
vn -0.5982 0.7992 -0.0585
vn -0.5982 0.7994 -0.0564
vn 0.6005 0.7994 0.0205
vn 0.6007 0.7992 0.0184
vn 0.6002 0.7995 0.0221
vn -0.5982 -0.7994 -0.0564
vn -0.5982 -0.7992 -0.0585
vn -0.5981 -0.7995 -0.0549
vn 0.6002 -0.7995 0.0221
vn 0.6007 -0.7992 0.0184
vn 0.6005 -0.7994 0.0205
vn -0.0123 0.9812 0.1928
vn -0.0123 -0.9812 0.1928
vn -0.5516 0.8340 0.0112
vn -0.5528 0.8329 0.0283
vn 0.5446 0.8329 0.0987
vn 0.5456 0.8340 0.0816
vn -0.5528 -0.8329 0.0283
vn -0.5516 -0.8340 0.0112
vn 0.5456 -0.8340 0.0816
vn 0.5446 -0.8329 0.0987
vn 0.6948 0.6002 -0.3962
vn 0.6942 0.6002 -0.3973
vn -0.5788 0.8140 0.0487
vn -0.4706 0.8581 -0.2056
vn -0.1677 0.9812 0.0960
vn -0.0610 0.8581 0.5099
vn -0.3351 0.8140 0.4745
vn -0.1676 0.9812 0.0960
vn 0.6935 0.6002 -0.3984
vn 0.6941 0.6002 -0.3974
vn 0.6942 -0.6002 -0.3973
vn 0.6948 -0.6002 -0.3962
vn -0.1677 -0.9812 0.0960
vn -0.4706 -0.8581 -0.2056
vn -0.5788 -0.8140 0.0487
vn -0.1676 -0.9812 0.0960
vn -0.3351 -0.8140 0.4745
vn -0.0610 -0.8581 0.5099
vn 0.6941 -0.6002 -0.3974
vn 0.6935 -0.6002 -0.3984
vn -0.2840 0.7995 -0.5293
vn -0.2810 0.7992 -0.5313
vn -0.2827 0.7994 -0.5301
vn 0.3139 0.7994 0.5123
vn 0.3158 0.7992 0.5114
vn 0.3125 0.7995 0.5129
vn -0.2827 -0.7994 -0.5301
vn -0.2810 -0.7992 -0.5313
vn -0.2840 -0.7995 -0.5293
vn 0.3125 -0.7995 0.5129
vn 0.3158 -0.7992 0.5114
vn 0.3139 -0.7994 0.5123
vn -0.1677 0.9812 0.0959
vn -0.1677 -0.9812 0.0959
vn -0.3135 0.8340 -0.4540
vn -0.3284 0.8329 -0.4456
vn 0.2179 0.8329 0.5088
vn 0.2327 0.8340 0.5002
vn -0.3284 -0.8329 -0.4456
vn -0.3135 -0.8340 -0.4540
vn 0.2327 -0.8340 0.5002
vn 0.2179 -0.8329 0.5088
vn 0.2113 0.6002 0.7714
vn 0.2125 0.6002 0.7711
vn 0.0965 0.8140 -0.5728
vn 0.3160 0.8581 -0.4048
vn -0.0513 0.9812 -0.1862
vn -0.4788 0.8581 -0.1857
vn -0.3764 0.8140 -0.4424
vn 0.2138 0.6003 0.7707
vn 0.2126 0.6002 0.7710
vn 0.2125 -0.6002 0.7711
vn 0.2113 -0.6002 0.7714
vn -0.0513 -0.9812 -0.1862
vn 0.3160 -0.8581 -0.4048
vn 0.0965 -0.8140 -0.5728
vn -0.3764 -0.8140 -0.4424
vn -0.4788 -0.8581 -0.1857
vn 0.2126 -0.6002 0.7710
vn 0.2138 -0.6002 0.7707
vn 0.5832 0.7995 -0.1437
vn 0.5844 0.7992 -0.1403
vn 0.5837 0.7994 -0.1423
vn -0.5742 0.7994 0.1769
vn -0.5738 0.7992 0.1790
vn -0.5745 0.7995 0.1754
vn 0.5837 -0.7994 -0.1423
vn 0.5844 -0.7992 -0.1403
vn 0.5832 -0.7995 -0.1437
vn -0.5745 -0.7995 0.1754
vn -0.5738 -0.7992 0.1790
vn -0.5742 -0.7994 0.1769
vn -0.0514 0.9812 -0.1863
vn -0.0514 -0.9812 -0.1862
vn -0.0513 0.9812 -0.1863
vn -0.0513 -0.9812 -0.1863
vn 0.5176 0.8340 -0.1909
vn 0.5131 0.8329 -0.2074
vn -0.5469 0.8329 0.0848
vn -0.5423 0.8340 0.1013
vn 0.5131 -0.8329 -0.2074
vn 0.5176 -0.8340 -0.1909
vn -0.5423 -0.8340 0.1013
vn -0.5469 -0.8329 0.0848
vn -0.6033 0.6002 0.5251
vn -0.6025 0.6002 0.5260
vn 0.5580 0.8140 -0.1616
vn 0.5018 0.8581 0.1091
vn 0.1455 0.9812 -0.1270
vn -0.0404 0.8581 -0.5120
vn 0.2353 0.8140 -0.5311
vn 0.1455 0.9812 -0.1271
vn -0.6016 0.6002 0.5270
vn -0.6024 0.6002 0.5261
vn -0.6025 -0.6002 0.5260
vn -0.6033 -0.6002 0.5251
vn 0.1455 -0.9812 -0.1270
vn 0.5018 -0.8581 0.1091
vn 0.5580 -0.8140 -0.1616
vn 0.1455 -0.9812 -0.1271
vn 0.2353 -0.8140 -0.5311
vn -0.0404 -0.8581 -0.5120
vn -0.6024 -0.6002 0.5261
vn -0.6016 -0.6002 0.5270
vn 0.3825 0.7995 0.4631
vn 0.3800 0.7992 0.4657
vn 0.3815 0.7994 0.4642
vn -0.4085 0.7994 -0.4405
vn -0.4102 0.7992 -0.4393
vn -0.4073 0.7995 -0.4415
vn 0.3815 -0.7994 0.4642
vn 0.3800 -0.7992 0.4657
vn 0.3825 -0.7995 0.4631
vn -0.4073 -0.7995 -0.4415
vn -0.4102 -0.7992 -0.4393
vn -0.4085 -0.7994 -0.4405
vn 0.1456 0.9812 -0.1270
vn 0.1456 -0.9812 -0.1271
vn 0.3966 0.8340 0.3835
vn 0.4096 0.8329 0.3723
vn -0.3137 0.8329 -0.4560
vn -0.3266 0.8340 -0.4447
vn 0.4096 -0.8329 0.3723
vn 0.3966 -0.8340 0.3835
vn -0.3266 -0.8340 -0.4447
vn -0.3137 -0.8329 -0.4560
vn -0.3427 0.6002 -0.7227
vn -0.3437 0.6002 -0.7222
vn 0.0049 0.8140 0.5809
vn -0.2406 0.8581 0.4537
vn 0.0830 0.9812 0.1744
vn 0.5038 0.8581 0.0993
vn 0.4478 0.8140 0.3700
vn -0.3449 0.6002 -0.7216
vn -0.3438 0.6002 -0.7221
vn -0.3437 -0.6002 -0.7222
vn -0.3427 -0.6002 -0.7227
vn 0.0830 -0.9812 0.1744
vn -0.2406 -0.8581 0.4537
vn 0.0049 -0.8140 0.5809
vn 0.4478 -0.8140 0.3700
vn 0.5038 -0.8581 0.0993
vn -0.3438 -0.6002 -0.7221
vn -0.3449 -0.6002 -0.7216
vn -0.5492 0.7995 0.2432
vn -0.5510 0.7992 0.2401
vn -0.5500 0.7994 0.2419
vn 0.5345 0.7994 -0.2744
vn 0.5337 0.7992 -0.2763
vn 0.5351 0.7995 -0.2729
vn -0.5500 -0.7994 0.2419
vn -0.5510 -0.7992 0.2401
vn -0.5492 -0.7995 0.2432
vn 0.5351 -0.7995 -0.2729
vn 0.5337 -0.7992 -0.2763
vn 0.5345 -0.7994 -0.2744
vn 0.0831 0.9812 0.1744
vn 0.0831 -0.9812 0.1744
vn 0.0830 0.9812 0.1745
vn 0.0830 -0.9812 0.1745
vn -0.4764 0.8340 0.2783
vn -0.4691 0.8329 0.2938
vn 0.5238 0.8329 -0.1789
vn 0.5164 0.8340 -0.1943
vn -0.4691 -0.8329 0.2938
vn -0.4764 -0.8340 0.2783
vn 0.5164 -0.8340 -0.1943
vn 0.5238 -0.8329 -0.1789
vn 0.2512 0.6002 -0.7593
vn 0.2501 0.6002 -0.7597
vn -0.3976 0.8140 0.4235
vn -0.4873 0.8581 0.1621
vn -0.0604 0.9812 0.1835
vn 0.2958 0.8581 0.4198
vn 0.0684 0.8140 0.5768
vn 0.2488 0.6002 -0.7601
vn 0.2499 0.6002 -0.7598
vn 0.2501 -0.6002 -0.7597
vn 0.2512 -0.6002 -0.7593
vn -0.0604 -0.9812 0.1835
vn -0.4873 -0.8581 0.1621
vn -0.3976 -0.8140 0.4235
vn 0.0684 -0.8140 0.5768
vn 0.2958 -0.8581 0.4198
vn 0.2499 -0.6002 -0.7598
vn 0.2488 -0.6002 -0.7601
vn -0.5652 0.7995 -0.2033
vn -0.5643 0.7992 -0.2068
vn -0.5648 0.7994 -0.2048
vn 0.5761 0.7994 0.1706
vn 0.5769 0.7992 0.1687
vn 0.5755 0.7995 0.1721
vn -0.5648 -0.7994 -0.2048
vn -0.5643 -0.7992 -0.2068
vn -0.5652 -0.7995 -0.2033
vn 0.5755 -0.7995 0.1721
vn 0.5769 -0.7992 0.1687
vn 0.5761 -0.7994 0.1706
vn -0.0604 0.9812 0.1836
vn -0.0603 -0.9812 0.1835
vn -0.5367 0.8340 -0.1277
vn -0.5421 0.8329 -0.1114
vn 0.5024 0.8329 0.2323
vn 0.5077 0.8340 0.2160
vn -0.5421 -0.8329 -0.1114
vn -0.5367 -0.8340 -0.1277
vn 0.5077 -0.8340 0.2160
vn 0.5024 -0.8329 0.2323
vn 0.6732 0.6002 0.4319
vn 0.6738 0.6002 0.4309
vn -0.3115 0.8140 -0.4903
vn -0.0360 0.8581 -0.5123
vn -0.1628 0.9812 -0.1041
vn -0.4801 0.8581 0.1824
vn -0.5757 0.8140 -0.0770
vn -0.1628 0.9812 -0.1040
vn 0.6746 0.6002 0.4298
vn 0.6739 0.6002 0.4308
vn 0.6738 -0.6002 0.4309
vn 0.6732 -0.6002 0.4319
vn -0.1627 -0.9812 -0.1041
vn -0.0360 -0.8581 -0.5123
vn -0.3115 -0.8140 -0.4903
vn -0.1628 -0.9812 -0.1040
vn -0.5757 -0.8140 -0.0770
vn -0.4801 -0.8581 0.1824
vn 0.6739 -0.6002 0.4308
vn 0.6746 -0.6002 0.4298
vn 0.3373 0.7995 -0.4970
vn 0.3405 0.7992 -0.4953
vn 0.3386 0.7994 -0.4963
vn -0.3083 0.7994 0.5157
vn -0.3066 0.7992 0.5169
vn -0.3096 0.7995 0.5147
vn 0.3386 -0.7994 -0.4963
vn 0.3405 -0.7992 -0.4953
vn 0.3373 -0.7995 -0.4970
vn -0.3096 -0.7995 0.5147
vn -0.3066 -0.7992 0.5169
vn -0.3083 -0.7994 0.5157
vn -0.1627 0.9812 -0.1041
vn -0.1628 -0.9812 -0.1041
vn 0.2569 0.8340 -0.4882
vn 0.2425 0.8329 -0.4975
vn -0.3498 0.8329 0.4290
vn -0.3353 0.8340 0.4381
vn 0.2425 -0.8329 -0.4975
vn 0.2569 -0.8340 -0.4882
vn -0.3353 -0.8340 0.4381
vn -0.3498 -0.8329 0.4290
vn -0.0970 0.6002 0.7939
vn -0.0958 0.6002 0.7941
vn 0.3065 0.8140 -0.4934
vn 0.4459 0.8581 -0.2547
vn 0.0231 0.9812 -0.1918
vn -0.3726 0.8581 -0.3534
vn -0.1805 0.8140 -0.5521
vn -0.0945 0.6002 0.7942
vn -0.0957 0.6002 0.7941
vn -0.0958 -0.6002 0.7941
vn -0.0970 -0.6002 0.7939
vn 0.0231 -0.9812 -0.1918
vn 0.4459 -0.8581 -0.2547
vn 0.3065 -0.8140 -0.4934
vn -0.1805 -0.8140 -0.5521
vn -0.3726 -0.8581 -0.3534
vn -0.0957 -0.6002 0.7941
vn -0.0945 -0.6002 0.7942
vn 0.5941 0.7995 0.0882
vn 0.5940 0.7992 0.0918
vn 0.5941 0.7994 0.0897
vn -0.5984 0.7994 -0.0540
vn -0.5988 0.7992 -0.0520
vn -0.5981 0.7995 -0.0556
vn 0.5941 -0.7994 0.0897
vn 0.5940 -0.7992 0.0918
vn 0.5941 -0.7995 0.0882
vn -0.5981 -0.7995 -0.0556
vn -0.5988 -0.7992 -0.0520
vn -0.5984 -0.7994 -0.0540
vn 0.0232 0.9812 -0.1918
vn 0.0232 -0.9812 -0.1918
vn 0.5514 0.8340 0.0196
vn 0.5535 0.8329 0.0026
vn -0.5382 0.8329 -0.1290
vn -0.5402 0.8340 -0.1120
vn 0.5535 -0.8329 0.0026
vn 0.5514 -0.8340 0.0196
vn -0.5402 -0.8340 -0.1120
vn -0.5382 -0.8329 -0.1290
vn -0.7382 0.6002 -0.3078
vn -0.7387 0.6002 -0.3067
vn 0.3923 0.8140 0.4284
vn 0.1248 0.8581 0.4982
vn 0.1784 0.9812 0.0741
vn 0.4409 0.8581 -0.2633
vn 0.5804 0.8140 -0.0247
vn -0.7392 0.6002 -0.3055
vn -0.7387 0.6002 -0.3066
vn -0.7387 -0.6002 -0.3067
vn -0.7382 -0.6002 -0.3078
vn 0.1784 -0.9812 0.0741
vn 0.1248 -0.8581 0.4982
vn 0.3923 -0.8140 0.4284
vn 0.5804 -0.8140 -0.0247
vn 0.4409 -0.8581 -0.2633
vn -0.7387 -0.6002 -0.3066
vn -0.7392 -0.6002 -0.3055
vn -0.2454 0.7995 0.5482
vn -0.2489 0.7992 0.5471
vn -0.2469 0.7994 0.5478
vn 0.2136 0.7994 -0.5615
vn 0.2118 0.7992 -0.5625
vn 0.2150 0.7995 -0.5608
vn -0.2469 -0.7994 0.5478
vn -0.2489 -0.7992 0.5471
vn -0.2454 -0.7995 0.5482
vn 0.2150 -0.7995 -0.5608
vn 0.2118 -0.7992 -0.5625
vn 0.2136 -0.7994 -0.5615
vn 0.1785 0.9812 0.0740
vn 0.1785 -0.9812 0.0740
vn -0.1678 0.8340 0.5256
vn -0.1520 0.8329 0.5322
vn 0.2696 0.8329 -0.4834
vn 0.2537 0.8340 -0.4899
vn -0.1520 -0.8329 0.5322
vn -0.1678 -0.8340 0.5256
vn 0.2537 -0.8340 -0.4899
vn 0.2696 -0.8329 -0.4834
vn 0.1088 0.6002 -0.7924
vn 0.1076 0.6002 -0.7925
vn -0.3138 0.8140 0.4888
vn -0.4497 0.8581 0.2481
vn -0.0260 0.9812 0.1914
vn 0.3673 0.8581 0.3589
vn 0.1723 0.8140 0.5547
vn 0.1063 0.6002 -0.7927
vn 0.1075 0.6002 -0.7926
vn 0.1076 -0.6002 -0.7925
vn 0.1088 -0.6002 -0.7924
vn -0.0260 -0.9812 0.1914
vn -0.4497 -0.8581 0.2481
vn -0.3138 -0.8140 0.4888
vn 0.1723 -0.8140 0.5547
vn 0.3673 -0.8581 0.3589
vn 0.1075 -0.6002 -0.7926
vn 0.1063 -0.6002 -0.7927
vn -0.5928 0.7995 -0.0970
vn -0.5925 0.7992 -0.1007
vn -0.5927 0.7994 -0.0986
vn 0.5975 0.7994 0.0629
vn 0.5979 0.7992 0.0609
vn 0.5972 0.7995 0.0644
vn -0.5927 -0.7994 -0.0986
vn -0.5925 -0.7992 -0.1007
vn -0.5928 -0.7995 -0.0970
vn 0.5972 -0.7995 0.0644
vn 0.5979 -0.7992 0.0609
vn 0.5975 -0.7994 0.0629
vn -0.0259 0.9812 0.1915
vn -0.0259 -0.9812 0.1914
vn -0.0260 -0.9812 0.1915
vn -0.5510 0.8340 -0.0278
vn -0.5534 0.8329 -0.0109
vn 0.5363 0.8329 0.1370
vn 0.5385 0.8340 0.1200
vn -0.5534 -0.8329 -0.0109
vn -0.5510 -0.8340 -0.0278
vn 0.5385 -0.8340 0.1200
vn 0.5363 -0.8329 0.1370
vn 0.7406 0.6002 0.3021
vn 0.7410 0.6002 0.3010
vn -0.3956 0.8140 -0.4254
vn -0.1286 0.8581 -0.4972
vn -0.1790 0.9812 -0.0727
vn -0.4389 0.8581 0.2667
vn -0.5801 0.8140 0.0291
vn 0.7415 0.6002 0.2998
vn 0.7411 0.6002 0.3009
vn 0.7410 -0.6002 0.3010
vn 0.7406 -0.6002 0.3021
vn -0.1790 -0.9812 -0.0727
vn -0.1286 -0.8581 -0.4972
vn -0.3956 -0.8140 -0.4254
vn -0.5801 -0.8140 0.0291
vn -0.4389 -0.8581 0.2667
vn 0.7411 -0.6002 0.3009
vn 0.7415 -0.6002 0.2998
vn 0.2411 0.7995 -0.5501
vn 0.2446 0.7992 -0.5490
vn 0.2426 0.7994 -0.5496
vn -0.2093 0.7994 0.5632
vn -0.2074 0.7992 0.5641
vn -0.2107 0.7995 0.5625
vn 0.2426 -0.7994 -0.5496
vn 0.2446 -0.7992 -0.5490
vn 0.2411 -0.7995 -0.5501
vn -0.2107 -0.7995 0.5625
vn -0.2074 -0.7992 0.5641
vn -0.2093 -0.7994 0.5632
vn -0.1790 -0.9812 -0.0726
vn -0.1790 -0.9812 -0.0728
vn 0.1638 0.8340 -0.5269
vn 0.1479 0.8329 -0.5333
vn -0.2658 0.8329 0.4855
vn -0.2500 0.8340 0.4918
vn 0.1479 -0.8329 -0.5333
vn 0.1638 -0.8340 -0.5269
vn -0.2500 -0.8340 0.4918
vn -0.2658 -0.8329 0.4855
vn 0.0491 0.6002 0.7983
vn 0.0503 0.6002 0.7982
vn 0.2116 0.8140 -0.5410
vn 0.3921 0.8581 -0.3316
vn -0.0122 0.9812 -0.1928
vn -0.4307 0.8581 -0.2797
vn -0.2780 0.8140 -0.5100
vn 0.0517 0.6002 0.7981
vn 0.0505 0.6002 0.7982
vn 0.0503 -0.6002 0.7982
vn 0.0491 -0.6002 0.7983
vn -0.0122 -0.9812 -0.1928
vn 0.3921 -0.8581 -0.3316
vn 0.2116 -0.8140 -0.5410
vn -0.2780 -0.8140 -0.5100
vn -0.4307 -0.8581 -0.2797
vn 0.0505 -0.6002 0.7982
vn 0.0517 -0.6002 0.7982
vn 0.6003 0.7995 -0.0214
vn 0.6008 0.7992 -0.0178
vn 0.6005 0.7994 -0.0199
vn -0.5982 0.7994 0.0558
vn -0.5982 0.7992 0.0579
vn -0.5982 0.7995 0.0542
vn 0.6005 -0.7994 -0.0199
vn 0.6008 -0.7992 -0.0178
vn 0.6003 -0.7995 -0.0214
vn -0.5982 -0.7995 0.0542
vn -0.5982 -0.7992 0.0579
vn -0.5982 -0.7994 0.0558
vn -0.0121 0.9812 -0.1928
vn -0.0121 -0.9812 -0.1928
vn 0.5457 0.8340 -0.0811
vn 0.5447 0.8329 -0.0981
vn -0.5527 0.8329 -0.0288
vn -0.5516 0.8340 -0.0118
vn 0.5447 -0.8329 -0.0981
vn 0.5457 -0.8340 -0.0811
vn -0.5516 -0.8340 -0.0118
vn -0.5527 -0.8329 -0.0288
vn -0.7819 0.6002 -0.1683
vn -0.7822 0.6002 -0.1671
vn 0.4637 0.8140 0.3499
vn 0.2134 0.8581 0.4671
vn 0.1889 0.9812 0.0404
vn 0.3856 0.8581 -0.3392
vn 0.5662 0.8140 -0.1299
vn 0.1889 0.9812 0.0403
vn -0.7824 0.6002 -0.1658
vn -0.7822 0.6002 -0.1670
vn -0.7822 -0.6002 -0.1671
vn -0.7819 -0.6002 -0.1683
vn 0.1889 -0.9812 0.0404
vn 0.2134 -0.8581 0.4671
vn 0.4637 -0.8140 0.3499
vn 0.1889 -0.9812 0.0403
vn 0.5662 -0.8140 -0.1299
vn 0.3856 -0.8581 -0.3392
vn -0.7822 -0.6002 -0.1670
vn -0.7824 -0.6002 -0.1658
vn -0.1415 0.7995 0.5837
vn -0.1451 0.7992 0.5833
vn -0.1430 0.7994 0.5835
vn 0.1079 0.7994 -0.5911
vn 0.1058 0.7992 -0.5916
vn 0.1093 0.7995 -0.5906
vn -0.1430 -0.7994 0.5835
vn -0.1451 -0.7992 0.5833
vn -0.1415 -0.7995 0.5838
vn 0.1093 -0.7995 -0.5906
vn 0.1058 -0.7992 -0.5916
vn 0.1079 -0.7994 -0.5911
vn 0.1890 0.9812 0.0403
vn -0.0693 0.8340 0.5473
vn -0.0526 0.8329 0.5510
vn 0.1771 0.8329 -0.5244
vn 0.1603 0.8340 -0.5279
vn -0.0526 -0.8329 0.5510
vn -0.0693 -0.8340 0.5473
vn 0.1603 -0.8340 -0.5279
vn 0.1771 -0.8329 -0.5244
vt 0.283870 0.604670
vt 0.405000 0.813970
vt 0.223320 0.657000
vt 0.268750 0.719790
vt 0.177920 0.719800
vt 0.041680 0.813990
vt 0.162770 0.604670
vt 0.223320 0.592440
vt 0.223250 0.029060
vt 0.223360 0.970970
vt 0.223330 0.724400
vt 0.908390 0.528730
vt 0.795490 0.543750
vt 0.748010 0.504170
vt 0.691780 0.547570
vt 0.587630 0.481010
vt 0.833720 0.838190
vt 0.860180 0.918420
vt 0.823450 0.845380
vt 0.813210 0.852550
vt 0.727260 0.617550
vt 0.716400 0.638070
vt 0.764550 0.642890
vt 0.700530 0.464600
vt 0.804240 0.460770
vt 0.662300 0.170160
vt 0.635840 0.089930
vt 0.672570 0.162970
vt 0.682810 0.155800
vt 0.768760 0.390800
vt 0.779620 0.370280
vt 0.731470 0.365460
vt 0.799720 0.636050
vt 0.811900 0.729710
vt 0.786010 0.740620
vt 0.822740 0.792860
vt 0.805990 0.802080
vt 0.684120 0.278630
vt 0.696300 0.372290
vt 0.710010 0.267730
vt 0.673280 0.215490
vt 0.690030 0.206270
vt 0.736040 0.256810
vt 0.706900 0.197020
vt 0.759980 0.751540
vt 0.789120 0.811330
s 1
usemtl mat1.012
f 8/1/1 3/2/1 1/3/2
f 3/2/3 12/4/4 1/3/5
f 13/5/6 5/6/7 1/3/8
f 5/6/9 9/7/9 1/3/10
f 6/3/11 3/2/12 8/1/12
f 6/3/13 12/4/14 3/2/15
f 6/3/13 5/6/16 13/5/17
f 6/3/18 9/7/19 5/6/19
f 7/8/20 2/9/21 8/1/22
f 9/7/23 2/9/24 7/8/25
f 8/1/26 2/9/27 10/8/28
f 10/8/29 2/9/30 9/7/31
f 1/3/32 7/8/20 8/1/22
f 8/1/26 10/8/28 6/3/33
f 9/7/23 7/8/25 1/3/5
f 6/3/34 10/8/29 9/7/31
f 12/4/4 4/10/35 11/11/36
f 11/11/37 4/10/38 13/5/6
f 14/11/39 4/10/40 12/4/14
f 13/5/17 4/10/41 14/11/42
f 12/4/4 11/11/36 1/3/5
f 6/3/13 14/11/39 12/4/14
f 1/3/8 11/11/37 13/5/6
f 13/5/17 14/11/42 6/3/13
usemtl mat1.013
f 22/1/43 17/2/43 15/3/44
f 17/2/45 26/4/46 15/3/47
f 27/5/48 19/6/49 15/3/47
f 19/6/50 23/7/50 15/3/51
f 20/3/52 17/2/53 22/1/53
f 20/3/54 26/4/55 17/2/56
f 20/3/54 19/6/57 27/5/58
f 20/3/59 23/7/60 19/6/60
f 21/8/61 16/9/62 22/1/63
f 23/7/64 16/9/65 21/8/66
f 22/1/67 16/9/68 24/8/69
f 24/8/70 16/9/71 23/7/72
f 15/3/73 21/8/61 22/1/63
f 22/1/67 24/8/69 20/3/74
f 23/7/64 21/8/66 15/3/75
f 20/3/76 24/8/70 23/7/72
f 26/4/46 18/10/77 25/11/78
f 25/11/79 18/10/80 27/5/48
f 28/11/81 18/10/82 26/4/55
f 27/5/58 18/10/83 28/11/84
f 26/4/46 25/11/78 15/3/47
f 20/3/54 28/11/81 26/4/55
f 15/3/47 25/11/79 27/5/48
f 27/5/58 28/11/84 20/3/54
usemtl mat1.014
f 36/1/85 31/2/85 29/3/86
f 31/2/87 40/4/88 29/3/89
f 41/5/90 33/6/91 29/3/89
f 33/6/92 37/7/92 29/3/93
f 34/3/94 31/2/95 36/1/95
f 34/3/96 40/4/97 31/2/98
f 34/3/96 33/6/99 41/5/100
f 34/3/101 37/7/102 33/6/102
f 35/8/103 30/9/104 36/1/105
f 37/7/106 30/9/107 35/8/108
f 36/1/109 30/9/110 38/8/111
f 38/8/112 30/9/113 37/7/114
f 29/3/115 35/8/103 36/1/105
f 36/1/109 38/8/111 34/3/116
f 37/7/106 35/8/108 29/3/117
f 34/3/118 38/8/112 37/7/114
f 40/4/88 32/10/119 39/11/120
f 39/11/121 32/10/122 41/5/90
f 42/11/123 32/10/124 40/4/97
f 41/5/100 32/10/125 42/11/126
f 40/4/88 39/11/120 29/3/89
f 34/3/96 42/11/123 40/4/97
f 29/3/89 39/11/121 41/5/90
f 41/5/100 42/11/126 34/3/96
usemtl mat1.015
f 50/1/127 45/2/127 43/3/128
f 45/2/129 54/4/130 43/3/131
f 55/5/132 47/6/133 43/3/134
f 47/6/135 51/7/135 43/3/136
f 48/3/137 45/2/138 50/1/138
f 48/3/139 54/4/140 45/2/141
f 48/3/142 47/6/143 55/5/144
f 48/3/145 51/7/146 47/6/146
f 49/8/147 44/9/148 50/1/149
f 51/7/150 44/9/151 49/8/152
f 50/1/153 44/9/154 52/8/155
f 52/8/156 44/9/157 51/7/158
f 43/3/134 49/8/147 50/1/149
f 50/1/153 52/8/155 48/3/142
f 51/7/150 49/8/152 43/3/131
f 48/3/139 52/8/156 51/7/158
f 54/4/130 46/10/159 53/11/160
f 53/11/161 46/10/162 55/5/132
f 56/11/163 46/10/164 54/4/140
f 55/5/144 46/10/165 56/11/166
f 54/4/130 53/11/160 43/3/131
f 48/3/139 56/11/163 54/4/140
f 43/3/134 53/11/161 55/5/132
f 55/5/144 56/11/166 48/3/142
usemtl mat1
f 58/12/167 59/13/168 57/14/169
f 61/15/170 62/16/171 57/14/169
f 63/14/172 59/13/173 58/12/174
f 63/14/175 62/16/176 61/15/177
f 77/17/178 60/18/179 76/19/180
f 76/19/180 60/18/179 78/20/181
f 79/19/182 60/18/183 77/17/184
f 78/20/185 60/18/183 79/19/182
f 80/21/186 66/22/187 67/23/188
f 64/23/189 66/22/190 80/21/191
f 62/16/192 81/24/193 57/14/194
f 83/25/195 58/12/196 57/14/197
f 63/14/198 81/24/199 62/16/200
f 63/14/201 58/12/202 83/25/203
f 97/26/204 82/27/205 96/28/206
f 96/28/206 82/27/205 98/29/207
f 99/28/208 82/27/209 97/26/210
f 98/29/211 82/27/209 99/28/208
f 100/30/212 86/31/213 87/32/214
f 84/32/215 86/31/216 100/30/217
f 64/23/218 65/33/219 69/34/220
f 68/35/221 64/23/189 69/34/220
f 69/34/222 65/33/223 67/23/224
f 71/35/225 69/34/222 67/23/188
f 68/35/221 69/34/220 73/36/226
f 72/37/227 68/35/221 73/36/226
f 73/36/228 69/34/222 71/35/225
f 75/37/229 73/36/228 71/35/225
f 72/37/227 73/36/226 77/17/178
f 76/19/180 72/37/227 77/17/178
f 77/17/184 73/36/228 75/37/229
f 79/19/182 77/17/184 75/37/229
f 89/38/230 85/39/231 87/32/232
f 91/40/233 89/38/230 87/32/214
f 93/41/234 89/38/230 91/40/233
f 95/42/235 93/41/234 91/40/233
f 92/42/236 93/41/237 97/26/204
f 96/28/206 92/42/236 97/26/204
f 97/26/210 93/41/234 95/42/235
f 99/28/208 97/26/210 95/42/235
f 89/38/238 88/40/239 84/32/215
f 84/32/215 85/39/240 89/38/238
f 93/41/237 92/42/236 88/40/239
f 88/40/239 89/38/238 93/41/237
f 90/43/241 86/31/216 84/32/215
f 84/32/215 88/40/239 90/43/241
f 94/44/242 90/43/241 88/40/239
f 88/40/239 92/42/236 94/44/242
f 92/42/236 96/28/206 98/29/207
f 98/29/207 94/44/242 92/42/236
f 70/45/243 66/22/190 64/23/189
f 64/23/189 68/35/221 70/45/243
f 74/46/244 70/45/243 68/35/221
f 68/35/221 72/37/227 74/46/244
f 78/20/181 74/46/244 72/37/227
f 72/37/227 76/19/180 78/20/181
f 87/32/214 86/31/213 90/43/245
f 90/43/245 91/40/233 87/32/214
f 94/44/246 95/42/235 91/40/233
f 91/40/233 90/43/245 94/44/246
f 98/29/211 99/28/208 95/42/235
f 95/42/235 94/44/246 98/29/211
f 70/45/247 71/35/225 67/23/188
f 67/23/188 66/22/187 70/45/247
f 71/35/225 70/45/247 74/46/248
f 74/46/248 75/37/229 71/35/225
f 78/20/185 79/19/182 75/37/229
f 75/37/229 74/46/248 78/20/185
f 84/32/215 100/30/217 83/25/249
f 83/25/249 57/14/250 84/32/215
f 81/24/251 85/39/240 84/32/215
f 84/32/215 57/14/250 81/24/251
f 59/13/168 65/33/219 64/23/189
f 64/23/189 57/14/169 59/13/168
f 61/15/170 57/14/169 64/23/189
f 64/23/189 80/21/191 61/15/170
f 61/15/177 80/21/186 67/23/188
f 67/23/188 63/14/175 61/15/177
f 59/13/173 63/14/198 67/23/224
f 67/23/224 65/33/223 59/13/173
f 83/25/252 100/30/212 87/32/214
f 87/32/214 63/14/175 83/25/252
f 81/24/253 63/14/175 87/32/232
f 87/32/232 85/39/231 81/24/253
f 108/1/254 103/2/254 101/3/255
f 103/2/256 112/4/257 101/3/258
f 113/5/259 105/6/260 101/3/258
f 105/6/261 109/7/261 101/3/262
f 106/3/263 103/2/264 108/1/264
f 106/3/265 112/4/266 103/2/267
f 106/3/265 105/6/268 113/5/269
f 106/3/270 109/7/271 105/6/271
f 107/8/272 102/9/273 108/1/274
f 109/7/275 102/9/276 107/8/277
f 108/1/278 102/9/279 110/8/280
f 110/8/281 102/9/282 109/7/283
f 101/3/284 107/8/272 108/1/274
f 108/1/278 110/8/280 106/3/285
f 109/7/275 107/8/277 101/3/286
f 106/3/265 110/8/281 109/7/283
f 112/4/257 104/10/287 111/11/288
f 111/11/289 104/10/290 113/5/259
f 114/11/291 104/10/292 112/4/266
f 113/5/269 104/10/293 114/11/294
f 112/4/257 111/11/288 101/3/258
f 106/3/265 114/11/291 112/4/266
f 101/3/258 111/11/289 113/5/259
f 113/5/269 114/11/294 106/3/265
usemtl mat1.001
f 116/12/167 117/13/168 115/14/295
f 119/15/170 120/16/171 115/14/295
f 121/14/172 117/13/173 116/12/174
f 121/14/175 120/16/176 119/15/177
f 135/17/178 118/18/179 134/19/180
f 134/19/180 118/18/179 136/20/181
f 137/19/182 118/18/183 135/17/184
f 136/20/185 118/18/183 137/19/182
f 138/21/186 124/22/187 125/23/188
f 122/23/189 124/22/190 138/21/191
f 120/16/192 139/24/193 115/14/194
f 141/25/195 116/12/196 115/14/197
f 121/14/198 139/24/199 120/16/200
f 121/14/201 116/12/202 141/25/203
f 155/26/204 140/27/205 154/28/206
f 154/28/206 140/27/205 156/29/207
f 157/28/208 140/27/209 155/26/210
f 156/29/211 140/27/209 157/28/208
f 158/30/212 144/31/213 145/32/214
f 142/32/215 144/31/216 158/30/217
f 122/23/218 123/33/219 127/34/220
f 126/35/221 122/23/189 127/34/220
f 127/34/222 123/33/223 125/23/224
f 129/35/225 127/34/222 125/23/188
f 126/35/221 127/34/220 131/36/226
f 130/37/227 126/35/221 131/36/226
f 131/36/228 127/34/222 129/35/225
f 133/37/229 131/36/228 129/35/225
f 130/37/227 131/36/226 135/17/178
f 134/19/180 130/37/227 135/17/178
f 135/17/184 131/36/228 133/37/229
f 137/19/182 135/17/184 133/37/229
f 147/38/230 143/39/231 145/32/232
f 149/40/233 147/38/230 145/32/214
f 151/41/234 147/38/230 149/40/233
f 153/42/235 151/41/234 149/40/233
f 150/42/236 151/41/237 155/26/204
f 154/28/206 150/42/236 155/26/204
f 155/26/210 151/41/234 153/42/235
f 157/28/208 155/26/210 153/42/235
f 147/38/238 146/40/239 142/32/215
f 142/32/215 143/39/240 147/38/238
f 151/41/237 150/42/236 146/40/239
f 146/40/239 147/38/238 151/41/237
f 148/43/241 144/31/216 142/32/215
f 142/32/215 146/40/239 148/43/241
f 152/44/242 148/43/241 146/40/239
f 146/40/239 150/42/236 152/44/242
f 150/42/236 154/28/206 156/29/207
f 156/29/207 152/44/242 150/42/236
f 128/45/243 124/22/190 122/23/189
f 122/23/189 126/35/221 128/45/243
f 132/46/244 128/45/243 126/35/221
f 126/35/221 130/37/227 132/46/244
f 136/20/181 132/46/244 130/37/227
f 130/37/227 134/19/180 136/20/181
f 145/32/214 144/31/213 148/43/245
f 148/43/245 149/40/233 145/32/214
f 152/44/246 153/42/235 149/40/233
f 149/40/233 148/43/245 152/44/246
f 156/29/211 157/28/208 153/42/235
f 153/42/235 152/44/246 156/29/211
f 128/45/247 129/35/225 125/23/188
f 125/23/188 124/22/187 128/45/247
f 129/35/225 128/45/247 132/46/248
f 132/46/248 133/37/229 129/35/225
f 136/20/185 137/19/182 133/37/229
f 133/37/229 132/46/248 136/20/185
f 142/32/215 158/30/217 141/25/249
f 141/25/249 115/14/250 142/32/215
f 139/24/251 143/39/240 142/32/215
f 142/32/215 115/14/250 139/24/251
f 117/13/168 123/33/219 122/23/189
f 122/23/189 115/14/295 117/13/168
f 119/15/170 115/14/295 122/23/189
f 122/23/189 138/21/191 119/15/170
f 119/15/177 138/21/186 125/23/188
f 125/23/188 121/14/175 119/15/177
f 117/13/173 121/14/198 125/23/224
f 125/23/224 123/33/223 117/13/173
f 141/25/252 158/30/212 145/32/214
f 145/32/214 121/14/175 141/25/252
f 139/24/253 121/14/175 145/32/232
f 145/32/232 143/39/231 139/24/253
usemtl mat1.002
f 160/12/296 161/13/297 159/14/298
f 163/15/299 164/16/300 159/14/298
f 165/14/301 161/13/302 160/12/303
f 165/14/301 164/16/304 163/15/305
f 179/17/306 162/18/307 178/19/308
f 178/19/308 162/18/307 180/20/309
f 181/19/310 162/18/311 179/17/312
f 180/20/313 162/18/311 181/19/310
f 182/21/314 168/22/315 169/23/316
f 166/23/317 168/22/318 182/21/319
f 164/16/320 183/24/321 159/14/322
f 185/25/323 160/12/324 159/14/325
f 165/14/326 183/24/327 164/16/328
f 165/14/326 160/12/329 185/25/330
f 199/26/331 184/27/332 198/28/333
f 198/28/333 184/27/332 200/29/334
f 201/28/335 184/27/336 199/26/337
f 200/29/338 184/27/336 201/28/335
f 202/30/339 188/31/340 189/32/341
f 186/32/342 188/31/343 202/30/344
f 166/23/345 167/33/346 171/34/347
f 170/35/348 166/23/317 171/34/349
f 171/34/350 167/33/351 169/23/352
f 173/35/353 171/34/350 169/23/316
f 170/35/348 171/34/349 175/36/354
f 174/37/355 170/35/348 175/36/354
f 175/36/356 171/34/350 173/35/353
f 177/37/357 175/36/356 173/35/353
f 174/37/355 175/36/354 179/17/306
f 178/19/308 174/37/355 179/17/306
f 179/17/312 175/36/356 177/37/357
f 181/19/310 179/17/312 177/37/357
f 191/38/358 187/39/359 189/32/360
f 193/40/361 191/38/358 189/32/341
f 195/41/362 191/38/358 193/40/361
f 197/42/363 195/41/362 193/40/361
f 194/42/364 195/41/365 199/26/331
f 198/28/333 194/42/364 199/26/331
f 199/26/337 195/41/362 197/42/363
f 201/28/335 199/26/337 197/42/363
f 191/38/366 190/40/367 186/32/342
f 186/32/342 187/39/368 191/38/366
f 195/41/365 194/42/364 190/40/367
f 190/40/367 191/38/366 195/41/365
f 192/43/369 188/31/343 186/32/342
f 186/32/342 190/40/367 192/43/369
f 196/44/370 192/43/369 190/40/367
f 190/40/367 194/42/364 196/44/370
f 194/42/364 198/28/333 200/29/334
f 200/29/334 196/44/370 194/42/364
f 172/45/371 168/22/318 166/23/317
f 166/23/317 170/35/348 172/45/371
f 176/46/372 172/45/371 170/35/348
f 170/35/348 174/37/355 176/46/372
f 180/20/309 176/46/372 174/37/355
f 174/37/355 178/19/308 180/20/309
f 189/32/341 188/31/340 192/43/373
f 192/43/373 193/40/361 189/32/341
f 196/44/374 197/42/363 193/40/361
f 193/40/361 192/43/373 196/44/374
f 200/29/338 201/28/335 197/42/363
f 197/42/363 196/44/374 200/29/338
f 172/45/375 173/35/353 169/23/316
f 169/23/316 168/22/315 172/45/375
f 173/35/353 172/45/375 176/46/376
f 176/46/376 177/37/357 173/35/353
f 180/20/313 181/19/310 177/37/357
f 177/37/357 176/46/376 180/20/313
f 186/32/342 202/30/344 185/25/377
f 185/25/377 159/14/378 186/32/342
f 183/24/379 187/39/368 186/32/342
f 186/32/342 159/14/378 183/24/379
f 161/13/297 167/33/346 166/23/317
f 166/23/317 159/14/298 161/13/297
f 163/15/299 159/14/298 166/23/317
f 166/23/317 182/21/319 163/15/299
f 163/15/305 182/21/314 169/23/316
f 169/23/316 165/14/301 163/15/305
f 161/13/302 165/14/326 169/23/352
f 169/23/352 167/33/351 161/13/302
f 185/25/330 202/30/339 189/32/341
f 189/32/341 165/14/380 185/25/330
f 183/24/381 165/14/380 189/32/360
f 189/32/360 187/39/359 183/24/381
usemtl mat1.003
f 204/12/296 205/13/297 203/14/298
f 207/15/299 208/16/300 203/14/298
f 209/14/301 205/13/302 204/12/303
f 209/14/301 208/16/304 207/15/305
f 223/17/306 206/18/307 222/19/308
f 222/19/308 206/18/307 224/20/309
f 225/19/310 206/18/311 223/17/312
f 224/20/313 206/18/311 225/19/310
f 226/21/314 212/22/315 213/23/316
f 210/23/317 212/22/318 226/21/319
f 208/16/320 227/24/321 203/14/322
f 229/25/323 204/12/324 203/14/325
f 209/14/326 227/24/327 208/16/328
f 209/14/326 204/12/329 229/25/330
f 243/26/331 228/27/332 242/28/333
f 242/28/333 228/27/332 244/29/334
f 245/28/335 228/27/336 243/26/337
f 244/29/338 228/27/336 245/28/335
f 246/30/339 232/31/340 233/32/341
f 230/32/342 232/31/343 246/30/344
f 210/23/345 211/33/346 215/34/347
f 214/35/348 210/23/317 215/34/349
f 215/34/350 211/33/351 213/23/352
f 217/35/353 215/34/350 213/23/316
f 214/35/348 215/34/349 219/36/354
f 218/37/355 214/35/348 219/36/354
f 219/36/356 215/34/350 217/35/353
f 221/37/357 219/36/356 217/35/353
f 218/37/355 219/36/354 223/17/306
f 222/19/308 218/37/355 223/17/306
f 223/17/312 219/36/356 221/37/357
f 225/19/310 223/17/312 221/37/357
f 235/38/358 231/39/359 233/32/360
f 237/40/361 235/38/358 233/32/341
f 239/41/362 235/38/358 237/40/361
f 241/42/363 239/41/362 237/40/361
f 238/42/364 239/41/365 243/26/331
f 242/28/333 238/42/364 243/26/331
f 243/26/337 239/41/362 241/42/363
f 245/28/335 243/26/337 241/42/363
f 235/38/366 234/40/367 230/32/342
f 230/32/342 231/39/368 235/38/366
f 239/41/365 238/42/364 234/40/367
f 234/40/367 235/38/366 239/41/365
f 236/43/369 232/31/343 230/32/342
f 230/32/342 234/40/367 236/43/369
f 240/44/370 236/43/369 234/40/367
f 234/40/367 238/42/364 240/44/370
f 238/42/364 242/28/333 244/29/334
f 244/29/334 240/44/370 238/42/364
f 216/45/371 212/22/318 210/23/317
f 210/23/317 214/35/348 216/45/371
f 220/46/372 216/45/371 214/35/348
f 214/35/348 218/37/355 220/46/372
f 224/20/309 220/46/372 218/37/355
f 218/37/355 222/19/308 224/20/309
f 233/32/341 232/31/340 236/43/373
f 236/43/373 237/40/361 233/32/341
f 240/44/374 241/42/363 237/40/361
f 237/40/361 236/43/373 240/44/374
f 244/29/338 245/28/335 241/42/363
f 241/42/363 240/44/374 244/29/338
f 216/45/375 217/35/353 213/23/316
f 213/23/316 212/22/315 216/45/375
f 217/35/353 216/45/375 220/46/376
f 220/46/376 221/37/357 217/35/353
f 224/20/313 225/19/310 221/37/357
f 221/37/357 220/46/376 224/20/313
f 230/32/342 246/30/344 229/25/377
f 229/25/377 203/14/378 230/32/342
f 227/24/379 231/39/368 230/32/342
f 230/32/342 203/14/378 227/24/379
f 205/13/297 211/33/346 210/23/317
f 210/23/317 203/14/298 205/13/297
f 207/15/299 203/14/298 210/23/317
f 210/23/317 226/21/319 207/15/299
f 207/15/305 226/21/314 213/23/316
f 213/23/316 209/14/301 207/15/305
f 205/13/302 209/14/326 213/23/352
f 213/23/352 211/33/351 205/13/302
f 229/25/330 246/30/339 233/32/341
f 233/32/341 209/14/380 229/25/330
f 227/24/381 209/14/380 233/32/360
f 233/32/360 231/39/359 227/24/381
usemtl mat1.006
f 254/1/382 249/2/382 247/3/383
f 249/2/384 258/4/385 247/3/386
f 259/5/387 251/6/388 247/3/386
f 251/6/389 255/7/389 247/3/390
f 252/3/391 249/2/392 254/1/392
f 252/3/393 258/4/394 249/2/395
f 252/3/393 251/6/396 259/5/397
f 252/3/398 255/7/399 251/6/399
f 253/8/400 248/9/401 254/1/402
f 255/7/403 248/9/404 253/8/405
f 254/1/406 248/9/407 256/8/408
f 256/8/409 248/9/410 255/7/411
f 247/3/412 253/8/400 254/1/402
f 254/1/406 256/8/408 252/3/413
f 255/7/403 253/8/405 247/3/414
f 252/3/415 256/8/409 255/7/411
f 258/4/385 250/10/416 257/11/417
f 257/11/418 250/10/419 259/5/387
f 260/11/420 250/10/421 258/4/394
f 259/5/397 250/10/422 260/11/423
f 258/4/385 257/11/417 247/3/386
f 252/3/393 260/11/420 258/4/394
f 247/3/386 257/11/418 259/5/387
f 259/5/397 260/11/423 252/3/393
usemtl mat1.004
f 268/1/424 263/2/424 261/3/425
f 263/2/426 272/4/427 261/3/428
f 273/5/429 265/6/430 261/3/428
f 265/6/431 269/7/431 261/3/432
f 266/3/433 263/2/434 268/1/434
f 266/3/435 272/4/436 263/2/437
f 266/3/435 265/6/438 273/5/439
f 266/3/440 269/7/441 265/6/441
f 267/8/442 262/9/443 268/1/444
f 269/7/445 262/9/446 267/8/447
f 268/1/448 262/9/449 270/8/450
f 270/8/451 262/9/452 269/7/453
f 261/3/428 267/8/442 268/1/444
f 268/1/448 270/8/450 266/3/435
f 269/7/445 267/8/447 261/3/454
f 266/3/435 270/8/451 269/7/453
f 272/4/427 264/10/455 271/11/456
f 271/11/457 264/10/458 273/5/429
f 274/11/459 264/10/460 272/4/436
f 273/5/439 264/10/461 274/11/462
f 272/4/427 271/11/456 261/3/428
f 266/3/435 274/11/459 272/4/436
f 261/3/428 271/11/457 273/5/429
f 273/5/439 274/11/462 266/3/435
usemtl mat1.005
f 282/1/463 277/2/463 275/3/464
f 277/2/465 286/4/466 275/3/467
f 287/5/468 279/6/469 275/3/467
f 279/6/470 283/7/470 275/3/471
f 280/3/472 277/2/473 282/1/473
f 280/3/474 286/4/475 277/2/476
f 280/3/474 279/6/477 287/5/478
f 280/3/479 283/7/480 279/6/480
f 281/8/481 276/9/482 282/1/483
f 283/7/484 276/9/485 281/8/486
f 282/1/487 276/9/488 284/8/489
f 284/8/490 276/9/491 283/7/492
f 275/3/493 281/8/481 282/1/483
f 282/1/487 284/8/489 280/3/494
f 283/7/484 281/8/486 275/3/467
f 280/3/474 284/8/490 283/7/492
f 286/4/466 278/10/495 285/11/496
f 285/11/497 278/10/498 287/5/468
f 288/11/499 278/10/500 286/4/475
f 287/5/478 278/10/501 288/11/502
f 286/4/466 285/11/496 275/3/467
f 280/3/474 288/11/499 286/4/475
f 275/3/467 285/11/497 287/5/468
f 287/5/478 288/11/502 280/3/474
usemtl mat1.007
f 296/1/503 291/2/503 289/3/504
f 291/2/505 300/4/506 289/3/507
f 301/5/508 293/6/509 289/3/507
f 293/6/510 297/7/510 289/3/511
f 294/3/512 291/2/513 296/1/513
f 294/3/514 300/4/515 291/2/516
f 294/3/517 293/6/518 301/5/519
f 294/3/520 297/7/521 293/6/521
f 295/8/522 290/9/523 296/1/524
f 297/7/525 290/9/526 295/8/527
f 296/1/528 290/9/529 298/8/530
f 298/8/531 290/9/532 297/7/533
f 289/3/534 295/8/522 296/1/524
f 296/1/528 298/8/530 294/3/517
f 297/7/525 295/8/527 289/3/535
f 294/3/514 298/8/531 297/7/533
f 300/4/506 292/10/536 299/11/537
f 299/11/538 292/10/539 301/5/508
f 302/11/540 292/10/541 300/4/515
f 301/5/519 292/10/542 302/11/543
f 300/4/506 299/11/537 289/3/507
f 294/3/514 302/11/540 300/4/515
f 289/3/507 299/11/538 301/5/508
f 301/5/519 302/11/543 294/3/517
usemtl mat1.008
f 310/1/544 305/2/544 303/3/545
f 305/2/546 314/4/547 303/3/548
f 315/5/549 307/6/550 303/3/548
f 307/6/551 311/7/551 303/3/552
f 308/3/553 305/2/554 310/1/554
f 308/3/555 314/4/556 305/2/557
f 308/3/555 307/6/558 315/5/559
f 308/3/560 311/7/561 307/6/561
f 309/8/562 304/9/563 310/1/564
f 311/7/565 304/9/566 309/8/567
f 310/1/568 304/9/569 312/8/570
f 312/8/571 304/9/572 311/7/573
f 303/3/574 309/8/562 310/1/564
f 310/1/568 312/8/570 308/3/575
f 311/7/565 309/8/567 303/3/548
f 308/3/555 312/8/571 311/7/573
f 314/4/547 306/10/576 313/11/577
f 313/11/578 306/10/579 315/5/549
f 316/11/580 306/10/581 314/4/556
f 315/5/559 306/10/582 316/11/583
f 314/4/547 313/11/577 303/3/548
f 308/3/555 316/11/580 314/4/556
f 303/3/548 313/11/578 315/5/549
f 315/5/559 316/11/583 308/3/555
usemtl mat1.009
f 324/1/584 319/2/584 317/3/585
f 319/2/586 328/4/587 317/3/588
f 329/5/589 321/6/590 317/3/588
f 321/6/591 325/7/591 317/3/592
f 322/3/593 319/2/594 324/1/594
f 322/3/595 328/4/596 319/2/597
f 322/3/595 321/6/598 329/5/599
f 322/3/600 325/7/601 321/6/601
f 323/8/602 318/9/603 324/1/604
f 325/7/605 318/9/606 323/8/607
f 324/1/608 318/9/609 326/8/610
f 326/8/611 318/9/612 325/7/613
f 317/3/588 323/8/602 324/1/604
f 324/1/608 326/8/610 322/3/595
f 325/7/605 323/8/607 317/3/614
f 322/3/615 326/8/611 325/7/613
f 328/4/587 320/10/616 327/11/617
f 327/11/618 320/10/619 329/5/589
f 330/11/620 320/10/621 328/4/596
f 329/5/599 320/10/622 330/11/623
f 328/4/587 327/11/617 317/3/588
f 322/3/595 330/11/620 328/4/596
f 317/3/588 327/11/618 329/5/589
f 329/5/599 330/11/623 322/3/595
usemtl mat1.010
f 338/1/624 333/2/624 331/3/625
f 333/2/626 342/4/627 331/3/628
f 343/5/629 335/6/630 331/3/631
f 335/6/632 339/7/632 331/3/633
f 336/3/634 333/2/635 338/1/635
f 336/3/636 342/4/637 333/2/638
f 336/3/639 335/6/640 343/5/641
f 336/3/642 339/7/643 335/6/643
f 337/8/644 332/9/645 338/1/646
f 339/7/647 332/9/648 337/8/649
f 338/1/650 332/9/651 340/8/652
f 340/8/653 332/9/654 339/7/655
f 331/3/656 337/8/644 338/1/646
f 338/1/650 340/8/652 336/3/639
f 339/7/647 337/8/649 331/3/628
f 336/3/657 340/8/653 339/7/655
f 342/4/627 334/10/658 341/11/659
f 341/11/660 334/10/661 343/5/629
f 344/11/662 334/10/663 342/4/637
f 343/5/641 334/10/664 344/11/665
f 342/4/627 341/11/659 331/3/628
f 336/3/636 344/11/662 342/4/637
f 331/3/631 341/11/660 343/5/629
f 343/5/641 344/11/665 336/3/639
usemtl mat1.011
f 352/1/666 347/2/666 345/3/667
f 347/2/668 356/4/669 345/3/670
f 357/5/671 349/6/672 345/3/670
f 349/6/673 353/7/673 345/3/674
f 350/3/675 347/2/676 352/1/676
f 350/3/677 356/4/678 347/2/679
f 350/3/677 349/6/680 357/5/681
f 350/3/682 353/7/683 349/6/683
f 351/8/684 346/9/685 352/1/686
f 353/7/687 346/9/688 351/8/689
f 352/1/690 346/9/691 354/8/692
f 354/8/693 346/9/694 353/7/695
f 345/3/696 351/8/684 352/1/686
f 352/1/690 354/8/692 350/3/697
f 353/7/687 351/8/689 345/3/670
f 350/3/677 354/8/693 353/7/695
f 356/4/669 348/10/698 355/11/699
f 355/11/700 348/10/701 357/5/671
f 358/11/702 348/10/703 356/4/678
f 357/5/681 348/10/704 358/11/705
f 356/4/669 355/11/699 345/3/670
f 350/3/677 358/11/702 356/4/678
f 345/3/670 355/11/700 357/5/671
f 357/5/681 358/11/705 350/3/677
usemtl mat1.016
f 366/1/706 361/2/706 359/3/707
f 361/2/708 370/4/709 359/3/710
f 371/5/711 363/6/712 359/3/713
f 363/6/714 367/7/714 359/3/715
f 364/3/716 361/2/717 366/1/717
f 364/3/718 370/4/719 361/2/720
f 364/3/721 363/6/722 371/5/723
f 364/3/724 367/7/725 363/6/725
f 365/8/726 360/9/727 366/1/728
f 367/7/729 360/9/730 365/8/731
f 366/1/732 360/9/733 368/8/734
f 368/8/735 360/9/736 367/7/737
f 359/3/710 365/8/726 366/1/728
f 366/1/732 368/8/734 364/3/721
f 367/7/729 365/8/731 359/3/738
f 364/3/739 368/8/735 367/7/737
f 370/4/709 362/10/740 369/11/741
f 369/11/742 362/10/743 371/5/711
f 372/11/744 362/10/745 370/4/719
f 371/5/723 362/10/746 372/11/747
f 370/4/709 369/11/741 359/3/710
f 364/3/718 372/11/744 370/4/719
f 359/3/713 369/11/742 371/5/711
f 371/5/723 372/11/747 364/3/721
usemtl mat1.017
f 380/1/748 375/2/748 373/3/749
f 375/2/750 384/4/751 373/3/752
f 385/5/753 377/6/754 373/3/752
f 377/6/755 381/7/755 373/3/756
f 378/3/757 375/2/758 380/1/758
f 378/3/759 384/4/760 375/2/761
f 378/3/759 377/6/762 385/5/763
f 378/3/764 381/7/765 377/6/765
f 379/8/766 374/9/767 380/1/768
f 381/7/769 374/9/770 379/8/771
f 380/1/772 374/9/773 382/8/774
f 382/8/775 374/9/776 381/7/777
f 373/3/778 379/8/766 380/1/768
f 380/1/772 382/8/774 378/3/779
f 381/7/769 379/8/771 373/3/780
f 378/3/781 382/8/775 381/7/777
f 384/4/751 376/10/782 383/11/783
f 383/11/784 376/10/785 385/5/753
f 386/11/786 376/10/787 384/4/760
f 385/5/763 376/10/788 386/11/789
f 384/4/751 383/11/783 373/3/752
f 378/3/759 386/11/786 384/4/760
f 373/3/752 383/11/784 385/5/753
f 385/5/763 386/11/789 378/3/759
usemtl mat1.018
f 394/1/790 389/2/790 387/3/791
f 389/2/792 398/4/793 387/3/794
f 399/5/795 391/6/796 387/3/797
f 391/6/798 395/7/798 387/3/799
f 392/3/800 389/2/801 394/1/801
f 392/3/802 398/4/803 389/2/804
f 392/3/805 391/6/806 399/5/807
f 392/3/808 395/7/809 391/6/809
f 393/8/810 388/9/811 394/1/812
f 395/7/813 388/9/814 393/8/815
f 394/1/816 388/9/817 396/8/818
f 396/8/819 388/9/820 395/7/821
f 387/3/797 393/8/810 394/1/812
f 394/1/816 396/8/818 392/3/805
f 395/7/813 393/8/815 387/3/822
f 392/3/823 396/8/819 395/7/821
f 398/4/793 390/10/824 397/11/825
f 397/11/826 390/10/827 399/5/795
f 400/11/828 390/10/829 398/4/803
f 399/5/807 390/10/830 400/11/831
f 398/4/793 397/11/825 387/3/794
f 392/3/802 400/11/828 398/4/803
f 387/3/797 397/11/826 399/5/795
f 399/5/807 400/11/831 392/3/805
usemtl mat1.019
f 408/1/832 403/2/832 401/3/833
f 403/2/834 412/4/835 401/3/836
f 413/5/837 405/6/838 401/3/836
f 405/6/839 409/7/839 401/3/840
f 406/3/841 403/2/842 408/1/842
f 406/3/843 412/4/844 403/2/845
f 406/3/843 405/6/846 413/5/847
f 406/3/848 409/7/849 405/6/849
f 407/8/850 402/9/851 408/1/852
f 409/7/853 402/9/854 407/8/855
f 408/1/856 402/9/857 410/8/858
f 410/8/859 402/9/860 409/7/861
f 401/3/862 407/8/850 408/1/852
f 408/1/856 410/8/858 406/3/863
f 409/7/853 407/8/855 401/3/864
f 406/3/865 410/8/859 409/7/861
f 412/4/835 404/10/866 411/11/867
f 411/11/868 404/10/869 413/5/837
f 414/11/870 404/10/871 412/4/844
f 413/5/847 404/10/872 414/11/873
f 412/4/835 411/11/867 401/3/836
f 406/3/843 414/11/870 412/4/844
f 401/3/836 411/11/868 413/5/837
f 413/5/847 414/11/873 406/3/843
usemtl mat1.020
f 422/1/874 417/2/874 415/3/875
f 417/2/876 426/4/877 415/3/878
f 427/5/879 419/6/880 415/3/878
f 419/6/881 423/7/881 415/3/882
f 420/3/883 417/2/884 422/1/884
f 420/3/885 426/4/886 417/2/887
f 420/3/885 419/6/888 427/5/889
f 420/3/890 423/7/891 419/6/891
f 421/8/892 416/9/893 422/1/894
f 423/7/895 416/9/896 421/8/897
f 422/1/898 416/9/899 424/8/900
f 424/8/901 416/9/902 423/7/903
f 415/3/904 421/8/892 422/1/894
f 422/1/898 424/8/900 420/3/905
f 423/7/895 421/8/897 415/3/878
f 420/3/885 424/8/901 423/7/903
f 426/4/877 418/10/906 425/11/907
f 425/11/908 418/10/909 427/5/879
f 428/11/910 418/10/911 426/4/886
f 427/5/889 418/10/912 428/11/913
f 426/4/877 425/11/907 415/3/878
f 420/3/885 428/11/910 426/4/886
f 415/3/878 425/11/908 427/5/879
f 427/5/889 428/11/913 420/3/885
usemtl mat1.021
f 436/1/914 431/2/914 429/3/915
f 431/2/916 440/4/917 429/3/918
f 441/5/919 433/6/920 429/3/921
f 433/6/922 437/7/922 429/3/923
f 434/3/924 431/2/925 436/1/925
f 434/3/926 440/4/927 431/2/928
f 434/3/929 433/6/930 441/5/931
f 434/3/932 437/7/933 433/6/933
f 435/8/934 430/9/935 436/1/936
f 437/7/937 430/9/938 435/8/939
f 436/1/940 430/9/941 438/8/942
f 438/8/943 430/9/944 437/7/945
f 429/3/921 435/8/934 436/1/936
f 436/1/940 438/8/942 434/3/929
f 437/7/937 435/8/939 429/3/946
f 434/3/947 438/8/943 437/7/945
f 440/4/917 432/10/948 439/11/949
f 439/11/950 432/10/951 441/5/919
f 442/11/952 432/10/953 440/4/927
f 441/5/931 432/10/954 442/11/955
f 440/4/917 439/11/949 429/3/918
f 434/3/926 442/11/952 440/4/927
f 429/3/921 439/11/950 441/5/919
f 441/5/931 442/11/955 434/3/929
usemtl mat1.022
f 450/1/956 445/2/956 443/3/957
f 445/2/958 454/4/959 443/3/960
f 455/5/961 447/6/962 443/3/960
f 447/6/963 451/7/963 443/3/964
f 448/3/965 445/2/966 450/1/966
f 448/3/967 454/4/968 445/2/969
f 448/3/967 447/6/970 455/5/971
f 448/3/972 451/7/973 447/6/973
f 449/8/974 444/9/975 450/1/976
f 451/7/977 444/9/978 449/8/979
f 450/1/980 444/9/981 452/8/982
f 452/8/983 444/9/984 451/7/985
f 443/3/960 449/8/974 450/1/976
f 450/1/980 452/8/982 448/3/967
f 451/7/977 449/8/979 443/3/986
f 448/3/987 452/8/983 451/7/985
f 454/4/959 446/10/988 453/11/989
f 453/11/990 446/10/991 455/5/961
f 456/11/992 446/10/993 454/4/968
f 455/5/971 446/10/994 456/11/995
f 454/4/959 453/11/989 443/3/960
f 448/3/967 456/11/992 454/4/968
f 443/3/960 453/11/990 455/5/961
f 455/5/971 456/11/995 448/3/967
usemtl mat1.023
f 464/1/996 459/2/996 457/3/997
f 459/2/998 468/4/999 457/3/1000
f 469/5/1001 461/6/1002 457/3/1000
f 461/6/1003 465/7/1003 457/3/1004
f 462/3/1005 459/2/1006 464/1/1006
f 462/3/1007 468/4/1008 459/2/1009
f 462/3/1007 461/6/1010 469/5/1011
f 462/3/1012 465/7/1013 461/6/1013
f 463/8/1014 458/9/1015 464/1/1016
f 465/7/1017 458/9/1018 463/8/1019
f 464/1/1020 458/9/1021 466/8/1022
f 466/8/1023 458/9/1024 465/7/1025
f 457/3/1026 463/8/1014 464/1/1016
f 464/1/1020 466/8/1022 462/3/1027
f 465/7/1017 463/8/1019 457/3/1000
f 462/3/1007 466/8/1023 465/7/1025
f 468/4/999 460/10/1028 467/11/1029
f 467/11/1030 460/10/1031 469/5/1001
f 470/11/1032 460/10/1033 468/4/1008
f 469/5/1011 460/10/1034 470/11/1035
f 468/4/999 467/11/1029 457/3/1000
f 462/3/1007 470/11/1032 468/4/1008
f 457/3/1000 467/11/1030 469/5/1001
f 469/5/1011 470/11/1035 462/3/1007
usemtl mat1.024
f 478/1/1036 473/2/1036 471/3/1037
f 473/2/1038 482/4/1039 471/3/1040
f 483/5/1041 475/6/1042 471/3/1040
f 475/6/1043 479/7/1043 471/3/1044
f 476/3/1045 473/2/1046 478/1/1046
f 476/3/1047 482/4/1048 473/2/1049
f 476/3/1047 475/6/1050 483/5/1051
f 476/3/1052 479/7/1053 475/6/1053
f 477/8/1054 472/9/1055 478/1/1056
f 479/7/1057 472/9/1058 477/8/1059
f 478/1/1060 472/9/1061 480/8/1062
f 480/8/1063 472/9/1064 479/7/1065
f 471/3/1066 477/8/1054 478/1/1056
f 478/1/1060 480/8/1062 476/3/1067
f 479/7/1057 477/8/1059 471/3/1040
f 476/3/1068 480/8/1063 479/7/1065
f 482/4/1039 474/10/1069 481/11/1070
f 481/11/1071 474/10/1072 483/5/1041
f 484/11/1073 474/10/1074 482/4/1048
f 483/5/1051 474/10/1075 484/11/1076
f 482/4/1039 481/11/1070 471/3/1040
f 476/3/1047 484/11/1073 482/4/1048
f 471/3/1040 481/11/1071 483/5/1041
f 483/5/1051 484/11/1076 476/3/1047
usemtl mat1.025
f 492/1/1077 487/2/1077 485/3/1078
f 487/2/1079 496/4/1080 485/3/1081
f 497/5/1082 489/6/1083 485/3/1081
f 489/6/1084 493/7/1084 485/3/1085
f 490/3/1086 487/2/1087 492/1/1087
f 490/3/1088 496/4/1089 487/2/1090
f 490/3/1088 489/6/1091 497/5/1092
f 490/3/1093 493/7/1094 489/6/1094
f 491/8/1095 486/9/1096 492/1/1097
f 493/7/1098 486/9/1099 491/8/1100
f 492/1/1101 486/9/1102 494/8/1103
f 494/8/1104 486/9/1105 493/7/1106
f 485/3/1081 491/8/1095 492/1/1097
f 492/1/1101 494/8/1103 490/3/1107
f 493/7/1098 491/8/1100 485/3/1081
f 490/3/1108 494/8/1104 493/7/1106
f 496/4/1080 488/10/1109 495/11/1110
f 495/11/1111 488/10/1112 497/5/1082
f 498/11/1113 488/10/1114 496/4/1089
f 497/5/1092 488/10/1115 498/11/1116
f 496/4/1080 495/11/1110 485/3/1081
f 490/3/1088 498/11/1113 496/4/1089
f 485/3/1081 495/11/1111 497/5/1082
f 497/5/1092 498/11/1116 490/3/1088
usemtl mat1.026
f 506/1/1117 501/2/1117 499/3/1118
f 501/2/1119 510/4/1120 499/3/1121
f 511/5/1122 503/6/1123 499/3/1121
f 503/6/1124 507/7/1124 499/3/1125
f 504/3/1126 501/2/1127 506/1/1127
f 504/3/1128 510/4/1129 501/2/1130
f 504/3/1128 503/6/1131 511/5/1132
f 504/3/1133 507/7/1134 503/6/1134
f 505/8/1135 500/9/1136 506/1/1137
f 507/7/1138 500/9/1139 505/8/1140
f 506/1/1141 500/9/1142 508/8/1143
f 508/8/1144 500/9/1145 507/7/1146
f 499/3/1121 505/8/1135 506/1/1137
f 506/1/1141 508/8/1143 504/3/1128
f 507/7/1138 505/8/1140 499/3/1147
f 504/3/1148 508/8/1144 507/7/1146
f 510/4/1120 502/10/1149 509/11/1150
f 509/11/1151 502/10/1152 511/5/1122
f 512/11/1153 502/10/1154 510/4/1129
f 511/5/1132 502/10/1155 512/11/1156
f 510/4/1120 509/11/1150 499/3/1121
f 504/3/1128 512/11/1153 510/4/1129
f 499/3/1121 509/11/1151 511/5/1122
f 511/5/1132 512/11/1156 504/3/1128
usemtl mat1.027
f 520/1/1157 515/2/1157 513/3/1158
f 515/2/1159 524/4/1160 513/3/1161
f 525/5/1162 517/6/1163 513/3/1164
f 517/6/1165 521/7/1165 513/3/1166
f 518/3/1167 515/2/1168 520/1/1168
f 518/3/1169 524/4/1170 515/2/1171
f 518/3/1172 517/6/1173 525/5/1174
f 518/3/1175 521/7/1176 517/6/1176
f 519/8/1177 514/9/1178 520/1/1179
f 521/7/1180 514/9/1181 519/8/1182
f 520/1/1183 514/9/1184 522/8/1185
f 522/8/1186 514/9/1187 521/7/1188
f 513/3/1189 519/8/1177 520/1/1179
f 520/1/1183 522/8/1185 518/3/1172
f 521/7/1180 519/8/1182 513/3/1161
f 518/3/1169 522/8/1186 521/7/1188
f 524/4/1160 516/10/1190 523/11/1191
f 523/11/1192 516/10/1193 525/5/1162
f 526/11/1194 516/10/1195 524/4/1170
f 525/5/1174 516/10/1196 526/11/1197
f 524/4/1160 523/11/1191 513/3/1161
f 518/3/1169 526/11/1194 524/4/1170
f 513/3/1164 523/11/1192 525/5/1162
f 525/5/1174 526/11/1197 518/3/1172
