# Blender 4.3.0
# www.blender.org
mtllib sss.mtl
o sss
v -251.207413 -0.000038 -8.684247
v -600.000000 -0.000137 0.000048
v -257.792358 42.956047 0.000032
v -101.709579 0.000003 0.000027
v -257.792358 -42.956123 0.000035
v -251.207413 -0.000038 8.684316
v -259.270020 -0.000041 -8.560007
v -257.742767 11.440090 0.000033
v -257.742767 -11.440170 0.000034
v -259.270020 -0.000041 8.560076
v -242.789352 -0.000036 -7.867424
v -243.364990 11.984419 0.000033
v -243.364990 -11.984491 0.000034
v -242.789352 -0.000036 7.867492
v -125.603615 -217.552063 -8.684253
v -299.999756 -519.615417 0.000035
v -166.097153 -201.776764 0.000031
v -50.854767 -88.083092 0.000025
v -91.695007 -244.732819 0.000025
v -125.603615 -217.552063 8.684310
v -129.634918 -224.534485 -8.560013
v -138.778732 -217.491776 0.000029
v -118.963837 -228.931900 0.000027
v -129.634918 -224.534485 8.560069
v -121.394592 -210.261795 -7.867430
v -132.061264 -204.768097 0.000029
v -111.303566 -216.752533 0.000027
v -121.394592 -210.261795 7.867486
v 125.603867 -217.551910 -8.684283
v 300.000397 -519.614990 -0.000036
v 91.695297 -244.732712 0.000003
v 50.854839 -88.083054 0.000013
v 166.097366 -201.776566 -0.000008
v 125.603867 -217.551910 8.684279
v 129.635162 -224.534332 -8.560044
v 118.964104 -228.931763 -0.000001
v 138.778976 -217.491608 -0.000004
v 129.635162 -224.534332 8.560039
v 121.394829 -210.261658 -7.867458
v 111.303810 -216.752411 0.000000
v 132.061478 -204.767944 -0.000003
v 121.394829 -210.261658 7.867458
v 251.207413 0.000120 -8.684308
v 600.000000 0.000332 -0.000094
v 257.792389 -42.955963 -0.000026
v 101.709579 0.000030 0.000003
v 257.792328 42.956207 -0.000029
v 251.207413 0.000120 8.684255
v 259.270020 0.000125 -8.560070
v 257.742767 -11.440006 -0.000027
v 257.742767 11.440254 -0.000028
v 259.270020 0.000125 8.560013
v 242.789352 0.000115 -7.867482
v 243.365005 -11.984340 -0.000025
v 243.364975 11.984571 -0.000026
v 242.789352 0.000115 7.867435
v 125.603683 217.552032 -8.684302
v 299.999908 519.615356 -0.000081
v 166.097229 201.776733 -0.000025
v 50.854797 88.083084 0.000005
v 91.695091 244.732788 -0.000019
v 125.603683 217.552032 8.684260
v 129.634995 224.534454 -8.560063
v 138.778809 217.491745 -0.000023
v 118.963913 228.931870 -0.000021
v 129.634995 224.534454 8.560019
v 121.394653 210.261765 -7.867476
v 132.061325 204.768066 -0.000021
v 111.303627 216.752502 -0.000019
v 121.394653 210.261765 7.867440
v -125.603790 217.551956 -8.684272
v -300.000214 519.615112 -0.000010
v -91.695213 244.732758 0.000003
v -50.854809 88.083069 0.000017
v -166.097305 201.776627 0.000014
v -125.603790 217.551956 8.684291
v -129.635086 224.534378 -8.560033
v -118.964027 228.931808 0.000007
v -138.778900 217.491669 0.000010
v -129.635086 224.534378 8.560050
v -121.394753 210.261703 -7.867448
v -111.303734 216.752457 0.000008
v -132.061401 204.767990 0.000011
v -121.394753 210.261703 7.867468
vn -0.7998 -0.0013 -0.6002
vn -0.7998 -0.0002 -0.6002
vn 0.5265 0.2453 -0.8140
vn 0.3063 0.4122 -0.8581
vn 0.1932 -0.0000 -0.9812
vn 0.3063 -0.4122 -0.8581
vn 0.5265 -0.2453 -0.8140
vn -0.7998 0.0013 -0.6002
vn -0.7998 -0.0000 -0.6002
vn -0.7998 -0.0002 0.6002
vn -0.7998 -0.0013 0.6002
vn 0.1932 -0.0000 0.9812
vn 0.3063 0.4122 0.8581
vn 0.5265 0.2453 0.8140
vn 0.5265 -0.2453 0.8140
vn 0.3063 -0.4122 0.8581
vn -0.7998 0.0001 0.6002
vn -0.7998 0.0013 0.6002
vn -0.0164 0.6004 -0.7995
vn -0.0201 0.6007 -0.7992
vn -0.0180 0.6005 -0.7994
vn -0.0180 -0.6005 -0.7994
vn -0.0201 -0.6007 -0.7992
vn -0.0164 -0.6004 -0.7995
vn -0.0180 0.6005 0.7994
vn -0.0201 0.6007 0.7992
vn -0.0164 0.6004 0.7995
vn -0.0164 -0.6004 0.7995
vn -0.0201 -0.6007 0.7992
vn -0.0180 -0.6005 0.7994
vn 0.1932 -0.0001 -0.9812
vn 0.1932 -0.0002 0.9812
vn 0.1932 0.0001 -0.9812
vn 0.0465 0.5498 -0.8340
vn 0.0636 0.5498 -0.8329
vn 0.0636 -0.5498 -0.8329
vn 0.0465 -0.5498 -0.8340
vn 0.0636 0.5498 0.8329
vn 0.0465 0.5498 0.8340
vn 0.0465 -0.5498 0.8340
vn 0.0636 -0.5498 0.8329
vn -0.3988 -0.6933 -0.6002
vn -0.3999 -0.6927 -0.6002
vn 0.0509 0.5786 -0.8140
vn -0.2039 0.4713 -0.8581
vn 0.0966 0.1673 -0.9812
vn 0.5101 0.0591 -0.8581
vn 0.4757 0.3334 -0.8140
vn -0.4010 -0.6920 -0.6002
vn -0.3999 -0.6927 0.6002
vn -0.3988 -0.6933 0.6002
vn 0.0966 0.1673 0.9812
vn -0.2039 0.4713 0.8581
vn 0.0509 0.5786 0.8140
vn 0.4757 0.3334 0.8140
vn 0.5101 0.0591 0.8581
vn -0.4000 -0.6926 0.6002
vn -0.4010 -0.6920 0.6002
vn -0.5282 0.2860 -0.7995
vn -0.5303 0.2830 -0.7992
vn -0.5291 0.2847 -0.7994
vn 0.5111 -0.3158 -0.7994
vn 0.5102 -0.3177 -0.7992
vn 0.5118 -0.3144 -0.7995
vn -0.5291 0.2847 0.7994
vn -0.5303 0.2830 0.7992
vn -0.5282 0.2860 0.7995
vn 0.5118 -0.3144 0.7995
vn 0.5102 -0.3177 0.7992
vn 0.5111 -0.3158 0.7994
vn 0.0967 0.1673 -0.9812
vn 0.0964 0.1673 -0.9812
vn 0.0966 0.1675 0.9811
vn -0.4528 0.3152 -0.8340
vn -0.4443 0.3300 -0.8329
vn 0.5080 -0.2198 -0.8329
vn 0.4994 -0.2346 -0.8340
vn -0.4443 0.3300 0.8329
vn -0.4528 0.3152 0.8340
vn 0.4994 -0.2346 0.8340
vn 0.5080 -0.2198 0.8329
vn 0.4010 -0.6920 -0.6002
vn 0.3999 -0.6927 -0.6002
vn -0.4757 0.3334 -0.8140
vn -0.5101 0.0591 -0.8581
vn -0.0966 0.1673 -0.9812
vn 0.2039 0.4713 -0.8581
vn -0.0509 0.5786 -0.8140
vn 0.3988 -0.6933 -0.6002
vn 0.3999 -0.6927 0.6002
vn 0.4010 -0.6920 0.6002
vn -0.0966 0.1673 0.9812
vn -0.5101 0.0591 0.8581
vn -0.4757 0.3334 0.8140
vn -0.0509 0.5786 0.8140
vn 0.2039 0.4713 0.8581
vn 0.3988 -0.6933 0.6002
vn -0.5118 -0.3144 -0.7995
vn -0.5102 -0.3177 -0.7992
vn -0.5111 -0.3158 -0.7994
vn 0.5291 0.2847 -0.7994
vn 0.5303 0.2830 -0.7992
vn 0.5282 0.2860 -0.7995
vn -0.5111 -0.3158 0.7994
vn -0.5102 -0.3177 0.7992
vn -0.5118 -0.3144 0.7995
vn 0.5282 0.2860 0.7995
vn 0.5303 0.2830 0.7992
vn 0.5291 0.2847 0.7994
vn -0.0966 0.1675 -0.9811
vn -0.0964 0.1673 0.9812
vn -0.0967 0.1673 0.9812
vn -0.4994 -0.2346 -0.8340
vn -0.5080 -0.2198 -0.8329
vn 0.4443 0.3300 -0.8329
vn 0.4528 0.3152 -0.8340
vn -0.5080 -0.2198 0.8329
vn -0.4994 -0.2346 0.8340
vn 0.4528 0.3152 0.8340
vn 0.4443 0.3300 0.8329
vn 0.7998 0.0013 -0.6002
vn 0.7998 0.0002 -0.6002
vn -0.5265 -0.2453 -0.8140
vn -0.3063 -0.4122 -0.8581
vn -0.1932 -0.0000 -0.9812
vn -0.3063 0.4122 -0.8581
vn -0.5265 0.2453 -0.8140
vn 0.7998 -0.0013 -0.6002
vn 0.7998 -0.0001 -0.6002
vn 0.7998 0.0001 0.6002
vn 0.7998 0.0013 0.6002
vn -0.1932 -0.0000 0.9812
vn -0.3063 -0.4122 0.8581
vn -0.5265 -0.2453 0.8140
vn -0.5265 0.2453 0.8140
vn -0.3063 0.4122 0.8581
vn 0.7998 -0.0001 0.6002
vn 0.7998 -0.0013 0.6002
vn 0.0164 -0.6004 -0.7995
vn 0.0201 -0.6007 -0.7992
vn 0.0180 -0.6005 -0.7994
vn 0.0180 0.6005 -0.7994
vn 0.0201 0.6007 -0.7992
vn 0.0164 0.6004 -0.7995
vn 0.0180 -0.6005 0.7994
vn 0.0201 -0.6007 0.7992
vn 0.0164 -0.6004 0.7995
vn 0.0164 0.6004 0.7995
vn 0.0201 0.6007 0.7992
vn 0.0180 0.6005 0.7994
vn -0.1932 0.0001 -0.9812
vn -0.1932 0.0002 0.9812
vn -0.1932 -0.0001 -0.9812
vn -0.0465 -0.5498 -0.8340
vn -0.0636 -0.5498 -0.8329
vn -0.0636 0.5498 -0.8329
vn -0.0465 0.5498 -0.8340
vn -0.0636 -0.5498 0.8329
vn -0.0465 -0.5498 0.8340
vn -0.0465 0.5498 0.8340
vn -0.0636 0.5498 0.8329
vn 0.3988 0.6933 -0.6002
vn 0.4000 0.6927 -0.6002
vn -0.0509 -0.5786 -0.8140
vn 0.2039 -0.4713 -0.8581
vn -0.0966 -0.1673 -0.9812
vn -0.5101 -0.0591 -0.8581
vn -0.4757 -0.3334 -0.8140
vn 0.4010 0.6920 -0.6002
vn 0.4000 0.6926 -0.6002
vn 0.3999 0.6927 0.6002
vn 0.3988 0.6933 0.6002
vn -0.0966 -0.1673 0.9812
vn 0.2039 -0.4713 0.8581
vn -0.0509 -0.5786 0.8140
vn -0.4757 -0.3334 0.8140
vn -0.5101 -0.0591 0.8581
vn 0.4001 0.6926 0.6002
vn 0.4010 0.6920 0.6002
vn 0.5282 -0.2860 -0.7995
vn 0.5303 -0.2830 -0.7992
vn 0.5291 -0.2847 -0.7994
vn -0.5111 0.3158 -0.7994
vn -0.5102 0.3177 -0.7992
vn -0.5118 0.3144 -0.7995
vn 0.5291 -0.2847 0.7994
vn 0.5303 -0.2830 0.7992
vn 0.5282 -0.2860 0.7995
vn -0.5118 0.3144 0.7995
vn -0.5102 0.3177 0.7992
vn -0.5111 0.3158 0.7994
vn -0.0967 -0.1673 -0.9812
vn -0.0964 -0.1673 -0.9812
vn -0.0966 -0.1675 0.9811
vn 0.4528 -0.3152 -0.8340
vn 0.4443 -0.3300 -0.8329
vn -0.5080 0.2198 -0.8329
vn -0.4994 0.2346 -0.8340
vn 0.4443 -0.3300 0.8329
vn 0.4528 -0.3152 0.8340
vn -0.4994 0.2346 0.8340
vn -0.5080 0.2198 0.8329
vn -0.4010 0.6920 -0.6002
vn -0.4001 0.6926 -0.6002
vn 0.4757 -0.3334 -0.8140
vn 0.5101 -0.0591 -0.8581
vn 0.0966 -0.1673 -0.9812
vn -0.2039 -0.4713 -0.8581
vn 0.0509 -0.5786 -0.8140
vn -0.3988 0.6933 -0.6002
vn -0.3999 0.6926 -0.6002
vn -0.4000 0.6926 0.6002
vn -0.4010 0.6920 0.6002
vn 0.0966 -0.1673 0.9812
vn 0.5101 -0.0591 0.8581
vn 0.4757 -0.3334 0.8140
vn 0.0509 -0.5786 0.8140
vn -0.2039 -0.4713 0.8581
vn -0.3999 0.6927 0.6002
vn -0.3988 0.6933 0.6002
vn 0.5118 0.3144 -0.7995
vn 0.5102 0.3177 -0.7992
vn 0.5111 0.3158 -0.7994
vn -0.5291 -0.2847 -0.7994
vn -0.5303 -0.2830 -0.7992
vn -0.5282 -0.2860 -0.7995
vn 0.5111 0.3158 0.7994
vn 0.5102 0.3177 0.7992
vn 0.5118 0.3144 0.7995
vn -0.5282 -0.2860 0.7995
vn -0.5303 -0.2830 0.7992
vn -0.5291 -0.2847 0.7994
vn 0.0966 -0.1675 -0.9811
vn 0.0964 -0.1673 0.9812
vn 0.4994 0.2346 -0.8340
vn 0.5080 0.2198 -0.8329
vn -0.4443 -0.3300 -0.8329
vn -0.4528 -0.3152 -0.8340
vn 0.5080 0.2198 0.8329
vn 0.4994 0.2346 0.8340
vn -0.4528 -0.3152 0.8340
vn -0.4443 -0.3300 0.8329
vt 0.283870 0.604670
vt 0.405000 0.813970
vt 0.223320 0.657000
vt 0.268750 0.719790
vt 0.177920 0.719800
vt 0.041680 0.813990
vt 0.162770 0.604670
vt 0.223320 0.592440
vt 0.223250 0.029060
vt 0.223360 0.970970
vt 0.223330 0.724400
s 1
f 8/1/1 3/2/1 1/3/2
f 3/2/3 12/4/4 1/3/5
f 13/5/6 5/6/7 1/3/5
f 5/6/8 9/7/8 1/3/9
f 6/3/10 3/2/11 8/1/11
f 6/3/12 12/4/13 3/2/14
f 6/3/12 5/6/15 13/5/16
f 6/3/17 9/7/18 5/6/18
f 7/8/19 2/9/20 8/1/21
f 9/7/22 2/9/23 7/8/24
f 8/1/25 2/9/26 10/8/27
f 10/8/28 2/9/29 9/7/30
f 1/3/31 7/8/19 8/1/21
f 8/1/25 10/8/27 6/3/32
f 9/7/22 7/8/24 1/3/33
f 6/3/12 10/8/28 9/7/30
f 12/4/4 4/10/34 11/11/35
f 11/11/36 4/10/37 13/5/6
f 14/11/38 4/10/39 12/4/13
f 13/5/16 4/10/40 14/11/41
f 12/4/4 11/11/35 1/3/5
f 6/3/12 14/11/38 12/4/13
f 1/3/5 11/11/36 13/5/6
f 13/5/16 14/11/41 6/3/12
f 22/1/42 17/2/42 15/3/43
f 17/2/44 26/4/45 15/3/46
f 27/5/47 19/6/48 15/3/46
f 19/6/49 23/7/49 15/3/43
f 20/3/50 17/2/51 22/1/51
f 20/3/52 26/4/53 17/2/54
f 20/3/52 19/6/55 27/5/56
f 20/3/57 23/7/58 19/6/58
f 21/8/59 16/9/60 22/1/61
f 23/7/62 16/9/63 21/8/64
f 22/1/65 16/9/66 24/8/67
f 24/8/68 16/9/69 23/7/70
f 15/3/71 21/8/59 22/1/61
f 22/1/65 24/8/67 20/3/52
f 23/7/62 21/8/64 15/3/72
f 20/3/73 24/8/68 23/7/70
f 26/4/45 18/10/74 25/11/75
f 25/11/76 18/10/77 27/5/47
f 28/11/78 18/10/79 26/4/53
f 27/5/56 18/10/80 28/11/81
f 26/4/45 25/11/75 15/3/46
f 20/3/52 28/11/78 26/4/53
f 15/3/46 25/11/76 27/5/47
f 27/5/56 28/11/81 20/3/52
f 36/1/82 31/2/82 29/3/83
f 31/2/84 40/4/85 29/3/86
f 41/5/87 33/6/88 29/3/86
f 33/6/89 37/7/89 29/3/83
f 34/3/90 31/2/91 36/1/91
f 34/3/92 40/4/93 31/2/94
f 34/3/92 33/6/95 41/5/96
f 34/3/90 37/7/97 33/6/97
f 35/8/98 30/9/99 36/1/100
f 37/7/101 30/9/102 35/8/103
f 36/1/104 30/9/105 38/8/106
f 38/8/107 30/9/108 37/7/109
f 29/3/110 35/8/98 36/1/100
f 36/1/104 38/8/106 34/3/111
f 37/7/101 35/8/103 29/3/86
f 34/3/112 38/8/107 37/7/109
f 40/4/85 32/10/113 39/11/114
f 39/11/115 32/10/116 41/5/87
f 42/11/117 32/10/118 40/4/93
f 41/5/96 32/10/119 42/11/120
f 40/4/85 39/11/114 29/3/86
f 34/3/92 42/11/117 40/4/93
f 29/3/86 39/11/115 41/5/87
f 41/5/96 42/11/120 34/3/92
f 50/1/121 45/2/121 43/3/122
f 45/2/123 54/4/124 43/3/125
f 55/5/126 47/6/127 43/3/125
f 47/6/128 51/7/128 43/3/129
f 48/3/130 45/2/131 50/1/131
f 48/3/132 54/4/133 45/2/134
f 48/3/132 47/6/135 55/5/136
f 48/3/137 51/7/138 47/6/138
f 49/8/139 44/9/140 50/1/141
f 51/7/142 44/9/143 49/8/144
f 50/1/145 44/9/146 52/8/147
f 52/8/148 44/9/149 51/7/150
f 43/3/151 49/8/139 50/1/141
f 50/1/145 52/8/147 48/3/152
f 51/7/142 49/8/144 43/3/153
f 48/3/132 52/8/148 51/7/150
f 54/4/124 46/10/154 53/11/155
f 53/11/156 46/10/157 55/5/126
f 56/11/158 46/10/159 54/4/133
f 55/5/136 46/10/160 56/11/161
f 54/4/124 53/11/155 43/3/125
f 48/3/132 56/11/158 54/4/133
f 43/3/125 53/11/156 55/5/126
f 55/5/136 56/11/161 48/3/132
f 64/1/162 59/2/162 57/3/163
f 59/2/164 68/4/165 57/3/166
f 69/5/167 61/6/168 57/3/166
f 61/6/169 65/7/169 57/3/170
f 62/3/171 59/2/172 64/1/172
f 62/3/173 68/4/174 59/2/175
f 62/3/173 61/6/176 69/5/177
f 62/3/178 65/7/179 61/6/179
f 63/8/180 58/9/181 64/1/182
f 65/7/183 58/9/184 63/8/185
f 64/1/186 58/9/187 66/8/188
f 66/8/189 58/9/190 65/7/191
f 57/3/192 63/8/180 64/1/182
f 64/1/186 66/8/188 62/3/173
f 65/7/183 63/8/185 57/3/193
f 62/3/194 66/8/189 65/7/191
f 68/4/165 60/10/195 67/11/196
f 67/11/197 60/10/198 69/5/167
f 70/11/199 60/10/200 68/4/174
f 69/5/177 60/10/201 70/11/202
f 68/4/165 67/11/196 57/3/166
f 62/3/173 70/11/199 68/4/174
f 57/3/166 67/11/197 69/5/167
f 69/5/177 70/11/202 62/3/173
f 78/1/203 73/2/203 71/3/204
f 73/2/205 82/4/206 71/3/207
f 83/5/208 75/6/209 71/3/207
f 75/6/210 79/7/210 71/3/211
f 76/3/212 73/2/213 78/1/213
f 76/3/214 82/4/215 73/2/216
f 76/3/214 75/6/217 83/5/218
f 76/3/219 79/7/220 75/6/220
f 77/8/221 72/9/222 78/1/223
f 79/7/224 72/9/225 77/8/226
f 78/1/227 72/9/228 80/8/229
f 80/8/230 72/9/231 79/7/232
f 71/3/233 77/8/221 78/1/223
f 78/1/227 80/8/229 76/3/234
f 79/7/224 77/8/226 71/3/207
f 76/3/214 80/8/230 79/7/232
f 82/4/206 74/10/235 81/11/236
f 81/11/237 74/10/238 83/5/208
f 84/11/239 74/10/240 82/4/215
f 83/5/218 74/10/241 84/11/242
f 82/4/206 81/11/236 71/3/207
f 76/3/214 84/11/239 82/4/215
f 71/3/207 81/11/237 83/5/208
f 83/5/218 84/11/242 76/3/214
