# Blender 4.3.0
# www.blender.org
mtllib c.mtl
o ss
v 97.462975 0.000000 0.000000
v 92.342827 1.545163 -0.000000
v 82.781349 1.780935 -0.000000
v 78.956810 0.000000 0.000001
v 82.781349 -1.780935 0.000000
v 92.342827 -1.545163 0.000000
v 94.142006 -0.000004 -25.225273
v 89.196327 1.545159 -23.900078
v 79.960640 1.780931 -21.425385
v 76.266426 -0.000004 -20.435520
v 79.960640 -1.780939 -21.425385
v 89.196327 -1.545167 -23.900078
v 84.405411 -0.000008 -48.731499
v 79.971230 1.545157 -46.171425
v 71.690735 1.780929 -41.390678
v 68.378593 -0.000006 -39.478409
v 71.690735 -1.780941 -41.390678
v 79.971230 -1.545169 -46.171425
v 68.916725 -0.000010 -68.916748
v 65.296234 1.545153 -65.296249
v 58.535236 1.780926 -58.535248
v 55.830898 -0.000008 -55.830898
v 58.535236 -1.780942 -58.535248
v 65.296234 -1.545173 -65.296249
v 48.731483 -0.000012 -84.405426
v 46.171413 1.545151 -79.971252
v 41.390671 1.780924 -71.690750
v 39.478405 -0.000010 -68.378616
v 41.390671 -1.780944 -71.690750
v 46.171413 -1.545175 -79.971252
v 25.225281 -0.000014 -94.142021
v 23.900084 1.545149 -89.196320
v 21.425392 1.780922 -79.960625
v 20.435530 -0.000012 -76.266426
v 21.425392 -1.780946 -79.960625
v 23.900084 -1.545177 -89.196320
v 0.000006 -0.000014 -97.462990
v 0.000006 1.545149 -92.342834
v 0.000007 1.780924 -82.781349
v 0.000008 -0.000012 -78.956802
v 0.000007 -1.780948 -82.781349
v 0.000006 -1.545177 -92.342834
v -25.225267 -0.000014 -94.142021
v -23.900076 1.545149 -89.196342
v -21.425381 1.780924 -79.960648
v -20.435516 -0.000012 -76.266418
v -21.425381 -1.780948 -79.960648
v -23.900076 -1.545177 -89.196342
v -48.731476 -0.000012 -84.405441
v -46.171402 1.545151 -79.971252
v -41.390663 1.780926 -71.690758
v -39.478394 -0.000010 -68.378624
v -41.390663 -1.780946 -71.690758
v -46.171402 -1.545175 -79.971252
v -68.916763 -0.000010 -68.916718
v -65.296265 1.545153 -65.296234
v -58.535263 1.780927 -58.535236
v -55.830910 -0.000008 -55.830883
v -58.535263 -1.780943 -58.535236
v -65.296265 -1.545173 -65.296234
v -84.405396 -0.000008 -48.731518
v -79.971230 1.545157 -46.171440
v -71.690735 1.780930 -41.390697
v -68.378593 -0.000006 -39.478424
v -71.690735 -1.780942 -41.390697
v -79.971230 -1.545169 -46.171440
v -94.142021 -0.000004 -25.225264
v -89.196342 1.545159 -23.900076
v -79.960655 1.780931 -21.425385
v -76.266434 -0.000004 -20.435520
v -79.960655 -1.780939 -21.425385
v -89.196342 -1.545167 -23.900076
v -97.462990 -0.000000 -0.000009
v -92.342850 1.545163 -0.000008
v -82.781357 1.780935 -0.000007
v -78.956818 -0.000000 -0.000006
v -82.781357 -1.780935 -0.000007
v -92.342850 -1.545163 -0.000008
v -94.142021 0.000004 25.225264
v -89.196350 1.545167 23.900078
v -79.960655 1.780940 21.425385
v -76.266426 0.000004 20.435520
v -79.960655 -1.780932 21.425385
v -89.196350 -1.545159 23.900078
v -84.405441 0.000008 48.731476
v -79.971260 1.545169 46.171410
v -71.690758 1.780942 41.390659
v -68.378616 0.000006 39.478397
v -71.690758 -1.780930 41.390659
v -79.971260 -1.545157 46.171410
v -68.916763 0.000010 68.916718
v -65.296265 1.545173 65.296234
v -58.535275 1.780944 58.535240
v -55.830917 0.000008 55.830894
v -58.535275 -1.780928 58.535240
v -65.296265 -1.545153 65.296234
v -48.731476 0.000012 84.405434
v -46.171410 1.545175 79.971260
v -41.390663 1.780945 71.690758
v -39.478397 0.000010 68.378624
v -41.390663 -1.780925 71.690758
v -46.171410 -1.545151 79.971260
v -25.225307 0.000014 94.142021
v -23.900116 1.545177 89.196320
v -21.425413 1.780947 79.960625
v -20.435551 0.000012 76.266426
v -21.425413 -1.780923 79.960625
v -23.900116 -1.545149 89.196320
v 0.000006 0.000014 97.462990
v 0.000006 1.545177 92.342834
v 0.000007 1.780947 82.781342
v 0.000008 0.000012 78.956818
v 0.000007 -1.780923 82.781342
v 0.000006 -1.545149 92.342834
v 25.225231 0.000014 94.142029
v 23.900042 1.545177 89.196342
v 21.425352 1.780947 79.960640
v 20.435493 0.000012 76.266441
v 21.425352 -1.780923 79.960640
v 23.900042 -1.545149 89.196342
v 48.731483 0.000012 84.405411
v 46.171413 1.545175 79.971252
v 41.390671 1.780945 71.690758
v 39.478409 0.000010 68.378609
v 41.390671 -1.780925 71.690758
v 46.171413 -1.545151 79.971252
v 68.916702 0.000010 68.916771
v 65.296219 1.545173 65.296280
v 58.535213 1.780943 58.535290
v 55.830868 0.000008 55.830925
v 58.535213 -1.780927 58.535290
v 65.296219 -1.545153 65.296280
v 84.405411 0.000008 48.731499
v 79.971237 1.545169 46.171429
v 71.690742 1.780941 41.390686
v 68.378593 0.000006 39.478416
v 71.690742 -1.780929 41.390686
v 79.971237 -1.545157 46.171429
v 94.142021 0.000004 25.225250
v 89.196327 1.545167 23.900057
v 79.960648 1.780939 21.425367
v 76.266426 0.000004 20.435509
v 79.960648 -1.780931 21.425367
v 89.196327 -1.545159 23.900057
v -0.051603 -13.723001 -45.202606
v -3.291452 42.006584 -21.690458
v 0.805672 29.612221 -37.096527
v 13.625646 13.398139 -43.384174
v 0.805672 -29.612225 -37.096519
v -3.291452 -42.006584 -21.690451
v 7.660599 38.998470 -25.253658
v 13.625646 -13.398145 -43.384174
v 17.439949 30.042170 -32.212757
v 18.715111 -0.000003 -43.838680
v 17.439949 -30.042173 -32.212749
v 9.917585 -42.284695 -19.347279
v 28.416578 14.146001 -35.204910
v 28.416578 -14.146007 -35.204910
v 2.789897 46.237499 -9.197020
v 11.532958 43.507107 -14.052954
v 21.731714 37.096676 -19.975750
v 32.757481 23.372023 -24.879091
v 40.822411 9.268882 -21.872820
v 37.021351 -0.000002 -29.311382
v 32.757481 -23.372026 -24.879087
v 21.731714 -37.096676 -19.975746
v 2.789897 -46.237499 -9.197012
v 5.284354 47.002937 -0.000006
v 35.370846 29.772120 -10.196042
v 40.822411 -9.268886 -21.872820
v 43.192501 14.888227 -12.685870
v 45.420242 -0.000001 -12.912725
v 43.192501 -14.888228 -12.685868
v 35.370846 -29.772120 -10.196038
v 36.500015 29.988546 0.170976
v 36.500015 -29.988546 0.170980
v 25.943047 39.588726 -2.090147
v 45.248493 13.772060 3.666085
v 45.248493 -13.772060 3.666087
v 25.943047 -39.588726 -2.090141
v 34.996155 30.042173 10.820441
v 42.068604 13.719099 16.525778
v 46.427891 0.000001 10.441946
v 42.068604 -13.719097 16.525782
v 34.996155 -30.042173 10.820445
v 5.284354 -47.002937 0.000002
v 18.004057 43.794739 2.079914
v 18.004057 -43.794739 2.079920
v 35.585968 13.772053 28.186966
v 35.970669 0.000002 30.591621
v 35.585968 -13.772049 28.186970
v 22.826279 36.756123 19.630817
v 27.089754 26.521820 28.472206
v 25.797531 13.719104 37.112747
v 25.797531 -13.719098 37.112747
v 27.089754 -26.521816 28.472210
v 22.826279 -36.756123 19.630821
v 13.928821 13.772063 43.207100
v 9.442607 39.214550 24.503283
v 10.445943 30.042187 35.109741
v 17.111782 0.000003 44.404610
v 13.928821 -13.772058 43.207100
v 10.445943 -30.042183 35.109749
v 9.442607 -39.214550 24.503290
v 5.180124 -43.886406 17.076595
v 3.643254 46.180706 8.795587
v 5.180124 43.886406 17.076588
v -3.785122 30.042181 36.434662
v -2.232960 14.736903 44.948502
v -5.451777 0.000004 46.904301
v -2.232960 -14.736896 44.948502
v -3.785122 -30.042177 36.434669
v 3.643254 -46.180706 8.795594
v -5.620346 39.110809 25.786087
v -13.399384 9.268884 44.332211
v -13.399384 -9.268876 44.332211
v -5.620346 -39.110802 25.786095
v -17.439941 30.042191 32.212727
v -21.571453 14.888201 39.511974
v -21.571453 -14.888195 39.511974
v -17.439941 -30.042187 32.212734
v -27.414284 0.000003 38.897797
v -9.668651 45.297218 9.869712
v -21.753969 36.684536 20.597795
v -32.126881 22.019119 26.978533
v -35.770844 9.268875 29.416582
v -35.770844 -9.268871 29.416582
v -32.126881 -22.019115 26.978537
v -21.753969 -36.684536 20.597799
v -42.028336 0.000002 21.525639
v -33.836479 30.856056 11.790162
v -39.059937 26.234093 3.156506
v -43.207111 13.772030 13.928813
v -43.207111 -13.772028 13.928815
v -33.836479 -30.856056 11.790166
v -9.668651 -45.297218 9.869720
v -21.104740 41.794014 7.452638
v -45.190464 13.719072 0.831128
v -47.066624 0.000000 3.803537
v -45.190464 -13.719072 0.831130
v -39.059937 -26.234093 3.156510
v -21.104740 -41.794014 7.452644
v -29.447302 -36.916134 -4.319828
v -29.447302 36.916134 -4.319834
v -40.053329 22.353289 -12.008744
v -44.332199 9.268880 -13.399397
v -44.939442 -0.000001 -14.497595
v -44.332199 -9.268882 -13.399395
v -40.053329 -22.353289 -12.008740
v -29.936472 30.469675 -20.999624
v -38.036240 13.719082 -24.415419
v -38.036240 -13.719086 -24.415415
v -29.936472 -30.469679 -20.999620
v -12.241350 45.183029 -7.356816
v -20.285795 37.135021 -21.359718
v -29.403185 13.772036 -34.587833
v -32.802105 -0.000003 -34.476105
v -29.403185 -13.772041 -34.587833
v -20.285795 -37.135021 -21.359715
v -12.241350 -45.183029 -7.356810
v -14.566190 30.203815 -33.528046
v -13.556436 14.117140 -43.253120
v -8.609790 -0.000004 -46.742504
v -13.556436 -14.117146 -43.253120
v -14.566190 -30.203819 -33.528038
v -0.051603 13.722994 -45.202606
vn 0.2887 -0.9567 -0.0380
vn 0.0238 0.9997 0.0064
vn 0.0247 0.9997 -0.0000
vn 0.0064 -0.9997 -0.0238
vn -0.0000 -0.9997 -0.0247
vn 0.0555 -0.9051 -0.4215
vn 0.1114 -0.9567 -0.2690
vn -0.0555 0.9051 -0.4215
vn -0.0555 0.9051 0.4215
vn 0.0238 0.9997 -0.0064
vn 0.2310 0.9567 -0.1773
vn 0.3373 0.9051 0.2588
vn 0.0380 0.9567 -0.2887
vn -0.3373 -0.9051 0.2588
vn -0.0174 -0.9997 0.0174
vn -0.0123 -0.9997 0.0213
vn -0.0380 -0.9567 -0.2887
vn 0.0213 0.9997 -0.0123
vn 0.0174 0.9997 -0.0174
vn 0.2310 -0.9567 0.1773
vn -0.2887 -0.9567 0.0380
vn -0.2588 -0.9051 0.3373
vn -0.0213 -0.9997 0.0123
vn -0.0238 -0.9997 0.0064
vn 0.4215 0.9051 -0.0555
vn -0.0064 0.9997 0.0238
vn -0.0000 0.9997 0.0247
vn -0.2887 0.9567 0.0380
vn -0.1114 0.9567 0.2690
vn -0.1627 -0.9051 0.3928
vn 0.0064 -0.9997 0.0238
vn 0.0123 -0.9997 0.0213
vn -0.3373 -0.9051 -0.2588
vn 0.2690 -0.9567 0.1114
vn 0.0380 -0.9567 -0.2887
vn -0.3373 0.9051 -0.2588
vn -0.0247 0.9997 -0.0000
vn -0.0238 0.9997 0.0064
vn 0.0555 0.9051 0.4215
vn 0.0213 -0.9997 -0.0123
vn 0.0174 -0.9997 -0.0174
vn 0.1114 0.9567 -0.2690
vn 0.2887 0.9567 0.0380
vn -0.3928 -0.9051 0.1627
vn -0.0213 -0.9997 -0.0123
vn -0.0238 -0.9997 -0.0064
vn -0.2310 0.9567 -0.1773
vn -0.0213 0.9997 -0.0123
vn -0.0238 0.9997 -0.0064
vn -0.0380 0.9567 -0.2887
vn 0.0380 -0.9567 0.2887
vn 0.1627 -0.9051 0.3928
vn 0.2588 0.9051 0.3373
vn -0.0064 0.9997 -0.0238
vn -0.0123 0.9997 -0.0213
vn 0.1773 0.9567 -0.2310
vn 0.0174 -0.9997 0.0174
vn 0.0213 -0.9997 0.0123
vn -0.4215 0.9051 -0.0555
vn -0.0174 -0.9997 -0.0174
vn -0.0123 -0.9997 -0.0213
vn -0.2588 0.9051 -0.3373
vn -0.1773 0.9567 -0.2310
vn -0.2310 -0.9567 -0.1773
vn 0.3373 -0.9051 0.2588
vn 0.0064 0.9997 -0.0238
vn -0.0000 0.9997 -0.0247
vn 0.3928 0.9051 0.1627
vn -0.0174 0.9997 -0.0174
vn 0.1773 -0.9567 0.2310
vn 0.1114 -0.9567 0.2690
vn -0.3373 0.9051 0.2588
vn 0.0238 -0.9997 0.0064
vn -0.3928 0.9051 0.1627
vn -0.0064 -0.9997 -0.0238
vn -0.2690 0.9567 -0.1114
vn -0.0380 -0.9567 0.2887
vn 0.4215 -0.9051 0.0555
vn -0.0247 -0.9997 -0.0000
vn -0.4215 -0.9051 0.0555
vn 0.0238 -0.9997 -0.0064
vn 0.0247 -0.9997 -0.0000
vn 0.2690 0.9567 -0.1114
vn -0.2690 -0.9567 0.1114
vn 0.4215 -0.9051 -0.0555
vn 0.0123 -0.9997 -0.0213
vn 0.3928 0.9051 -0.1627
vn 0.2887 -0.9567 0.0380
vn -0.1114 0.9567 -0.2690
vn -0.0555 -0.9051 -0.4215
vn 0.0555 -0.9051 0.4215
vn -0.0213 0.9997 0.0123
vn -0.1114 -0.9567 -0.2690
vn 0.1773 -0.9567 -0.2310
vn -0.2588 -0.9051 -0.3373
vn 0.0123 0.9997 -0.0213
vn 0.0555 0.9051 -0.4215
vn 0.0064 0.9997 0.0238
vn 0.0123 0.9997 0.0213
vn -0.2310 0.9567 0.1773
vn -0.1773 -0.9567 0.2310
vn -0.4215 0.9051 0.0555
vn -0.0174 0.9997 0.0174
vn 0.1627 0.9051 -0.3928
vn -0.1773 -0.9567 -0.2310
vn 0.2690 0.9567 0.1114
vn -0.1627 0.9051 0.3928
vn -0.0000 -0.9997 0.0247
vn 0.2588 -0.9051 -0.3373
vn -0.0123 0.9997 0.0213
vn -0.2690 -0.9567 -0.1114
vn -0.2887 -0.9567 -0.0380
vn 0.3928 -0.9051 -0.1627
vn -0.0064 -0.9997 0.0238
vn 0.3928 -0.9051 0.1627
vn -0.0380 0.9567 0.2887
vn -0.2310 -0.9567 0.1773
vn -0.3928 -0.9051 -0.1627
vn -0.1627 0.9051 -0.3928
vn 0.0380 0.9567 0.2887
vn -0.1773 0.9567 0.2310
vn 0.1627 -0.9051 -0.3928
vn 0.3373 -0.9051 -0.2588
vn 0.1114 0.9567 0.2690
vn -0.2887 0.9567 -0.0380
vn 0.2588 -0.9051 0.3373
vn 0.1627 0.9051 0.3928
vn 0.0174 0.9997 0.0174
vn 0.1773 0.9567 0.2310
vn -0.1114 -0.9567 0.2690
vn -0.0555 -0.9051 0.4215
vn -0.3928 0.9051 -0.1627
vn 0.0213 0.9997 0.0123
vn 0.2310 0.9567 0.1773
vn 0.2310 -0.9567 -0.1773
vn 0.2588 0.9051 -0.3373
vn 0.2887 0.9567 -0.0380
vn -0.4215 -0.9051 -0.0555
vn 0.4215 0.9051 0.0555
vn -0.2690 0.9567 0.1114
vn 0.2690 -0.9567 -0.1114
vn -0.1627 -0.9051 -0.3928
vn 0.3373 0.9051 -0.2588
vn -0.2588 0.9051 0.3373
vn 0.0915 -0.7876 -0.6093
vn 0.1284 0.4452 -0.8862
vn 0.0908 0.9290 -0.3588
vn 0.2311 -0.5052 -0.8315
vn 0.1789 0.7180 -0.6726
vn 0.3098 -0.7727 -0.5541
vn 0.4179 0.4383 -0.7958
vn 0.1147 0.0583 -0.9917
vn 0.4655 -0.2060 -0.8607
vn 0.2804 0.8529 -0.4403
vn 0.6208 0.0517 -0.7823
vn 0.5414 -0.5010 -0.6752
vn 0.7503 0.3040 -0.5870
vn 0.7526 -0.1959 -0.6287
vn 0.8901 -0.0000 -0.4559
vn 0.8901 0.0008 -0.4559
vn 0.8170 -0.3736 -0.4393
vn 0.8028 -0.4809 -0.3525
vn 0.6394 -0.6566 -0.4000
vn 0.9331 -0.1446 -0.3292
vn 0.6805 0.7273 -0.0893
vn 0.8628 -0.4912 0.1194
vn 0.6595 0.7463 0.0894
vn 0.5340 0.8252 0.1842
vn 0.5746 -0.7969 0.1864
vn 0.8661 0.4508 0.2160
vn 0.9514 -0.1976 0.2361
vn 0.2221 -0.9661 0.1318
vn 0.6518 0.6327 0.4181
vn 0.3261 -0.9050 0.2733
vn 0.2565 0.9427 0.2136
vn 0.2989 0.8757 0.3793
vn 0.6175 0.3963 0.6795
vn 0.3493 0.7248 0.5938
vn 0.3894 -0.6897 0.6106
vn 0.4500 -0.1801 0.8747
vn 0.0381 0.8555 0.5163
vn -0.1317 -0.1586 0.9785
vn -0.0982 -0.9189 0.3821
vn -0.0417 -0.9608 0.2739
vn -0.3423 -0.0329 0.9390
vn -0.0594 0.9949 0.0819
vn -0.0594 -0.9949 0.0819
vn -0.2450 -0.4009 0.8828
vn -0.2025 0.7281 0.6549
vn -0.4338 -0.1335 0.8911
vn -0.2624 0.8750 0.4068
vn -0.2953 -0.7779 0.5546
vn -0.5419 0.6269 0.5598
vn -0.5157 0.4818 0.7084
vn -0.6296 0.3157 0.7099
vn -0.6207 -0.2124 0.7547
vn -0.3392 0.8823 0.3262
vn -0.7649 -0.0314 0.6434
vn -0.8640 -0.1845 0.4685
vn -0.8123 -0.3248 0.4844
vn -0.7943 -0.4820 0.3698
vn -0.5719 0.7737 0.2725
vn -0.6302 -0.6382 0.4422
vn -0.6302 0.6382 0.4422
vn -0.8370 -0.4897 0.2443
vn -0.9596 0.0684 0.2728
vn -0.8995 0.4156 0.1345
vn -0.3001 -0.9531 0.0385
vn -0.1072 0.9942 0.0094
vn -0.1072 -0.9942 0.0094
vn -0.9752 -0.1652 0.1470
vn -0.6228 0.7730 0.1211
vn -0.7189 -0.6921 0.0645
vn -0.7755 0.6220 -0.1084
vn -0.8925 0.4476 -0.0561
vn -0.4407 -0.8957 -0.0588
vn -0.9336 0.3220 -0.1570
vn -0.7250 -0.6493 -0.2297
vn -0.7668 -0.4617 -0.4460
vn -0.5517 -0.7833 -0.2865
vn -0.8718 -0.3241 -0.3673
vn -0.4543 0.8598 -0.2332
vn -0.7504 -0.1800 -0.6359
vn -0.6828 0.4479 -0.5772
vn -0.4723 0.6518 -0.5933
vn -0.5327 -0.5239 -0.6647
vn -0.0774 0.9951 -0.0618
vn -0.0774 -0.9951 -0.0618
vn -0.1007 0.9562 -0.2748
vn -0.2633 0.8940 -0.3625
vn -0.2379 -0.7917 -0.5628
vn -0.4371 0.4451 -0.7816
vn -0.2633 -0.8940 -0.3625
vn -0.1774 -0.5010 -0.8471
vn -0.1347 -0.1930 -0.9719
vn -0.1197 0.7577 -0.6415
vn -0.1141 0.4564 -0.8825
vn 0.1147 -0.0583 -0.9917
vn 0.2490 0.9600 -0.1281
vn 0.2491 0.9600 -0.1281
vn 0.1284 -0.4452 -0.8862
vn 0.0110 0.7805 -0.6250
vn 0.0402 -0.9403 -0.3380
vn 0.1171 0.9066 -0.4054
vn 0.1646 -0.7608 -0.6277
vn 0.2311 0.5052 -0.8315
vn 0.4179 -0.4383 -0.7958
vn 0.3122 0.7716 -0.5543
vn 0.4655 0.2060 -0.8607
vn 0.6208 -0.0517 -0.7823
vn 0.5409 -0.6326 -0.5544
vn 0.5409 0.6326 -0.5544
vn 0.5414 0.5010 -0.6752
vn 0.7526 0.1959 -0.6287
vn 0.7503 -0.3040 -0.5870
vn 0.8901 -0.0008 -0.4559
vn 0.4090 0.8901 -0.2012
vn 0.3778 -0.9017 -0.2100
vn 0.3779 -0.9017 -0.2100
vn 0.3778 -0.9018 -0.2100
vn 0.5896 0.7693 -0.2460
vn 0.6394 0.6566 -0.4000
vn 0.5896 -0.7693 -0.2460
vn 0.8028 0.4809 -0.3525
vn 0.2746 -0.9473 -0.1652
vn 0.2746 -0.9473 -0.1653
vn 0.8170 0.3736 -0.4393
vn 0.9921 -0.1011 -0.0737
vn 0.9331 0.1446 -0.3292
vn 0.8802 -0.4661 -0.0893
vn 0.8802 -0.4661 -0.0892
vn 0.8802 0.4661 -0.0892
vn 0.8802 0.4661 -0.0893
vn 0.6805 -0.7273 -0.0893
vn 0.9921 0.1011 -0.0737
vn 0.7598 0.4872 0.4306
vn 0.7599 0.4871 0.4305
vn 0.6595 -0.7463 0.0894
vn 0.8628 0.4912 0.1194
vn 0.8661 -0.4508 0.2160
vn 0.5746 0.7969 0.1864
vn 0.5340 -0.8252 0.1842
vn 0.9514 0.1976 0.2361
vn 0.8792 0.0891 0.4680
vn 0.8792 0.0890 0.4680
vn 0.8792 -0.0890 0.4680
vn 0.8792 -0.0891 0.4680
vn 0.7598 -0.4872 0.4306
vn 0.7599 -0.4871 0.4305
vn 0.2221 0.9661 0.1318
vn 0.6192 0.0882 0.7803
vn 0.6192 0.0883 0.7803
vn 0.6518 -0.6327 0.4181
vn 0.3261 0.9050 0.2733
vn 0.2565 -0.9427 0.2136
vn 0.2989 -0.8757 0.3793
vn 0.6192 -0.0882 0.7803
vn 0.6192 -0.0883 0.7803
vn 0.4074 -0.4786 0.7778
vn 0.4073 -0.4785 0.7779
vn 0.6175 -0.3963 0.6795
vn 0.4073 0.4785 0.7779
vn 0.4074 0.4786 0.7778
vn 0.3894 0.6897 0.6106
vn 0.3493 -0.7248 0.5938
vn 0.1032 -0.4759 0.8734
vn 0.1032 -0.4760 0.8734
vn 0.4500 0.1801 0.8747
vn 0.0547 0.7614 0.6460
vn 0.0550 0.7612 0.6462
vn 0.0548 0.7613 0.6460
vn 0.0547 -0.7614 0.6460
vn 0.0550 -0.7612 0.6462
vn 0.0548 -0.7613 0.6461
vn 0.1033 0.4759 0.8734
vn 0.1032 0.4760 0.8734
vn 0.1109 0.1091 0.9878
vn 0.1109 0.1092 0.9878
vn 0.0381 -0.8555 0.5163
vn 0.1109 -0.1092 0.9878
vn 0.1109 -0.1091 0.9878
vn -0.2472 0.4630 0.8512
vn -0.2471 0.4629 0.8513
vn -0.1317 0.1586 0.9785
vn -0.2025 -0.7281 0.6549
vn -0.2472 -0.4630 0.8512
vn -0.2471 -0.4629 0.8513
vn -0.2450 0.4009 0.8828
vn -0.3423 0.0329 0.9390
vn -0.0417 0.9608 0.2739
vn -0.0982 0.9189 0.3821
vn -0.9897 0.0984 -0.1043
vn -0.2953 0.7779 0.5546
vn -0.2624 -0.8750 0.4068
vn -0.4338 0.1335 0.8911
vn -0.6207 0.2124 0.7547
vn -0.6296 -0.3157 0.7099
vn -0.5157 -0.4818 0.7084
vn -0.5419 -0.6269 0.5598
vn -0.7649 0.0314 0.6434
vn -0.3392 -0.8823 0.3262
vn -0.5719 -0.7737 0.2725
vn -0.7943 0.4820 0.3698
vn -0.8123 0.3248 0.4844
vn -0.8640 0.1845 0.4685
vn -0.8370 0.4897 0.2443
vn -0.9596 -0.0684 0.2728
vn -0.9752 0.1652 0.1470
vn -0.3001 0.9531 0.0385
vn -0.8995 -0.4156 0.1345
vn -0.7189 0.6921 0.0645
vn -0.6228 -0.7730 0.1211
vn -0.9336 -0.3220 -0.1570
vn -0.4407 0.8957 -0.0588
vn -0.8925 -0.4476 -0.0561
vn -0.7755 -0.6220 -0.1084
vn -0.9897 -0.0984 -0.1043
vn -0.8617 0.0703 -0.5025
vn -0.8618 0.0704 -0.5024
vn -0.7250 0.6493 -0.2297
vn -0.5517 0.7833 -0.2865
vn -0.7668 0.4617 -0.4460
vn -0.4543 -0.8598 -0.2332
vn -0.8718 0.3241 -0.3673
vn -0.8617 -0.0703 -0.5025
vn -0.8618 -0.0704 -0.5024
vn -0.4623 0.0813 -0.8830
vn -0.7504 0.1800 -0.6359
vn -0.6828 -0.4479 -0.5772
vn -0.4723 -0.6518 -0.5933
vn -0.5327 0.5239 -0.6647
vn -0.4623 -0.0813 -0.8830
vn -0.4371 -0.4451 -0.7816
vn -0.2379 0.7917 -0.5628
vn -0.1007 -0.9562 -0.2748
vn -0.1774 0.5010 -0.8471
vn -0.1141 -0.4564 -0.8825
vn -0.1197 -0.7577 -0.6415
vn -0.1347 0.1930 -0.9719
vn 0.0548 -0.7613 0.6460
vn 0.1032 0.4759 0.8734
vn -0.8618 -0.0705 -0.5024
vt 0.541667 0.333333
vt 0.500000 0.500000
vt 0.500000 0.333333
vt 0.458333 0.666667
vt 0.500000 0.833333
vt 0.458333 0.833333
vt 0.708333 0.333333
vt 0.750000 0.166667
vt 0.750000 0.333333
vt 0.250000 0.000000
vt 0.208333 0.166667
vt 0.208333 1.000000
vt 0.666667 0.500000
vt 0.666667 0.333333
vt 0.291667 0.833333
vt 0.250000 1.000000
vt 0.250000 0.833333
vt 0.708333 1.000000
vt 0.750000 0.833333
vt 0.750000 0.000000
vt 0.541667 0.666667
vt 0.500000 0.666667
vt 0.583333 0.500000
vt 0.625000 0.666667
vt 0.583333 0.666667
vt 0.875000 1.000000
vt 0.916667 0.833333
vt 0.916667 0.000000
vt 0.708333 0.500000
vt 0.750000 0.666667
vt 0.708333 0.666667
vt 0.583333 0.166667
vt 0.625000 0.000000
vt 0.625000 0.166667
vt 0.125000 0.333333
vt 0.166667 0.166667
vt 0.166667 0.333333
vt 0.791667 0.333333
vt 0.750000 0.500000
vt 0.625000 0.833333
vt 0.583333 0.833333
vt 0.375000 0.333333
vt 0.416667 0.500000
vt 0.375000 0.500000
vt 0.000000 0.333333
vt 0.041667 0.500000
vt 1.000000 0.500000
vt 0.666667 0.000000
vt 0.666667 0.166667
vt 0.083333 0.166667
vt 0.041667 0.333333
vt 0.041667 0.166667
vt 1.000000 1.000000
vt 0.041667 0.833333
vt 0.041667 0.000000
vt 0.208333 0.833333
vt 0.250000 0.666667
vt 1.000000 0.666667
vt 0.000000 0.500000
vt 0.166667 0.500000
vt 0.208333 0.666667
vt 0.166667 0.666667
vt 0.666667 1.000000
vt 0.708333 0.166667
vt 0.291667 0.333333
vt 0.333333 0.166667
vt 0.333333 0.333333
vt 0.375000 1.000000
vt 0.416667 0.166667
vt 0.375000 0.166667
vt 0.541667 0.833333
vt 0.458333 0.333333
vt 0.416667 0.333333
vt 0.416667 0.833333
vt 0.416667 0.000000
vt 0.000000 0.666667
vt 1.000000 0.833333
vt 0.791667 0.000000
vt 0.750000 1.000000
vt 0.583333 0.333333
vt 0.625000 0.333333
vt 0.666667 0.666667
vt 0.541667 0.166667
vt 0.583333 0.000000
vt 0.916667 0.333333
vt 0.958333 0.166667
vt 0.958333 0.333333
vt 0.916667 0.500000
vt 0.875000 0.666667
vt 0.875000 0.500000
vt 0.916667 0.666667
vt 0.958333 0.833333
vt 0.791667 0.500000
vt 0.250000 0.500000
vt 0.250000 0.333333
vt 0.791667 0.166667
vt 0.833333 0.000000
vt 0.833333 0.166667
vt 0.958333 0.666667
vt 0.833333 0.833333
vt 0.875000 0.000000
vt 0.833333 1.000000
vt 0.791667 0.833333
vt 0.833333 0.666667
vt 0.625000 0.500000
vt 0.500000 0.000000
vt 0.458333 1.000000
vt 0.875000 0.166667
vt 0.833333 0.333333
vt 0.333333 1.000000
vt 0.375000 0.833333
vt 0.375000 0.000000
vt 0.833333 0.500000
vt 0.875000 0.333333
vt 0.916667 0.166667
vt 0.708333 0.833333
vt 0.916667 1.000000
vt 0.875000 0.833333
vt 0.333333 0.500000
vt 0.291667 0.500000
vt 0.583333 1.000000
vt 0.541667 1.000000
vt 0.958333 0.500000
vt 0.208333 0.500000
vt 0.958333 1.000000
vt 1.000000 0.166667
vt 0.000000 0.166667
vt 0.541667 0.000000
vt 0.500000 0.166667
vt 0.500000 1.000000
vt 0.541667 0.500000
vt 0.083333 0.333333
vt 0.083333 0.500000
vt 0.000000 1.000000
vt 0.041667 1.000000
vt 0.083333 0.833333
vt 0.083333 0.000000
vt 0.458333 0.500000
vt 0.791667 0.666667
vt 0.250000 0.166667
vt 0.291667 0.000000
vt 0.291667 0.166667
vt 0.083333 0.666667
vt 0.666667 0.833333
vt 0.291667 0.666667
vt 0.333333 0.833333
vt 0.125000 0.500000
vt 0.125000 0.666667
vt 0.125000 0.833333
vt 0.166667 1.000000
vt 0.208333 0.000000
vt 0.416667 0.666667
vt 0.708333 0.000000
vt 0.125000 1.000000
vt 0.125000 0.166667
vt 0.166667 0.833333
vt 0.208333 0.333333
vt 0.958333 0.000000
vt 0.458333 0.000000
vt 0.458333 0.166667
vt 0.291667 1.000000
vt 0.333333 0.000000
vt 0.083333 1.000000
vt 0.333333 0.666667
vt 0.791667 1.000000
vt 0.375000 0.666667
vt 0.416667 1.000000
vt 0.166667 0.000000
vt 0.000000 0.833333
vt 0.041667 0.666667
vt 1.000000 0.333333
vt 0.125000 0.000000
vt 0.000000 0.000000
vt 1.000000 0.000000
vt 0.625000 1.000000
vt 0.743903 0.288497
vt 0.668265 0.152626
vt 0.770053 0.153475
vt 0.750000 0.593821
vt 0.743903 0.711504
vt 0.703112 0.592823
vt 0.703013 0.937500
vt 0.640649 0.875000
vt 0.770053 0.846525
vt 0.703112 0.407177
vt 0.671294 0.281720
vt 0.703125 0.812500
vt 0.671294 0.718280
vt 0.617828 0.214949
vt 0.640591 0.593918
vt 0.685870 0.500000
vt 0.640591 0.406082
vt 0.617828 0.785051
vt 0.606567 0.500000
vt 0.602021 0.334686
vt 0.602021 0.665313
vt 0.578286 0.562500
vt 0.578286 0.437500
vt 0.544067 0.500000
vt 0.543444 0.396147
vt 0.546290 0.283466
vt 0.512797 0.812500
vt 0.500000 0.718927
vt 0.546290 0.716534
vt 0.500000 0.281073
vt 0.485851 0.406417
vt 0.453088 0.281661
vt 0.453088 0.718339
vt 0.481957 0.875000
vt 0.390150 0.779907
vt 0.512797 0.187500
vt 0.390150 0.220093
vt 0.437500 0.593820
vt 0.485851 0.593583
vt 0.464652 0.500000
vt 0.437500 0.406180
vt 0.481957 0.125000
vt 0.312291 0.062500
vt 0.534636 0.034913
vt 0.371077 0.687500
vt 0.296890 0.125000
vt 0.312291 0.937500
vt 0.296890 0.875000
vt 0.308534 0.812500
vt 0.343750 0.593820
vt 0.392101 0.593583
vt 0.296838 0.718339
vt 0.371077 0.312500
vt 0.296838 0.281661
vt 0.308402 0.500000
vt 0.298351 0.406417
vt 0.343750 0.406180
vt 0.215889 0.812500
vt 0.231567 0.500000
vt 0.203286 0.437500
vt 0.242171 0.399333
vt 0.215889 0.187500
vt 0.124720 0.092148
vt 0.203286 0.562500
vt 0.152347 0.500000
vt 0.203125 1.000000
vt 0.124720 0.907852
vt 0.203125 0.000000
vt 0.168444 0.396148
vt 0.171838 0.718339
vt 0.234338 0.718339
vt 0.124530 0.780107
vt 0.171838 0.281661
vt 0.124530 0.219894
vt 0.110005 0.653989
vt 0.168444 0.603853
vt 0.109536 0.562500
vt 0.109536 0.437500
vt 0.046396 0.841504
vt 0.075317 0.500000
vt 0.048351 0.406417
vt 0.110005 0.346011
vt 0.053721 0.274219
vt 0.053721 0.725781
vt 0.012823 0.312500
vt 0.048351 0.593583
vt 0.012817 0.500000
vt 0.012823 0.687500
vt 0.000000 0.593819
vt 0.046396 0.158496
vt 0.000000 0.062500
vt 0.015625 1.000000
vt 0.000000 0.937500
vt 0.015625 0.000000
vt 0.000000 0.406181
vt 0.000000 0.784407
vt 0.000000 0.215593
vt 1.000000 0.687500
vt 0.975379 0.784407
vt 0.953164 0.655822
vt 1.000000 0.593819
vt 0.975379 0.215593
vt 0.914692 0.096126
vt 1.000000 0.125000
vt 0.953286 0.562500
vt 0.953164 0.344178
vt 0.905677 0.282222
vt 0.906250 0.406181
vt 0.868999 0.212743
vt 0.953286 0.437500
vt 0.914692 0.903874
vt 0.868999 0.787257
vt 0.870902 0.500000
vt 0.860851 0.406417
vt 0.905677 0.717778
vt 0.860851 0.593583
vt 0.906250 0.593820
vt 0.812867 0.717855
vt 0.812867 0.282145
vt 0.828125 1.000000
vt 0.828125 0.000000
vt 0.703013 0.062500
vt 0.797630 0.594651
vt 0.797630 0.405349
vt 0.778880 0.500000
vt 0.750000 0.406179
vt 0.534636 0.965087
vt 0.543444 0.603853
vt 0.387817 0.500000
vt 0.392101 0.406417
vt 0.308534 0.187500
vt 0.298351 0.593583
vt 0.234338 0.281661
vt 0.242171 0.600667
vt 1.000000 0.406181
vt 1.000000 0.875000
vt 1.000000 0.312500
vt 0.950317 0.500000
s 1
f 12/1/1 1/2/1 6/3/1
f 140/4/2 3/5/3 141/6/2
f 36/7/4 41/8/5 42/9/5
f 112/10/6 107/11/6 106/12/6
f 36/7/7 25/13/7 30/14/7
f 117/15/8 112/16/8 111/17/8
f 34/18/9 39/19/9 40/20/9
f 8/21/10 3/5/3 2/22/3
f 13/23/11 20/24/11 14/25/11
f 58/26/12 63/27/12 64/28/12
f 31/29/13 38/30/13 32/31/13
f 17/32/14 22/33/14 23/34/14
f 96/35/15 101/36/16 102/37/16
f 48/38/17 37/39/17 42/9/17
f 14/25/18 21/40/19 15/41/18
f 132/42/20 133/43/20 127/44/20
f 78/45/21 79/46/21 73/47/21
f 23/34/22 28/48/22 29/49/22
f 89/50/23 84/51/24 83/52/24
f 76/53/25 81/54/25 82/55/25
f 105/56/26 110/57/27 111/17/27
f 79/46/28 74/58/28 73/59/28
f 97/60/29 104/61/29 98/62/29
f 28/63/30 35/64/30 29/49/30
f 120/65/31 125/66/32 126/67/32
f 130/68/33 137/69/33 131/70/33
f 14/25/18 9/71/10 8/21/10
f 144/72/34 133/43/34 138/73/34
f 42/9/35 31/29/35 36/7/35
f 130/68/36 135/74/36 136/75/36
f 74/76/37 81/54/38 75/77/37
f 39/19/39 46/78/39 40/79/39
f 18/80/40 23/34/41 24/81/41
f 31/29/42 26/82/42 25/13/42
f 140/4/43 1/2/43 2/22/43
f 11/83/44 16/84/44 17/32/44
f 66/85/45 71/86/46 72/87/46
f 61/88/47 56/89/47 55/90/47
f 62/91/48 69/92/49 63/27/48
f 43/93/50 38/30/50 37/39/50
f 120/65/51 109/94/51 114/95/51
f 47/96/52 52/97/52 53/98/52
f 74/76/37 69/92/49 68/99/49
f 51/100/53 58/101/53 52/102/53
f 45/103/54 50/104/55 51/100/55
f 19/105/56 26/82/56 20/24/56
f 132/42/57 137/69/58 138/73/58
f 141/6/59 4/106/59 142/107/59
f 59/108/60 54/109/61 53/98/61
f 124/110/62 129/111/62 130/112/62
f 126/67/32 131/70/57 132/42/57
f 49/113/63 56/89/63 50/104/63
f 60/114/64 61/88/64 55/90/64
f 58/26/65 65/115/65 59/108/65
f 32/31/66 39/19/67 33/116/66
f 69/92/68 64/117/68 63/27/68
f 56/89/69 63/27/48 57/118/69
f 121/119/70 132/42/70 127/44/70
f 115/120/71 126/67/71 121/119/71
f 15/41/72 22/33/72 16/121/72
f 137/69/58 144/72/73 138/73/58
f 15/41/74 10/122/74 9/71/74
f 47/96/75 42/9/5 41/8/5
f 62/91/76 67/123/76 68/99/76
f 103/124/77 114/95/77 109/94/77
f 70/125/78 77/126/78 71/86/78
f 77/127/79 72/87/46 71/86/46
f 10/128/80 5/129/80 4/130/80
f 11/83/81 6/3/82 5/129/82
f 13/23/83 8/21/83 7/131/83
f 79/46/84 90/132/84 85/133/84
f 82/55/85 77/126/85 76/134/85
f 29/49/86 36/7/4 30/14/86
f 82/135/87 87/136/87 88/137/87
f 38/30/67 45/103/54 39/19/67
f 144/72/88 1/2/88 139/138/88
f 44/139/89 49/113/89 50/104/89
f 113/140/90 118/141/90 119/142/90
f 50/104/55 57/118/69 51/100/55
f 46/78/91 41/8/91 40/79/91
f 81/54/38 86/143/92 87/136/92
f 54/109/93 43/93/93 48/38/93
f 19/105/94 30/14/94 25/13/94
f 124/110/95 131/70/95 125/66/95
f 20/24/19 27/144/96 21/40/19
f 111/17/97 106/12/97 105/56/97
f 116/145/98 123/146/99 117/15/98
f 86/143/100 91/147/100 92/148/100
f 96/35/101 97/60/101 91/147/101
f 4/130/102 9/71/102 10/128/102
f 86/143/92 93/149/103 87/136/92
f 100/150/104 105/56/104 106/151/104
f 27/144/96 32/31/66 33/116/66
f 49/113/105 60/114/105 55/90/105
f 134/152/106 139/138/106 140/4/106
f 28/63/107 33/116/107 34/153/107
f 113/140/108 120/65/31 114/95/108
f 94/154/109 101/36/109 95/155/109
f 99/156/110 104/61/26 105/56/26
f 66/85/111 67/123/111 61/88/111
f 78/45/112 67/123/112 72/87/112
f 82/135/113 89/50/113 83/52/113
f 107/11/114 114/95/108 108/157/114
f 70/158/115 65/115/115 64/117/115
f 93/149/103 98/62/110 99/156/110
f 103/124/116 110/57/116 104/61/116
f 90/132/117 91/147/117 85/133/117
f 137/69/118 142/159/118 143/160/118
f 47/96/75 54/109/61 48/38/75
f 118/161/119 123/146/119 124/162/119
f 111/17/27 116/145/98 117/15/98
f 109/94/120 116/145/120 110/57/120
f 92/148/121 97/60/121 98/62/121
f 100/150/122 107/11/122 101/36/122
f 24/81/41 29/49/86 30/14/86
f 88/163/123 95/155/123 89/50/123
f 90/132/23 95/155/15 96/35/15
f 115/120/124 122/164/124 116/145/124
f 73/59/125 68/99/125 67/123/125
f 53/98/126 58/101/126 59/108/126
f 12/1/1 7/131/1 1/2/1
f 45/103/127 52/97/127 46/165/127
f 122/164/99 129/111/128 123/146/99
f 121/119/129 128/166/129 122/164/129
f 97/60/130 108/157/130 103/124/130
f 34/18/131 41/8/131 35/64/131
f 101/36/16 108/157/114 102/37/16
f 135/74/132 142/159/132 136/167/132
f 128/166/128 135/74/133 129/111/128
f 128/166/134 133/43/134 134/152/134
f 13/23/135 24/81/135 19/105/135
f 94/154/136 99/156/136 100/168/136
f 11/83/81 18/80/40 12/1/81
f 140/4/2 135/74/133 134/152/133
f 7/131/137 2/22/137 1/2/137
f 4/106/138 143/160/138 142/107/138
f 75/169/139 70/125/139 69/92/139
f 65/115/45 60/114/60 59/108/60
f 85/133/140 80/170/140 79/46/140
f 18/80/141 7/131/141 12/1/141
f 78/171/79 83/52/24 84/51/24
f 5/129/82 144/72/73 143/160/73
f 118/161/142 125/66/142 119/142/142
f 88/163/143 93/149/143 94/172/143
f 11/83/81 12/1/81 6/3/82
f 61/88/47 62/91/47 56/89/47
f 79/46/28 80/170/28 74/58/28
f 100/150/122 106/151/122 107/11/122
f 82/55/85 83/52/85 77/126/85
f 73/59/125 74/58/125 68/99/125
f 70/158/115 71/86/115 65/115/115
f 62/91/48 68/99/49 69/92/49
f 10/128/80 11/83/80 5/129/80
f 21/40/144 27/144/144 28/48/144
f 77/127/79 78/171/79 72/87/46
f 93/149/103 92/148/103 98/62/110
f 89/50/23 90/132/23 84/51/24
f 38/30/67 44/139/54 45/103/54
f 76/53/25 75/169/25 81/54/25
f 137/69/58 143/160/73 144/72/73
f 44/139/89 43/93/89 49/113/89
f 8/21/10 9/71/10 3/5/3
f 122/164/99 128/166/128 129/111/128
f 96/35/15 95/155/15 101/36/16
f 81/54/38 80/170/38 86/143/92
f 62/91/76 61/88/76 67/123/76
f 121/119/129 127/44/129 128/166/129
f 78/45/21 84/51/21 79/46/21
f 78/45/112 73/47/112 67/123/112
f 97/60/29 103/124/29 104/61/29
f 79/46/84 84/51/84 90/132/84
f 70/125/78 76/173/78 77/126/78
f 107/11/114 113/140/108 114/95/108
f 120/65/31 119/142/31 125/66/32
f 140/4/2 141/6/2 135/74/133
f 105/56/26 104/61/26 110/57/27
f 103/124/77 108/157/77 114/95/77
f 29/49/86 35/64/4 36/7/4
f 11/83/81 17/32/40 18/80/40
f 31/29/42 32/31/42 26/82/42
f 94/154/109 100/168/109 101/36/109
f 39/19/39 45/103/39 46/78/39
f 82/135/87 81/54/87 87/136/87
f 111/17/97 112/10/97 106/12/97
f 99/156/110 98/62/110 104/61/26
f 47/96/52 46/165/52 52/97/52
f 78/171/79 77/127/79 83/52/24
f 74/76/37 75/77/37 69/92/49
f 113/140/90 112/16/90 118/141/90
f 124/110/62 123/146/62 129/111/62
f 18/80/141 13/23/141 7/131/141
f 36/7/7 31/29/7 25/13/7
f 118/161/142 124/162/142 125/66/142
f 112/10/6 113/140/6 107/11/6
f 126/67/32 125/66/32 131/70/57
f 113/140/108 119/142/31 120/65/31
f 88/163/143 87/136/143 93/149/143
f 130/68/33 136/75/33 137/69/33
f 90/132/117 96/35/117 91/147/117
f 14/25/18 15/41/18 9/71/10
f 28/63/107 27/144/107 33/116/107
f 69/92/68 70/158/68 64/117/68
f 103/124/116 109/94/116 110/57/116
f 74/76/37 80/170/38 81/54/38
f 128/166/134 127/44/134 133/43/134
f 18/80/40 17/32/40 23/34/41
f 56/89/69 62/91/48 63/27/48
f 27/144/96 26/82/96 32/31/66
f 13/23/135 18/80/135 24/81/135
f 120/65/51 115/120/51 109/94/51
f 53/98/126 52/102/126 58/101/126
f 43/93/50 44/139/50 38/30/50
f 4/130/102 3/5/102 9/71/102
f 46/78/91 47/96/91 41/8/91
f 45/103/127 51/100/127 52/97/127
f 28/63/30 34/153/30 35/64/30
f 118/161/119 117/15/119 123/146/119
f 140/4/43 139/138/43 1/2/43
f 144/72/88 6/3/88 1/2/88
f 116/145/98 122/164/99 123/146/99
f 47/96/75 53/98/61 54/109/61
f 117/15/8 118/141/8 112/16/8
f 7/131/137 8/21/137 2/22/137
f 34/18/9 33/116/9 39/19/9
f 50/104/55 56/89/69 57/118/69
f 54/109/93 49/113/93 43/93/93
f 75/169/139 76/174/139 70/125/139
f 13/23/11 19/105/11 20/24/11
f 109/94/120 115/120/120 116/145/120
f 14/25/18 20/24/19 21/40/19
f 19/105/94 24/81/94 30/14/94
f 60/114/64 66/85/64 61/88/64
f 24/81/41 23/34/41 29/49/86
f 58/26/12 57/118/12 63/27/12
f 34/18/131 40/20/131 41/8/131
f 23/34/22 22/175/22 28/48/22
f 49/113/63 55/90/63 56/89/63
f 47/96/75 48/38/75 42/9/5
f 97/60/130 102/37/130 108/157/130
f 19/105/56 25/13/56 26/82/56
f 92/148/121 91/147/121 97/60/121
f 132/42/57 131/70/57 137/69/58
f 121/119/70 126/67/70 132/42/70
f 86/143/92 92/148/103 93/149/103
f 111/17/27 110/57/27 116/145/98
f 17/32/14 16/121/14 22/33/14
f 137/69/118 136/167/118 142/159/118
f 31/29/13 37/39/13 38/30/13
f 100/150/104 99/156/104 105/56/104
f 124/110/95 130/112/95 131/70/95
f 115/120/124 121/119/124 122/164/124
f 51/100/53 57/118/53 58/101/53
f 135/74/132 141/6/132 142/159/132
f 45/103/54 44/139/54 50/104/55
f 20/24/19 26/82/96 27/144/96
f 58/26/65 64/28/65 65/115/65
f 101/36/16 107/11/114 108/157/114
f 48/38/17 43/93/17 37/39/17
f 4/106/138 5/129/138 143/160/138
f 132/42/20 138/73/20 133/43/20
f 32/31/66 38/30/67 39/19/67
f 49/113/105 54/109/105 60/114/105
f 5/129/82 6/3/82 144/72/73
f 140/4/2 2/22/3 3/5/3
f 66/85/111 72/87/111 67/123/111
f 36/7/4 35/64/4 41/8/5
f 134/152/106 133/43/106 139/138/106
f 115/120/71 120/65/71 126/67/71
f 82/135/113 88/137/113 89/50/113
f 141/6/59 3/5/59 4/106/59
f 90/132/23 89/50/23 95/155/15
f 59/108/60 60/114/60 54/109/61
f 15/41/72 21/40/72 22/33/72
f 15/41/74 16/84/74 10/122/74
f 88/163/123 94/172/123 95/155/123
f 42/9/35 37/39/35 31/29/35
f 130/68/36 129/111/36 135/74/36
f 13/23/83 14/25/83 8/21/83
f 85/133/140 86/143/140 80/170/140
f 94/154/136 93/149/136 99/156/136
f 144/72/34 139/138/34 133/43/34
f 86/143/100 85/133/100 91/147/100
f 96/35/101 102/37/101 97/60/101
f 11/83/44 10/122/44 16/84/44
f 66/85/45 65/115/45 71/86/46
f 128/166/128 134/152/133 135/74/133
f 65/115/45 66/85/45 60/114/60
f 21/40/144 28/48/144 22/175/144
f 149/176/145 156/177/145 150/178/145
f 266/179/146 147/180/146 148/181/146
f 159/182/147 160/183/147 146/184/147
f 152/185/148 155/186/148 149/176/148
f 151/187/149 153/188/149 147/180/149
f 156/177/150 155/186/150 166/189/150
f 153/188/151 157/190/151 148/181/151
f 154/191/152 266/179/152 148/181/152
f 152/185/153 154/191/153 158/192/153
f 160/183/154 161/193/154 151/187/154
f 154/191/155 157/190/155 164/194/155
f 155/186/156 158/192/156 165/195/156
f 157/190/157 162/196/157 163/197/157
f 164/194/158 170/198/158 158/192/158
f 164/194/159 163/197/160 172/199/159
f 170/198/161 173/200/161 165/195/161
f 165/195/162 173/200/162 174/201/162
f 165/195/163 174/201/163 166/189/163
f 172/199/164 173/200/164 170/198/164
f 177/202/165 175/203/165 169/204/165
f 176/205/166 179/206/166 185/207/166
f 177/202/167 181/208/167 175/203/167
f 177/202/168 187/209/168 192/210/168
f 180/211/169 185/207/169 197/212/169
f 181/208/170 182/213/170 178/214/170
f 183/215/171 184/216/171 179/206/171
f 188/217/172 213/218/172 186/219/172
f 181/208/173 192/210/173 193/220/173
f 188/217/174 197/212/174 205/221/174
f 206/222/175 207/223/175 187/209/175
f 192/210/176 207/223/176 199/224/176
f 193/220/177 194/225/177 189/226/177
f 199/224/178 200/227/178 192/210/178
f 196/228/179 203/229/179 197/212/179
f 201/230/180 202/231/180 195/232/180
f 199/224/181 207/223/181 214/233/181
f 210/234/182 216/235/182 211/236/182
f 217/237/183 236/238/183 205/221/183
f 205/221/184 236/238/184 213/218/184
f 210/234/185 215/239/185 222/240/185
f 206/222/186 168/241/186 223/242/186
f 186/243/187 213/218/187 236/238/187
f 216/235/188 220/244/188 211/236/188
f 214/233/189 218/245/189 208/246/189
f 222/240/190 220/244/190 216/235/190
f 223/242/191 224/247/191 214/233/191
f 217/237/192 221/248/192 229/249/192
f 218/245/193 224/247/193 225/250/193
f 218/245/194 225/250/194 219/251/194
f 219/251/195 225/250/195 226/252/195
f 222/240/196 227/253/196 220/244/196
f 223/242/197 237/254/197 224/247/197
f 222/240/198 226/252/198 230/255/198
f 230/255/199 234/256/199 227/253/199
f 227/253/200 234/256/200 228/257/200
f 228/257/201 234/256/201 235/258/201
f 237/254/202 231/259/202 224/247/202
f 228/257/203 235/258/203 229/249/203
f 224/247/204 231/259/204 225/250/204
f 235/258/205 234/256/205 241/260/205
f 230/255/206 233/261/206 239/262/206
f 232/263/207 238/264/207 233/261/207
f 242/265/208 260/266/208 236/238/208
f 223/242/209 168/267/209 254/268/209
f 186/269/210 236/238/210 260/266/210
f 239/262/211 240/270/211 234/256/211
f 237/254/212 244/271/212 231/259/212
f 241/260/213 243/272/213 235/258/213
f 232/273/214 244/274/214 245/275/214
f 232/273/215 245/275/215 238/276/215
f 243/277/216 260/278/216 242/279/216
f 238/276/217 245/275/217 246/280/217
f 249/281/218 253/282/218 243/277/218
f 249/281/219 252/283/219 253/282/219
f 243/277/220 253/282/220 259/284/220
f 248/285/221 252/283/221 249/281/221
f 254/286/222 255/287/222 244/274/222
f 257/288/223 258/289/223 252/283/223
f 250/290/224 256/291/224 251/292/224
f 250/290/225 255/287/225 261/293/225
f 253/282/226 258/289/226 265/294/226
f 254/286/227 168/295/227 159/182/227
f 186/296/228 260/278/228 167/297/228
f 254/286/229 159/182/229 146/184/229
f 254/286/230 146/184/230 255/287/230
f 259/284/231 265/294/231 150/178/231
f 261/293/232 262/298/232 256/291/232
f 259/284/233 150/178/233 260/278/233
f 265/294/234 264/299/234 149/176/234
f 263/300/235 145/301/235 264/299/235
f 261/293/236 146/184/236 147/180/236
f 262/298/237 147/180/237 266/179/237
f 145/301/238 154/191/238 152/185/238
f 160/183/239 168/302/239 187/209/240
f 145/301/241 152/185/241 149/176/241
f 147/180/242 146/184/242 151/187/242
f 150/178/243 156/177/243 167/297/243
f 146/184/244 160/183/244 151/187/244
f 156/177/245 149/176/245 155/186/245
f 147/180/246 153/188/246 148/181/246
f 155/186/247 152/185/247 158/192/247
f 151/187/248 161/193/248 153/188/248
f 148/181/249 157/190/249 154/191/249
f 154/191/250 164/194/250 158/192/250
f 155/186/251 165/195/251 166/189/251
f 153/188/252 161/193/252 162/196/252
f 153/188/253 162/196/253 157/190/253
f 164/194/254 157/190/254 163/197/254
f 158/192/255 170/198/255 165/195/255
f 164/194/159 172/199/159 170/198/256
f 177/202/257 160/183/257 187/209/257
f 156/177/258 180/211/259 188/217/260
f 161/193/261 177/202/261 169/204/261
f 162/196/262 161/193/262 169/204/262
f 166/189/263 174/201/263 180/211/263
f 162/196/264 169/204/264 171/303/264
f 188/217/265 167/297/265 156/177/266
f 163/197/267 162/196/267 171/303/267
f 179/206/268 172/199/268 183/215/268
f 172/199/269 163/197/269 171/303/269
f 176/205/270 173/200/270 179/206/271
f 171/303/272 175/203/273 178/214/272
f 180/211/274 174/201/274 176/205/274
f 178/214/275 172/199/275 171/303/275
f 189/226/276 181/208/277 193/220/276
f 180/211/278 176/205/278 185/207/278
f 175/203/279 181/208/279 178/214/279
f 185/207/280 179/206/280 184/216/280
f 177/202/281 192/210/281 181/208/281
f 180/211/282 197/212/282 188/217/282
f 183/215/283 178/214/283 182/213/283
f 190/304/284 182/213/285 189/226/284
f 184/216/286 190/304/287 191/305/287
f 191/305/288 185/207/289 184/216/288
f 168/302/290 206/222/290 187/209/290
f 194/225/291 190/304/292 189/226/292
f 185/207/293 196/228/293 197/212/293
f 187/209/294 207/223/294 192/210/294
f 213/218/295 188/217/295 205/221/295
f 197/212/296 204/306/296 205/221/296
f 195/232/297 190/304/298 201/230/298
f 203/229/299 195/232/300 202/231/300
f 196/228/301 191/305/301 195/232/301
f 194/225/302 200/227/303 198/307/302
f 193/220/304 192/210/304 200/227/304
f 204/306/305 197/212/305 203/229/305
f 211/236/306 203/229/307 202/231/306
f 201/230/308 194/225/308 198/307/308
f 208/246/309 199/224/310 214/233/311
f 212/308/312 204/306/313 203/229/314
f 209/309/315 200/227/316 208/246/316
f 210/234/317 198/307/318 209/309/317
f 204/306/319 217/237/319 205/221/319
f 202/231/320 210/234/321 211/236/321
f 219/251/322 208/246/323 218/245/323
f 210/234/324 209/309/324 215/239/324
f 217/237/325 212/308/325 221/248/325
f 220/244/326 212/308/327 211/236/327
f 215/239/328 209/309/328 219/251/328
f 210/234/329 222/240/329 216/235/329
f 207/223/330 206/222/330 223/242/330
f 207/223/331 223/242/331 214/233/331
f 246/280/332 239/47/332 238/276/332
f 214/233/333 224/247/333 218/245/333
f 217/237/334 229/249/334 236/238/334
f 222/240/335 215/239/335 219/251/335
f 222/240/336 219/251/336 226/252/336
f 220/244/337 227/253/337 228/257/337
f 221/248/338 220/244/338 228/257/338
f 221/248/339 228/257/339 229/249/339
f 222/240/340 230/255/340 227/253/340
f 229/249/341 242/265/341 236/238/341
f 242/265/342 229/249/342 235/258/342
f 225/250/343 231/259/343 233/261/343
f 226/252/344 225/250/344 233/261/344
f 230/255/345 226/252/345 233/261/345
f 231/259/346 232/263/346 233/261/346
f 230/255/347 239/262/347 234/256/347
f 239/262/348 233/261/348 238/264/348
f 223/242/349 254/268/349 237/254/349
f 241/260/350 234/256/350 240/270/350
f 232/263/351 231/259/351 244/271/351
f 242/265/352 235/258/352 243/272/352
f 240/310/353 248/285/353 249/281/353
f 244/274/354 237/311/354 254/286/354
f 241/312/355 240/310/355 249/281/355
f 241/312/356 249/281/356 243/277/356
f 248/285/357 239/47/357 247/313/357
f 251/292/358 247/313/359 246/280/359
f 245/275/360 244/274/360 250/290/360
f 244/274/361 255/287/361 250/290/361
f 245/275/362 250/290/362 251/292/362
f 260/278/363 243/277/363 259/284/363
f 246/280/364 245/275/364 251/292/364
f 252/283/365 247/313/366 257/288/366
f 262/298/367 257/288/367 256/291/367
f 257/288/368 251/292/368 256/291/368
f 253/282/369 252/283/369 258/289/369
f 253/282/370 265/294/370 259/284/370
f 250/290/371 261/293/371 256/291/371
f 264/299/372 257/288/372 263/300/372
f 265/294/373 258/289/373 264/299/373
f 255/287/374 146/184/374 261/293/374
f 260/278/375 150/178/375 167/297/375
f 261/293/376 147/180/376 262/298/376
f 264/299/377 145/301/377 149/176/377
f 150/178/378 265/294/378 149/176/378
f 263/300/379 262/298/379 266/179/379
f 154/191/152 263/300/152 266/179/152
f 145/301/238 263/300/238 154/191/238
f 160/183/239 159/182/239 168/302/239
f 177/202/257 161/193/257 160/183/257
f 156/177/258 166/189/258 180/211/259
f 188/217/265 186/219/266 167/297/265
f 179/206/268 173/200/268 172/199/268
f 176/205/270 174/201/270 173/200/270
f 171/303/272 169/204/273 175/203/273
f 178/214/275 183/215/275 172/199/275
f 189/226/276 182/213/276 181/208/277
f 190/304/284 183/215/284 182/213/285
f 184/216/286 183/215/287 190/304/287
f 191/305/288 196/228/288 185/207/289
f 194/225/291 201/230/292 190/304/292
f 195/232/297 191/305/298 190/304/298
f 203/229/299 196/228/300 195/232/300
f 194/225/302 193/220/302 200/227/303
f 211/236/306 212/308/307 203/229/307
f 208/246/309 200/227/311 199/224/310
f 212/308/312 217/237/380 204/306/313
f 209/309/315 198/307/381 200/227/316
f 210/234/317 201/230/317 198/307/318
f 202/231/320 201/230/321 210/234/321
f 219/251/322 209/309/323 208/246/323
f 220/244/326 221/248/327 212/308/327
f 246/280/332 247/313/332 239/47/332
f 248/285/357 240/310/357 239/47/357
f 251/292/358 257/288/359 247/313/359
f 252/283/365 248/285/382 247/313/366
f 262/298/367 263/300/367 257/288/367
f 264/299/372 258/289/372 257/288/372
