# Blender 4.3.0
# www.blender.org
mtllib a.mtl
o SS
v 97.462975 0.000000 0.000000
v 92.342827 1.545163 -0.000000
v 82.781349 1.780935 -0.000000
v 78.956810 0.000000 0.000001
v 82.781349 -1.780935 0.000000
v 92.342827 -1.545163 0.000000
v 94.142006 -0.000004 -25.225273
v 89.196327 1.545159 -23.900078
v 79.960640 1.780931 -21.425385
v 76.266426 -0.000004 -20.435520
v 79.960640 -1.780939 -21.425385
v 89.196327 -1.545167 -23.900078
v 84.405411 -0.000008 -48.731499
v 79.971230 1.545157 -46.171425
v 71.690735 1.780929 -41.390678
v 68.378593 -0.000006 -39.478409
v 71.690735 -1.780941 -41.390678
v 79.971230 -1.545169 -46.171425
v 68.916725 -0.000010 -68.916748
v 65.296234 1.545153 -65.296249
v 58.535236 1.780926 -58.535248
v 55.830898 -0.000008 -55.830898
v 58.535236 -1.780942 -58.535248
v 65.296234 -1.545173 -65.296249
v 48.731483 -0.000012 -84.405426
v 46.171413 1.545151 -79.971252
v 41.390671 1.780924 -71.690750
v 39.478405 -0.000010 -68.378616
v 41.390671 -1.780944 -71.690750
v 46.171413 -1.545175 -79.971252
v 25.225281 -0.000014 -94.142021
v 23.900084 1.545149 -89.196320
v 21.425392 1.780922 -79.960625
v 20.435530 -0.000012 -76.266426
v 21.425392 -1.780946 -79.960625
v 23.900084 -1.545177 -89.196320
v 0.000006 -0.000014 -97.462990
v 0.000006 1.545149 -92.342834
v 0.000007 1.780924 -82.781349
v 0.000008 -0.000012 -78.956802
v 0.000007 -1.780948 -82.781349
v 0.000006 -1.545177 -92.342834
v -25.225267 -0.000014 -94.142021
v -23.900076 1.545149 -89.196342
v -21.425381 1.780924 -79.960648
v -20.435516 -0.000012 -76.266418
v -21.425381 -1.780948 -79.960648
v -23.900076 -1.545177 -89.196342
v -48.731476 -0.000012 -84.405441
v -46.171402 1.545151 -79.971252
v -41.390663 1.780926 -71.690758
v -39.478394 -0.000010 -68.378624
v -41.390663 -1.780946 -71.690758
v -46.171402 -1.545175 -79.971252
v -68.916763 -0.000010 -68.916718
v -65.296265 1.545153 -65.296234
v -58.535263 1.780927 -58.535236
v -55.830910 -0.000008 -55.830883
v -58.535263 -1.780943 -58.535236
v -65.296265 -1.545173 -65.296234
v -84.405396 -0.000008 -48.731518
v -79.971230 1.545157 -46.171440
v -71.690735 1.780930 -41.390697
v -68.378593 -0.000006 -39.478424
v -71.690735 -1.780942 -41.390697
v -79.971230 -1.545169 -46.171440
v -94.142021 -0.000004 -25.225264
v -89.196342 1.545159 -23.900076
v -79.960655 1.780931 -21.425385
v -76.266434 -0.000004 -20.435520
v -79.960655 -1.780939 -21.425385
v -89.196342 -1.545167 -23.900076
v -97.462990 -0.000000 -0.000009
v -92.342850 1.545163 -0.000008
v -82.781357 1.780935 -0.000007
v -78.956818 -0.000000 -0.000006
v -82.781357 -1.780935 -0.000007
v -92.342850 -1.545163 -0.000008
v -94.142021 0.000004 25.225264
v -89.196350 1.545167 23.900078
v -79.960655 1.780940 21.425385
v -76.266426 0.000004 20.435520
v -79.960655 -1.780932 21.425385
v -89.196350 -1.545159 23.900078
v -84.405441 0.000008 48.731476
v -79.971260 1.545169 46.171410
v -71.690758 1.780942 41.390659
v -68.378616 0.000006 39.478397
v -71.690758 -1.780930 41.390659
v -79.971260 -1.545157 46.171410
v -68.916763 0.000010 68.916718
v -65.296265 1.545173 65.296234
v -58.535275 1.780944 58.535240
v -55.830917 0.000008 55.830894
v -58.535275 -1.780928 58.535240
v -65.296265 -1.545153 65.296234
v -48.731476 0.000012 84.405434
v -46.171410 1.545175 79.971260
v -41.390663 1.780945 71.690758
v -39.478397 0.000010 68.378624
v -41.390663 -1.780925 71.690758
v -46.171410 -1.545151 79.971260
v -25.225307 0.000014 94.142021
v -23.900116 1.545177 89.196320
v -21.425413 1.780947 79.960625
v -20.435551 0.000012 76.266426
v -21.425413 -1.780923 79.960625
v -23.900116 -1.545149 89.196320
v 0.000006 0.000014 97.462990
v 0.000006 1.545177 92.342834
v 0.000007 1.780947 82.781342
v 0.000008 0.000012 78.956818
v 0.000007 -1.780923 82.781342
v 0.000006 -1.545149 92.342834
v 25.225231 0.000014 94.142029
v 23.900042 1.545177 89.196342
v 21.425352 1.780947 79.960640
v 20.435493 0.000012 76.266441
v 21.425352 -1.780923 79.960640
v 23.900042 -1.545149 89.196342
v 48.731483 0.000012 84.405411
v 46.171413 1.545175 79.971252
v 41.390671 1.780945 71.690758
v 39.478409 0.000010 68.378609
v 41.390671 -1.780925 71.690758
v 46.171413 -1.545151 79.971252
v 68.916702 0.000010 68.916771
v 65.296219 1.545173 65.296280
v 58.535213 1.780943 58.535290
v 55.830868 0.000008 55.830925
v 58.535213 -1.780927 58.535290
v 65.296219 -1.545153 65.296280
v 84.405411 0.000008 48.731499
v 79.971237 1.545169 46.171429
v 71.690742 1.780941 41.390686
v 68.378593 0.000006 39.478416
v 71.690742 -1.780929 41.390686
v 79.971237 -1.545157 46.171429
v 94.142021 0.000004 25.225250
v 89.196327 1.545167 23.900057
v 79.960648 1.780939 21.425367
v 76.266426 0.000004 20.435509
v 79.960648 -1.780931 21.425367
v 89.196327 -1.545159 23.900057
vn 0.2887 -0.9567 -0.0380
vn 0.0238 0.9997 0.0064
vn 0.0247 0.9997 -0.0000
vn 0.0064 -0.9997 -0.0238
vn -0.0000 -0.9997 -0.0247
vn 0.0555 -0.9051 -0.4215
vn 0.1114 -0.9567 -0.2690
vn -0.0555 0.9051 -0.4215
vn -0.0555 0.9051 0.4215
vn 0.0238 0.9997 -0.0064
vn 0.2310 0.9567 -0.1773
vn 0.3373 0.9051 0.2588
vn 0.0380 0.9567 -0.2887
vn -0.3373 -0.9051 0.2588
vn -0.0174 -0.9997 0.0174
vn -0.0123 -0.9997 0.0213
vn -0.0380 -0.9567 -0.2887
vn 0.0213 0.9997 -0.0123
vn 0.0174 0.9997 -0.0174
vn 0.2310 -0.9567 0.1773
vn -0.2887 -0.9567 0.0380
vn -0.2588 -0.9051 0.3373
vn -0.0213 -0.9997 0.0123
vn -0.0238 -0.9997 0.0064
vn 0.4215 0.9051 -0.0555
vn -0.0064 0.9997 0.0238
vn -0.0000 0.9997 0.0247
vn -0.2887 0.9567 0.0380
vn -0.1114 0.9567 0.2690
vn -0.1627 -0.9051 0.3928
vn 0.0064 -0.9997 0.0238
vn 0.0123 -0.9997 0.0213
vn -0.3373 -0.9051 -0.2588
vn 0.2690 -0.9567 0.1114
vn 0.0380 -0.9567 -0.2887
vn -0.3373 0.9051 -0.2588
vn -0.0247 0.9997 -0.0000
vn -0.0238 0.9997 0.0064
vn 0.0555 0.9051 0.4215
vn 0.0213 -0.9997 -0.0123
vn 0.0174 -0.9997 -0.0174
vn 0.1114 0.9567 -0.2690
vn 0.2887 0.9567 0.0380
vn -0.3928 -0.9051 0.1627
vn -0.0213 -0.9997 -0.0123
vn -0.0238 -0.9997 -0.0064
vn -0.2310 0.9567 -0.1773
vn -0.0213 0.9997 -0.0123
vn -0.0238 0.9997 -0.0064
vn -0.0380 0.9567 -0.2887
vn 0.0380 -0.9567 0.2887
vn 0.1627 -0.9051 0.3928
vn 0.2588 0.9051 0.3373
vn -0.0064 0.9997 -0.0238
vn -0.0123 0.9997 -0.0213
vn 0.1773 0.9567 -0.2310
vn 0.0174 -0.9997 0.0174
vn 0.0213 -0.9997 0.0123
vn -0.4215 0.9051 -0.0555
vn -0.0174 -0.9997 -0.0174
vn -0.0123 -0.9997 -0.0213
vn -0.2588 0.9051 -0.3373
vn -0.1773 0.9567 -0.2310
vn -0.2310 -0.9567 -0.1773
vn 0.3373 -0.9051 0.2588
vn 0.0064 0.9997 -0.0238
vn -0.0000 0.9997 -0.0247
vn 0.3928 0.9051 0.1627
vn -0.0174 0.9997 -0.0174
vn 0.1773 -0.9567 0.2310
vn 0.1114 -0.9567 0.2690
vn -0.3373 0.9051 0.2588
vn 0.0238 -0.9997 0.0064
vn -0.3928 0.9051 0.1627
vn -0.0064 -0.9997 -0.0238
vn -0.2690 0.9567 -0.1114
vn -0.0380 -0.9567 0.2887
vn 0.4215 -0.9051 0.0555
vn -0.0247 -0.9997 -0.0000
vn -0.4215 -0.9051 0.0555
vn 0.0238 -0.9997 -0.0064
vn 0.0247 -0.9997 -0.0000
vn 0.2690 0.9567 -0.1114
vn -0.2690 -0.9567 0.1114
vn 0.4215 -0.9051 -0.0555
vn 0.0123 -0.9997 -0.0213
vn 0.3928 0.9051 -0.1627
vn 0.2887 -0.9567 0.0380
vn -0.1114 0.9567 -0.2690
vn -0.0555 -0.9051 -0.4215
vn 0.0555 -0.9051 0.4215
vn -0.0213 0.9997 0.0123
vn -0.1114 -0.9567 -0.2690
vn 0.1773 -0.9567 -0.2310
vn -0.2588 -0.9051 -0.3373
vn 0.0123 0.9997 -0.0213
vn 0.0555 0.9051 -0.4215
vn 0.0064 0.9997 0.0238
vn 0.0123 0.9997 0.0213
vn -0.2310 0.9567 0.1773
vn -0.1773 -0.9567 0.2310
vn -0.4215 0.9051 0.0555
vn -0.0174 0.9997 0.0174
vn 0.1627 0.9051 -0.3928
vn -0.1773 -0.9567 -0.2310
vn 0.2690 0.9567 0.1114
vn -0.1627 0.9051 0.3928
vn -0.0000 -0.9997 0.0247
vn 0.2588 -0.9051 -0.3373
vn -0.0123 0.9997 0.0213
vn -0.2690 -0.9567 -0.1114
vn -0.2887 -0.9567 -0.0380
vn 0.3928 -0.9051 -0.1627
vn -0.0064 -0.9997 0.0238
vn 0.3928 -0.9051 0.1627
vn -0.0380 0.9567 0.2887
vn -0.2310 -0.9567 0.1773
vn -0.3928 -0.9051 -0.1627
vn -0.1627 0.9051 -0.3928
vn 0.0380 0.9567 0.2887
vn -0.1773 0.9567 0.2310
vn 0.1627 -0.9051 -0.3928
vn 0.3373 -0.9051 -0.2588
vn 0.1114 0.9567 0.2690
vn -0.2887 0.9567 -0.0380
vn 0.2588 -0.9051 0.3373
vn 0.1627 0.9051 0.3928
vn 0.0174 0.9997 0.0174
vn 0.1773 0.9567 0.2310
vn -0.1114 -0.9567 0.2690
vn -0.0555 -0.9051 0.4215
vn -0.3928 0.9051 -0.1627
vn 0.0213 0.9997 0.0123
vn 0.2310 0.9567 0.1773
vn 0.2310 -0.9567 -0.1773
vn 0.2588 0.9051 -0.3373
vn 0.2887 0.9567 -0.0380
vn -0.4215 -0.9051 -0.0555
vn 0.4215 0.9051 0.0555
vn -0.2690 0.9567 0.1114
vn 0.2690 -0.9567 -0.1114
vn -0.1627 -0.9051 -0.3928
vn 0.3373 0.9051 -0.2588
vn -0.2588 0.9051 0.3373
vt 0.541667 0.333333
vt 0.500000 0.500000
vt 0.500000 0.333333
vt 0.458333 0.666667
vt 0.500000 0.833333
vt 0.458333 0.833333
vt 0.708333 0.333333
vt 0.750000 0.166667
vt 0.750000 0.333333
vt 0.250000 0.000000
vt 0.208333 0.166667
vt 0.208333 1.000000
vt 0.666667 0.500000
vt 0.666667 0.333333
vt 0.291667 0.833333
vt 0.250000 1.000000
vt 0.250000 0.833333
vt 0.708333 1.000000
vt 0.750000 0.833333
vt 0.750000 0.000000
vt 0.541667 0.666667
vt 0.500000 0.666667
vt 0.583333 0.500000
vt 0.625000 0.666667
vt 0.583333 0.666667
vt 0.875000 1.000000
vt 0.916667 0.833333
vt 0.916667 0.000000
vt 0.708333 0.500000
vt 0.750000 0.666667
vt 0.708333 0.666667
vt 0.583333 0.166667
vt 0.625000 0.000000
vt 0.625000 0.166667
vt 0.125000 0.333333
vt 0.166667 0.166667
vt 0.166667 0.333333
vt 0.791667 0.333333
vt 0.750000 0.500000
vt 0.625000 0.833333
vt 0.583333 0.833333
vt 0.375000 0.333333
vt 0.416667 0.500000
vt 0.375000 0.500000
vt 0.000000 0.333333
vt 0.041667 0.500000
vt 1.000000 0.500000
vt 0.666667 0.000000
vt 0.666667 0.166667
vt 0.083333 0.166667
vt 0.041667 0.333333
vt 0.041667 0.166667
vt 1.000000 1.000000
vt 0.041667 0.833333
vt 0.041667 0.000000
vt 0.208333 0.833333
vt 0.250000 0.666667
vt 1.000000 0.666667
vt 0.000000 0.500000
vt 0.166667 0.500000
vt 0.208333 0.666667
vt 0.166667 0.666667
vt 0.666667 1.000000
vt 0.708333 0.166667
vt 0.291667 0.333333
vt 0.333333 0.166667
vt 0.333333 0.333333
vt 0.375000 1.000000
vt 0.416667 0.166667
vt 0.375000 0.166667
vt 0.541667 0.833333
vt 0.458333 0.333333
vt 0.416667 0.333333
vt 0.416667 0.833333
vt 0.416667 0.000000
vt 0.000000 0.666667
vt 1.000000 0.833333
vt 0.791667 0.000000
vt 0.750000 1.000000
vt 0.583333 0.333333
vt 0.625000 0.333333
vt 0.666667 0.666667
vt 0.541667 0.166667
vt 0.583333 0.000000
vt 0.916667 0.333333
vt 0.958333 0.166667
vt 0.958333 0.333333
vt 0.916667 0.500000
vt 0.875000 0.666667
vt 0.875000 0.500000
vt 0.916667 0.666667
vt 0.958333 0.833333
vt 0.791667 0.500000
vt 0.250000 0.500000
vt 0.250000 0.333333
vt 0.791667 0.166667
vt 0.833333 0.000000
vt 0.833333 0.166667
vt 0.958333 0.666667
vt 0.833333 0.833333
vt 0.875000 0.000000
vt 0.833333 1.000000
vt 0.791667 0.833333
vt 0.833333 0.666667
vt 0.625000 0.500000
vt 0.500000 0.000000
vt 0.458333 1.000000
vt 0.875000 0.166667
vt 0.833333 0.333333
vt 0.333333 1.000000
vt 0.375000 0.833333
vt 0.375000 0.000000
vt 0.833333 0.500000
vt 0.875000 0.333333
vt 0.916667 0.166667
vt 0.708333 0.833333
vt 0.916667 1.000000
vt 0.875000 0.833333
vt 0.333333 0.500000
vt 0.291667 0.500000
vt 0.583333 1.000000
vt 0.541667 1.000000
vt 0.958333 0.500000
vt 0.208333 0.500000
vt 0.958333 1.000000
vt 1.000000 0.166667
vt 0.000000 0.166667
vt 0.541667 0.000000
vt 0.500000 0.166667
vt 0.500000 1.000000
vt 0.541667 0.500000
vt 0.083333 0.333333
vt 0.083333 0.500000
vt 0.000000 1.000000
vt 0.041667 1.000000
vt 0.083333 0.833333
vt 0.083333 0.000000
vt 0.458333 0.500000
vt 0.791667 0.666667
vt 0.250000 0.166667
vt 0.291667 0.000000
vt 0.291667 0.166667
vt 0.083333 0.666667
vt 0.666667 0.833333
vt 0.291667 0.666667
vt 0.333333 0.833333
vt 0.125000 0.500000
vt 0.125000 0.666667
vt 0.125000 0.833333
vt 0.166667 1.000000
vt 0.208333 0.000000
vt 0.416667 0.666667
vt 0.708333 0.000000
vt 0.125000 1.000000
vt 0.125000 0.166667
vt 0.166667 0.833333
vt 0.208333 0.333333
vt 0.958333 0.000000
vt 0.458333 0.000000
vt 0.458333 0.166667
vt 0.291667 1.000000
vt 0.333333 0.000000
vt 0.083333 1.000000
vt 0.333333 0.666667
vt 0.791667 1.000000
vt 0.375000 0.666667
vt 0.416667 1.000000
vt 0.166667 0.000000
vt 0.000000 0.833333
vt 0.041667 0.666667
vt 1.000000 0.333333
vt 0.125000 0.000000
vt 0.000000 0.000000
vt 1.000000 0.000000
vt 0.625000 1.000000
s 1
f 12/1/1 1/2/1 6/3/1
f 140/4/2 3/5/3 141/6/2
f 36/7/4 41/8/5 42/9/5
f 112/10/6 107/11/6 106/12/6
f 36/7/7 25/13/7 30/14/7
f 117/15/8 112/16/8 111/17/8
f 34/18/9 39/19/9 40/20/9
f 8/21/10 3/5/3 2/22/3
f 13/23/11 20/24/11 14/25/11
f 58/26/12 63/27/12 64/28/12
f 31/29/13 38/30/13 32/31/13
f 17/32/14 22/33/14 23/34/14
f 96/35/15 101/36/16 102/37/16
f 48/38/17 37/39/17 42/9/17
f 14/25/18 21/40/19 15/41/18
f 132/42/20 133/43/20 127/44/20
f 78/45/21 79/46/21 73/47/21
f 23/34/22 28/48/22 29/49/22
f 89/50/23 84/51/24 83/52/24
f 76/53/25 81/54/25 82/55/25
f 105/56/26 110/57/27 111/17/27
f 79/46/28 74/58/28 73/59/28
f 97/60/29 104/61/29 98/62/29
f 28/63/30 35/64/30 29/49/30
f 120/65/31 125/66/32 126/67/32
f 130/68/33 137/69/33 131/70/33
f 14/25/18 9/71/10 8/21/10
f 144/72/34 133/43/34 138/73/34
f 42/9/35 31/29/35 36/7/35
f 130/68/36 135/74/36 136/75/36
f 74/76/37 81/54/38 75/77/37
f 39/19/39 46/78/39 40/79/39
f 18/80/40 23/34/41 24/81/41
f 31/29/42 26/82/42 25/13/42
f 140/4/43 1/2/43 2/22/43
f 11/83/44 16/84/44 17/32/44
f 66/85/45 71/86/46 72/87/46
f 61/88/47 56/89/47 55/90/47
f 62/91/48 69/92/49 63/27/48
f 43/93/50 38/30/50 37/39/50
f 120/65/51 109/94/51 114/95/51
f 47/96/52 52/97/52 53/98/52
f 74/76/37 69/92/49 68/99/49
f 51/100/53 58/101/53 52/102/53
f 45/103/54 50/104/55 51/100/55
f 19/105/56 26/82/56 20/24/56
f 132/42/57 137/69/58 138/73/58
f 141/6/59 4/106/59 142/107/59
f 59/108/60 54/109/61 53/98/61
f 124/110/62 129/111/62 130/112/62
f 126/67/32 131/70/57 132/42/57
f 49/113/63 56/89/63 50/104/63
f 60/114/64 61/88/64 55/90/64
f 58/26/65 65/115/65 59/108/65
f 32/31/66 39/19/67 33/116/66
f 69/92/68 64/117/68 63/27/68
f 56/89/69 63/27/48 57/118/69
f 121/119/70 132/42/70 127/44/70
f 115/120/71 126/67/71 121/119/71
f 15/41/72 22/33/72 16/121/72
f 137/69/58 144/72/73 138/73/58
f 15/41/74 10/122/74 9/71/74
f 47/96/75 42/9/5 41/8/5
f 62/91/76 67/123/76 68/99/76
f 103/124/77 114/95/77 109/94/77
f 70/125/78 77/126/78 71/86/78
f 77/127/79 72/87/46 71/86/46
f 10/128/80 5/129/80 4/130/80
f 11/83/81 6/3/82 5/129/82
f 13/23/83 8/21/83 7/131/83
f 79/46/84 90/132/84 85/133/84
f 82/55/85 77/126/85 76/134/85
f 29/49/86 36/7/4 30/14/86
f 82/135/87 87/136/87 88/137/87
f 38/30/67 45/103/54 39/19/67
f 144/72/88 1/2/88 139/138/88
f 44/139/89 49/113/89 50/104/89
f 113/140/90 118/141/90 119/142/90
f 50/104/55 57/118/69 51/100/55
f 46/78/91 41/8/91 40/79/91
f 81/54/38 86/143/92 87/136/92
f 54/109/93 43/93/93 48/38/93
f 19/105/94 30/14/94 25/13/94
f 124/110/95 131/70/95 125/66/95
f 20/24/19 27/144/96 21/40/19
f 111/17/97 106/12/97 105/56/97
f 116/145/98 123/146/99 117/15/98
f 86/143/100 91/147/100 92/148/100
f 96/35/101 97/60/101 91/147/101
f 4/130/102 9/71/102 10/128/102
f 86/143/92 93/149/103 87/136/92
f 100/150/104 105/56/104 106/151/104
f 27/144/96 32/31/66 33/116/66
f 49/113/105 60/114/105 55/90/105
f 134/152/106 139/138/106 140/4/106
f 28/63/107 33/116/107 34/153/107
f 113/140/108 120/65/31 114/95/108
f 94/154/109 101/36/109 95/155/109
f 99/156/110 104/61/26 105/56/26
f 66/85/111 67/123/111 61/88/111
f 78/45/112 67/123/112 72/87/112
f 82/135/113 89/50/113 83/52/113
f 107/11/114 114/95/108 108/157/114
f 70/158/115 65/115/115 64/117/115
f 93/149/103 98/62/110 99/156/110
f 103/124/116 110/57/116 104/61/116
f 90/132/117 91/147/117 85/133/117
f 137/69/118 142/159/118 143/160/118
f 47/96/75 54/109/61 48/38/75
f 118/161/119 123/146/119 124/162/119
f 111/17/27 116/145/98 117/15/98
f 109/94/120 116/145/120 110/57/120
f 92/148/121 97/60/121 98/62/121
f 100/150/122 107/11/122 101/36/122
f 24/81/41 29/49/86 30/14/86
f 88/163/123 95/155/123 89/50/123
f 90/132/23 95/155/15 96/35/15
f 115/120/124 122/164/124 116/145/124
f 73/59/125 68/99/125 67/123/125
f 53/98/126 58/101/126 59/108/126
f 12/1/1 7/131/1 1/2/1
f 45/103/127 52/97/127 46/165/127
f 122/164/99 129/111/128 123/146/99
f 121/119/129 128/166/129 122/164/129
f 97/60/130 108/157/130 103/124/130
f 34/18/131 41/8/131 35/64/131
f 101/36/16 108/157/114 102/37/16
f 135/74/132 142/159/132 136/167/132
f 128/166/128 135/74/133 129/111/128
f 128/166/134 133/43/134 134/152/134
f 13/23/135 24/81/135 19/105/135
f 94/154/136 99/156/136 100/168/136
f 11/83/81 18/80/40 12/1/81
f 140/4/2 135/74/133 134/152/133
f 7/131/137 2/22/137 1/2/137
f 4/106/138 143/160/138 142/107/138
f 75/169/139 70/125/139 69/92/139
f 65/115/45 60/114/60 59/108/60
f 85/133/140 80/170/140 79/46/140
f 18/80/141 7/131/141 12/1/141
f 78/171/79 83/52/24 84/51/24
f 5/129/82 144/72/73 143/160/73
f 118/161/142 125/66/142 119/142/142
f 88/163/143 93/149/143 94/172/143
f 11/83/81 12/1/81 6/3/82
f 61/88/47 62/91/47 56/89/47
f 79/46/28 80/170/28 74/58/28
f 100/150/122 106/151/122 107/11/122
f 82/55/85 83/52/85 77/126/85
f 73/59/125 74/58/125 68/99/125
f 70/158/115 71/86/115 65/115/115
f 62/91/48 68/99/49 69/92/49
f 10/128/80 11/83/80 5/129/80
f 21/40/144 27/144/144 28/48/144
f 77/127/79 78/171/79 72/87/46
f 93/149/103 92/148/103 98/62/110
f 89/50/23 90/132/23 84/51/24
f 38/30/67 44/139/54 45/103/54
f 76/53/25 75/169/25 81/54/25
f 137/69/58 143/160/73 144/72/73
f 44/139/89 43/93/89 49/113/89
f 8/21/10 9/71/10 3/5/3
f 122/164/99 128/166/128 129/111/128
f 96/35/15 95/155/15 101/36/16
f 81/54/38 80/170/38 86/143/92
f 62/91/76 61/88/76 67/123/76
f 121/119/129 127/44/129 128/166/129
f 78/45/21 84/51/21 79/46/21
f 78/45/112 73/47/112 67/123/112
f 97/60/29 103/124/29 104/61/29
f 79/46/84 84/51/84 90/132/84
f 70/125/78 76/173/78 77/126/78
f 107/11/114 113/140/108 114/95/108
f 120/65/31 119/142/31 125/66/32
f 140/4/2 141/6/2 135/74/133
f 105/56/26 104/61/26 110/57/27
f 103/124/77 108/157/77 114/95/77
f 29/49/86 35/64/4 36/7/4
f 11/83/81 17/32/40 18/80/40
f 31/29/42 32/31/42 26/82/42
f 94/154/109 100/168/109 101/36/109
f 39/19/39 45/103/39 46/78/39
f 82/135/87 81/54/87 87/136/87
f 111/17/97 112/10/97 106/12/97
f 99/156/110 98/62/110 104/61/26
f 47/96/52 46/165/52 52/97/52
f 78/171/79 77/127/79 83/52/24
f 74/76/37 75/77/37 69/92/49
f 113/140/90 112/16/90 118/141/90
f 124/110/62 123/146/62 129/111/62
f 18/80/141 13/23/141 7/131/141
f 36/7/7 31/29/7 25/13/7
f 118/161/142 124/162/142 125/66/142
f 112/10/6 113/140/6 107/11/6
f 126/67/32 125/66/32 131/70/57
f 113/140/108 119/142/31 120/65/31
f 88/163/143 87/136/143 93/149/143
f 130/68/33 136/75/33 137/69/33
f 90/132/117 96/35/117 91/147/117
f 14/25/18 15/41/18 9/71/10
f 28/63/107 27/144/107 33/116/107
f 69/92/68 70/158/68 64/117/68
f 103/124/116 109/94/116 110/57/116
f 74/76/37 80/170/38 81/54/38
f 128/166/134 127/44/134 133/43/134
f 18/80/40 17/32/40 23/34/41
f 56/89/69 62/91/48 63/27/48
f 27/144/96 26/82/96 32/31/66
f 13/23/135 18/80/135 24/81/135
f 120/65/51 115/120/51 109/94/51
f 53/98/126 52/102/126 58/101/126
f 43/93/50 44/139/50 38/30/50
f 4/130/102 3/5/102 9/71/102
f 46/78/91 47/96/91 41/8/91
f 45/103/127 51/100/127 52/97/127
f 28/63/30 34/153/30 35/64/30
f 118/161/119 117/15/119 123/146/119
f 140/4/43 139/138/43 1/2/43
f 144/72/88 6/3/88 1/2/88
f 116/145/98 122/164/99 123/146/99
f 47/96/75 53/98/61 54/109/61
f 117/15/8 118/141/8 112/16/8
f 7/131/137 8/21/137 2/22/137
f 34/18/9 33/116/9 39/19/9
f 50/104/55 56/89/69 57/118/69
f 54/109/93 49/113/93 43/93/93
f 75/169/139 76/174/139 70/125/139
f 13/23/11 19/105/11 20/24/11
f 109/94/120 115/120/120 116/145/120
f 14/25/18 20/24/19 21/40/19
f 19/105/94 24/81/94 30/14/94
f 60/114/64 66/85/64 61/88/64
f 24/81/41 23/34/41 29/49/86
f 58/26/12 57/118/12 63/27/12
f 34/18/131 40/20/131 41/8/131
f 23/34/22 22/175/22 28/48/22
f 49/113/63 55/90/63 56/89/63
f 47/96/75 48/38/75 42/9/5
f 97/60/130 102/37/130 108/157/130
f 19/105/56 25/13/56 26/82/56
f 92/148/121 91/147/121 97/60/121
f 132/42/57 131/70/57 137/69/58
f 121/119/70 126/67/70 132/42/70
f 86/143/92 92/148/103 93/149/103
f 111/17/27 110/57/27 116/145/98
f 17/32/14 16/121/14 22/33/14
f 137/69/118 136/167/118 142/159/118
f 31/29/13 37/39/13 38/30/13
f 100/150/104 99/156/104 105/56/104
f 124/110/95 130/112/95 131/70/95
f 115/120/124 121/119/124 122/164/124
f 51/100/53 57/118/53 58/101/53
f 135/74/132 141/6/132 142/159/132
f 45/103/54 44/139/54 50/104/55
f 20/24/19 26/82/96 27/144/96
f 58/26/65 64/28/65 65/115/65
f 101/36/16 107/11/114 108/157/114
f 48/38/17 43/93/17 37/39/17
f 4/106/138 5/129/138 143/160/138
f 132/42/20 138/73/20 133/43/20
f 32/31/66 38/30/67 39/19/67
f 49/113/105 54/109/105 60/114/105
f 5/129/82 6/3/82 144/72/73
f 140/4/2 2/22/3 3/5/3
f 66/85/111 72/87/111 67/123/111
f 36/7/4 35/64/4 41/8/5
f 134/152/106 133/43/106 139/138/106
f 115/120/71 120/65/71 126/67/71
f 82/135/113 88/137/113 89/50/113
f 141/6/59 3/5/59 4/106/59
f 90/132/23 89/50/23 95/155/15
f 59/108/60 60/114/60 54/109/61
f 15/41/72 21/40/72 22/33/72
f 15/41/74 16/84/74 10/122/74
f 88/163/123 94/172/123 95/155/123
f 42/9/35 37/39/35 31/29/35
f 130/68/36 129/111/36 135/74/36
f 13/23/83 14/25/83 8/21/83
f 85/133/140 86/143/140 80/170/140
f 94/154/136 93/149/136 99/156/136
f 144/72/34 139/138/34 133/43/34
f 86/143/100 85/133/100 91/147/100
f 96/35/101 102/37/101 97/60/101
f 11/83/44 10/122/44 16/84/44
f 66/85/45 65/115/45 71/86/46
f 128/166/128 134/152/133 135/74/133
f 65/115/45 66/85/45 60/114/60
f 21/40/144 28/48/144 22/175/144
