# Blender 4.3.0
# www.blender.org
mtllib 无标题.mtl
o blade
v -46.175457 -0.750014 -0.000004
v -44.169350 -0.750014 -0.000004
v -44.014618 -4.429574 8.120452
v -46.185707 -4.429574 8.120452
v -44.014618 2.929553 8.120452
v -46.185707 2.929552 8.120452
v -44.014618 -4.429574 -8.120460
v -46.185707 -4.429574 -8.120460
v -44.014618 2.929551 -8.120460
v -46.185707 2.929550 -8.120460
v -46.185707 -14.135552 -0.000003
v -44.014618 12.635514 -0.000005
v -44.014618 -14.135552 -0.000003
v -46.185707 12.635514 -0.000005
v -44.014618 -9.196999 6.532197
v -46.185707 -9.196999 6.532197
v -44.014618 7.696977 6.532196
v -46.185707 7.696977 6.532196
v -44.014618 -9.197001 -6.532203
v -46.185707 -9.197001 -6.532203
v -46.185707 7.696976 -6.532204
v -44.014618 7.696976 -6.532204
v -44.195065 4.038861 1.191391
v -50.056557 4.038861 1.191390
v -44.195065 -5.888010 -0.000004
v -50.056557 -5.888010 -0.000004
v -50.056557 4.038861 -1.191399
v -44.195065 4.038861 -1.191398
v -50.167583 -5.453915 -0.000004
v -317.116913 0.311666 -0.000024
v -304.869904 -2.331492 -0.000024
v -279.101227 -3.700609 -0.000022
v -251.645874 -4.619664 -0.000019
v -199.482559 -5.811409 -0.000016
v -156.304123 -6.046172 -0.000012
v -102.420273 -5.860258 -0.000008
v -50.167583 3.683604 0.868074
v -102.386375 3.166337 0.867729
v -328.939758 6.524343 -0.000025
v -307.384705 5.308770 -0.862222
v -307.384705 5.308770 0.862175
v -278.788788 4.454548 -0.864752
v -278.788818 4.454548 0.864709
v -251.376038 3.668505 -0.865247
v -251.376038 3.668505 0.865208
v -199.293167 2.734048 -0.866166
v -199.293167 2.734048 0.866134
v -156.204620 2.775330 -0.867085
v -156.204620 2.775330 0.867060
v -102.386375 3.166337 -0.867740
v -50.167583 3.683604 -0.868083
v -39.591370 4.902581 -0.000003
v -39.591370 4.477149 -1.781945
v -39.591370 4.477149 1.781938
v -39.591370 3.265611 3.100805
v -39.591370 1.452415 3.779496
v -39.591370 -0.686389 3.784827
v -39.591370 -2.825198 3.779496
v -39.591370 -4.638389 3.100805
v -39.591370 -5.849926 1.781938
v -39.591370 -6.275359 -0.000003
v -39.591370 -5.849921 -1.781950
v -39.591370 -4.638383 -3.100812
v -39.591370 -2.825193 -3.779503
v -39.591370 -0.686383 -3.784835
v -39.591370 1.452420 -3.779503
v -39.591370 3.265611 -3.100812
v -39.730141 5.109351 -2.118088
v -39.731216 5.615024 -0.000003
v -44.465790 5.045725 -2.118088
v -44.466866 5.551399 -0.000004
v -39.730141 5.109351 2.118086
v -44.465790 5.045725 2.118086
v -39.726994 3.663814 3.691726
v -44.462646 3.600189 3.691726
v -39.723347 1.578703 4.472215
v -44.459000 1.515078 4.472214
v -39.721642 -0.686389 4.477859
v -44.457294 -0.750014 4.477859
v -39.719948 -2.951481 4.472215
v -44.455601 -3.015106 4.472214
v -39.716301 -5.036592 3.691726
v -44.451954 -5.100216 3.691726
v -39.713146 -6.482129 2.118080
v -44.448799 -6.545754 2.118080
v -39.712082 -6.987802 -0.000002
v -44.447731 -7.051427 -0.000003
v -39.713146 -6.482123 -2.118093
v -44.448799 -6.545754 -2.118093
v -39.716301 -5.036586 -3.691734
v -44.451954 -5.100213 -3.691734
v -39.719948 -2.951481 -4.472221
v -44.455601 -3.015106 -4.472222
v -39.721642 -0.686383 -4.477866
v -44.457294 -0.750008 -4.477867
v -39.723347 1.578709 -4.472221
v -44.459000 1.515084 -4.472222
v -39.726994 3.663814 -3.691734
v -44.462646 3.600189 -3.691734
v -6.384109 4.925050 -1.781942
v -6.384109 5.350482 -0.000001
v -6.384109 4.925045 1.781940
v -6.384109 3.713512 3.100808
v -6.384109 1.900316 3.779499
v -6.384109 -0.238488 3.784830
v -6.384109 -2.377297 3.779499
v -6.384109 -4.190487 3.100808
v -6.384109 -5.402025 1.781940
v -6.384109 -5.827457 -0.000001
v -6.384109 -5.402025 -1.781948
v -6.384109 -4.190487 -3.100810
v -6.384109 -2.377291 -3.779500
v -6.384109 -0.238488 -3.784832
v -6.384109 1.900322 -3.779500
v -6.384109 3.713512 -3.100810
v 21.640522 5.163538 -1.781940
v 21.640522 5.588971 0.000001
v 21.640522 5.163538 1.781943
v 21.640522 3.952001 3.100810
v 21.640522 2.138805 3.779501
v 21.640522 0.000001 3.784832
v 21.640522 -2.138809 3.779501
v 21.640522 -3.951999 3.100810
v 21.640522 -5.163537 1.781943
v 21.640522 -5.588970 0.000001
v 21.640522 -5.163532 -1.781946
v 21.640522 -3.951994 -3.100807
v 21.640522 -2.138803 -3.779498
v 21.640522 0.000006 -3.784830
v 21.640522 2.138810 -3.779498
v 21.640522 3.952001 -3.100807
v 21.747829 6.025358 -2.264777
v 23.644363 6.025358 -2.264777
v 21.747829 4.476933 -3.950375
v 23.644348 4.476933 -3.950375
v 23.644348 6.566069 0.000001
v 21.747829 6.566068 0.000001
v 23.644348 6.025358 2.264785
v 21.747829 6.025358 2.264785
v 23.644348 4.476933 3.950383
v 21.747829 4.476933 3.950383
v 23.644348 2.282665 4.771710
v 21.747829 2.282665 4.771709
v 23.644348 0.000001 4.777400
v 21.747829 0.000001 4.777399
v 23.644348 -2.282663 4.771710
v 21.747829 -2.282663 4.771709
v 23.644348 -4.476932 3.950383
v 21.747829 -4.476932 3.950383
v 23.644348 -6.025356 2.264786
v 21.747829 -6.025357 2.264786
v 23.644348 -6.566067 0.000001
v 21.747829 -6.566067 0.000001
v 23.644348 -6.025356 -2.264781
v 21.747829 -6.025357 -2.264781
v 23.644348 -4.476926 -3.950381
v 21.747829 -4.476927 -3.950381
v 23.644348 -2.282659 -4.771707
v 21.747829 -2.282659 -4.771708
v 23.644348 0.000006 -4.777397
v 21.747829 0.000006 -4.777397
v 23.644348 2.282665 -4.771707
v 21.747829 2.282665 -4.771708
v 36.292809 4.273143 -3.577367
v 36.292809 5.673415 -2.053038
v 36.292801 2.240653 -4.338142
v 36.292809 0.000007 -4.343726
v 36.292809 -2.240650 -4.338142
v 36.292801 -4.273136 -3.577367
v 36.292801 -5.673412 -2.053042
v 36.292809 -6.163576 0.000002
v 36.292801 -5.673412 2.053047
v 36.292801 -4.273140 3.577371
v 36.292801 -2.240650 4.338147
v 36.292809 0.000001 4.343730
v 36.292809 2.240653 4.338147
v 36.292801 4.273144 3.577371
v 36.292801 5.673415 2.053046
v 36.292809 6.163579 0.000002
v 38.704250 3.468500 -0.880690
v 38.704052 2.884966 -1.517374
v 38.702896 0.000001 0.000002
v 38.703564 1.800863 -1.925777
v 38.702896 0.000001 -1.933618
v 38.703564 -1.800854 -1.925777
v 38.704052 -2.884963 -1.517374
v 38.704250 -3.468497 -0.880690
v 38.704048 -3.679793 0.000002
v 38.704250 -3.468497 0.880695
v 38.704052 -2.884963 1.517379
v 38.703564 -1.800860 1.925781
v 38.702896 0.000001 1.933623
v 38.703564 1.800857 1.925781
v 38.704052 2.884966 1.517379
v 38.704250 3.468500 0.880695
v 38.704048 3.679796 0.000002
v 37.997013 5.029426 -1.710629
v 37.997013 3.867530 -2.975457
v 37.997013 2.112023 -3.632557
v 37.997013 0.000007 -3.637822
v 37.997013 -2.112015 -3.632557
v 37.997013 -3.867527 -2.975457
v 37.997013 -5.029418 -1.710635
v 37.997013 -5.437832 0.000002
v 37.997013 -5.029423 1.710634
v 37.997013 -3.867527 2.975462
v 37.997013 -2.112020 3.632562
v 37.997013 0.000113 3.637827
v 37.997013 2.112017 3.632562
v 37.997013 3.867530 2.975462
v 37.997013 5.029420 1.710640
v 37.997013 5.437835 0.000002
v 23.703773 4.273142 -3.577368
v 23.703777 5.673420 -2.053045
v 23.703773 6.163579 0.000001
v 23.703773 5.673415 2.053046
v 23.703773 4.273143 3.577370
v 23.703773 2.240652 4.338146
v 23.703773 0.000001 4.343729
v 23.703773 -2.240651 4.338146
v 23.703773 -4.273140 3.577370
v 23.703773 -5.673413 2.053046
v 23.703773 -6.163577 0.000001
v 23.703773 -5.673413 -2.053044
v 23.703773 -4.273137 -3.577368
v 23.703773 -2.240645 -4.338143
v 23.703773 0.000006 -4.343727
v 23.703773 2.240658 -4.338138
vn 0.9999 0.0116 0.0087
vn 0.9998 0.0005 0.0188
vn 0.9998 0.0024 0.0178
vn 0.9998 0.0055 0.0166
vn 0.9998 -0.0006 0.0190
vn 0.9999 -0.0062 0.0158
vn 0.9999 -0.0116 0.0087
vn -1.0000 0.0006 -0.0008
vn -1.0000 -0.0000 -0.0000
vn -1.0000 0.0008 -0.0000
vn -1.0000 0.0002 -0.0012
vn -1.0000 -0.0002 -0.0012
vn -1.0000 -0.0006 -0.0008
vn -1.0000 -0.0008 -0.0000
vn -0.0000 0.1299 0.9915
vn -0.0000 -0.1299 0.9915
vn -0.0000 -0.1299 -0.9915
vn -0.0000 0.1299 -0.9915
vn -0.0000 -0.7977 0.6031
vn -0.0000 -0.6417 0.7670
vn -0.0000 0.6417 0.7670
vn -0.0000 0.7977 0.6031
vn -0.0000 -0.6417 -0.7670
vn -0.0000 -0.7977 -0.6031
vn -0.0000 0.6417 -0.7670
vn -0.0000 0.7977 -0.6031
vn -1.0000 0.0006 0.0008
vn -1.0000 0.0002 0.0012
vn -1.0000 -0.0002 0.0012
vn -1.0000 -0.0006 0.0008
vn 0.9999 0.0062 -0.0158
vn 0.9998 -0.0025 -0.0177
vn 0.9998 0.0006 -0.0190
vn 0.9998 -0.0005 -0.0188
vn 0.9998 -0.0055 -0.0166
vn 0.9999 -0.0116 -0.0087
vn 0.9999 0.0116 -0.0087
vn -0.0000 -0.1192 0.9929
vn -0.0000 -0.1192 -0.9929
vn -0.0000 1.0000 -0.0000
vn 1.0000 -0.0000 -0.0000
vn 0.0007 -0.0959 0.9954
vn 0.0008 -0.0951 0.9955
vn 0.0007 -0.0959 -0.9954
vn 0.0008 -0.0951 -0.9955
vn -0.0086 1.0000 -0.0000
vn -0.0099 1.0000 -0.0000
vn 0.0563 0.9984 -0.0000
vn -0.0368 -0.0999 -0.9943
vn -0.0368 -0.0999 0.9943
vn 0.0293 0.9996 -0.0000
vn 0.0299 0.9996 -0.0000
vn -0.0045 -0.1093 -0.9940
vn -0.0039 -0.1069 -0.9943
vn -0.0039 -0.1069 0.9943
vn -0.0045 -0.1093 0.9940
vn 0.0233 0.9997 -0.0000
vn -0.0027 -0.1034 -0.9946
vn -0.0027 -0.1034 0.9946
vn 0.0179 0.9998 -0.0000
vn -0.0012 -0.1008 -0.9949
vn -0.0012 -0.1008 0.9949
vn -0.0041 1.0000 -0.0000
vn -0.0010 1.0000 -0.0000
vn 0.0001 -0.0980 -0.9952
vn 0.0001 -0.0980 0.9952
vn -0.8296 -0.0600 -0.5551
vn -0.8296 -0.0600 0.5551
vn -0.9545 0.2983 -0.0000
vn 0.1021 0.9948 -0.0002
vn 0.1024 0.8771 -0.4692
vn -0.0119 0.8836 -0.4681
vn -0.0134 0.9999 -0.0000
vn 0.1024 0.8799 0.4640
vn -0.0119 0.8836 0.4681
vn 0.1085 0.5527 0.8263
vn -0.0075 0.5536 0.8327
vn 0.1200 0.1779 0.9767
vn -0.0024 0.1765 0.9843
vn 0.1370 0.0001 0.9906
vn -0.0000 -0.0000 1.0000
vn 0.1244 -0.1748 0.9767
vn 0.0024 -0.1793 0.9838
vn 0.1227 -0.5492 0.8266
vn 0.0075 -0.5559 0.8312
vn 0.1251 -0.8767 0.4644
vn 0.0119 -0.8845 0.4664
vn 0.1277 -0.9918 -0.0000
vn 0.0134 -0.9999 -0.0000
vn 0.1251 -0.8768 -0.4644
vn 0.0119 -0.8844 -0.4665
vn 0.1227 -0.5492 -0.8266
vn 0.0075 -0.5559 -0.8312
vn 0.1244 -0.1750 -0.9767
vn 0.0024 -0.1791 -0.9838
vn 0.1370 0.0001 -0.9906
vn -0.0000 -0.0000 -1.0000
vn 0.1200 0.1779 -0.9767
vn -0.0024 0.1766 -0.9843
vn 0.1085 0.5527 -0.8263
vn -0.0074 0.5535 -0.8328
vn 0.0133 0.9999 -0.0000
vn 0.0153 0.8828 -0.4694
vn 0.0153 0.8837 0.4677
vn 0.0191 0.5496 0.8352
vn 0.0223 0.1691 0.9853
vn 0.0214 -0.0000 0.9998
vn 0.0268 -0.1720 0.9847
vn 0.0339 -0.5521 0.8331
vn 0.0391 -0.8841 0.4657
vn 0.0401 -0.9992 0.0001
vn 0.0391 -0.8841 -0.4656
vn 0.0339 -0.5521 -0.8331
vn 0.0268 -0.1719 -0.9847
vn 0.0214 -0.0001 -0.9998
vn 0.0223 0.1691 -0.9853
vn 0.0191 0.5497 -0.8352
vn -0.0110 0.9999 -0.0000
vn -0.0099 0.8844 -0.4666
vn -0.0099 0.8844 0.4666
vn -0.0062 0.5514 0.8342
vn -0.0019 0.1709 0.9853
vn 0.0020 -0.1702 0.9854
vn 0.0062 -0.5507 0.8347
vn 0.0099 -0.8841 0.4671
vn 0.0110 -0.9999 -0.0000
vn 0.0099 -0.8841 -0.4671
vn 0.0062 -0.5507 -0.8347
vn 0.0019 -0.1702 -0.9854
vn -0.0020 0.1709 -0.9853
vn -0.0062 0.5514 -0.8342
vn -0.0536 0.9986 -0.0000
vn -0.0537 0.8833 -0.4656
vn -0.0537 0.8834 0.4656
vn -0.0502 0.5513 0.8328
vn -0.0437 0.1715 0.9842
vn -0.0365 0.0001 0.9993
vn -0.0407 -0.1695 0.9847
vn -0.0408 -0.5498 0.8343
vn -0.0387 -0.8834 0.4670
vn -0.0365 -0.9993 -0.0000
vn -0.0387 -0.8834 -0.4670
vn -0.0408 -0.5498 -0.8343
vn -0.0407 -0.1695 -0.9847
vn -0.0365 -0.0000 -0.9993
vn -0.0437 0.1714 -0.9842
vn -0.0502 0.5513 -0.8328
vn -0.3504 0.8279 -0.4380
vn -0.3617 0.5185 -0.7748
vn -0.3519 0.9360 -0.0000
vn -0.3504 0.8279 0.4380
vn -0.3617 0.5185 0.7748
vn -0.3883 0.1670 0.9063
vn -0.4327 -0.0000 0.9015
vn -0.3883 -0.1670 0.9063
vn -0.3617 -0.5185 0.7748
vn -0.3504 -0.8279 0.4380
vn -0.3519 -0.9360 -0.0000
vn -0.3504 -0.8279 -0.4380
vn -0.3617 -0.5185 -0.7748
vn -0.3883 -0.1670 -0.9063
vn -0.4327 -0.0000 -0.9015
vn -0.3883 0.1670 -0.9063
vn 0.1665 0.8715 -0.4612
vn 0.1754 0.5492 -0.8171
vn 0.1899 0.1752 -0.9660
vn 0.2143 -0.0000 -0.9768
vn 0.1899 -0.1752 -0.9660
vn 0.1754 -0.5492 -0.8171
vn 0.1665 -0.8703 -0.4636
vn 0.1659 -0.9861 -0.0000
vn 0.1665 -0.8703 0.4636
vn 0.1754 -0.5492 0.8171
vn 0.1899 -0.1752 0.9660
vn 0.2143 -0.0000 0.9768
vn 0.1899 0.1752 0.9660
vn 0.1754 0.5492 0.8171
vn 0.1665 0.8703 0.4636
vn 0.1659 0.9861 -0.0000
vn 0.0445 0.8833 -0.4667
vn 0.0449 0.5534 -0.8317
vn 0.0400 0.5538 -0.8317
vn 0.0394 0.8835 -0.4668
vn 0.0461 0.1759 -0.9833
vn 0.0390 0.1765 -0.9835
vn 0.0481 -0.0000 -0.9988
vn 0.0346 -0.0000 -0.9994
vn 0.0461 -0.1759 -0.9833
vn 0.0390 -0.1764 -0.9835
vn 0.0449 -0.5534 -0.8317
vn 0.0399 -0.5538 -0.8317
vn 0.0445 -0.8833 -0.4667
vn 0.0395 -0.8835 -0.4668
vn 0.0445 -0.9990 -0.0000
vn 0.0383 -0.9993 -0.0000
vn 0.0445 -0.8833 0.4667
vn 0.0395 -0.8835 0.4668
vn 0.0449 -0.5534 0.8317
vn 0.0399 -0.5538 0.8317
vn 0.0462 -0.1759 0.9833
vn 0.0390 -0.1765 0.9835
vn 0.0481 -0.0000 0.9988
vn 0.0346 -0.0000 0.9994
vn 0.0461 0.1759 0.9833
vn 0.0390 0.1764 0.9835
vn 0.0449 0.5534 0.8317
vn 0.0399 0.5538 0.8317
vn 0.0445 0.8833 0.4667
vn 0.0395 0.8835 0.4668
vn 0.0445 0.9990 -0.0000
vn 0.0383 0.9993 -0.0000
vn 0.9626 0.1471 -0.2275
vn 0.9659 0.2290 -0.1205
vn 0.9606 0.0437 -0.2744
vn 0.9648 -0.0000 -0.2629
vn 0.9606 -0.0437 -0.2744
vn 0.9626 -0.1471 -0.2275
vn 0.9659 -0.2290 -0.1205
vn 0.9672 -0.2539 -0.0000
vn 0.9659 -0.2290 0.1205
vn 0.9626 -0.1471 0.2275
vn 0.9606 -0.0437 0.2744
vn 0.9648 -0.0000 0.2629
vn 0.9607 0.0437 0.2743
vn 0.9626 0.1471 0.2275
vn 0.9659 0.2290 0.1205
vn 0.9672 0.2539 -0.0000
vn 0.6301 0.6867 -0.3624
vn 0.6376 0.4241 -0.6431
vn 0.6620 0.1269 -0.7387
vn 0.6913 -0.0000 -0.7226
vn 0.6620 -0.1269 -0.7387
vn 0.6375 -0.4241 -0.6432
vn 0.6301 -0.6867 -0.3624
vn 0.6317 -0.7752 -0.0000
vn 0.6301 -0.6867 0.3624
vn 0.6376 -0.4241 0.6431
vn 0.6620 -0.1269 0.7387
vn 0.6913 -0.0000 0.7226
vn 0.6620 0.1269 0.7387
vn 0.6376 0.4241 0.6431
vn 0.6301 0.6867 0.3624
vn 0.6317 0.7752 -0.0000
vt 0.235129 0.831525
vt 0.309789 0.735120
vt 0.309683 0.887967
vt 0.217027 0.777074
vt 0.217086 0.693038
vt 0.235263 0.638612
vt 0.309895 0.582274
vt 0.392747 0.304356
vt 0.319974 0.402185
vt 0.317118 0.249369
vt 0.411896 0.358445
vt 0.413466 0.442460
vt 0.396351 0.497226
vt 0.322830 0.555000
vt 0.539662 0.944214
vt 0.429703 0.944315
vt 0.429673 0.911875
vt 0.539632 0.911774
vt 0.432394 0.954322
vt 0.542353 0.954312
vt 0.542356 0.986752
vt 0.432397 0.986762
vt 0.232232 0.912058
vt 0.354590 0.911945
vt 0.354620 0.944385
vt 0.232262 0.944499
vt 0.614715 0.911704
vt 0.614745 0.944144
vt 0.737073 0.911590
vt 0.737102 0.944031
vt 0.357314 0.986769
vt 0.357311 0.954329
vt 0.234956 0.986781
vt 0.234953 0.954341
vt 0.617436 0.954305
vt 0.617439 0.986745
vt 0.739794 0.954293
vt 0.739797 0.986733
vt 0.243597 0.307144
vt 0.226482 0.361910
vt 0.228052 0.445925
vt 0.247202 0.500014
vt 0.384315 0.831629
vt 0.402493 0.777203
vt 0.402551 0.693167
vt 0.384450 0.638716
vt 0.209774 0.600266
vt 0.193891 0.732519
vt 0.116357 0.723208
vt 0.132239 0.590955
vt 0.100494 0.590953
vt 0.038821 0.732507
vt 0.022958 0.600252
vt 0.100501 0.512862
vt 0.132245 0.512864
vt 0.978359 0.194078
vt 0.946527 0.193888
vt 0.949731 0.010485
vt 0.981950 0.010798
vt 0.907178 0.194078
vt 0.903591 0.010798
vt 0.935810 0.010485
vt 0.939010 0.193888
vt 0.000169 0.810288
vt 0.006306 0.810289
vt 0.006287 0.994950
vt 0.000147 0.994949
vt 0.000271 0.085272
vt 0.003328 0.008930
vt 0.006368 0.085272
vt 0.903511 0.989515
vt 0.906686 0.913735
vt 0.933590 0.904647
vt 0.924790 0.947739
vt 0.978838 0.913735
vt 0.982012 0.989515
vt 0.960734 0.947738
vt 0.951935 0.904646
vt 0.000250 0.186435
vt 0.006366 0.186436
vt 0.908694 0.813329
vt 0.937491 0.814146
vt 0.976832 0.813328
vt 0.948035 0.814145
vt 0.000238 0.283409
vt 0.006357 0.283410
vt 0.910504 0.717077
vt 0.939765 0.717741
vt 0.975023 0.717077
vt 0.945763 0.717740
vt 0.000214 0.467610
vt 0.006339 0.467611
vt 0.911992 0.534225
vt 0.942148 0.534597
vt 0.943383 0.534596
vt 0.973539 0.534225
vt 0.000193 0.619976
vt 0.006325 0.619977
vt 0.910379 0.382977
vt 0.941496 0.383024
vt 0.944037 0.383024
vt 0.975155 0.382977
vt 0.036517 0.727000
vt 0.019591 0.605892
vt 0.213141 0.605907
vt 0.196196 0.727013
vt 0.104808 0.507903
vt 0.127939 0.507905
vt 0.458436 0.653483
vt 0.475344 0.655543
vt 0.471765 0.694271
vt 0.453749 0.692806
vt 0.707668 0.655299
vt 0.724594 0.653198
vt 0.729342 0.692520
vt 0.711325 0.694022
vt 0.691693 0.656078
vt 0.693995 0.694888
vt 0.674912 0.656374
vt 0.676362 0.695325
vt 0.657228 0.656307
vt 0.658929 0.695816
vt 0.639709 0.657460
vt 0.641507 0.696678
vt 0.623052 0.658286
vt 0.624421 0.697410
vt 0.607401 0.658759
vt 0.608105 0.697842
vt 0.591502 0.658802
vt 0.591552 0.697953
vt 0.575606 0.658811
vt 0.574997 0.697888
vt 0.559954 0.658370
vt 0.558676 0.697495
vt 0.543297 0.657573
vt 0.541583 0.696798
vt 0.525776 0.656450
vt 0.524157 0.695967
vt 0.508094 0.656548
vt 0.506724 0.695508
vt 0.491314 0.656285
vt 0.489093 0.695102
vt 0.461327 0.648328
vt 0.476516 0.649653
vt 0.706472 0.649415
vt 0.721713 0.648044
vt 0.691395 0.650209
vt 0.675023 0.650563
vt 0.656962 0.650627
vt 0.638928 0.651714
vt 0.622477 0.652459
vt 0.607177 0.652747
vt 0.591491 0.653119
vt 0.575816 0.652804
vt 0.560516 0.652542
vt 0.544064 0.651825
vt 0.526029 0.650769
vt 0.507968 0.650737
vt 0.491596 0.650414
vt 0.464024 0.376161
vt 0.479172 0.376236
vt 0.703318 0.376111
vt 0.718414 0.376017
vt 0.688542 0.376284
vt 0.672554 0.376512
vt 0.654863 0.376765
vt 0.637156 0.377006
vt 0.621155 0.377208
vt 0.606368 0.377348
vt 0.591255 0.377395
vt 0.576127 0.377357
vt 0.561340 0.377233
vt 0.545338 0.377048
vt 0.527632 0.376827
vt 0.509939 0.376598
vt 0.493950 0.376389
vt 0.459111 0.145476
vt 0.474429 0.144789
vt 0.707996 0.144820
vt 0.723319 0.145519
vt 0.692749 0.144961
vt 0.676197 0.145424
vt 0.657918 0.145828
vt 0.639580 0.145565
vt 0.622832 0.145155
vt 0.607234 0.144883
vt 0.591226 0.144630
vt 0.575234 0.144856
vt 0.559629 0.145121
vt 0.542867 0.145530
vt 0.524506 0.145800
vt 0.506241 0.145400
vt 0.489684 0.144965
vt 0.473205 0.136905
vt 0.489600 0.136961
vt 0.455002 0.137720
vt 0.709375 0.136941
vt 0.727150 0.137782
vt 0.692869 0.136943
vt 0.675716 0.137120
vt 0.658118 0.137712
vt 0.640732 0.137235
vt 0.623643 0.137118
vt 0.607529 0.137012
vt 0.591236 0.137137
vt 0.574985 0.136986
vt 0.558862 0.137084
vt 0.541760 0.137205
vt 0.524176 0.137683
vt 0.506789 0.137089
vt 0.471722 0.121481
vt 0.488871 0.121509
vt 0.506300 0.121595
vt 0.523783 0.121496
vt 0.540990 0.121692
vt 0.558128 0.121573
vt 0.574521 0.121448
vt 0.591165 0.121391
vt 0.607789 0.121464
vt 0.624199 0.121583
vt 0.641366 0.121698
vt 0.658751 0.121533
vt 0.676039 0.121664
vt 0.693479 0.121542
vt 0.710544 0.121490
vt 0.729085 0.121073
vt 0.453542 0.120997
vt 0.470442 0.013636
vt 0.487254 0.013860
vt 0.488352 0.118148
vt 0.471486 0.118205
vt 0.504773 0.014009
vt 0.505805 0.118025
vt 0.522789 0.014103
vt 0.523647 0.117845
vt 0.540764 0.014187
vt 0.541280 0.118099
vt 0.558068 0.014274
vt 0.558369 0.118174
vt 0.574521 0.014322
vt 0.574627 0.118185
vt 0.591278 0.014338
vt 0.591164 0.118218
vt 0.608033 0.014332
vt 0.607698 0.118203
vt 0.624485 0.014313
vt 0.623973 0.118194
vt 0.641780 0.014255
vt 0.641104 0.118118
vt 0.659723 0.014156
vt 0.658834 0.117884
vt 0.677801 0.014054
vt 0.676571 0.118086
vt 0.695371 0.013959
vt 0.693996 0.118172
vt 0.712219 0.013815
vt 0.710848 0.118236
vt 0.729517 0.013588
vt 0.728280 0.117700
vt 0.453083 0.013355
vt 0.454230 0.117626
vt 0.374573 0.150830
vt 0.366564 0.159411
vt 0.349480 0.114665
vt 0.378995 0.135858
vt 0.376875 0.111681
vt 0.373740 0.087615
vt 0.366197 0.073946
vt 0.356529 0.067291
vt 0.344171 0.065932
vt 0.332395 0.069920
vt 0.324387 0.078501
vt 0.319965 0.093473
vt 0.322085 0.117650
vt 0.325220 0.141716
vt 0.332763 0.155385
vt 0.342431 0.162040
vt 0.354789 0.163399
vt 0.393414 0.202100
vt 0.380542 0.181243
vt 0.396771 0.163755
vt 0.417948 0.177733
vt 0.404920 0.138772
vt 0.430407 0.143492
vt 0.403426 0.108789
vt 0.430396 0.105850
vt 0.398429 0.079187
vt 0.422301 0.069090
vt 0.385092 0.056544
vt 0.402761 0.038335
vt 0.365477 0.042961
vt 0.373557 0.019822
vt 0.341436 0.040831
vt 0.338591 0.014721
vt 0.318418 0.048088
vt 0.305545 0.027232
vt 0.302188 0.065576
vt 0.281012 0.051599
vt 0.294040 0.090559
vt 0.268553 0.085840
vt 0.295535 0.120544
vt 0.268564 0.123480
vt 0.300531 0.150144
vt 0.276659 0.160241
vt 0.313868 0.172787
vt 0.296198 0.190996
vt 0.333482 0.186369
vt 0.325402 0.209509
vt 0.357523 0.188500
vt 0.360368 0.214610
s 1
f 19/1/1 2/2/1 13/3/1
f 7/4/2 2/2/3 19/1/4
f 9/5/5 2/2/3 7/4/2
f 22/6/6 2/2/3 9/5/5
f 12/7/7 2/2/3 22/6/6
f 16/8/8 1/9/9 11/10/10
f 4/11/11 1/9/9 16/8/8
f 6/12/12 1/9/9 4/11/11
f 18/13/13 1/9/9 6/12/12
f 14/14/14 1/9/9 18/13/13
f 6/15/15 4/16/16 3/17/16 5/18/15
f 8/19/17 10/20/18 9/21/18 7/22/17
f 13/23/19 15/24/20 16/25/20 11/26/19
f 16/25/20 15/24/20 3/17/16 4/16/16
f 6/15/15 5/18/15 17/27/21 18/28/21
f 18/28/21 17/27/21 12/29/22 14/30/22
f 8/19/17 7/22/17 19/31/23 20/32/23
f 20/32/23 19/31/23 13/33/24 11/34/24
f 21/35/25 22/36/25 9/21/18 10/20/18
f 14/37/26 12/38/26 22/36/25 21/35/25
f 11/10/10 1/9/9 20/39/27
f 20/39/27 1/9/9 8/40/28
f 8/40/28 1/9/9 10/41/29
f 10/41/29 1/9/9 21/42/30
f 21/42/30 1/9/9 14/14/14
f 15/43/31 2/2/32 3/44/33
f 3/44/33 2/2/32 5/45/34
f 5/45/34 2/2/32 17/46/35
f 17/46/36 2/2/36 12/7/36
f 13/3/37 2/2/32 15/43/31
f 24/47/38 26/48/38 25/49/38 23/50/38
f 28/51/39 25/49/39 26/52/39 27/53/39
f 27/54/40 24/55/40 23/50/40 28/51/40
f 25/49/41 28/51/41 23/50/41
f 38/56/42 36/57/42 29/58/43 37/59/43
f 50/60/44 51/61/45 29/62/45 36/63/44
f 50/64/46 38/65/46 37/66/47 51/67/47
f 40/68/48 39/69/48 41/70/48
f 39/71/49 40/72/49 31/73/49 30/74/49
f 41/75/50 39/76/50 30/77/50 31/78/50
f 42/79/51 40/68/52 41/70/52 43/80/51
f 40/72/53 42/81/54 32/82/54 31/73/53
f 43/83/55 41/75/56 31/78/56 32/84/55
f 44/85/57 42/79/51 43/80/51 45/86/57
f 42/81/54 44/87/58 33/88/58 32/82/54
f 45/89/59 43/83/55 32/84/55 33/90/59
f 46/91/60 44/85/57 45/86/57 47/92/60
f 33/88/58 44/87/58 46/93/61 34/94/61
f 45/89/59 33/90/59 34/95/62 47/96/62
f 48/97/63 46/91/64 47/92/64 49/98/63
f 34/94/61 46/93/61 48/99/65 35/100/65
f 47/96/62 34/95/62 35/101/66 49/102/66
f 50/64/46 48/97/63 49/98/63 38/65/46
f 48/99/65 50/60/44 36/63/44 35/100/65
f 38/56/42 49/102/66 35/101/66 36/57/42
f 27/53/67 26/52/67 29/103/67 51/104/67
f 26/48/68 24/47/68 37/105/68 29/106/68
f 24/55/69 27/54/69 51/107/69 37/108/69
f 69/109/70 68/110/71 70/111/72 71/112/73
f 72/113/74 69/114/70 71/115/73 73/116/75
f 74/117/76 72/113/74 73/116/75 75/118/77
f 76/119/78 74/117/76 75/118/77 77/120/79
f 78/121/80 76/119/78 77/120/79 79/122/81
f 80/123/82 78/121/80 79/122/81 81/124/83
f 82/125/84 80/123/82 81/124/83 83/126/85
f 84/127/86 82/125/84 83/126/85 85/128/87
f 86/129/88 84/127/86 85/128/87 87/130/89
f 88/131/90 86/129/88 87/130/89 89/132/91
f 90/133/92 88/131/90 89/132/91 91/134/93
f 92/135/94 90/133/92 91/134/93 93/136/95
f 94/137/96 92/135/94 93/136/95 95/138/97
f 96/139/98 94/137/96 95/138/97 97/140/99
f 98/141/100 96/139/98 97/140/99 99/142/101
f 70/111/72 68/110/71 98/141/100 99/142/101
f 52/143/102 53/144/103 68/110/71 69/109/70
f 54/145/104 52/146/102 69/114/70 72/113/74
f 55/147/105 54/145/104 72/113/74 74/117/76
f 56/148/106 55/147/105 74/117/76 76/119/78
f 57/149/107 56/148/106 76/119/78 78/121/80
f 58/150/108 57/149/107 78/121/80 80/123/82
f 59/151/109 58/150/108 80/123/82 82/125/84
f 60/152/110 59/151/109 82/125/84 84/127/86
f 61/153/111 60/152/110 84/127/86 86/129/88
f 62/154/112 61/153/111 86/129/88 88/131/90
f 63/155/113 62/154/112 88/131/90 90/133/92
f 64/156/114 63/155/113 90/133/92 92/135/94
f 65/157/115 64/156/114 92/135/94 94/137/96
f 66/158/116 65/157/115 94/137/96 96/139/98
f 67/159/117 66/158/116 96/139/98 98/141/100
f 53/144/103 67/159/117 98/141/100 68/110/71
f 101/160/118 100/161/119 53/144/103 52/143/102
f 102/162/120 101/163/118 52/146/102 54/145/104
f 103/164/121 102/162/120 54/145/104 55/147/105
f 104/165/122 103/164/121 55/147/105 56/148/106
f 105/166/81 104/165/122 56/148/106 57/149/107
f 106/167/123 105/166/81 57/149/107 58/150/108
f 107/168/124 106/167/123 58/150/108 59/151/109
f 108/169/125 107/168/124 59/151/109 60/152/110
f 109/170/126 108/169/125 60/152/110 61/153/111
f 110/171/127 109/170/126 61/153/111 62/154/112
f 111/172/128 110/171/127 62/154/112 63/155/113
f 112/173/129 111/172/128 63/155/113 64/156/114
f 113/174/97 112/173/129 64/156/114 65/157/115
f 114/175/130 113/174/97 65/157/115 66/158/116
f 115/176/131 114/175/130 66/158/116 67/159/117
f 100/161/119 115/176/131 67/159/117 53/144/103
f 101/160/118 117/177/132 116/178/133 100/161/119
f 102/162/120 118/179/134 117/180/132 101/163/118
f 103/164/121 119/181/135 118/179/134 102/162/120
f 104/165/122 120/182/136 119/181/135 103/164/121
f 105/166/81 121/183/137 120/182/136 104/165/122
f 106/167/123 122/184/138 121/183/137 105/166/81
f 107/168/124 123/185/139 122/184/138 106/167/123
f 108/169/125 124/186/140 123/185/139 107/168/124
f 109/170/126 125/187/141 124/186/140 108/169/125
f 110/171/127 126/188/142 125/187/141 109/170/126
f 111/172/128 127/189/143 126/188/142 110/171/127
f 112/173/129 128/190/144 127/189/143 111/172/128
f 113/174/97 129/191/145 128/190/144 112/173/129
f 114/175/130 130/192/146 129/191/145 113/174/97
f 115/176/131 131/193/147 130/192/146 114/175/130
f 100/161/119 116/178/133 131/193/147 115/176/131
f 132/194/148 134/195/149 131/193/147 116/178/133
f 137/196/150 132/194/148 116/178/133 117/177/132
f 139/197/151 137/198/150 117/180/132 118/179/134
f 141/199/152 139/197/151 118/179/134 119/181/135
f 143/200/153 141/199/152 119/181/135 120/182/136
f 145/201/154 143/200/153 120/182/136 121/183/137
f 147/202/155 145/201/154 121/183/137 122/184/138
f 149/203/156 147/202/155 122/184/138 123/185/139
f 151/204/157 149/203/156 123/185/139 124/186/140
f 153/205/158 151/204/157 124/186/140 125/187/141
f 155/206/159 153/205/158 125/187/141 126/188/142
f 157/207/160 155/206/159 126/188/142 127/189/143
f 159/208/161 157/207/160 127/189/143 128/190/144
f 161/209/162 159/208/161 128/190/144 129/191/145
f 163/210/163 161/209/162 129/191/145 130/192/146
f 134/195/149 163/210/163 130/192/146 131/193/147
f 133/211/164 135/212/165 134/195/149 132/194/148
f 134/195/149 135/212/165 162/213/166 163/210/163
f 162/213/166 160/214/167 161/209/162 163/210/163
f 160/214/167 158/215/168 159/208/161 161/209/162
f 158/215/168 156/216/169 157/207/160 159/208/161
f 156/216/169 154/217/170 155/206/159 157/207/160
f 154/217/170 152/218/171 153/205/158 155/206/159
f 152/218/171 150/219/172 151/204/157 153/205/158
f 150/219/172 148/220/173 149/203/156 151/204/157
f 148/220/173 146/221/174 147/202/155 149/203/156
f 146/221/174 144/222/175 145/201/154 147/202/155
f 144/222/175 142/223/176 143/200/153 145/201/154
f 142/223/176 140/224/177 141/199/152 143/200/153
f 140/224/177 138/225/178 139/197/151 141/199/152
f 138/225/178 136/226/179 137/198/150 139/197/151
f 136/227/179 133/211/164 132/194/148 137/196/150
f 165/228/180 164/229/181 213/230/182 214/231/183
f 164/229/181 166/232/184 228/233/185 213/230/182
f 166/232/184 167/234/186 227/235/187 228/233/185
f 167/234/186 168/236/188 226/237/189 227/235/187
f 168/236/188 169/238/190 225/239/191 226/237/189
f 169/238/190 170/240/192 224/241/193 225/239/191
f 170/240/192 171/242/194 223/243/195 224/241/193
f 171/242/194 172/244/196 222/245/197 223/243/195
f 172/244/196 173/246/198 221/247/199 222/245/197
f 173/246/198 174/248/200 220/249/201 221/247/199
f 174/248/200 175/250/202 219/251/203 220/249/201
f 175/250/202 176/252/204 218/253/205 219/251/203
f 176/252/204 177/254/206 217/255/207 218/253/205
f 177/254/206 178/256/208 216/257/209 217/255/207
f 178/256/208 179/258/210 215/259/211 216/257/209
f 179/260/210 165/228/180 214/231/183 215/261/211
f 181/262/212 180/263/213 182/264/41
f 183/265/214 181/262/212 182/264/41
f 184/266/215 183/265/214 182/264/41
f 185/267/216 184/266/215 182/264/41
f 186/268/217 185/267/216 182/264/41
f 187/269/218 186/268/217 182/264/41
f 188/270/219 187/269/218 182/264/41
f 189/271/220 188/270/219 182/264/41
f 190/272/221 189/271/220 182/264/41
f 191/273/222 190/272/221 182/264/41
f 192/274/223 191/273/222 182/264/41
f 193/275/224 192/274/223 182/264/41
f 194/276/225 193/275/224 182/264/41
f 195/277/226 194/276/225 182/264/41
f 196/278/227 195/277/226 182/264/41
f 180/263/213 196/278/227 182/264/41
f 165/279/180 197/280/228 198/281/229 164/282/181
f 197/280/228 180/263/213 181/262/212 198/281/229
f 164/282/181 198/281/229 199/283/230 166/284/184
f 198/281/229 181/262/212 183/265/214 199/283/230
f 166/284/184 199/283/230 200/285/231 167/286/186
f 199/283/230 183/265/214 184/266/215 200/285/231
f 167/286/186 200/285/231 201/287/232 168/288/188
f 200/285/231 184/266/215 185/267/216 201/287/232
f 168/288/188 201/287/232 202/289/233 169/290/190
f 201/287/232 185/267/216 186/268/217 202/289/233
f 169/290/190 202/289/233 203/291/234 170/292/192
f 202/289/233 186/268/217 187/269/218 203/291/234
f 170/292/192 203/291/234 204/293/235 171/294/194
f 203/291/234 187/269/218 188/270/219 204/293/235
f 171/294/194 204/293/235 205/295/236 172/296/196
f 204/293/235 188/270/219 189/271/220 205/295/236
f 172/296/196 205/295/236 206/297/237 173/298/198
f 205/295/236 189/271/220 190/272/221 206/297/237
f 173/298/198 206/297/237 207/299/238 174/300/200
f 206/297/237 190/272/221 191/273/222 207/299/238
f 174/300/200 207/299/238 208/301/239 175/302/202
f 207/299/238 191/273/222 192/274/223 208/301/239
f 175/302/202 208/301/239 209/303/240 176/304/204
f 208/301/239 192/274/223 193/275/224 209/303/240
f 176/304/204 209/303/240 210/305/241 177/306/206
f 209/303/240 193/275/224 194/276/225 210/305/241
f 177/306/206 210/305/241 211/307/242 178/308/208
f 210/305/241 194/276/225 195/277/226 211/307/242
f 178/308/208 211/307/242 212/309/243 179/310/210
f 211/307/242 195/277/226 196/278/227 212/309/243
f 180/263/213 197/280/228 212/309/243 196/278/227
f 197/280/228 165/279/180 179/310/210 212/309/243
f 136/227/179 215/261/211 214/231/183 133/211/164
f 138/225/178 216/257/209 215/259/211 136/226/179
f 140/224/177 217/255/207 216/257/209 138/225/178
f 142/223/176 218/253/205 217/255/207 140/224/177
f 144/222/175 219/251/203 218/253/205 142/223/176
f 146/221/174 220/249/201 219/251/203 144/222/175
f 148/220/173 221/247/199 220/249/201 146/221/174
f 150/219/172 222/245/197 221/247/199 148/220/173
f 152/218/171 223/243/195 222/245/197 150/219/172
f 154/217/170 224/241/193 223/243/195 152/218/171
f 156/216/169 225/239/191 224/241/193 154/217/170
f 158/215/168 226/237/189 225/239/191 156/216/169
f 160/214/167 227/235/187 226/237/189 158/215/168
f 162/213/166 228/233/185 227/235/187 160/214/167
f 135/212/165 213/230/182 228/233/185 162/213/166
f 133/211/164 214/231/183 213/230/182 135/212/165
o sheath
v -330.212616 2.255135 -0.000025
v -308.615143 7.209551 -2.307359
v -308.570435 7.825042 0.000132
v -312.545166 7.532639 -2.307353
v -312.500153 8.148107 0.000131
v -308.615356 7.209484 2.307281
v -312.552521 7.527133 2.305090
v -308.741302 5.474550 3.997710
v -312.677673 5.794207 3.994676
v -308.914337 3.051447 4.809296
v -312.850006 3.372717 4.807199
v -309.089203 0.528261 4.814941
v -313.024872 0.849895 4.814935
v -309.264221 -1.995952 4.809290
v -313.205109 -1.673352 4.806613
v -309.437622 -4.418161 3.997610
v -313.382446 -4.092605 3.992999
v -309.563599 -6.153202 2.307148
v -313.510773 -5.823676 2.303470
v -309.608307 -6.768631 -0.000023
v -313.555084 -6.438530 -0.000024
v -309.563599 -6.153202 -2.307194
v -313.510773 -5.823676 -2.303518
v -309.437622 -4.418162 -3.997663
v -313.382446 -4.092606 -3.993052
v -309.264221 -1.995952 -4.809338
v -313.205109 -1.673352 -4.806662
v -309.089203 0.528278 -4.814989
v -313.024658 0.852902 -4.814995
v -308.914337 3.051446 -4.809344
v -312.850006 3.372716 -4.807249
v -308.741211 5.474404 -3.997809
v -312.677582 5.794055 -3.994775
v -329.485718 5.725002 -1.212636
v -328.259583 7.469572 -1.846622
v -326.009308 8.029122 -2.102412
v -329.614227 4.626920 -1.942539
v -328.399750 6.020776 -3.141005
v -326.148987 6.438227 -3.624350
v -329.744965 3.327049 -2.123544
v -328.565613 4.070549 -3.730372
v -326.357819 4.225828 -4.373267
v -329.847961 2.139024 -2.019360
v -328.735046 2.068665 -3.714807
v -326.593658 1.935071 -4.387585
v -329.899719 0.959718 -2.241214
v -328.864166 0.012583 -3.763861
v -326.710480 -0.506755 -4.370706
v -329.963562 -0.466543 -2.078083
v -328.996887 -1.973307 -3.176891
v -326.851379 -2.719730 -3.617369
v -330.024963 -1.566346 -1.266128
v -329.110779 -3.398181 -1.850919
v -327.005432 -4.275571 -2.086265
v -330.047943 -1.903165 -0.004960
v -329.159363 -3.890145 -0.007235
v -327.096283 -4.827343 -0.008146
v -330.029663 -1.469830 1.224484
v -329.111938 -3.370656 1.827395
v -327.004700 -4.275616 2.069978
v -329.975555 -0.335297 1.968930
v -329.000244 -1.935911 3.134141
v -326.851074 -2.719769 3.601077
v -329.914795 1.022119 2.125270
v -328.868591 0.030322 3.719267
v -326.710754 -0.506733 4.354414
v -329.850586 2.123822 2.003861
v -328.736877 2.053317 3.698806
v -326.595520 1.919618 4.371282
v -329.729401 3.362740 2.186061
v -328.561310 4.080761 3.736626
v -326.358093 4.225829 4.356974
v -329.589996 4.723079 2.012188
v -328.392578 6.048363 3.149375
v -326.148132 6.438160 3.608057
v -329.491486 5.783457 1.222573
v -328.287659 7.467542 1.830238
v -326.048248 8.005990 2.076550
v -329.443207 6.136692 -0.027540
v -328.231293 7.986416 -0.013725
v -326.016846 8.591759 -0.008147
v -100.046104 4.527687 -1.966521
v -100.044327 5.016347 -0.000008
v -100.046104 4.527687 1.966505
v -100.051178 3.136073 3.421979
v -100.058769 1.053388 4.170962
v -100.067711 -1.403300 4.176847
v -100.076668 -3.860653 4.170962
v -100.084259 -5.943359 3.421979
v -100.089317 -7.335718 1.966506
v -100.091110 -7.824378 -0.000007
v -100.089317 -7.335718 -1.966525
v -100.084259 -5.943338 -3.421994
v -100.076668 -3.860653 -4.170983
v -100.067711 -1.403300 -4.176864
v -100.058769 1.053388 -4.170978
v -100.051178 3.136073 -3.421995
v -146.376801 3.923109 -1.966524
v -146.368744 4.411703 -0.000012
v -146.376801 3.923109 1.966501
v -146.399796 2.531663 3.421975
v -146.434174 0.449296 4.170959
v -146.474747 -2.007028 4.176844
v -146.515320 -4.463564 4.170959
v -146.549698 -6.545938 3.421975
v -146.572693 -7.938508 1.966502
v -146.580765 -8.427107 -0.000011
v -146.572693 -7.938508 -1.966529
v -146.549698 -6.545938 -3.421999
v -146.515320 -4.463549 -4.170987
v -146.474747 -2.007028 -4.176867
v -146.434174 0.449296 -4.170981
v -146.399796 2.531663 -3.421998
v -192.723923 3.592324 -1.966528
v -192.709549 4.080750 -0.000015
v -192.723923 3.592324 1.966498
v -192.764801 2.201391 3.421972
v -192.826004 0.119685 4.170955
v -192.898148 -2.335042 4.176840
v -192.970352 -4.790537 4.170956
v -193.031509 -6.871389 3.421973
v -193.072388 -8.262580 1.966499
v -193.086746 -8.751006 -0.000014
v -193.072388 -8.262580 -1.966532
v -193.031509 -6.871390 -3.422002
v -192.970352 -4.790538 -4.170990
v -192.898148 -2.335042 -4.176871
v -192.826004 0.119685 -4.170985
v -192.764801 2.201391 -3.422002
v -239.060623 4.115176 -1.966531
v -239.039993 4.603344 -0.000019
v -239.060623 4.115176 1.966494
v -239.119431 2.725054 3.421968
v -239.207397 0.644498 4.170951
v -239.311142 -1.810993 4.176837
v -239.414932 -4.265165 4.170951
v -239.502899 -6.347705 3.421968
v -239.561691 -7.736996 1.966495
v -239.582336 -8.225142 -0.000018
v -239.561691 -7.736996 -1.966536
v -239.502899 -6.347706 -3.422004
v -239.414932 -4.265166 -4.170993
v -239.311142 -1.810993 -4.176874
v -239.207397 0.644498 -4.170989
v -239.119431 2.725054 -3.422005
v -285.360382 5.132087 -1.966535
v -285.333435 5.619892 -0.000022
v -285.360382 5.132087 1.966491
v -285.437042 3.742926 3.421965
v -285.551788 1.663198 4.170948
v -285.687134 -0.789203 4.176834
v -285.822479 -3.243354 4.170949
v -285.937225 -5.322394 3.421965
v -286.013885 -6.711835 1.966491
v -286.040802 -7.199640 -0.000021
v -286.013885 -6.711835 -1.966540
v -285.937225 -5.322395 -3.422009
v -285.822479 -3.243354 -4.170998
v -285.687134 -0.789203 -4.176877
v -285.551788 1.663198 -4.170992
v -285.437042 3.742926 -3.422009
v -53.408428 3.735045 -3.421991
v -53.408428 5.126659 -1.966517
v -46.388603 -0.783157 -0.000004
v -53.408428 1.652360 -4.170975
v -53.408428 -0.804373 -4.176860
v -53.408428 -3.261083 -4.170979
v -53.408428 -5.343791 -3.421991
v -53.408428 -6.735405 -1.966523
v -53.408428 -7.224088 -0.000004
v -53.408428 -6.735405 1.966509
v -53.408428 -5.343791 3.421983
v -53.408428 -3.261083 4.170966
v -53.408428 -0.804373 4.176851
v -53.408428 1.652337 4.170965
v -53.408428 3.735045 3.421982
v -53.408428 5.126659 1.966508
v -53.408428 5.615342 -0.000005
v -53.409901 4.401752 -4.496086
v -53.410831 6.218637 -2.595824
v -46.391006 6.239876 -2.595824
v -46.390076 4.422986 -4.496085
v -46.389057 1.881038 -5.410222
v -53.408882 1.859822 -5.410223
v -46.388603 -0.783157 -5.416605
v -53.408428 -0.804373 -5.416605
v -46.388149 -3.447335 -5.410222
v -53.407974 -3.468569 -5.410223
v -46.387135 -5.989284 -4.496089
v -53.406963 -6.010493 -4.496090
v -46.386200 -7.806167 -2.595829
v -53.406025 -7.827383 -2.595824
v -46.385860 -8.451235 -0.000003
v -53.405678 -8.472451 -0.000004
v -46.386200 -7.806167 2.595815
v -53.406025 -7.827383 2.595815
v -46.387135 -5.989283 4.496078
v -53.406963 -6.010492 4.496077
v -46.388149 -3.447357 5.410214
v -53.407974 -3.468568 5.410213
v -46.388603 -0.783157 5.416597
v -53.408428 -0.804373 5.416596
v -46.389057 1.881038 5.410214
v -53.408882 1.859822 5.410213
v -46.390076 4.422965 4.496077
v -53.409901 4.401752 4.496076
v -46.391006 6.239876 2.595814
v -53.410831 6.218637 2.595814
v -46.391354 6.884916 -0.000005
v -53.411179 6.863705 -0.000006
v -308.628754 6.420081 -1.882143
v -308.598816 6.907674 0.084369
v -308.628754 6.420081 2.050882
v -308.714264 5.031563 3.506356
v -308.842133 2.953008 4.255340
v -308.993011 0.501736 4.261225
v -309.143860 -1.950581 4.255340
v -309.271790 -4.028235 3.506356
v -309.357208 -5.416911 2.050883
v -309.387207 -5.904503 0.084370
v -309.357208 -5.416911 -1.882149
v -309.271790 -4.028236 -3.337617
v -309.143860 -1.950581 -4.086606
v -308.993011 0.501736 -4.092486
v -308.842133 2.953008 -4.086600
v -308.714264 5.031562 -3.337617
vn 0.2511 0.9680 0.0005
vn 0.2358 0.8358 -0.4959
vn 0.0347 0.8601 -0.5089
vn 0.0439 0.9990 0.0029
vn 0.2217 0.8360 0.5020
vn 0.0335 0.8601 0.5090
vn 0.1697 0.4988 0.8499
vn 0.0098 0.5162 0.8564
vn 0.1345 0.1519 0.9792
vn -0.0141 0.1659 0.9860
vn 0.1329 -0.0088 0.9911
vn -0.0254 0.0016 0.9997
vn 0.1061 -0.1706 0.9796
vn -0.0392 -0.1615 0.9861
vn 0.0805 -0.5204 0.8501
vn -0.0691 -0.5127 0.8558
vn 0.0735 -0.8623 0.5010
vn -0.0986 -0.8567 0.5063
vn 0.0791 -0.9969 -0.0006
vn -0.1101 -0.9939 0.0001
vn 0.0870 -0.8611 -0.5010
vn -0.0981 -0.8568 -0.5062
vn 0.1073 -0.5199 -0.8475
vn -0.0683 -0.5128 -0.8558
vn 0.1405 -0.1721 -0.9750
vn -0.0383 -0.1613 -0.9862
vn 0.1725 -0.0114 -0.9849
vn -0.0244 0.0015 -0.9997
vn 0.1690 0.1485 -0.9744
vn -0.0131 0.1661 -0.9860
vn 0.1964 0.4942 -0.8469
vn 0.0109 0.5143 -0.8575
vn -0.0125 0.8605 -0.5093
vn -0.0056 1.0000 0.0043
vn -0.0133 0.8608 0.5087
vn -0.0326 0.5166 0.8556
vn -0.0546 0.1666 0.9845
vn -0.0672 0.0034 0.9977
vn -0.0798 -0.1565 0.9844
vn -0.1112 -0.5077 0.8543
vn -0.1435 -0.8511 0.5050
vn -0.1565 -0.9877 0.0015
vn -0.1418 -0.8525 -0.5031
vn -0.1086 -0.5080 -0.8545
vn -0.0775 -0.1559 -0.9847
vn -0.0659 0.0060 -0.9978
vn -0.0546 0.1673 -0.9844
vn -0.0334 0.5134 -0.8575
vn -0.8942 0.3877 -0.2238
vn -0.8888 0.2492 -0.3846
vn -0.9972 0.0748 -0.0008
vn -0.8838 0.1105 -0.4546
vn -0.8874 0.0729 -0.4552
vn -0.8878 0.0340 -0.4589
vn -0.9151 -0.1088 -0.3882
vn -0.9463 -0.2435 -0.2128
vn -0.9587 -0.2843 0.0065
vn -0.9463 -0.2355 0.2217
vn -0.9165 -0.1040 0.3863
vn -0.8904 0.0259 0.4544
vn -0.8873 0.0629 0.4569
vn -0.8819 0.1034 0.4599
vn -0.8851 0.2497 0.3929
vn -0.8955 0.3913 0.2122
vn -0.8986 0.4386 -0.0105
vn -0.5054 0.7426 -0.4396
vn -0.5035 0.4543 -0.7349
vn -0.5107 0.1668 -0.8434
vn -0.5234 0.0453 -0.8509
vn -0.5135 -0.0811 -0.8542
vn -0.5534 -0.3783 -0.7420
vn -0.6126 -0.6618 -0.4320
vn -0.6430 -0.7658 0.0054
vn -0.6206 -0.6512 0.4368
vn -0.5670 -0.3699 0.7360
vn -0.5255 -0.0850 0.8465
vn -0.5243 0.0357 0.8508
vn -0.5011 0.1617 0.8502
vn -0.4890 0.4596 0.7414
vn -0.5030 0.7482 0.4326
vn -0.5107 0.8597 -0.0030
vn -0.0129 0.9999 -0.0000
vn -0.0113 0.8763 -0.4816
vn -0.0088 0.8762 -0.4818
vn -0.0101 0.9999 -0.0000
vn -0.0113 0.8763 0.4816
vn -0.0088 0.8762 0.4818
vn -0.0069 0.5358 0.8443
vn -0.0054 0.5355 0.8445
vn -0.0021 0.1640 0.9865
vn -0.0016 0.1638 0.9865
vn -0.0000 -0.0000 1.0000
vn 0.0021 -0.1641 0.9864
vn 0.0017 -0.1644 0.9864
vn 0.0069 -0.5358 0.8443
vn 0.0054 -0.5362 0.8441
vn 0.0113 -0.8763 0.4817
vn 0.0087 -0.8765 0.4814
vn 0.0129 -0.9999 -0.0000
vn 0.0100 -1.0000 -0.0000
vn 0.0113 -0.8763 -0.4816
vn 0.0087 -0.8765 -0.4814
vn 0.0069 -0.5358 -0.8443
vn 0.0054 -0.5362 -0.8441
vn 0.0021 -0.1641 -0.9864
vn 0.0017 -0.1644 -0.9864
vn -0.0000 -0.0000 -1.0000
vn -0.0021 0.1640 -0.9865
vn -0.0016 0.1638 -0.9865
vn -0.0069 0.5357 -0.8443
vn -0.0054 0.5355 -0.8445
vn 0.0018 0.8760 -0.4822
vn 0.0020 1.0000 -0.0000
vn 0.0018 0.8760 0.4822
vn 0.0011 0.5349 0.8449
vn 0.0004 0.1631 0.9866
vn -0.0003 -0.1651 0.9863
vn -0.0011 -0.5369 0.8437
vn -0.0019 -0.8768 0.4809
vn -0.0022 -1.0000 -0.0000
vn -0.0019 -0.8767 -0.4811
vn -0.0011 -0.5369 -0.8437
vn -0.0003 -0.1651 -0.9863
vn 0.0004 0.1631 -0.9866
vn 0.0011 0.5349 -0.8449
vn 0.0146 0.8761 -0.4818
vn 0.0166 0.9999 -0.0000
vn 0.0146 0.8762 0.4818
vn 0.0089 0.5353 0.8446
vn 0.0027 0.1634 0.9866
vn -0.0027 -0.1647 0.9863
vn -0.0089 -0.5364 0.8439
vn -0.0146 -0.8767 0.4809
vn -0.0167 -0.9999 -0.0000
vn -0.0146 -0.8767 -0.4808
vn -0.0089 -0.5364 -0.8439
vn -0.0027 -0.1647 -0.9863
vn 0.0027 0.1634 -0.9866
vn 0.0089 0.5353 -0.8446
vn 0.0284 0.8751 -0.4831
vn 0.0331 0.9995 -0.0002
vn 0.0296 0.8752 0.4828
vn 0.0187 0.5332 0.8458
vn 0.0066 0.1616 0.9868
vn 0.0013 -0.0001 1.0000
vn -0.0043 -0.1664 0.9860
vn -0.0169 -0.5380 0.8428
vn -0.0286 -0.8770 0.4797
vn -0.0333 -0.9994 -0.0003
vn -0.0298 -0.8768 -0.4800
vn -0.0189 -0.5377 -0.8429
vn -0.0067 -0.1663 -0.9861
vn -0.0012 -0.0000 -1.0000
vn 0.0042 0.1616 -0.9868
vn 0.0167 0.5332 -0.8458
vn 0.0947 0.8715 -0.4812
vn 0.1032 0.9947 0.0006
vn 0.0932 0.8711 0.4822
vn 0.0673 0.5311 0.8446
vn 0.0408 0.1608 0.9861
vn 0.0275 -0.0018 0.9996
vn 0.0223 -0.1666 0.9858
vn 0.0066 -0.5373 0.8434
vn -0.0060 -0.8766 0.4811
vn -0.0101 -0.9999 0.0006
vn -0.0047 -0.8773 -0.4800
vn 0.0083 -0.5381 -0.8429
vn 0.0234 -0.1668 -0.9857
vn 0.0276 -0.0019 -0.9996
vn 0.0420 0.1608 -0.9861
vn 0.0691 0.5315 -0.8443
vn -0.0027 0.8772 -0.4802
vn -0.0016 0.5427 -0.8399
vn -0.0016 0.5422 -0.8403
vn -0.0027 0.8770 -0.4805
vn -0.0005 0.1742 -0.9847
vn -0.0005 0.1737 -0.9848
vn 0.0005 -0.1738 -0.9848
vn 0.0005 -0.1743 -0.9847
vn 0.0016 -0.5422 -0.8403
vn 0.0016 -0.5427 -0.8399
vn 0.0026 -0.8770 -0.4805
vn 0.0027 -0.8772 -0.4801
vn 0.0030 -1.0000 -0.0000
vn 0.0026 -0.8770 0.4805
vn 0.0026 -0.8772 0.4802
vn 0.0016 -0.5422 0.8403
vn 0.0016 -0.5427 0.8399
vn 0.0005 -0.1737 0.9848
vn 0.0005 -0.1742 0.9847
vn -0.0005 0.1742 0.9847
vn -0.0005 0.1738 0.9848
vn -0.0016 0.5427 0.8399
vn -0.0016 0.5422 0.8403
vn -0.0027 0.8772 0.4801
vn -0.0027 0.8770 0.4805
vn -0.0030 1.0000 -0.0000
vn -1.0000 -0.0009 0.0008
vn -1.0000 -0.0017 0.0007
vn 1.0000 0.0003 -0.0000
vn 1.0000 0.0004 0.0001
vn 1.0000 0.0003 0.0001
vn -1.0000 -0.0003 0.0004
vn 1.0000 0.0002 -0.0000
vn -1.0000 -0.0001 -0.0000
vn 1.0000 0.0003 -0.0001
vn -1.0000 -0.0003 -0.0004
vn 1.0000 0.0004 -0.0001
vn -1.0000 -0.0009 -0.0008
vn -1.0000 -0.0017 -0.0007
vn 1.0000 0.0004 -0.0000
vn -1.0000 -0.0021 -0.0000
vn -0.0113 0.8767 0.4809
vn -0.0128 0.9999 -0.0000
vn -0.0069 0.5371 0.8435
vn -0.0021 0.1654 0.9862
vn 0.0022 -0.1627 0.9867
vn 0.0070 -0.5344 0.8452
vn 0.0113 -0.8758 0.4826
vn 0.0113 -0.8758 -0.4826
vn 0.0069 -0.5344 -0.8452
vn 0.0021 -0.1627 -0.9867
vn -0.0022 0.1654 -0.9862
vn -0.0070 0.5371 -0.8435
vn -0.0113 0.8767 -0.4809
vt 0.752274 0.930698
vt 0.760262 0.931287
vt 0.759115 0.945050
vt 0.750868 0.945181
vt 0.873864 0.931120
vt 0.881932 0.930689
vt 0.883061 0.945045
vt 0.874807 0.944871
vt 0.866064 0.930796
vt 0.866529 0.944678
vt 0.857604 0.930478
vt 0.857885 0.944471
vt 0.848964 0.930232
vt 0.849422 0.944333
vt 0.840280 0.930477
vt 0.841032 0.944317
vt 0.831797 0.930791
vt 0.832598 0.944416
vt 0.824099 0.931183
vt 0.824661 0.944550
vt 0.816728 0.931355
vt 0.816874 0.944688
vt 0.809378 0.931382
vt 0.809087 0.944688
vt 0.801762 0.931087
vt 0.801177 0.944625
vt 0.793423 0.930856
vt 0.792772 0.944593
vt 0.784841 0.930582
vt 0.784410 0.944640
vt 0.776314 0.930840
vt 0.775992 0.944778
vt 0.767986 0.931102
vt 0.767379 0.944943
vt 0.761274 0.992398
vt 0.753746 0.993010
vt 0.880095 0.992812
vt 0.872571 0.992308
vt 0.864915 0.991942
vt 0.856744 0.991890
vt 0.848684 0.991974
vt 0.840268 0.991590
vt 0.832137 0.991392
vt 0.824516 0.991477
vt 0.816993 0.991623
vt 0.809469 0.991540
vt 0.801819 0.991563
vt 0.793675 0.991793
vt 0.785190 0.992198
vt 0.777169 0.992127
vt 0.768987 0.992181
vt 0.679247 0.767594
vt 0.687757 0.779730
vt 0.664402 0.806003
vt 0.690052 0.794170
vt 0.688761 0.807460
vt 0.690864 0.820690
vt 0.688080 0.836354
vt 0.678080 0.848024
vt 0.663451 0.851416
vt 0.649339 0.846433
vt 0.640620 0.833967
vt 0.638651 0.818928
vt 0.640178 0.806634
vt 0.638605 0.792697
vt 0.641507 0.777722
vt 0.651218 0.766474
vt 0.665677 0.762849
vt 0.687521 0.744346
vt 0.703744 0.760529
vt 0.697637 0.719791
vt 0.722857 0.741122
vt 0.712592 0.783331
vt 0.737973 0.773076
vt 0.713410 0.807700
vt 0.741311 0.807697
vt 0.711999 0.832720
vt 0.736690 0.844308
vt 0.702159 0.855502
vt 0.720098 0.875554
vt 0.684893 0.870621
vt 0.693790 0.895120
vt 0.663018 0.875802
vt 0.662534 0.900426
vt 0.641443 0.869489
vt 0.631536 0.893803
vt 0.624991 0.853537
vt 0.606138 0.873150
vt 0.616198 0.830551
vt 0.590900 0.841308
vt 0.615556 0.805911
vt 0.587681 0.804825
vt 0.617167 0.781258
vt 0.592345 0.770090
vt 0.626993 0.758674
vt 0.608799 0.738736
vt 0.644158 0.743654
vt 0.635058 0.718965
vt 0.665975 0.738102
vt 0.666450 0.713164
vt 0.758171 0.198834
vt 0.765243 0.198845
vt 0.764677 0.360490
vt 0.757607 0.360430
vt 0.872459 0.199169
vt 0.879518 0.199204
vt 0.879120 0.360778
vt 0.872050 0.360799
vt 0.865443 0.199190
vt 0.865026 0.360903
vt 0.857732 0.199248
vt 0.857307 0.361068
vt 0.849168 0.199326
vt 0.848741 0.361265
vt 0.840609 0.199409
vt 0.840173 0.361464
vt 0.832904 0.199484
vt 0.832455 0.361631
vt 0.825897 0.199532
vt 0.825429 0.361737
vt 0.818852 0.199537
vt 0.818360 0.361761
vt 0.811803 0.199495
vt 0.811292 0.361696
vt 0.804797 0.199405
vt 0.804267 0.361549
vt 0.797093 0.199283
vt 0.796549 0.361338
vt 0.788534 0.199147
vt 0.787983 0.361091
vt 0.779970 0.199017
vt 0.779417 0.360844
vt 0.772259 0.198910
vt 0.771700 0.360634
vt 0.764244 0.522442
vt 0.757174 0.522376
vt 0.878642 0.522717
vt 0.871573 0.522743
vt 0.864548 0.522855
vt 0.856830 0.523031
vt 0.848267 0.523239
vt 0.839703 0.523448
vt 0.831991 0.523623
vt 0.824970 0.523735
vt 0.817905 0.523762
vt 0.810840 0.523696
vt 0.803820 0.523544
vt 0.796109 0.523326
vt 0.787546 0.523069
vt 0.778985 0.522813
vt 0.771267 0.522593
vt 0.763740 0.684426
vt 0.756670 0.684362
vt 0.878242 0.684697
vt 0.871171 0.684722
vt 0.864147 0.684828
vt 0.856428 0.684994
vt 0.847854 0.685190
vt 0.839284 0.685385
vt 0.831555 0.685549
vt 0.824528 0.685653
vt 0.817454 0.685676
vt 0.810380 0.685614
vt 0.803354 0.685471
vt 0.795625 0.685265
vt 0.787055 0.685022
vt 0.778482 0.684779
vt 0.770763 0.684571
vt 0.763292 0.846313
vt 0.756220 0.846215
vt 0.877837 0.846513
vt 0.870765 0.846595
vt 0.863746 0.846727
vt 0.856028 0.846892
vt 0.847455 0.847069
vt 0.838864 0.847239
vt 0.831135 0.847369
vt 0.824103 0.847444
vt 0.817024 0.847452
vt 0.809946 0.847389
vt 0.802916 0.847263
vt 0.795187 0.847085
vt 0.786598 0.846876
vt 0.778027 0.846659
vt 0.770311 0.846465
vt 0.760825 0.928159
vt 0.753680 0.927631
vt 0.880035 0.927741
vt 0.872898 0.928364
vt 0.865655 0.928551
vt 0.857670 0.928508
vt 0.848817 0.928289
vt 0.839943 0.928537
vt 0.831870 0.928634
vt 0.824455 0.928612
vt 0.816955 0.928499
vt 0.809450 0.928448
vt 0.802008 0.928537
vt 0.793907 0.928317
vt 0.784997 0.928082
vt 0.776106 0.928311
vt 0.768085 0.928361
vt 0.759749 0.008540
vt 0.768657 0.007968
vt 0.770684 0.032181
vt 0.762627 0.032528
vt 0.777594 0.007736
vt 0.778974 0.032257
vt 0.786161 0.007677
vt 0.787385 0.032508
vt 0.794469 0.007513
vt 0.795801 0.032041
vt 0.802873 0.007265
vt 0.803975 0.031685
vt 0.811041 0.007078
vt 0.811671 0.031554
vt 0.819359 0.006990
vt 0.819356 0.031626
vt 0.827679 0.007030
vt 0.827034 0.031646
vt 0.835852 0.007283
vt 0.834721 0.031773
vt 0.844265 0.007589
vt 0.842891 0.032150
vt 0.852583 0.007804
vt 0.851306 0.032649
vt 0.861160 0.007909
vt 0.859723 0.032434
vt 0.870105 0.008181
vt 0.868026 0.032395
vt 0.879015 0.008781
vt 0.876110 0.032782
vt 0.888323 0.009635
vt 0.884741 0.034064
vt 0.750608 0.009370
vt 0.753882 0.033702
vt 0.770839 0.036605
vt 0.763625 0.036680
vt 0.120509 0.261353
vt 0.036440 0.168519
vt 0.070249 0.134633
vt 0.020890 0.215180
vt 0.778798 0.036546
vt 0.021917 0.263676
vt 0.787624 0.036684
vt 0.023176 0.312166
vt 0.796486 0.036327
vt 0.040905 0.358042
vt 0.804535 0.036155
vt 0.076272 0.390298
vt 0.811902 0.035885
vt 0.123797 0.400926
vt 0.819337 0.035743
vt 0.170770 0.388071
vt 0.826778 0.035951
vt 0.204579 0.354186
vt 0.834143 0.036245
vt 0.220128 0.307526
vt 0.842191 0.036442
vt 0.219101 0.259030
vt 0.851051 0.036831
vt 0.217843 0.210539
vt 0.859877 0.036730
vt 0.200114 0.164663
vt 0.867834 0.036828
vt 0.164746 0.132407
vt 0.875045 0.036950
vt 0.117221 0.121779
vt 0.882175 0.037623
vt 0.756507 0.037293
s 1
f 231/311/244 230/312/245 232/313/246 233/314/247
f 234/315/248 231/316/244 233/317/247 235/318/249
f 236/319/250 234/315/248 235/318/249 237/320/251
f 238/321/252 236/319/250 237/320/251 239/322/253
f 240/323/254 238/321/252 239/322/253 241/324/255
f 242/325/256 240/323/254 241/324/255 243/326/257
f 244/327/258 242/325/256 243/326/257 245/328/259
f 246/329/260 244/327/258 245/328/259 247/330/261
f 248/331/262 246/329/260 247/330/261 249/332/263
f 250/333/264 248/331/262 249/332/263 251/334/265
f 252/335/266 250/333/264 251/334/265 253/336/267
f 254/337/268 252/335/266 253/336/267 255/338/269
f 256/339/270 254/337/268 255/338/269 257/340/271
f 258/341/272 256/339/270 257/340/271 259/342/273
f 260/343/274 258/341/272 259/342/273 261/344/275
f 230/312/245 260/343/274 261/344/275 232/313/246
f 233/314/247 232/313/246 264/345/276 309/346/277
f 235/318/249 233/317/247 309/347/277 306/348/278
f 237/320/251 235/318/249 306/348/278 303/349/279
f 239/322/253 237/320/251 303/349/279 300/350/280
f 241/324/255 239/322/253 300/350/280 297/351/281
f 243/326/257 241/324/255 297/351/281 294/352/282
f 245/328/259 243/326/257 294/352/282 291/353/283
f 247/330/261 245/328/259 291/353/283 288/354/284
f 249/332/263 247/330/261 288/354/284 285/355/285
f 251/334/265 249/332/263 285/355/285 282/356/286
f 253/336/267 251/334/265 282/356/286 279/357/287
f 255/338/269 253/336/267 279/357/287 276/358/288
f 257/340/271 255/338/269 276/358/288 273/359/289
f 259/342/273 257/340/271 273/359/289 270/360/290
f 261/344/275 259/342/273 270/360/290 267/361/291
f 232/313/246 261/344/275 267/361/291 264/345/276
f 262/362/292 265/363/293 229/364/294
f 265/363/293 268/365/295 229/364/294
f 268/365/295 271/366/296 229/364/294
f 271/366/296 274/367/297 229/364/294
f 274/367/297 277/368/298 229/364/294
f 277/368/298 280/369/299 229/364/294
f 280/369/299 283/370/300 229/364/294
f 283/370/300 286/371/301 229/364/294
f 286/371/301 289/372/302 229/364/294
f 289/372/302 292/373/303 229/364/294
f 292/373/303 295/374/304 229/364/294
f 295/374/304 298/375/305 229/364/294
f 298/375/305 301/376/306 229/364/294
f 301/376/306 304/377/307 229/364/294
f 304/377/307 307/378/308 229/364/294
f 307/378/308 262/362/292 229/364/294
f 262/362/292 263/379/309 266/380/310 265/363/293
f 263/379/309 264/381/276 267/382/291 266/380/310
f 265/363/293 266/380/310 269/383/311 268/365/295
f 266/380/310 267/382/291 270/384/290 269/383/311
f 268/365/295 269/383/311 272/385/312 271/366/296
f 269/383/311 270/384/290 273/386/289 272/385/312
f 271/366/296 272/385/312 275/387/313 274/367/297
f 272/385/312 273/386/289 276/388/288 275/387/313
f 274/367/297 275/387/313 278/389/314 277/368/298
f 275/387/313 276/388/288 279/390/287 278/389/314
f 277/368/298 278/389/314 281/391/315 280/369/299
f 278/389/314 279/390/287 282/392/286 281/391/315
f 280/369/299 281/391/315 284/393/316 283/370/300
f 281/391/315 282/392/286 285/394/285 284/393/316
f 283/370/300 284/393/316 287/395/317 286/371/301
f 284/393/316 285/394/285 288/396/284 287/395/317
f 286/371/301 287/395/317 290/397/318 289/372/302
f 287/395/317 288/396/284 291/398/283 290/397/318
f 289/372/302 290/397/318 293/399/319 292/373/303
f 290/397/318 291/398/283 294/400/282 293/399/319
f 292/373/303 293/399/319 296/401/320 295/374/304
f 293/399/319 294/400/282 297/402/281 296/401/320
f 295/374/304 296/401/320 299/403/321 298/375/305
f 296/401/320 297/402/281 300/404/280 299/403/321
f 298/375/305 299/403/321 302/405/322 301/376/306
f 299/403/321 300/404/280 303/406/279 302/405/322
f 301/376/306 302/405/322 305/407/323 304/377/307
f 302/405/322 303/406/279 306/408/278 305/407/323
f 304/377/307 305/407/323 308/409/324 307/378/308
f 305/407/323 306/408/278 309/410/277 308/409/324
f 264/381/276 263/379/309 308/409/324 309/410/277
f 263/379/309 262/362/292 307/378/308 308/409/324
f 311/411/325 310/412/326 326/413/327 327/414/328
f 312/415/329 311/416/325 327/417/328 328/418/330
f 313/419/331 312/415/329 328/418/330 329/420/332
f 314/421/333 313/419/331 329/420/332 330/422/334
f 315/423/335 314/421/333 330/422/334 331/424/335
f 316/425/336 315/423/335 331/424/335 332/426/337
f 317/427/338 316/425/336 332/426/337 333/428/339
f 318/429/340 317/427/338 333/428/339 334/430/341
f 319/431/342 318/429/340 334/430/341 335/432/343
f 320/433/344 319/431/342 335/432/343 336/434/345
f 321/435/346 320/433/344 336/434/345 337/436/347
f 322/437/348 321/435/346 337/436/347 338/438/349
f 323/439/350 322/437/348 338/438/349 339/440/350
f 324/441/351 323/439/350 339/440/350 340/442/352
f 325/443/353 324/441/351 340/442/352 341/444/354
f 341/444/354 326/413/327 310/412/326 325/443/353
f 327/414/328 326/413/327 342/445/355 343/446/356
f 328/418/330 327/417/328 343/447/356 344/448/357
f 329/420/332 328/418/330 344/448/357 345/449/358
f 330/422/334 329/420/332 345/449/358 346/450/359
f 331/424/335 330/422/334 346/450/359 347/451/335
f 332/426/337 331/424/335 347/451/335 348/452/360
f 333/428/339 332/426/337 348/452/360 349/453/361
f 334/430/341 333/428/339 349/453/361 350/454/362
f 335/432/343 334/430/341 350/454/362 351/455/363
f 336/434/345 335/432/343 351/455/363 352/456/364
f 337/436/347 336/434/345 352/456/364 353/457/365
f 338/438/349 337/436/347 353/457/365 354/458/366
f 339/440/350 338/438/349 354/458/366 355/459/350
f 340/442/352 339/440/350 355/459/350 356/460/367
f 341/444/354 340/442/352 356/460/367 357/461/368
f 357/461/368 342/445/355 326/413/327 341/444/354
f 343/446/356 342/445/355 358/462/369 359/463/370
f 344/448/357 343/447/356 359/464/370 360/465/371
f 345/449/358 344/448/357 360/465/371 361/466/372
f 346/450/359 345/449/358 361/466/372 362/467/373
f 347/451/335 346/450/359 362/467/373 363/468/335
f 348/452/360 347/451/335 363/468/335 364/469/374
f 349/453/361 348/452/360 364/469/374 365/470/375
f 350/454/362 349/453/361 365/470/375 366/471/376
f 351/455/363 350/454/362 366/471/376 367/472/377
f 352/456/364 351/455/363 367/472/377 368/473/378
f 353/457/365 352/456/364 368/473/378 369/474/379
f 354/458/366 353/457/365 369/474/379 370/475/380
f 355/459/350 354/458/366 370/475/380 371/476/350
f 356/460/367 355/459/350 371/476/350 372/477/381
f 357/461/368 356/460/367 372/477/381 373/478/382
f 373/478/382 358/462/369 342/445/355 357/461/368
f 359/463/370 358/462/369 374/479/383 375/480/384
f 360/465/371 359/464/370 375/481/384 376/482/385
f 361/466/372 360/465/371 376/482/385 377/483/386
f 362/467/373 361/466/372 377/483/386 378/484/387
f 363/468/335 362/467/373 378/484/387 379/485/388
f 364/469/374 363/468/335 379/485/388 380/486/389
f 365/470/375 364/469/374 380/486/389 381/487/390
f 366/471/376 365/470/375 381/487/390 382/488/391
f 367/472/377 366/471/376 382/488/391 383/489/392
f 368/473/378 367/472/377 383/489/392 384/490/393
f 369/474/379 368/473/378 384/490/393 385/491/394
f 370/475/380 369/474/379 385/491/394 386/492/395
f 371/476/350 370/475/380 386/492/395 387/493/396
f 372/477/381 371/476/350 387/493/396 388/494/397
f 373/478/382 372/477/381 388/494/397 389/495/398
f 389/495/398 374/479/383 358/462/369 373/478/382
f 375/480/384 374/479/383 439/496/399 440/497/400
f 376/482/385 375/481/384 440/498/400 441/499/401
f 377/483/386 376/482/385 441/499/401 442/500/402
f 378/484/387 377/483/386 442/500/402 443/501/403
f 379/485/388 378/484/387 443/501/403 444/502/404
f 380/486/389 379/485/388 444/502/404 445/503/405
f 381/487/390 380/486/389 445/503/405 446/504/406
f 382/488/391 381/487/390 446/504/406 447/505/407
f 383/489/392 382/488/391 447/505/407 448/506/408
f 384/490/393 383/489/392 448/506/408 449/507/409
f 385/491/394 384/490/393 449/507/409 450/508/410
f 386/492/395 385/491/394 450/508/410 451/509/411
f 387/493/396 386/492/395 451/509/411 452/510/412
f 388/494/397 387/493/396 452/510/412 453/511/413
f 389/495/398 388/494/397 453/511/413 454/512/414
f 454/512/414 439/496/399 374/479/383 389/495/398
f 409/513/415 410/514/416 407/515/417 408/516/418
f 410/514/416 411/517/419 412/518/420 407/515/417
f 411/517/419 413/519/350 414/520/350 412/518/420
f 413/519/350 415/521/421 416/522/422 414/520/350
f 415/521/421 417/523/423 418/524/424 416/522/422
f 417/523/423 419/525/425 420/526/426 418/524/424
f 419/525/425 421/527/427 422/528/427 420/526/426
f 421/527/427 423/529/428 424/530/429 422/528/427
f 423/529/428 425/531/430 426/532/431 424/530/429
f 425/531/430 427/533/432 428/534/433 426/532/431
f 427/533/432 429/535/335 430/536/335 428/534/433
f 429/535/335 431/537/434 432/538/435 430/536/335
f 431/537/434 433/539/436 434/540/437 432/538/435
f 433/539/436 435/541/438 436/542/439 434/540/437
f 435/541/438 437/543/440 438/544/440 436/542/439
f 437/545/440 409/513/415 408/516/418 438/546/440
f 390/547/441 391/548/442 408/516/442 407/515/441
f 392/549/443 410/550/444 409/551/444
f 392/549/443 411/552/445 410/550/444
f 393/553/446 390/547/441 407/515/441 412/518/446
f 392/549/443 413/554/447 411/552/445
f 394/555/448 393/553/446 412/518/446 414/520/448
f 392/549/443 415/556/449 413/554/447
f 395/557/450 394/555/448 414/520/448 416/522/450
f 392/549/443 417/558/451 415/556/449
f 396/559/452 395/557/450 416/522/450 418/524/452
f 392/549/443 419/560/451 417/558/451
f 397/561/453 396/559/452 418/524/452 420/526/453
f 392/549/443 421/562/454 419/560/451
f 398/563/455 397/561/453 420/526/453 422/528/455
f 392/549/443 423/564/444 421/562/454
f 399/565/442 398/563/455 422/528/455 424/530/442
f 392/549/443 425/566/444 423/564/444
f 400/567/441 399/565/442 424/530/442 426/532/441
f 392/549/443 427/568/445 425/566/444
f 401/569/446 400/567/441 426/532/441 428/534/446
f 392/549/443 429/570/447 427/568/445
f 402/571/448 401/569/446 428/534/446 430/536/448
f 392/549/443 431/572/449 429/570/447
f 403/573/450 402/571/448 430/536/448 432/538/450
f 392/549/443 433/574/451 431/572/449
f 404/575/452 403/573/450 432/538/450 434/540/452
f 392/549/443 435/576/451 433/574/451
f 405/577/453 404/575/452 434/540/452 436/542/453
f 392/549/443 437/578/454 435/576/451
f 406/579/455 405/577/453 436/542/453 438/544/455
f 392/549/443 409/551/444 437/578/454
f 391/548/442 406/580/455 438/546/455 408/516/442
f 312/415/329 405/577/456 406/579/457 311/416/325
f 313/419/331 404/575/458 405/577/456 312/415/329
f 314/421/333 403/573/459 404/575/458 313/419/331
f 315/423/335 402/571/335 403/573/459 314/421/333
f 316/425/336 401/569/460 402/571/335 315/423/335
f 317/427/338 400/567/461 401/569/460 316/425/336
f 318/429/340 399/565/462 400/567/461 317/427/338
f 319/431/342 398/563/342 399/565/462 318/429/340
f 320/433/344 397/561/463 398/563/342 319/431/342
f 321/435/346 396/559/464 397/561/463 320/433/344
f 322/437/348 395/557/465 396/559/464 321/435/346
f 323/439/350 394/555/350 395/557/465 322/437/348
f 324/441/351 393/553/466 394/555/350 323/439/350
f 325/443/353 390/547/467 393/553/466 324/441/351
f 310/412/326 391/548/468 390/547/467 325/443/353
f 311/411/325 406/580/457 391/548/468 310/412/326
f 234/315/248 441/499/401 440/498/400 231/316/244
f 236/319/250 442/500/402 441/499/401 234/315/248
f 238/321/252 443/501/403 442/500/402 236/319/250
f 240/323/254 444/502/404 443/501/403 238/321/252
f 242/325/256 445/503/405 444/502/404 240/323/254
f 244/327/258 446/504/406 445/503/405 242/325/256
f 246/329/260 447/505/407 446/504/406 244/327/258
f 248/331/262 448/506/408 447/505/407 246/329/260
f 250/333/264 449/507/409 448/506/408 248/331/262
f 252/335/266 450/508/410 449/507/409 250/333/264
f 254/337/268 451/509/411 450/508/410 252/335/266
f 256/339/270 452/510/412 451/509/411 254/337/268
f 258/341/272 453/511/413 452/510/412 256/339/270
f 260/343/274 454/512/414 453/511/413 258/341/272
f 230/312/245 439/496/399 454/512/414 260/343/274
f 231/311/244 440/497/400 439/496/399 230/312/245
o item_blade
v 0.369394 72.204132 0.153056
v 71.053619 1.467015 0.249186
v -70.367531 1.519876 -0.023577
v 0.316694 -69.217163 0.072550
v 0.356070 57.147354 4.144476
v 55.991425 1.470365 4.220142
v -55.320671 1.511972 4.005451
v 0.314589 -54.164928 4.081111
v 0.369394 72.204132 0.153056
v 71.053619 1.467015 0.249186
v -70.367531 1.519876 -0.023577
v 0.316694 -69.217163 0.072550
v 0.371500 57.151909 -3.855503
v 56.006851 1.474915 -3.779841
v -55.305237 1.516521 -3.994533
v 0.330019 -54.160381 -3.918873
vn 0.2541 0.0846 0.9635
vn -0.0870 0.2554 0.9629
vn 0.0621 0.1913 0.9796
vn 0.1513 -0.0516 0.9871
vn 0.0834 -0.2565 0.9629
vn -0.0660 -0.1924 0.9791
vn -0.2578 -0.0857 0.9624
vn -0.1551 0.0505 0.9866
vn 0.0660 0.1924 -0.9791
vn -0.0833 0.2564 -0.9630
vn 0.2577 0.0857 -0.9624
vn 0.1551 -0.0505 -0.9866
vn 0.0870 -0.2553 -0.9629
vn -0.0621 -0.1913 -0.9796
vn -0.2540 -0.0846 -0.9635
vn -0.1513 0.0517 -0.9871
vt 0.291780 0.675050
vt 0.283050 0.675050
vt 0.285960 0.673600
vt 0.288870 0.673600
vt 0.291780 0.670690
vt 0.288870 0.672140
vt 0.283050 0.670690
vt 0.285960 0.672140
vt 0.125920 0.709470
vt 0.264800 0.569660
vt 0.403700 0.709470
vt 0.264800 0.849250
vt 0.285630 0.666000
vt 0.282440 0.667600
vt 0.292010 0.667600
vt 0.288820 0.666000
vt 0.292010 0.662810
vt 0.288820 0.664410
vt 0.282440 0.662810
vt 0.285630 0.664410
vt 0.125110 0.711360
vt 0.263090 0.572480
vt 0.401060 0.711360
vt 0.263090 0.850220
s 1
usemtl 材质.002
f 456/581/469 455/582/470 459/583/471
f 460/584/472 456/581/469 459/583/471
f 458/585/473 456/581/469 460/584/472
f 462/586/474 458/585/473 460/584/472
f 457/587/475 458/585/473 462/586/474
f 461/588/476 457/587/475 462/586/474
f 455/582/470 457/587/475 461/588/476
f 459/583/471 455/582/470 461/588/476
f 461/589/476 462/590/474 460/591/472
f 459/592/471 461/589/476 460/591/472
f 467/593/477 463/594/478 464/595/479
f 468/596/480 467/593/477 464/595/479
f 468/596/480 464/595/479 466/597/481
f 470/598/482 468/596/480 466/597/481
f 470/598/482 466/597/481 465/599/483
f 469/600/484 470/598/482 465/599/483
f 469/600/484 465/599/483 463/594/478
f 467/593/477 469/600/484 463/594/478
f 468/601/480 470/602/482 469/603/484
f 467/604/477 468/601/480 469/603/484
