# Blender 4.4.3
# www.blender.org
mtllib wangjian.mtl
o blade
v -188.280533 -11.830601 6.875002
v -188.280533 -11.830601 1.875002
v -203.803223 -3.750000 6.875001
v -203.803223 -3.750000 1.875001
v -185.394608 -6.286783 1.875002
v -185.394608 -6.286782 6.875002
v -200.917297 1.793818 1.875001
v -200.917297 1.793818 6.875001
v -65.053223 -6.250000 5.000007
v -65.053223 -6.250000 3.750007
v -188.803223 -6.250000 5.000002
v -188.803223 -6.250000 3.750002
v -65.053223 6.250000 3.750007
v -65.053223 6.250000 5.000007
v -188.803223 6.250000 3.750001
v -188.803223 6.250000 5.000001
v -185.394608 6.286783 6.875001
v -185.394608 6.286783 1.875001
v -200.917297 -1.793817 6.875001
v -200.917297 -1.793818 1.875001
v -188.280533 11.830601 1.875001
v -188.280533 11.830601 6.875001
v -203.803223 3.750000 1.875001
v -203.803223 3.750000 6.875000
v -181.127655 -0.272264 5.562502
v -181.127655 -0.272264 3.062502
v -190.101562 -8.973918 5.562502
v -190.101562 -8.973918 3.062502
v -189.829300 8.701654 3.062501
v -189.829300 8.701654 5.562501
v -198.803223 0.000000 3.062501
v -198.803223 0.000000 5.562501
v -71.303223 -7.500000 6.875007
v -71.303223 -7.500000 1.875007
v -188.803223 -7.500000 6.875002
v -188.803223 -7.500000 1.875002
v -71.303223 -4.375000 1.875007
v -71.303223 -4.375000 6.875007
v -188.803223 -4.375000 1.875002
v -188.803223 -4.375000 6.875001
v -71.303223 4.375000 6.875006
v -71.303223 4.375000 1.875007
v -188.803223 4.375000 6.875001
v -188.803223 4.375000 1.875001
v -71.303223 7.500000 1.875006
v -71.303223 7.500001 6.875006
v -188.803223 7.500000 1.875001
v -188.803223 7.500001 6.875001
v -196.127655 -0.272264 7.187501
v -196.127655 -0.272264 1.812501
v -202.409393 -6.363421 7.187501
v -202.409393 -6.363421 1.812501
v -202.218811 6.009479 1.812501
v -202.218811 6.009480 7.187500
v -208.500549 -0.081679 1.812501
v -208.500549 -0.081679 7.187500
v -58.737701 -12.677853 6.875008
v -58.737701 -12.677853 1.875008
v -73.920364 -6.885695 6.875007
v -73.920364 -6.885695 1.875007
v -57.623825 -9.758108 1.875008
v -57.623825 -9.758108 6.875008
v -72.806488 -3.965951 1.875007
v -72.806488 -3.965951 6.875007
v -56.732727 9.922323 6.875007
v -56.732727 9.922323 1.875007
v -71.915375 4.130154 6.875006
v -71.915375 4.130154 1.875007
v -57.846603 12.842067 1.875007
v -57.846603 12.842067 6.875007
v -73.029266 7.049897 1.875006
v -73.029266 7.049897 6.875006
v -53.412766 -0.217811 9.687508
v -53.412766 -0.217811 -0.687493
v -58.797119 -5.438803 9.687508
v -58.797119 -5.438804 -0.687493
v -58.633759 5.166540 -0.687493
v -58.633759 5.166541 9.687507
v -64.018112 -0.054453 -0.687493
v -64.018112 -0.054452 9.687507
v -41.782928 -10.570419 9.687509
v -41.782928 -10.570419 -1.937492
v -50.756851 -19.272074 9.687509
v -50.756851 -19.272074 -1.937492
v -49.614426 -2.493893 -1.937492
v -49.614426 -2.493892 9.687508
v -58.588348 -11.195547 -1.937492
v -58.588348 -11.195547 9.687508
v -33.842529 -0.326716 5.937508
v -33.842529 -0.326717 1.812508
v -46.406021 -12.509033 5.937508
v -46.406021 -12.509033 1.812508
v -46.024857 12.236769 1.812507
v -46.024857 12.236769 5.937507
v -58.588348 0.054453 1.812507
v -58.588348 0.054453 5.937507
v -49.623901 -19.800386 8.437509
v -49.623901 -19.800386 -0.687492
v -61.998657 -21.565437 8.437508
v -61.998657 -21.565437 -0.687492
v -50.506424 -13.613009 -0.687492
v -50.506424 -13.613009 8.437509
v -62.881195 -15.378057 -0.687492
v -62.881195 -15.378057 8.437508
v -41.782928 10.679581 9.687508
v -41.782928 10.679581 -1.937493
v -50.756851 1.977927 9.687508
v -50.756851 1.977926 -1.937493
v -49.614426 18.756107 -1.937493
v -49.614426 18.756107 9.687507
v -58.588348 10.054453 -1.937493
v -58.588348 10.054453 9.687507
v -49.713959 13.142157 8.437507
v -49.713959 13.142157 -0.687493
v -61.979401 15.552427 8.437507
v -61.979401 15.552427 -0.687494
v -48.508835 19.274868 -0.687493
v -48.508835 19.274868 8.437507
v -60.774246 21.685139 -0.687494
v -60.774246 21.685139 8.437506
v -1.303207 -3.125000 6.875010
v -1.303207 -3.125000 0.625010
v -50.053223 -3.125000 6.875008
v -50.053223 -3.125000 0.625008
v -1.303207 3.125000 0.625010
v -1.303207 3.125000 6.875010
v -50.053223 3.125000 0.625007
v -50.053223 3.125000 6.875008
v -43.803223 -6.250000 8.750008
v -43.803223 -6.250000 -1.249992
v -50.053223 -6.250000 8.750008
v -50.053223 -6.250000 -1.249992
v -43.803223 6.250000 -1.249992
v -43.803223 6.250000 8.750008
v -50.053223 6.250000 -1.249993
v -50.053223 6.250000 8.750008
v -46.342529 -0.326716 8.437508
v -46.342529 -0.326717 0.562508
v -58.906021 -12.509033 8.437508
v -58.906021 -12.509033 0.562508
v -58.524857 12.236769 0.562507
v -58.524857 12.236769 8.437507
v -71.088348 0.054453 0.562507
v -71.088348 0.054453 8.437507
v -63.601578 -9.347596 5.625007
v -63.601578 -9.347596 3.125007
v -67.105255 -8.010944 5.625007
v -67.105255 -8.010944 3.125007
v -61.373825 -3.508108 3.125007
v -61.373825 -3.508108 5.625007
v -64.877518 -2.171457 3.125007
v -64.877518 -2.171457 5.625007
v -61.732712 3.672324 5.625007
v -61.732712 3.672324 3.125007
v -65.236404 2.335669 5.625007
v -65.236404 2.335669 3.125007
v -63.960480 9.511809 3.125006
v -63.960480 9.511809 5.625007
v -67.464172 8.175155 3.125006
v -67.464172 8.175155 5.625006
v -2.553223 -3.750000 7.500010
v -2.553223 -3.750000 0.000010
v -5.053223 -3.750000 7.500010
v -5.053223 -3.750000 0.000010
v -2.553223 3.750000 0.000009
v -2.553223 3.750000 7.500010
v -5.053223 3.750000 0.000009
v -5.053223 3.750000 7.500010
v 6.196762 -5.303301 2.500010
v 0.893478 0.000000 2.500010
v 6.196762 -5.303301 5.000010
v 0.893478 0.000000 5.000010
v 6.196762 5.303301 2.500010
v 11.500076 0.000000 2.500010
v 6.196762 5.303301 5.000010
v 11.500076 0.000000 5.000010
v 3.696777 -2.500000 6.250010
v 3.696777 -2.500000 1.250010
v 1.196777 -2.500000 6.250010
v 1.196777 -2.500000 1.250010
v 3.696777 2.500000 1.250010
v 3.696777 2.500000 6.250010
v 1.196777 2.500000 1.250010
v 1.196777 2.500000 6.250010
v 1.196777 -3.750000 7.500010
v 1.196777 -3.750000 0.000010
v -1.303207 -3.750000 7.500010
v -1.303207 -3.750000 0.000010
v 1.196777 3.750000 0.000010
v 1.196777 3.750000 7.500010
v -1.303207 3.750000 0.000010
v -1.303207 3.750000 7.500010
v -196.041870 -7.790300 1.875002
v -202.360260 -0.978091 1.875001
v -193.155945 -2.246483 1.875002
v -186.837570 -9.058692 1.875002
v -188.280533 -11.830601 4.375002
v -202.360260 0.978091 1.875001
v -196.041870 7.790300 1.875001
v -188.280533 11.830601 4.375001
v -130.053223 -7.500000 1.875005
v -188.803223 5.937500 1.875001
v -130.053223 7.500000 1.875004
v -71.303223 7.500000 4.375007
v -199.268524 -3.317843 1.812501
v -205.454971 -3.222550 1.812501
v -205.359680 2.963900 1.812501
v -199.173233 2.868607 1.812501
v -202.409393 -6.363421 4.500001
v -205.359680 2.963900 7.187500
v -205.454971 -3.222550 7.187501
v -208.500549 -0.081679 4.500000
v -202.218811 6.009479 4.500000
v -73.363419 -5.425824 1.875007
v -65.437927 9.945981 1.875007
v -73.029266 7.049897 4.375007
v -54.672592 -15.233810 -1.937492
v -55.811279 -20.682913 -0.687492
v -62.439926 -18.471748 -0.687492
v -61.998657 -21.565437 3.875008
v -62.439926 -18.471748 8.437508
v -62.881195 -15.378057 3.875008
v -54.101395 14.405280 -1.937493
v -49.614426 18.756107 3.875006
v -61.376831 18.618784 -0.687494
v -54.641541 20.480003 -0.687494
v -61.979401 15.552427 3.875006
v -54.641541 20.480003 8.437507
v -61.376831 18.618784 8.437507
v -60.774246 21.685139 3.875006
v -48.508835 19.274868 3.875007
v -58.524857 12.236769 4.500007
v -194.598907 -5.018392 1.875002
v -202.314102 -0.176971 1.812501
v -205.359680 2.963900 4.500000
v -205.454971 -3.222550 4.500001
v -62.439926 -18.471748 3.875008
v -54.641541 20.480003 3.875006
v -61.376831 18.618784 3.875006
vn -0.0000 -0.0000 -1.0000
vn -0.4617 -0.8870 -0.0000
vn -0.0000 -0.0000 1.0000
vn 0.4617 0.8870 -0.0000
vn 0.8870 -0.4617 -0.0000
vn -0.8870 0.4617 -0.0000
vn -0.0000 -1.0000 -0.0000
vn -0.0000 1.0000 -0.0000
vn 1.0000 -0.0000 -0.0000
vn -1.0000 -0.0000 -0.0000
vn 0.4617 -0.8870 -0.0000
vn -0.4617 0.8870 -0.0000
vn 0.8870 0.4617 -0.0000
vn -0.8870 -0.4617 -0.0000
vn 0.6961 -0.7179 -0.0000
vn -0.6961 0.7179 -0.0000
vn 0.7179 0.6961 -0.0000
vn -0.7179 -0.6961 -0.0000
vn -0.3564 -0.9343 -0.0000
vn 0.3564 0.9343 -0.0000
vn 0.9343 -0.3564 -0.0000
vn -0.9343 0.3564 -0.0000
vn 0.3564 -0.9343 -0.0000
vn -0.3564 0.9343 -0.0000
vn 0.9343 0.3564 -0.0000
vn -0.9343 -0.3564 -0.0000
vn 0.1412 -0.9900 -0.0000
vn -0.1412 0.9900 -0.0000
vn 0.9900 0.1412 -0.0000
vn -0.9900 -0.1412 -0.0000
vn -0.1928 -0.9812 -0.0000
vn 0.1928 0.9812 -0.0000
vn 0.9812 -0.1928 -0.0000
vn -0.9812 0.1928 -0.0000
vn -0.7071 0.7071 -0.0000
vn -0.7071 -0.7071 -0.0000
vn 0.7071 -0.7071 -0.0000
vn 0.7071 0.7071 -0.0000
vt 0.390625 0.656250
vt 0.382812 0.687500
vt 0.382812 0.656250
vt 0.351562 0.625000
vt 0.359375 0.593750
vt 0.359375 0.625000
vt 0.375000 0.593750
vt 0.390625 0.593750
vt 0.375000 0.656250
vt 0.031250 0.531250
vt 0.046875 0.531250
vt 0.046875 0.593750
vt 0.031250 0.593750
vt 0.031250 0.562500
vt 0.507812 0.984375
vt 0.500000 0.992188
vt 0.500000 0.984375
vt 0.046875 0.484375
vt 0.039062 0.484375
vt 0.031250 0.484375
vt 0.031250 0.500000
vt 0.046875 0.500000
vt 0.000000 0.687500
vt 0.031250 0.687500
vt 0.031250 1.000000
vt 0.000000 1.000000
vt 0.000000 0.375000
vt 0.007812 0.375000
vt 0.007812 0.687500
vt 0.062500 0.687500
vt 0.062500 1.000000
vt 0.312500 0.687500
vt 0.320312 0.687500
vt 0.320312 1.000000
vt 0.312500 1.000000
vt 0.187500 0.531250
vt 0.156250 0.531250
vt 0.156250 0.523438
vt 0.187500 0.523438
vt 0.500000 0.835938
vt 0.468750 0.835938
vt 0.468750 0.843750
vt 0.500000 0.843750
vt 0.414062 0.906250
vt 0.421875 0.906250
vt 0.421875 0.937500
vt 0.062500 0.531250
vt 0.078125 0.531250
vt 0.078125 0.593750
vt 0.062500 0.593750
vt 0.093750 0.531250
vt 0.109375 0.531250
vt 0.109375 0.593750
vt 0.093750 0.593750
vt 0.406250 0.875000
vt 0.406250 0.906250
vt 0.515625 0.968750
vt 0.500000 0.968750
vt 0.500000 0.953125
vt 0.515625 0.953125
vt 0.515625 0.960938
vt 0.078125 0.484375
vt 0.070312 0.484375
vt 0.062500 0.484375
vt 0.062500 0.500000
vt 0.078125 0.500000
vt 0.375000 0.937500
vt 0.406250 0.937500
vt 0.406250 0.968750
vt 0.375000 0.968750
vt 0.468750 0.625000
vt 0.476562 0.625000
vt 0.476562 0.656250
vt 0.468750 0.656250
vt 0.375000 0.906250
vt 0.375000 0.500000
vt 0.382812 0.500000
vt 0.382812 0.531250
vt 0.375000 0.531250
vt 0.437500 0.531250
vt 0.406250 0.531250
vt 0.406250 0.523438
vt 0.437500 0.523438
vt 0.468750 0.523438
vt 0.468750 0.531250
vt 0.062500 0.703125
vt 0.078125 0.703125
vt 0.078125 1.000000
vt 0.062500 0.851562
vt 0.093750 0.703125
vt 0.109375 0.703125
vt 0.109375 0.851562
vt 0.109375 1.000000
vt 0.093750 1.000000
vt 0.125000 0.703125
vt 0.140625 0.703125
vt 0.140625 1.000000
vt 0.125000 1.000000
vt 0.156250 0.703125
vt 0.171875 0.703125
vt 0.171875 1.000000
vt 0.156250 1.000000
vt 0.234375 0.531250
vt 0.218750 0.531250
vt 0.218750 0.515625
vt 0.234375 0.515625
vt 0.484375 0.765625
vt 0.468750 0.765625
vt 0.468750 0.781250
vt 0.484375 0.781250
vt 0.195312 0.703125
vt 0.203125 0.703125
vt 0.203125 0.851562
vt 0.218750 0.703125
vt 0.234375 0.703125
vt 0.234375 1.000000
vt 0.218750 1.000000
vt 0.250000 0.703125
vt 0.265625 0.703125
vt 0.265625 1.000000
vt 0.250000 1.000000
vt 0.281250 0.851562
vt 0.289062 1.000000
vt 0.281250 1.000000
vt 0.328125 0.531250
vt 0.312500 0.531250
vt 0.312500 0.515625
vt 0.328125 0.515625
vt 0.328125 0.523438
vt 0.484375 0.671875
vt 0.476562 0.671875
vt 0.468750 0.671875
vt 0.468750 0.687500
vt 0.484375 0.687500
vt 0.125000 0.539062
vt 0.136719 0.550781
vt 0.125000 0.550781
vt 0.070312 0.507812
vt 0.078125 0.507812
vt 0.078125 0.519531
vt 0.449219 0.851562
vt 0.460938 0.851562
vt 0.460938 0.875000
vt 0.437500 0.875000
vt 0.437500 0.863281
vt 0.484375 0.914062
vt 0.476562 0.925781
vt 0.476562 0.914062
vt 0.117188 0.523438
vt 0.105469 0.515625
vt 0.117188 0.515625
vt 0.468750 0.890625
vt 0.480469 0.898438
vt 0.480469 0.890625
vt 0.406250 0.742188
vt 0.414062 0.742188
vt 0.421875 0.742188
vt 0.421875 0.781250
vt 0.406250 0.781250
vt 0.250000 0.554688
vt 0.265625 0.554688
vt 0.265625 0.593750
vt 0.250000 0.593750
vt 0.406250 0.679688
vt 0.421875 0.679688
vt 0.421875 0.718750
vt 0.406250 0.718750
vt 0.406250 0.617188
vt 0.421875 0.617188
vt 0.421875 0.656250
vt 0.406250 0.656250
vt 0.265625 0.531250
vt 0.250000 0.531250
vt 0.250000 0.515625
vt 0.265625 0.515625
vt 0.484375 0.734375
vt 0.476562 0.734375
vt 0.468750 0.734375
vt 0.468750 0.750000
vt 0.484375 0.750000
vt 0.375000 0.554688
vt 0.390625 0.554688
vt 0.390625 0.574219
vt 0.406250 0.554688
vt 0.421875 0.554688
vt 0.421875 0.593750
vt 0.406250 0.593750
vt 0.437500 0.960938
vt 0.453125 0.960938
vt 0.453125 1.000000
vt 0.437500 1.000000
vt 0.445312 0.898438
vt 0.453125 0.898438
vt 0.453125 0.937500
vt 0.437500 0.937500
vt 0.437500 0.917969
vt 0.296875 0.531250
vt 0.281250 0.531250
vt 0.281250 0.515625
vt 0.296875 0.515625
vt 0.484375 0.703125
vt 0.468750 0.703125
vt 0.468750 0.718750
vt 0.484375 0.718750
vt 0.484375 0.710938
vt 0.468750 0.546875
vt 0.484375 0.546875
vt 0.484375 0.562500
vt 0.468750 0.562500
vt 0.437500 0.734375
vt 0.460938 0.734375
vt 0.460938 0.750000
vt 0.437500 0.750000
vt 0.468750 0.515625
vt 0.484375 0.515625
vt 0.484375 0.531250
vt 0.281250 0.546875
vt 0.304688 0.546875
vt 0.304688 0.562500
vt 0.281250 0.562500
vt 0.453125 0.718750
vt 0.437500 0.718750
vt 0.437500 0.695312
vt 0.453125 0.695312
vt 0.328125 0.539062
vt 0.312500 0.539062
vt 0.312500 0.562500
vt 0.328125 0.562500
vt 0.125000 0.593750
vt 0.125000 0.625000
vt 0.093750 0.625000
vt 0.375000 0.875000
vt 0.156250 0.593750
vt 0.156250 0.625000
vt 0.375000 0.843750
vt 0.406250 0.843750
vt 0.187500 0.625000
vt 0.187500 0.593750
vt 0.406250 0.812500
vt 0.390625 0.812500
vt 0.375000 0.812500
vt 0.156250 0.640625
vt 0.203125 0.640625
vt 0.203125 0.687500
vt 0.156250 0.687500
vt 0.437500 0.640625
vt 0.445312 0.640625
vt 0.445312 0.687500
vt 0.437500 0.687500
vt 0.218750 0.640625
vt 0.265625 0.640625
vt 0.265625 0.687500
vt 0.218750 0.687500
vt 0.343750 0.515625
vt 0.351562 0.515625
vt 0.351562 0.562500
vt 0.343750 0.562500
vt 0.484375 0.625000
vt 0.437500 0.625000
vt 0.437500 0.617188
vt 0.484375 0.617188
vt 0.484375 0.585938
vt 0.437500 0.585938
vt 0.437500 0.593750
vt 0.484375 0.593750
vt 0.164062 0.531250
vt 0.171875 0.531250
vt 0.171875 0.562500
vt 0.156250 0.562500
vt 0.156250 0.546875
vt 0.136719 0.562500
vt 0.148438 0.562500
vt 0.148438 0.578125
vt 0.437500 0.812500
vt 0.445312 0.812500
vt 0.453125 0.812500
vt 0.453125 0.843750
vt 0.437500 0.843750
vt 0.167969 0.562500
vt 0.179688 0.562500
vt 0.179688 0.593750
vt 0.453125 0.562500
vt 0.437500 0.562500
vt 0.437500 0.539062
vt 0.453125 0.539062
vt 0.468750 0.976562
vt 0.476562 0.988281
vt 0.476562 0.976562
vt 0.218750 0.593750
vt 0.218750 0.609375
vt 0.218750 0.625000
vt 0.375000 0.781250
vt 0.250000 0.625000
vt 0.375000 0.765625
vt 0.390625 0.781250
vt 0.281250 0.625000
vt 0.281250 0.593750
vt 0.281250 0.609375
vt 0.375000 0.718750
vt 0.375000 0.750000
vt 0.406250 0.750000
vt 0.195312 0.531250
vt 0.203125 0.531250
vt 0.203125 0.546875
vt 0.417969 0.812500
vt 0.429688 0.812500
vt 0.429688 0.843750
vt 0.445312 0.781250
vt 0.453125 0.781250
vt 0.437500 0.796875
vt 0.210938 0.562500
vt 0.199219 0.578125
vt 0.199219 0.562500
vt 0.031250 0.507812
vt 0.046875 0.507812
vt 0.046875 0.519531
vt 0.468750 0.945312
vt 0.476562 0.957031
vt 0.476562 0.945312
vt 0.296875 0.562500
vt 0.296875 0.687500
vt 0.281250 0.687500
vt 0.328125 0.687500
vt 0.343750 0.875000
vt 0.359375 0.875000
vt 0.359375 1.000000
vt 0.343750 1.000000
vt 0.343750 0.750000
vt 0.359375 0.750000
vt 0.187500 0.515625
vt 0.203125 0.515625
vt 0.484375 0.796875
vt 0.468750 0.796875
vt 0.468750 0.812500
vt 0.484375 0.812500
vt 0.218750 0.546875
vt 0.250000 0.546875
vt 0.250000 0.562500
vt 0.218750 0.562500
vt 0.125000 0.515625
vt 0.148438 0.515625
vt 0.148438 0.531250
vt 0.125000 0.531250
vt 0.437500 0.765625
vt 0.437500 0.781250
vt 0.468750 0.859375
vt 0.492188 0.859375
vt 0.492188 0.875000
vt 0.468750 0.875000
vt 0.406250 0.789062
vt 0.437500 0.789062
vt 0.250000 0.570312
vt 0.218750 0.570312
vt 0.031250 0.640625
vt 0.078125 0.640625
vt 0.078125 0.687500
vt 0.343750 0.703125
vt 0.367188 0.703125
vt 0.367188 0.750000
vt 0.093750 0.640625
vt 0.140625 0.640625
vt 0.140625 0.687500
vt 0.093750 0.687500
vt 0.343750 0.640625
vt 0.367188 0.640625
vt 0.367188 0.687500
vt 0.355469 0.687500
vt 0.343750 0.687500
vt 0.421875 1.000000
vt 0.375000 1.000000
vt 0.375000 0.976562
vt 0.421875 0.976562
vt 0.421875 0.988281
vt 0.078125 0.601562
vt 0.031250 0.601562
vt 0.031250 0.625000
vt 0.078125 0.625000
vt 0.500000 0.804688
vt 0.515625 0.804688
vt 0.515625 0.812500
vt 0.500000 0.812500
vt 0.531250 0.929688
vt 0.539062 0.929688
vt 0.539062 0.937500
vt 0.531250 0.937500
vt 0.218750 0.492188
vt 0.234375 0.492188
vt 0.234375 0.500000
vt 0.218750 0.500000
vt 0.093750 0.460938
vt 0.101562 0.460938
vt 0.101562 0.468750
vt 0.093750 0.468750
vt 0.515625 0.781250
vt 0.500000 0.781250
vt 0.500000 0.773438
vt 0.515625 0.773438
vt 0.265625 0.492188
vt 0.250000 0.492188
vt 0.250000 0.500000
vt 0.265625 0.500000
vt 0.500000 0.742188
vt 0.515625 0.742188
vt 0.515625 0.750000
vt 0.500000 0.750000
vt 0.531250 0.898438
vt 0.539062 0.898438
vt 0.539062 0.906250
vt 0.531250 0.906250
vt 0.281250 0.492188
vt 0.296875 0.492188
vt 0.296875 0.500000
vt 0.281250 0.500000
vt 0.125000 0.460938
vt 0.132812 0.460938
vt 0.132812 0.468750
vt 0.125000 0.468750
vt 0.515625 0.718750
vt 0.500000 0.718750
vt 0.500000 0.710938
vt 0.515625 0.710938
vt 0.328125 0.492188
vt 0.312500 0.492188
vt 0.312500 0.500000
vt 0.328125 0.500000
vt 0.531250 0.992188
vt 0.546875 0.992188
vt 0.546875 1.000000
vt 0.531250 1.000000
vt 0.031250 0.460938
vt 0.046875 0.460938
vt 0.046875 0.468750
vt 0.031250 0.468750
vt 0.531250 0.960938
vt 0.546875 0.960938
vt 0.546875 0.968750
vt 0.531250 0.968750
vt 0.062500 0.460938
vt 0.078125 0.460938
vt 0.078125 0.468750
vt 0.062500 0.468750
vt 0.515625 0.843750
vt 0.500000 0.828125
vt 0.515625 0.828125
vt 0.203125 0.484375
vt 0.187500 0.484375
vt 0.187500 0.500000
vt 0.203125 0.500000
vt 0.500000 0.617188
vt 0.515625 0.617188
vt 0.515625 0.625000
vt 0.500000 0.625000
vt 0.406250 0.492188
vt 0.421875 0.492188
vt 0.421875 0.500000
vt 0.406250 0.500000
vt 0.500000 0.585938
vt 0.515625 0.585938
vt 0.515625 0.593750
vt 0.500000 0.593750
vt 0.437500 0.492188
vt 0.453125 0.492188
vt 0.453125 0.500000
vt 0.437500 0.500000
vt 0.515625 0.906250
vt 0.500000 0.906250
vt 0.500000 0.890625
vt 0.515625 0.890625
vt 0.140625 0.484375
vt 0.125000 0.484375
vt 0.125000 0.500000
vt 0.140625 0.500000
vt 0.500000 0.554688
vt 0.515625 0.554688
vt 0.515625 0.562500
vt 0.500000 0.562500
vt 0.468750 0.492188
vt 0.484375 0.492188
vt 0.484375 0.500000
vt 0.468750 0.500000
vt 0.500000 0.523438
vt 0.515625 0.523438
vt 0.515625 0.531250
vt 0.500000 0.531250
vt 0.500000 0.492188
vt 0.515625 0.492188
vt 0.515625 0.500000
vt 0.500000 0.500000
vt 0.515625 0.875000
vt 0.500000 0.875000
vt 0.500000 0.859375
vt 0.515625 0.859375
vt 0.171875 0.484375
vt 0.156250 0.484375
vt 0.156250 0.500000
vt 0.171875 0.500000
vt 0.390625 0.687500
vt 0.136719 0.539062
vt 0.484375 0.925781
vt 0.468750 0.898438
vt 0.468750 0.988281
vt 0.210938 0.578125
vt 0.468750 0.957031
vt 0.476562 0.968750
vt 0.484375 0.968750
vt 0.468750 0.968750
vt 0.199219 0.593750
vt 0.210938 0.593750
vt 0.476562 1.000000
vt 0.484375 1.000000
vt 0.468750 1.000000
vt 0.480469 0.906250
vt 0.492188 0.906250
vt 0.468750 0.906250
vt 0.476562 0.937500
vt 0.468750 0.937500
vt 0.484375 0.937500
vt 0.148438 0.550781
vt 0.148438 0.539062
vt 0.382812 0.718750
vt 0.390625 0.718750
vt 0.484375 0.957031
vt 0.484375 0.945312
vt 0.187500 0.578125
vt 0.187500 0.562500
vt 0.203125 0.562500
vt 0.484375 0.988281
vt 0.484375 0.976562
vt 0.125000 0.562500
vt 0.148438 0.593750
vt 0.437500 0.898438
vt 0.492188 0.898438
vt 0.492188 0.890625
vt 0.117188 0.531250
vt 0.093750 0.515625
vt 0.468750 0.925781
vt 0.468750 0.914062
vt 0.437500 0.851562
vt 0.062500 0.507812
vt 0.281250 0.703125
vt 0.296875 0.703125
vt 0.296875 1.000000
vt 0.187500 0.703125
vt 0.203125 1.000000
vt 0.187500 1.000000
vt 0.421875 0.843750
vt 0.421875 0.968750
vt 0.515625 1.000000
vt 0.500000 1.000000
vt 0.515625 0.984375
vt 0.359375 0.562500
vt 0.343750 0.625000
vt 0.375000 0.687500
s 1
usemtl m_60e991c3-abfa-b145-4bd9-698707bd42f8
f 7/1/1 233/2/1 194/3/1
f 197/4/2 193/5/2 2/6/2
f 8/7/3 3/8/3 1/1/3 6/9/3
f 7/10/4 8/11/4 6/12/4 5/13/4 195/14/4
f 196/15/5 197/16/5 2/17/5
f 7/18/6 194/19/6 4/20/6 3/21/6 8/22/6
f 12/23/1 15/24/1 13/25/1 10/26/1
f 11/27/7 12/28/7 10/29/7 9/23/7
f 16/24/3 11/30/3 9/31/3 14/25/3
f 15/32/8 16/33/8 14/34/8 13/35/8
f 14/36/9 9/37/9 10/38/9 13/39/9
f 15/40/10 12/41/10 11/42/10 16/43/10
f 198/44/1 23/45/1 199/46/1
f 19/47/11 20/48/11 18/49/11 17/50/11
f 24/51/3 19/52/3 17/53/3 22/54/3
f 199/55/12 200/44/12 21/56/12
f 22/57/13 17/58/13 18/59/13 21/60/13 200/61/13
f 23/62/14 198/63/14 20/64/14 19/65/14 24/66/14
f 28/67/1 31/68/1 29/69/1 26/70/1
f 27/71/15 28/72/15 26/73/15 25/74/15
f 32/75/3 27/56/3 25/68/3 30/67/3
f 31/76/16 32/77/16 30/78/16 29/79/16
f 30/80/17 25/81/17 26/82/17 29/83/17
f 31/84/18 28/83/18 27/80/18 32/85/18
f 36/86/1 39/87/1 37/88/1 34/31/1 201/89/1
f 35/90/7 36/91/7 201/92/7 34/93/7 33/94/7
f 40/95/3 35/96/3 33/97/3 38/98/3
f 39/99/8 40/100/8 38/101/8 37/102/8
f 38/103/9 33/104/9 34/105/9 37/106/9
f 39/107/10 36/108/10 35/109/10 40/110/10
f 202/111/1 47/112/1 203/113/1
f 43/114/7 44/115/7 42/116/7 41/117/7
f 48/118/3 43/119/3 41/120/3 46/121/3
f 203/122/8 204/123/8 45/124/8
f 46/125/9 41/126/9 42/127/9 45/128/9 204/129/9
f 47/130/10 202/131/10 44/132/10 43/133/10 48/134/10
f 52/135/1 234/136/1 205/137/1
f 209/138/15 52/139/15 205/140/15
f 211/141/3 51/142/3 49/143/3 54/144/3 210/145/3
f 56/146/16 235/147/16 212/148/16
f 213/149/17 208/150/17 53/151/17
f 52/152/18 236/153/18 206/154/18
f 60/155/1 214/156/1 63/157/1 61/158/1 58/159/1
f 59/160/19 60/161/19 58/162/19 57/163/19
f 64/164/3 59/165/3 57/166/3 62/167/3
f 63/168/20 64/169/20 62/170/20 61/171/20
f 62/172/21 57/173/21 58/174/21 61/175/21
f 63/176/22 214/177/22 60/178/22 59/179/22 64/180/22
f 68/181/1 71/182/1 215/183/1 69/8/1 66/7/1
f 67/184/23 68/185/23 66/186/23 65/187/23
f 72/188/3 67/189/3 65/190/3 70/191/3
f 216/192/24 72/193/24 70/194/24 69/195/24 215/196/24
f 70/197/25 65/198/25 66/199/25 69/200/25
f 71/201/26 68/202/26 67/203/26 72/204/26 216/205/26
f 76/206/1 79/207/1 77/208/1 74/209/1
f 75/210/15 76/211/15 74/212/15 73/213/15
f 80/214/3 75/215/3 73/216/3 78/85/3
f 79/217/16 80/218/16 78/219/16 77/220/16
f 78/221/17 73/222/17 74/223/17 77/224/17
f 79/225/18 76/226/18 75/227/18 80/228/18
f 84/54/1 217/53/1 87/229/1 85/230/1 82/231/1
f 83/232/15 84/55/15 82/56/15 81/75/15
f 88/229/3 83/233/3 81/234/3 86/230/3
f 87/235/16 88/236/16 86/55/16 85/232/16
f 86/237/17 81/234/17 82/233/17 85/238/17
f 87/239/18 217/240/18 84/241/18 83/235/18 88/236/18
f 92/242/1 95/243/1 93/244/1 90/245/1
f 91/246/15 92/247/15 90/248/15 89/249/15
f 96/250/3 91/251/3 89/252/3 94/253/3
f 95/254/16 96/255/16 94/256/16 93/257/16
f 94/258/17 89/259/17 90/260/17 93/261/17
f 95/262/18 92/263/18 91/264/18 96/265/18
f 219/266/1 103/267/1 101/268/1 98/269/1 218/270/1
f 220/271/27 100/272/27 218/273/27
f 104/274/3 221/275/3 99/276/3 97/277/3 102/278/3
f 103/269/28 222/279/28 104/280/28 102/281/28 101/233/28
f 102/282/29 97/283/29 98/284/29 101/285/29
f 100/286/30 237/287/30 219/288/30
f 108/238/1 111/289/1 223/290/1 109/291/1 106/237/1
f 107/292/15 108/159/15 106/239/15 105/241/15
f 112/289/3 107/163/3 105/293/3 110/291/3
f 223/294/16 224/295/16 109/292/16
f 110/296/17 105/293/17 106/163/17 109/297/17 224/298/17
f 111/167/18 108/299/18 107/300/18 112/301/18
f 225/302/1 119/303/1 226/304/1
f 115/239/31 227/305/31 116/306/31 114/307/31 113/236/31
f 229/308/3 115/309/3 113/276/3 118/274/3 228/310/3
f 120/311/32 238/312/32 230/313/32
f 118/11/33 113/10/33 114/314/33 117/315/33 231/316/33
f 116/317/34 239/318/34 225/319/34
f 124/220/1 127/320/1 125/321/1 122/322/1
f 123/227/7 124/228/7 122/323/7 121/32/7
f 128/324/3 123/325/3 121/326/3 126/327/3
f 127/328/8 128/329/8 126/325/8 125/324/8
f 126/303/9 121/36/9 122/330/9 125/331/9
f 127/332/10 124/333/10 123/334/10 128/335/10
f 132/336/1 135/337/1 133/338/1 130/339/1
f 131/340/7 132/341/7 130/342/7 129/343/7
f 136/344/3 131/108/3 129/109/3 134/345/3
f 135/346/8 136/347/8 134/348/8 133/349/8
f 134/274/9 129/239/9 130/350/9 133/351/9
f 135/352/10 132/353/10 131/289/10 136/163/10
f 140/354/1 143/355/1 141/356/1 138/24/1
f 139/357/15 140/358/15 138/359/15 137/328/15
f 144/360/3 139/361/3 137/362/3 142/363/3
f 143/364/16 144/365/16 142/366/16 232/367/16 141/368/16
f 142/369/17 137/370/17 138/371/17 141/372/17 232/373/17
f 143/374/18 140/375/18 139/376/18 144/377/18
f 148/378/1 151/379/1 149/380/1 146/381/1
f 147/382/19 148/383/19 146/384/19 145/385/19
f 152/386/3 147/387/3 145/388/3 150/389/3
f 151/390/20 152/391/20 150/392/20 149/393/20
f 150/394/21 145/395/21 146/396/21 149/397/21
f 151/398/22 148/399/22 147/400/22 152/401/22
f 156/402/1 159/403/1 157/404/1 154/405/1
f 155/406/23 156/407/23 154/408/23 153/409/23
f 160/410/3 155/411/3 153/412/3 158/413/3
f 159/414/24 160/415/24 158/416/24 157/417/24
f 158/418/25 153/419/25 154/420/25 157/421/25
f 159/422/26 156/423/26 155/424/26 160/425/26
f 164/426/1 167/427/1 165/428/1 162/429/1
f 163/430/7 164/431/7 162/432/7 161/433/7
f 168/434/3 163/435/3 161/436/3 166/437/3
f 167/438/8 168/439/8 166/440/8 165/441/8
f 166/442/9 161/43/9 162/443/9 165/444/9
f 167/445/10 164/446/10 163/447/10 168/448/10
f 172/449/35 175/450/35 173/451/35 170/452/35
f 171/453/36 172/454/36 170/455/36 169/456/36
f 176/457/37 171/458/37 169/459/37 174/460/37
f 175/461/38 176/462/38 174/463/38 173/464/38
f 174/465/1 169/466/1 170/467/1 173/468/1
f 175/469/3 172/470/3 171/471/3 176/472/3
f 180/473/1 183/474/1 181/475/1 178/476/1
f 179/477/7 180/478/7 178/479/7 177/480/7
f 184/481/3 179/482/3 177/483/3 182/484/3
f 183/485/8 184/486/8 182/487/8 181/488/8
f 182/489/9 177/490/9 178/491/9 181/492/9
f 183/493/10 180/494/10 179/495/10 184/496/10
f 188/426/1 191/427/1 189/428/1 186/429/1
f 187/430/7 188/431/7 186/432/7 185/433/7
f 192/434/3 187/435/3 185/436/3 190/437/3
f 191/438/8 192/439/8 190/440/8 189/441/8
f 190/442/9 185/43/9 186/443/9 189/444/9
f 191/445/10 188/446/10 187/447/10 192/448/10
f 7/1/1 195/497/1 233/2/1
f 52/135/1 206/498/1 234/136/1
f 56/146/16 210/499/16 235/147/16
f 52/152/18 209/500/18 236/153/18
f 100/286/30 220/501/30 237/287/30
f 120/311/32 228/502/32 238/312/32
f 116/317/34 227/503/34 239/318/34
f 239/318/34 229/504/34 120/505/34
f 239/318/34 227/503/34 229/504/34
f 227/503/34 115/506/34 229/504/34
f 238/312/32 231/507/32 117/238/32
f 238/312/32 228/502/32 231/507/32
f 228/502/32 118/508/32 231/507/32
f 237/287/30 221/509/30 104/510/30
f 237/287/30 220/501/30 221/509/30
f 220/501/30 99/511/30 221/509/30
f 236/153/18 211/512/18 56/513/18
f 236/153/18 209/500/18 211/512/18
f 209/500/18 51/514/18 211/512/18
f 235/147/16 213/515/16 53/516/16
f 235/147/16 210/499/16 213/515/16
f 210/499/16 54/517/16 213/515/16
f 234/136/1 207/518/1 53/272/1
f 234/136/1 206/498/1 207/518/1
f 206/498/1 55/519/1 207/518/1
f 233/2/1 196/520/1 2/299/1
f 233/2/1 195/497/1 196/520/1
f 195/497/1 5/521/1 196/520/1
f 225/319/34 230/522/34 119/523/34
f 225/319/34 239/318/34 230/522/34
f 239/318/34 120/505/34 230/522/34
f 230/313/32 226/524/32 119/525/32
f 230/313/32 238/312/32 226/524/32
f 238/312/32 117/238/32 226/524/32
f 120/345/3 229/308/3 228/310/3
f 116/36/1 225/302/1 226/304/1 117/526/1 114/525/1
f 111/300/16 112/301/16 110/159/16 224/295/16 223/294/16
f 219/288/30 222/527/30 103/528/30
f 219/288/30 237/287/30 222/527/30
f 237/287/30 104/510/30 222/527/30
f 99/529/27 220/271/27 218/273/27 98/530/27 97/229/27
f 100/37/1 219/266/1 218/270/1
f 71/531/24 216/192/24 215/196/24
f 206/154/18 212/532/18 55/533/18
f 206/154/18 236/153/18 212/532/18
f 236/153/18 56/513/18 212/532/18
f 54/534/17 49/51/17 50/535/17 208/150/17 213/149/17
f 212/148/16 207/536/16 55/537/16
f 212/148/16 235/147/16 207/536/16
f 235/147/16 53/516/16 207/536/16
f 56/538/3 211/141/3 210/145/3
f 51/539/15 209/138/15 205/140/15 50/48/15 49/47/15
f 205/137/1 208/271/1 50/529/1
f 205/137/1 234/136/1 208/271/1
f 234/136/1 53/272/1 208/271/1
f 47/540/8 48/541/8 46/542/8 204/123/8 203/122/8
f 44/543/1 202/111/1 203/113/1 45/544/1 42/545/1
f 23/236/12 24/546/12 22/45/12 200/44/12 199/55/12
f 20/56/1 198/44/1 199/46/1 21/547/1 18/69/1
f 6/548/5 1/549/5 197/16/5 196/15/5 5/550/5
f 3/257/2 4/551/2 193/5/2 197/4/2 1/552/2
f 194/3/1 193/553/1 4/9/1
f 194/3/1 233/2/1 193/553/1
f 233/2/1 2/299/1 193/553/1
o effect
v -25.455685 -5.289955 0.298480
v -25.063000 3.578517 -8.333195
v -25.554096 -5.362278 5.646954
v -24.824856 6.660491 -2.354475
v -25.030285 -0.846076 -3.504048
v -25.181255 -0.957019 6.733273
v -191.079193 -5.097811 -2.631607
v -187.124130 -5.423292 -2.489078
v -185.691833 -5.013516 1.342004
v -203.716156 0.620308 0.077499
v -186.541748 -4.052388 -2.333160
v -194.171402 -5.174572 2.467804
v -142.918518 -3.826395 -1.044306
v -143.949997 0.517914 -1.290803
v -143.021469 -3.502401 3.689802
v -144.057663 7.630801 2.930247
v -143.397736 -4.172778 -2.589575
v -143.583160 -4.634130 5.614991
v -108.320267 -5.843476 -0.469461
v -108.893661 3.502165 -0.302285
v -108.429245 -5.923570 3.634213
v -109.002655 5.918555 3.801389
v -108.570053 -1.143611 -1.773262
v -108.752747 -1.277863 5.105191
v -71.212860 -4.534427 0.541607
v -71.303635 4.827938 0.721928
v -71.321838 -4.614522 4.645282
v -55.840939 6.325074 4.825603
v -71.221375 0.173832 -8.674164
v -71.404053 0.039581 6.122832
v -167.238464 -4.635294 -2.610591
v -188.810486 -4.575099 -2.482383
v -164.969742 -4.112583 -2.461367
v -143.158127 -3.999586 -1.816940
v -166.998856 -4.462103 -1.837957
v -165.260941 -4.798035 -2.539326
v -165.537048 -2.452689 -1.889941
v -143.673859 -1.827432 -1.940189
v -186.832932 -4.737840 -2.411119
v -165.590912 1.103754 0.220584
v -195.420151 -2.401492 -1.205789
v -173.886902 4.125555 1.503873
v -144.003830 4.074358 0.819722
v -198.943787 -2.277132 1.272652
v -125.744293 -2.485003 -1.408784
v -125.983902 -2.658194 -2.181418
v -108.445160 -3.493543 -1.121361
v -125.619385 -4.834935 -0.756884
v -126.145706 -0.335307 -1.445930
v -126.421829 2.010040 -0.796544
v -108.731857 1.179277 -1.037773
v -89.770813 -2.834822 -4.571813
v -89.895721 -0.484890 -5.223713
v -71.217117 -2.180298 -4.066278
v -89.766571 -5.188951 0.036073
v -89.936844 1.842164 -0.525667
v -90.098633 4.165051 0.209822
v -71.262497 2.500884 -3.976118
v -190.356583 -4.613480 0.067322
v -190.647766 -5.298932 -0.010637
v -48.183315 4.203228 -3.805633
v -48.142185 1.876175 -8.503679
v -25.046642 1.366221 -5.918622
v -48.125828 -0.336122 -6.089107
vn -0.0112 0.1278 -0.9917
vn -0.0264 0.3130 -0.9494
vn -0.0225 -0.6771 -0.7356
vn 0.0534 -0.9861 0.1571
vn 0.0165 -0.9769 0.2130
vn 0.0391 -0.9749 0.2191
vn 0.0304 -0.9967 -0.0754
vn -0.0094 -0.8608 -0.5088
vn -0.0411 -0.8231 0.5664
vn -0.0598 0.2203 0.9736
vn 0.0271 -0.9996 -0.0116
vn 0.0269 -0.9995 -0.0153
vn -0.0048 -0.9978 0.0657
vn -0.0234 -0.9977 0.0641
vn 0.0074 -0.1281 0.9917
vn 0.0033 0.2914 -0.9566
vn -0.0505 0.9803 0.1912
vn -0.0065 0.6066 -0.7950
vn 0.0066 -0.1124 0.9936
vn -0.0180 0.9785 0.2056
vn -0.0046 0.3962 -0.9182
vn -0.0015 0.3875 -0.9219
vn -0.0279 0.4484 -0.8934
vn 0.0016 0.5281 -0.8492
vn -0.0378 0.5104 -0.8591
vn 0.0001 0.5030 -0.8643
vn -0.0732 0.2936 0.9531
vn -0.0899 0.2792 0.9560
vn -0.0371 0.2097 0.9771
vn -0.0688 0.2110 0.9751
vn 0.0569 -0.8480 -0.5269
vn -0.0749 -0.3328 -0.9400
vn -0.0019 -0.2672 -0.9637
vn -0.0858 -0.2686 -0.9594
vn 0.0135 -0.3203 0.9472
vn -0.0073 -0.0617 0.9981
vn -0.0499 -0.9965 0.0670
vn -0.0079 -0.9998 -0.0159
vn -0.0261 -0.9995 -0.0200
vn 0.0812 -0.6858 -0.7233
vn 0.0101 0.2550 -0.9669
vn -0.0178 0.2805 -0.9597
vn -0.0436 0.0416 -0.9982
vn 0.0515 -0.6684 -0.7421
vn 0.0059 0.2988 -0.9543
vn -0.0046 0.5019 -0.8649
vn -0.0290 0.8425 -0.5379
vn -0.0209 0.8645 -0.5022
vn -0.0507 0.8602 -0.5074
vn -0.0212 0.1814 0.9832
vn -0.0528 -0.6199 -0.7829
vn 0.0132 -0.8904 -0.4549
vn 0.0438 -0.8896 -0.4546
vn 0.0279 -0.8762 -0.4812
vn -0.0189 -0.3028 0.9529
vn -0.0098 0.0128 0.9999
vn 0.0441 -0.9989 -0.0183
vn 0.0178 -0.9997 -0.0193
vn 0.0011 -0.9998 -0.0193
vn -0.0568 0.6484 -0.7592
vn -0.0826 -0.0375 -0.9959
vn -0.1886 0.4243 -0.8857
vn -0.0877 0.8813 -0.4644
vn -0.0302 0.9595 -0.2802
vn -0.0270 0.9675 -0.2514
vn -0.0273 0.9678 -0.2502
vn 0.1904 -0.2770 0.9418
vn -0.2506 -0.9492 -0.1903
vn -0.2961 -0.8653 -0.4045
vn 0.3631 -0.8634 0.3504
vn 0.1575 0.0926 0.9832
vn -0.2329 0.9263 0.2961
vn -0.2472 0.9238 0.2923
vn -0.3783 -0.7919 -0.4793
vn 0.1406 -0.9543 0.2638
vn 0.5380 -0.3174 0.7809
vn -0.0219 -0.2706 0.9625
vn -0.0056 0.3211 0.9470
vn -0.0161 -0.9998 -0.0142
vn -0.0160 -0.9998 -0.0138
vn 0.0236 0.7230 0.6904
vn -0.1008 0.9002 -0.4237
vn -0.0247 0.9655 -0.2592
vn -0.1141 0.8849 -0.4516
vn 0.0468 -0.6075 -0.7929
vn 0.0841 -0.7231 -0.6856
vn 0.0426 0.1325 -0.9903
vn -0.0884 0.8776 -0.4711
vn -0.0660 0.8942 -0.4427
vn 0.0554 -0.7122 -0.6998
vn 0.0649 -0.6958 -0.7153
vn 0.0693 -0.7040 -0.7068
vn 0.9996 -0.0265 -0.0059
vn 0.9965 -0.0822 0.0155
vn 0.9994 -0.0337 -0.0114
vn 0.9993 -0.0231 -0.0279
vn 0.9991 -0.0153 -0.0407
vn 0.9959 -0.0885 0.0171
vn 0.9963 -0.0849 0.0147
vn 0.4500 -0.5910 0.6695
vn -0.3649 -0.7985 -0.4787
vn 0.0129 0.3027 -0.9530
vn 0.0037 0.3005 -0.9538
vn 0.0044 0.2673 -0.9636
vn -0.0027 0.2665 -0.9638
vt 0.157930 0.077360
vt 0.240965 0.077360
vt 0.240965 0.197465
vt 0.157930 0.317570
vt 0.157930 0.197465
vt 0.240965 0.317570
vt 0.950360 0.077360
vt 0.950360 0.317570
vt 0.785010 0.317570
vt 0.785010 0.077360
vt 0.036240 0.077360
vt 0.036270 0.317570
vt 0.490110 0.077360
vt 0.490110 0.197465
vt 0.407055 0.197465
vt 0.324000 0.077360
vt 0.407055 0.077360
vt 0.324000 0.197465
vt 0.554610 0.077360
vt 0.554610 0.197465
vt 0.490110 0.317570
vt 0.554610 0.317570
vt 0.619110 0.077360
vt 0.702060 0.077360
vt 0.619110 0.317570
vt 0.619110 0.197465
vt 0.240965 0.416550
vt 0.157930 0.515530
vt 0.157930 0.416550
vt 0.240965 0.515530
vt 0.950360 0.515530
vt 0.785010 0.515530
vt 0.036300 0.515530
vt 0.324000 0.317570
vt 0.407055 0.317570
vt 0.407055 0.416550
vt 0.324000 0.515530
vt 0.324000 0.416550
vt 0.407055 0.515530
vt 0.619110 0.515530
vt 0.490110 0.515530
vt 0.490110 0.416550
vt 0.240965 0.621140
vt 0.157930 0.726750
vt 0.157930 0.621140
vt 0.240965 0.726750
vt 0.950360 0.726750
vt 0.785010 0.726750
vt 0.036320 0.726750
vt 0.407055 0.621140
vt 0.324000 0.726750
vt 0.324000 0.621140
vt 0.407055 0.726750
vt 0.619110 0.726750
vt 0.490110 0.726750
vt 0.490110 0.621140
vt 0.413120 0.054540
vt 0.247170 0.059040
vt 0.247170 0.046255
vt 0.247170 0.033470
vt 0.413120 0.037970
vt 0.330145 0.035720
vt 0.164195 0.056790
vt 0.164195 0.048505
vt 0.164195 0.035720
vt 0.950360 0.986190
vt 0.785010 0.986190
vt 0.157930 0.986190
vt 0.036350 0.986190
vt 0.619110 0.986190
vt 0.490110 0.986190
vt 0.490110 0.856470
vt 0.407055 0.986190
vt 0.407055 0.856470
vt 0.324000 0.986190
vt 0.324000 0.856470
vt 0.554770 0.037470
vt 0.724530 0.032970
vt 0.724530 0.058540
vt 0.554770 0.054040
vt 0.639650 0.056290
vt 0.894290 0.037470
vt 0.894290 0.054040
vt 0.081220 0.037970
vt 0.081220 0.046255
vt 0.081220 0.054540
s 1
usemtl crystal.001
f 246/554/39 271/555/40 270/556/41
f 252/557/42 274/558/43 273/559/44
f 248/560/45 254/561/46 257/562/47
f 251/563/48 248/560/45 257/562/47
f 248/564/49 246/554/50 274/558/50 252/557/51
f 254/565/52 248/564/49 252/557/51
f 247/566/53 276/567/54 275/568/55
f 250/569/56 278/570/57 272/571/58
f 247/566/59 280/572/60 279/573/61
f 253/574/62 276/567/63 282/575/64
f 249/576/65 283/577/66 251/563/48 257/562/47
f 255/578/67 281/579/68 249/576/65 257/562/47
f 252/557/42 273/559/44 284/580/69
f 258/581/70 287/582/71 286/583/72
f 257/562/47 254/561/46 260/584/73
f 263/585/74 257/562/47 260/584/73
f 254/565/52 252/557/51 287/582/75 258/581/76
f 260/586/77 254/565/52 258/581/76
f 256/587/78 277/588/79 288/589/80
f 262/590/81 285/591/82 290/592/83
f 253/574/62 282/575/64 255/578/84 261/593/85
f 259/594/86 289/595/87 253/574/62 261/593/85
f 255/578/67 257/562/47 263/585/74
f 261/593/88 255/578/67 263/585/74
f 258/581/70 286/583/72 291/596/89
f 264/597/90 294/598/91 293/599/92
f 263/585/74 260/584/73 266/600/93
f 269/601/94 263/585/74 266/600/93
f 260/586/77 258/581/76 294/598/95 264/597/96
f 266/602/97 260/586/77 264/597/96
f 262/590/81 290/592/83 295/603/98
f 268/604/99 292/605/100 297/606/101
f 259/594/86 261/593/85 267/607/102
f 265/608/103 296/609/104 259/594/86 267/607/102
f 261/593/88 263/585/74 269/601/94
f 267/607/105 261/593/88 269/601/94
f 248/610/106 251/611/107 298/612/108 250/613/109
f 246/614/110 248/610/106 250/613/109 271/615/111
f 251/611/107 283/616/112 299/617/113
f 250/613/109 298/612/108 278/618/114
f 242/619/115 245/620/116 269/601/94
f 266/600/93 242/619/115 269/601/94
f 240/621/117 242/622/118 266/602/97
f 264/597/96 240/621/117 266/602/97
f 243/623/119 267/607/105 269/601/94
f 245/620/116 243/623/119 269/601/94
f 241/624/120 300/625/121 265/608/103 267/607/102
f 243/623/122 241/624/120 267/607/102
f 241/624/123 302/626/124 301/627/125
f 265/608/126 300/625/127 297/606/101
f 240/621/128 264/597/90 293/599/92 268/604/99
f 244/628/129 240/621/128 268/604/99 303/629/130
f 243/630/131 245/631/132 244/632/133
f 241/633/134 243/630/131 244/632/133 302/634/135
f 245/631/132 242/635/136 240/636/137
f 244/632/133 245/631/132 240/636/137
f 297/606/101 301/627/125 268/604/99
f 297/606/101 300/625/127 301/627/125
f 300/625/127 241/624/123 301/627/125
f 301/627/125 303/629/130 268/604/99
f 301/627/125 302/626/124 303/629/130
f 302/626/124 244/628/129 303/629/130
f 278/618/114 299/617/113 247/637/138
f 278/618/114 298/612/108 299/617/113
f 298/612/108 251/611/107 299/617/113
f 299/617/113 280/638/139 247/637/138
f 299/617/113 283/616/112 280/638/139
f 283/616/112 249/639/139 280/638/139
f 297/606/101 295/603/98 265/608/126
f 297/606/101 292/605/100 295/603/98
f 292/605/100 262/590/81 295/603/98
f 295/603/98 296/609/140 265/608/126
f 295/603/98 290/592/83 296/609/140
f 290/592/83 259/594/141 296/609/140
f 293/599/92 291/596/89 268/604/99
f 293/599/92 294/598/91 291/596/89
f 294/598/91 258/581/70 291/596/89
f 291/596/89 292/605/100 268/604/99
f 291/596/89 286/583/72 292/605/100
f 286/583/72 262/590/81 292/605/100
f 290/592/83 288/589/80 259/594/141
f 290/592/83 285/591/82 288/589/80
f 285/591/82 256/587/78 288/589/80
f 288/589/80 289/595/142 259/594/141
f 288/589/80 277/588/79 289/595/142
f 277/588/79 253/574/143 289/595/142
f 286/583/72 284/580/69 262/590/81
f 286/583/72 287/582/71 284/580/69
f 287/582/71 252/557/42 284/580/69
f 284/580/69 285/591/82 262/590/81
f 284/580/69 273/559/44 285/591/82
f 273/559/44 256/587/78 285/591/82
f 282/575/64 279/573/61 255/578/84
f 282/575/64 276/567/63 279/573/61
f 276/567/63 247/566/59 279/573/61
f 279/573/61 281/579/60 255/578/84
f 279/573/61 280/572/60 281/579/60
f 280/572/60 249/576/60 281/579/60
f 272/571/58 275/568/55 256/587/78
f 272/571/58 278/570/57 275/568/55
f 278/570/57 247/566/53 275/568/55
f 275/568/55 277/588/79 256/587/78
f 275/568/55 276/567/54 277/588/79
f 276/567/54 253/574/143 277/588/79
f 273/559/44 270/556/41 256/587/78
f 273/559/44 274/558/43 270/556/41
f 274/558/43 246/554/39 270/556/41
f 270/556/41 272/571/58 256/587/78
f 270/556/41 271/555/40 272/571/58
f 271/555/40 250/569/56 272/571/58
o item_blade
v -78.168427 -67.400208 42.173130
v -78.168427 -67.400208 37.173130
v -95.602066 -68.922745 42.173130
v -95.602066 -68.922745 37.173130
v -78.712189 -61.173912 37.173130
v -78.712189 -61.173912 42.173130
v -96.145828 -62.696449 37.173130
v -96.145828 -62.696449 42.173130
v 22.772919 3.500847 40.298138
v 22.772919 3.500847 39.048138
v -81.607025 -62.973892 40.298130
v -81.607025 -62.973892 39.048130
v 16.058289 14.044273 39.048138
v 16.058289 14.044273 40.298138
v -88.321648 -52.430462 39.048130
v -88.321648 -52.430462 40.298130
v -85.466324 -50.568432 42.173130
v -85.466324 -50.568432 37.173130
v -94.218658 -65.722527 42.173130
v -94.218658 -65.722527 37.173130
v -90.878502 -47.442596 37.173130
v -90.878502 -47.442596 42.173130
v -99.630836 -62.596691 37.173130
v -99.630836 -62.596691 42.173130
v -78.343933 -53.808739 40.860634
v -78.343933 -53.808739 38.360634
v -81.238945 -65.968880 40.860630
v -81.238945 -65.968880 38.360630
v -90.504074 -50.913734 38.360630
v -90.504074 -50.913734 40.860630
v -93.399078 -63.073872 38.360630
v -93.399078 -63.073872 40.860630
v 18.172668 -0.910805 42.173138
v 18.172668 -0.910805 37.173138
v -80.935562 -64.028236 42.173130
v -80.935562 -64.028236 37.173130
v 16.494003 1.725052 37.173138
v 16.494003 1.725052 42.173138
v -82.614220 -61.392376 37.173130
v -82.614220 -61.392376 42.173130
v 11.793777 9.105453 42.173138
v 11.793777 9.105453 37.173138
v -87.314453 -54.011978 42.173130
v -87.314453 -54.011978 37.173130
v 10.115120 11.741310 37.173138
v 10.115120 11.741310 42.173138
v -88.993111 -51.376122 37.173130
v -88.993111 -51.376122 42.173130
v -90.996048 -61.866283 42.485630
v -90.996048 -61.866283 37.110630
v -93.022560 -70.378380 42.485630
v -93.022560 -70.378380 37.110630
v -99.508148 -59.839779 37.110630
v -99.508148 -59.839779 42.485630
v -101.534653 -68.351875 37.110630
v -101.534653 -68.351875 42.485630
v 31.552734 1.471619 42.173138
v 31.552734 1.471619 37.173138
v 15.635193 -1.798508 42.173138
v 15.635193 -1.798508 37.173138
v 30.923874 4.532692 37.173138
v 30.923874 4.532692 42.173138
v 15.006317 1.262566 37.173138
v 15.006317 1.262566 42.173138
v 21.103760 21.611305 42.173138
v 21.103760 21.611305 37.173138
v 11.408958 8.570099 42.173138
v 11.408958 8.570099 37.173138
v 18.595840 23.475693 37.173138
v 18.595840 23.475693 42.173138
v 8.901031 10.434479 37.173138
v 8.901031 10.434479 42.173138
v 29.351028 14.841743 44.985638
v 29.351028 14.841743 34.610638
v 27.614029 7.545654 44.985638
v 27.614029 7.545654 34.610638
v 22.054932 16.578735 34.610638
v 22.054932 16.578735 44.985638
v 20.317947 9.282661 34.610638
v 20.317947 9.282661 44.985638
v 44.721588 12.356773 44.985638
v 44.721588 12.356773 33.360638
v 41.826599 0.196632 44.985638
v 41.826599 0.196632 33.360638
v 33.777481 14.962280 33.360638
v 33.777481 14.962280 44.985638
v 30.882462 2.802139 33.360638
v 30.882462 2.802139 44.985638
v 45.916519 25.262413 41.235638
v 45.916519 25.262413 37.110638
v 41.863510 8.238220 41.235638
v 41.863510 8.238220 37.110638
v 28.892319 29.315414 37.110638
v 28.892319 29.315414 41.235638
v 24.839310 12.291222 37.110638
v 24.839310 12.291222 41.235638
v 43.066010 0.359604 43.735638
v 43.066010 0.359604 34.610638
v 33.576340 -7.776520 43.735638
v 33.576340 -7.776520 34.610638
v 38.997955 5.104431 34.610638
v 38.997955 5.104431 43.735638
v 29.508286 -3.031685 34.610638
v 29.508286 -3.031685 43.735638
v 33.306747 30.280602 44.985638
v 33.306747 30.280602 33.360638
v 30.411743 18.120461 44.985638
v 30.411743 18.120461 33.360638
v 22.362625 32.886108 33.360638
v 22.362625 32.886108 44.985638
v 19.467621 20.725967 33.360638
v 19.467621 20.725967 44.985638
v 25.294312 28.097412 43.735638
v 25.294312 28.097412 34.610638
v 13.654007 23.541794 43.735638
v 13.654007 23.541794 34.610638
v 23.016510 33.917557 34.610638
v 23.016510 33.917557 43.735638
v 11.376213 29.361946 34.610638
v 11.376213 29.361946 43.735638
v 74.865753 40.381264 42.173141
v 74.865753 40.381264 35.923141
v 33.746368 14.194244 42.173138
v 33.746368 14.194244 35.923138
v 71.508453 45.652977 35.923141
v 71.508453 45.652977 42.173141
v 30.389069 19.465958 35.923138
v 30.389069 19.465958 42.173138
v 40.696747 14.915703 44.048138
v 40.696747 14.915703 34.048138
v 35.425034 11.558388 44.048138
v 35.425034 11.558388 34.048138
v 33.982117 25.459129 34.048138
v 33.982117 25.459129 44.048138
v 28.710403 22.101814 34.048138
v 28.710403 22.101814 44.048138
v 35.373093 18.547798 43.735638
v 35.373093 18.547798 35.860638
v 31.320068 1.523598 43.735638
v 31.320068 1.523598 35.860638
v 18.348892 22.600800 35.860638
v 18.348892 22.600800 43.735638
v 14.295883 5.576607 35.860638
v 14.295883 5.576607 43.735638
v 25.661270 1.667877 40.923138
v 25.661270 1.667877 38.423138
v 21.987991 0.913239 40.923138
v 21.987991 0.913239 38.423138
v 24.403534 7.790016 38.423138
v 24.403534 7.790016 40.923138
v 20.730255 7.035378 38.423138
v 20.730255 7.035378 40.923138
v 20.243713 13.653748 40.923138
v 20.243713 13.653748 38.423138
v 18.006439 10.644234 40.923138
v 18.006439 10.644234 38.423138
v 15.227859 17.382515 38.423138
v 15.227859 17.382515 40.923138
v 12.990593 14.373001 38.423138
v 12.990593 14.373001 40.923138
v 74.147141 39.182632 42.798141
v 74.147141 39.182632 35.298141
v 72.038452 37.839706 42.798141
v 72.038452 37.839706 35.298138
v 70.118362 45.508682 35.298141
v 70.118362 45.508682 42.798141
v 68.009674 44.165756 35.298138
v 68.009674 44.165756 42.798141
v 82.361908 42.572685 37.798141
v 75.039948 44.197121 37.798141
v 82.361908 42.572685 40.298141
v 75.039948 44.197121 40.298141
v 76.664368 51.519081 37.798141
v 83.986343 49.894661 37.798141
v 76.664368 51.519081 40.298141
v 83.986343 49.894661 40.298141
v 78.747391 43.594276 41.548141
v 78.747391 43.594276 36.548141
v 76.638702 42.251350 41.548141
v 76.638702 42.251350 36.548141
v 76.061539 47.811653 36.548141
v 76.061539 47.811653 41.548141
v 73.952850 46.468727 36.548141
v 73.952850 46.468727 41.548141
v 77.310165 41.197006 42.798141
v 77.310165 41.197006 35.298141
v 75.201492 39.854095 42.798141
v 75.201492 39.854095 35.298141
v 73.281387 47.523071 35.298141
v 73.281387 47.523071 42.798141
v 71.172714 46.180145 35.298141
v 71.172714 46.180145 42.798141
v -86.885246 -68.161484 37.173130
v -78.440308 -64.287064 37.173130
v -78.168427 -67.400208 39.673134
v -89.842491 -58.145477 37.173130
v -96.924751 -64.159607 37.173130
v -95.254669 -55.019646 37.173130
v -88.172417 -49.005516 37.173130
v -85.466324 -50.568432 39.673134
v -88.172417 -49.005516 42.173130
v -90.878502 -47.442596 39.673134
v -79.791443 -59.888809 38.360630
v -81.774895 -62.710304 37.173130
v -88.153778 -52.694046 37.173130
v -92.009308 -66.122330 37.110630
v -97.278603 -69.365128 37.110630
v -100.521400 -64.095825 37.110630
v -95.252098 -60.853031 37.110630
v -93.022560 -70.378380 39.798130
v -100.521400 -64.095825 42.485630
v -97.278603 -69.365128 42.485630
v -101.534653 -68.351875 39.798130
v -99.508148 -59.839779 39.798130
v 73.187103 43.017120 35.923141
v 73.092789 38.511169 35.298141
v 70.024063 41.002731 35.298138
v 69.064011 44.837219 35.298141
v 72.132751 42.345657 35.298141
v 69.064011 44.837219 42.798141
v 68.009674 44.165756 39.048141
v 70.118362 45.508682 39.048141
v 75.039948 44.197121 39.048141
v 75.852158 47.858109 40.298141
v 76.664368 51.519081 39.048141
v 75.852158 47.858109 37.798141
v 82.361908 42.572685 39.048141
v 78.700943 43.384903 40.298141
v 78.700943 43.384903 37.798141
v 83.986343 49.894661 39.048141
v 83.174118 46.233673 40.298141
v 83.174118 46.233673 37.798141
v 80.325333 50.706863 40.298141
v 80.325333 50.706863 37.798141
v 77.693039 42.922813 36.548141
v 75.295776 44.360039 36.548141
v 75.007187 47.140190 36.548141
v 77.404465 45.702965 36.548141
v 76.061539 47.811653 39.048141
v 76.255814 40.525543 35.298141
v 73.187103 43.017120 35.298141
v 72.227036 46.851608 35.298141
v 75.295776 44.360039 35.298141
v 72.227036 46.851608 42.798141
v 71.172714 46.180145 39.048141
v 73.281387 47.523071 39.048141
v -92.548584 -56.582561 37.173130
v -88.172417 -49.005516 39.673134
v -96.265350 -65.109077 37.110630
v -100.521400 -64.095825 39.798130
v -97.278603 -69.365128 39.798130
v 71.078400 41.674194 35.298141
v 69.064011 44.837219 39.048141
v 75.852158 47.858109 39.048141
v 78.700943 43.384903 39.048141
v 83.174118 46.233673 39.048141
v 80.325333 50.706863 39.048141
v 79.513138 47.045883 37.798141
v 79.513138 47.045883 40.298141
v 76.350113 45.031502 36.548141
v 74.241425 43.688576 35.298141
v 72.227036 46.851608 39.048141
vn -0.0000 -0.0000 -1.0000
vn 0.0870 -0.9962 -0.0000
vn -0.0000 -0.0000 1.0000
vn -0.0870 0.9962 -0.0000
vn 0.9962 0.0870 -0.0000
vn -0.9962 -0.0870 -0.0000
vn 0.5372 -0.8435 -0.0000
vn -0.5372 0.8435 -0.0000
vn 0.8435 0.5372 -0.0000
vn -0.8435 -0.5372 -0.0000
vn 0.8659 -0.5001 -0.0000
vn -0.8659 0.5001 -0.0000
vn 0.5001 0.8659 -0.0000
vn -0.5001 -0.8659 -0.0000
vn 0.9728 -0.2316 -0.0000
vn -0.9728 0.2316 -0.0000
vn 0.2316 0.9728 -0.0000
vn -0.2316 -0.9728 -0.0000
vn 0.2012 -0.9795 -0.0000
vn -0.2012 0.9795 -0.0000
vn 0.9795 0.2012 -0.0000
vn -0.9795 -0.2012 -0.0000
vn 0.8025 -0.5966 -0.0000
vn -0.8025 0.5966 -0.0000
vn 0.5966 0.8025 -0.0000
vn -0.5966 -0.8025 -0.0000
vn 0.6509 -0.7592 -0.0000
vn -0.6509 0.7592 -0.0000
vn 0.7592 0.6509 -0.0000
vn -0.7592 -0.6509 -0.0000
vn 0.3644 -0.9312 -0.0000
vn -0.3644 0.9312 -0.0000
vn 0.9312 0.3644 -0.0000
vn -0.9312 -0.3644 -0.0000
vn -0.9763 0.2166 -0.0000
vn -0.2166 -0.9763 -0.0000
vn 0.9763 -0.2166 -0.0000
vn 0.2166 0.9763 -0.0000
vt 0.375000 0.687500
vt 0.382812 0.718750
vt 0.375000 0.718750
vt 0.351562 0.625000
vt 0.359375 0.593750
vt 0.359375 0.625000
vt 0.375000 0.593750
vt 0.390625 0.593750
vt 0.390625 0.656250
vt 0.375000 0.656250
vt 0.031250 0.531250
vt 0.046875 0.531250
vt 0.046875 0.593750
vt 0.031250 0.593750
vt 0.507812 0.984375
vt 0.500000 0.992188
vt 0.500000 0.984375
vt 0.046875 0.484375
vt 0.031250 0.484375
vt 0.031250 0.500000
vt 0.046875 0.500000
vt 0.000000 0.687500
vt 0.031250 0.687500
vt 0.031250 1.000000
vt 0.000000 1.000000
vt 0.000000 0.375000
vt 0.007812 0.375000
vt 0.007812 0.687500
vt 0.062500 0.687500
vt 0.062500 1.000000
vt 0.312500 0.687500
vt 0.320312 0.687500
vt 0.320312 1.000000
vt 0.312500 1.000000
vt 0.187500 0.531250
vt 0.156250 0.531250
vt 0.156250 0.523438
vt 0.187500 0.523438
vt 0.500000 0.835938
vt 0.468750 0.835938
vt 0.468750 0.843750
vt 0.500000 0.843750
vt 0.421875 0.906250
vt 0.414062 0.937500
vt 0.414062 0.906250
vt 0.070312 0.593750
vt 0.078125 0.562500
vt 0.078125 0.593750
vt 0.093750 0.531250
vt 0.109375 0.531250
vt 0.109375 0.593750
vt 0.101562 0.593750
vt 0.093750 0.593750
vt 0.406250 0.875000
vt 0.406250 0.906250
vt 0.500000 0.968750
vt 0.507812 0.960938
vt 0.507812 0.968750
vt 0.078125 0.484375
vt 0.070312 0.484375
vt 0.062500 0.484375
vt 0.062500 0.500000
vt 0.078125 0.500000
vt 0.375000 0.937500
vt 0.406250 0.937500
vt 0.406250 0.968750
vt 0.375000 0.968750
vt 0.375000 0.953125
vt 0.468750 0.625000
vt 0.476562 0.625000
vt 0.476562 0.640625
vt 0.476562 0.656250
vt 0.468750 0.656250
vt 0.375000 0.906250
vt 0.375000 0.500000
vt 0.382812 0.500000
vt 0.382812 0.531250
vt 0.375000 0.531250
vt 0.437500 0.531250
vt 0.406250 0.531250
vt 0.406250 0.523438
vt 0.437500 0.523438
vt 0.468750 0.523438
vt 0.468750 0.531250
vt 0.062500 0.703125
vt 0.070312 0.703125
vt 0.078125 0.703125
vt 0.078125 1.000000
vt 0.093750 0.703125
vt 0.109375 0.703125
vt 0.109375 1.000000
vt 0.093750 1.000000
vt 0.125000 0.703125
vt 0.140625 0.703125
vt 0.140625 1.000000
vt 0.125000 1.000000
vt 0.156250 0.703125
vt 0.171875 0.703125
vt 0.171875 1.000000
vt 0.156250 1.000000
vt 0.234375 0.531250
vt 0.218750 0.531250
vt 0.218750 0.515625
vt 0.234375 0.515625
vt 0.484375 0.765625
vt 0.476562 0.765625
vt 0.468750 0.765625
vt 0.468750 0.781250
vt 0.484375 0.781250
vt 0.187500 0.703125
vt 0.195312 0.703125
vt 0.203125 0.703125
vt 0.203125 1.000000
vt 0.187500 1.000000
vt 0.218750 0.703125
vt 0.234375 0.703125
vt 0.234375 1.000000
vt 0.218750 1.000000
vt 0.250000 0.703125
vt 0.265625 0.703125
vt 0.265625 1.000000
vt 0.250000 1.000000
vt 0.281250 0.703125
vt 0.296875 0.703125
vt 0.296875 1.000000
vt 0.281250 1.000000
vt 0.328125 0.531250
vt 0.312500 0.531250
vt 0.312500 0.515625
vt 0.328125 0.515625
vt 0.484375 0.671875
vt 0.476562 0.671875
vt 0.468750 0.671875
vt 0.468750 0.687500
vt 0.484375 0.687500
vt 0.125000 0.539062
vt 0.136719 0.550781
vt 0.125000 0.550781
vt 0.070312 0.507812
vt 0.078125 0.507812
vt 0.078125 0.519531
vt 0.449219 0.851562
vt 0.460938 0.851562
vt 0.460938 0.875000
vt 0.437500 0.875000
vt 0.437500 0.863281
vt 0.484375 0.914062
vt 0.476562 0.925781
vt 0.476562 0.914062
vt 0.117188 0.523438
vt 0.105469 0.515625
vt 0.117188 0.515625
vt 0.468750 0.890625
vt 0.480469 0.898438
vt 0.480469 0.890625
vt 0.406250 0.742188
vt 0.421875 0.742188
vt 0.421875 0.781250
vt 0.406250 0.781250
vt 0.250000 0.554688
vt 0.265625 0.554688
vt 0.265625 0.593750
vt 0.250000 0.593750
vt 0.406250 0.679688
vt 0.421875 0.679688
vt 0.421875 0.718750
vt 0.406250 0.718750
vt 0.406250 0.617188
vt 0.421875 0.617188
vt 0.421875 0.656250
vt 0.406250 0.656250
vt 0.265625 0.531250
vt 0.250000 0.531250
vt 0.250000 0.515625
vt 0.265625 0.515625
vt 0.484375 0.734375
vt 0.468750 0.734375
vt 0.468750 0.750000
vt 0.484375 0.750000
vt 0.375000 0.554688
vt 0.390625 0.554688
vt 0.406250 0.554688
vt 0.421875 0.554688
vt 0.421875 0.593750
vt 0.406250 0.593750
vt 0.437500 0.960938
vt 0.453125 0.960938
vt 0.453125 1.000000
vt 0.437500 1.000000
vt 0.437500 0.898438
vt 0.453125 0.898438
vt 0.453125 0.937500
vt 0.437500 0.937500
vt 0.296875 0.531250
vt 0.281250 0.531250
vt 0.281250 0.515625
vt 0.296875 0.515625
vt 0.484375 0.703125
vt 0.468750 0.703125
vt 0.468750 0.718750
vt 0.484375 0.718750
vt 0.468750 0.546875
vt 0.484375 0.546875
vt 0.484375 0.562500
vt 0.468750 0.562500
vt 0.437500 0.734375
vt 0.460938 0.734375
vt 0.460938 0.750000
vt 0.437500 0.750000
vt 0.468750 0.515625
vt 0.484375 0.515625
vt 0.484375 0.531250
vt 0.281250 0.546875
vt 0.304688 0.546875
vt 0.304688 0.562500
vt 0.281250 0.562500
vt 0.453125 0.718750
vt 0.437500 0.718750
vt 0.437500 0.695312
vt 0.453125 0.695312
vt 0.328125 0.539062
vt 0.312500 0.539062
vt 0.312500 0.562500
vt 0.328125 0.562500
vt 0.125000 0.593750
vt 0.125000 0.625000
vt 0.093750 0.625000
vt 0.375000 0.875000
vt 0.156250 0.593750
vt 0.156250 0.625000
vt 0.375000 0.843750
vt 0.406250 0.843750
vt 0.187500 0.625000
vt 0.187500 0.593750
vt 0.406250 0.812500
vt 0.375000 0.812500
vt 0.156250 0.640625
vt 0.203125 0.640625
vt 0.203125 0.687500
vt 0.156250 0.687500
vt 0.437500 0.640625
vt 0.445312 0.640625
vt 0.445312 0.687500
vt 0.437500 0.687500
vt 0.218750 0.640625
vt 0.265625 0.640625
vt 0.265625 0.687500
vt 0.218750 0.687500
vt 0.343750 0.515625
vt 0.351562 0.515625
vt 0.351562 0.562500
vt 0.343750 0.562500
vt 0.484375 0.625000
vt 0.437500 0.625000
vt 0.437500 0.617188
vt 0.484375 0.617188
vt 0.484375 0.585938
vt 0.437500 0.585938
vt 0.437500 0.593750
vt 0.484375 0.593750
vt 0.171875 0.531250
vt 0.171875 0.562500
vt 0.156250 0.562500
vt 0.125000 0.562500
vt 0.148438 0.562500
vt 0.148438 0.593750
vt 0.437500 0.812500
vt 0.453125 0.812500
vt 0.453125 0.843750
vt 0.437500 0.843750
vt 0.179688 0.562500
vt 0.179688 0.593750
vt 0.453125 0.562500
vt 0.437500 0.562500
vt 0.437500 0.539062
vt 0.453125 0.539062
vt 0.484375 0.976562
vt 0.468750 0.976562
vt 0.468750 1.000000
vt 0.484375 1.000000
vt 0.218750 0.593750
vt 0.218750 0.625000
vt 0.375000 0.781250
vt 0.250000 0.625000
vt 0.375000 0.750000
vt 0.406250 0.750000
vt 0.281250 0.625000
vt 0.281250 0.593750
vt 0.203125 0.531250
vt 0.203125 0.562500
vt 0.187500 0.562500
vt 0.429688 0.812500
vt 0.429688 0.843750
vt 0.437500 0.781250
vt 0.453125 0.781250
vt 0.210938 0.562500
vt 0.210938 0.593750
vt 0.031250 0.507812
vt 0.046875 0.507812
vt 0.484375 0.945312
vt 0.468750 0.945312
vt 0.468750 0.968750
vt 0.484375 0.968750
vt 0.296875 0.562500
vt 0.296875 0.687500
vt 0.289062 0.687500
vt 0.281250 0.687500
vt 0.328125 0.687500
vt 0.343750 0.875000
vt 0.359375 0.875000
vt 0.359375 1.000000
vt 0.343750 1.000000
vt 0.343750 0.750000
vt 0.359375 0.750000
vt 0.187500 0.515625
vt 0.195312 0.515625
vt 0.203125 0.515625
vt 0.484375 0.796875
vt 0.468750 0.796875
vt 0.468750 0.812500
vt 0.484375 0.812500
vt 0.218750 0.546875
vt 0.250000 0.546875
vt 0.250000 0.562500
vt 0.218750 0.562500
vt 0.125000 0.515625
vt 0.148438 0.515625
vt 0.148438 0.531250
vt 0.125000 0.531250
vt 0.437500 0.765625
vt 0.468750 0.859375
vt 0.492188 0.859375
vt 0.492188 0.875000
vt 0.468750 0.875000
vt 0.406250 0.789062
vt 0.437500 0.789062
vt 0.250000 0.570312
vt 0.218750 0.570312
vt 0.031250 0.640625
vt 0.078125 0.640625
vt 0.078125 0.687500
vt 0.343750 0.703125
vt 0.367188 0.703125
vt 0.367188 0.750000
vt 0.093750 0.640625
vt 0.140625 0.640625
vt 0.140625 0.687500
vt 0.093750 0.687500
vt 0.343750 0.640625
vt 0.367188 0.640625
vt 0.367188 0.687500
vt 0.343750 0.687500
vt 0.421875 1.000000
vt 0.375000 1.000000
vt 0.375000 0.976562
vt 0.421875 0.976562
vt 0.078125 0.601562
vt 0.031250 0.601562
vt 0.031250 0.625000
vt 0.078125 0.625000
vt 0.500000 0.804688
vt 0.515625 0.804688
vt 0.515625 0.812500
vt 0.500000 0.812500
vt 0.531250 0.929688
vt 0.539062 0.929688
vt 0.539062 0.937500
vt 0.531250 0.937500
vt 0.218750 0.492188
vt 0.234375 0.492188
vt 0.234375 0.500000
vt 0.218750 0.500000
vt 0.093750 0.460938
vt 0.101562 0.460938
vt 0.101562 0.468750
vt 0.093750 0.468750
vt 0.515625 0.781250
vt 0.500000 0.781250
vt 0.500000 0.773438
vt 0.515625 0.773438
vt 0.265625 0.492188
vt 0.250000 0.492188
vt 0.250000 0.500000
vt 0.265625 0.500000
vt 0.500000 0.742188
vt 0.515625 0.742188
vt 0.515625 0.750000
vt 0.500000 0.750000
vt 0.531250 0.898438
vt 0.539062 0.898438
vt 0.539062 0.906250
vt 0.531250 0.906250
vt 0.281250 0.492188
vt 0.296875 0.492188
vt 0.296875 0.500000
vt 0.281250 0.500000
vt 0.125000 0.460938
vt 0.132812 0.460938
vt 0.132812 0.468750
vt 0.125000 0.468750
vt 0.515625 0.718750
vt 0.500000 0.718750
vt 0.500000 0.710938
vt 0.515625 0.710938
vt 0.328125 0.492188
vt 0.312500 0.492188
vt 0.312500 0.500000
vt 0.328125 0.500000
vt 0.546875 0.992188
vt 0.539062 0.996094
vt 0.539062 0.992188
vt 0.031250 0.460938
vt 0.046875 0.460938
vt 0.046875 0.464844
vt 0.046875 0.468750
vt 0.031250 0.468750
vt 0.531250 0.960938
vt 0.546875 0.960938
vt 0.546875 0.968750
vt 0.531250 0.968750
vt 0.531250 0.964844
vt 0.078125 0.460938
vt 0.070312 0.464844
vt 0.070312 0.460938
vt 0.515625 0.835938
vt 0.507812 0.828125
vt 0.515625 0.828125
vt 0.195312 0.484375
vt 0.187500 0.484375
vt 0.187500 0.500000
vt 0.203125 0.500000
vt 0.203125 0.492188
vt 0.515625 0.617188
vt 0.507812 0.621094
vt 0.507812 0.617188
vt 0.421875 0.492188
vt 0.414062 0.496094
vt 0.414062 0.492188
vt 0.515625 0.585938
vt 0.507812 0.589844
vt 0.507812 0.585938
vt 0.453125 0.492188
vt 0.445312 0.496094
vt 0.445312 0.492188
vt 0.515625 0.906250
vt 0.507812 0.898438
vt 0.515625 0.898438
vt 0.125000 0.484375
vt 0.132812 0.492188
vt 0.132812 0.484375
vt 0.515625 0.554688
vt 0.507812 0.558594
vt 0.507812 0.554688
vt 0.468750 0.492188
vt 0.484375 0.492188
vt 0.484375 0.496094
vt 0.484375 0.500000
vt 0.468750 0.500000
vt 0.500000 0.523438
vt 0.515625 0.523438
vt 0.515625 0.531250
vt 0.500000 0.531250
vt 0.500000 0.496094
vt 0.507812 0.500000
vt 0.500000 0.500000
vt 0.515625 0.867188
vt 0.507812 0.859375
vt 0.515625 0.859375
vt 0.171875 0.484375
vt 0.164062 0.484375
vt 0.156250 0.484375
vt 0.156250 0.500000
vt 0.171875 0.500000
vt 0.421875 0.937500
vt 0.500000 0.960938
vt 0.136719 0.539062
vt 0.484375 0.925781
vt 0.468750 0.898438
vt 0.546875 0.996094
vt 0.078125 0.464844
vt 0.515625 0.621094
vt 0.421875 0.496094
vt 0.515625 0.589844
vt 0.453125 0.496094
vt 0.507812 0.906250
vt 0.125000 0.492188
vt 0.515625 0.558594
vt 0.070312 0.468750
vt 0.062500 0.468750
vt 0.078125 0.468750
vt 0.539062 1.000000
vt 0.531250 1.000000
vt 0.546875 1.000000
vt 0.507812 0.562500
vt 0.500000 0.562500
vt 0.515625 0.562500
vt 0.132812 0.500000
vt 0.140625 0.500000
vt 0.125000 0.500000
vt 0.500000 0.898438
vt 0.500000 0.890625
vt 0.500000 0.906250
vt 0.445312 0.500000
vt 0.437500 0.500000
vt 0.453125 0.500000
vt 0.507812 0.593750
vt 0.500000 0.593750
vt 0.515625 0.593750
vt 0.414062 0.500000
vt 0.406250 0.500000
vt 0.421875 0.500000
vt 0.507812 0.625000
vt 0.500000 0.625000
vt 0.515625 0.625000
vt 0.480469 0.906250
vt 0.492188 0.906250
vt 0.468750 0.906250
vt 0.476562 0.937500
vt 0.468750 0.937500
vt 0.484375 0.937500
vt 0.148438 0.550781
vt 0.148438 0.539062
vt 0.507812 0.953125
vt 0.515625 0.953125
vt 0.500000 0.953125
vt 0.414062 0.968750
vt 0.421875 0.968750
vt 0.203125 0.484375
vt 0.515625 0.843750
vt 0.500000 0.828125
vt 0.062500 0.464844
vt 0.062500 0.460938
vt 0.531250 0.996094
vt 0.531250 0.992188
vt 0.515625 0.875000
vt 0.500000 0.875000
vt 0.500000 0.859375
vt 0.500000 0.492188
vt 0.515625 0.492188
vt 0.515625 0.500000
vt 0.500000 0.558594
vt 0.500000 0.554688
vt 0.140625 0.492188
vt 0.140625 0.484375
vt 0.507812 0.890625
vt 0.515625 0.890625
vt 0.437500 0.496094
vt 0.437500 0.492188
vt 0.500000 0.589844
vt 0.500000 0.585938
vt 0.406250 0.496094
vt 0.406250 0.492188
vt 0.500000 0.621094
vt 0.500000 0.617188
vt 0.492188 0.898438
vt 0.492188 0.890625
vt 0.117188 0.531250
vt 0.093750 0.515625
vt 0.468750 0.925781
vt 0.468750 0.914062
vt 0.437500 0.851562
vt 0.062500 0.507812
vt 0.078125 0.531250
vt 0.062500 0.531250
vt 0.136719 0.562500
vt 0.515625 0.960938
vt 0.515625 0.968750
vt 0.421875 0.843750
vt 0.062500 0.593750
vt 0.515625 1.000000
vt 0.500000 1.000000
vt 0.515625 0.984375
vt 0.359375 0.562500
vt 0.343750 0.625000
vt 0.390625 0.718750
s 1
usemtl m_60e991c3-abfa-b145-4bd9-698707bd42f8.001
f 496/640/144 497/641/144 305/642/144
f 498/643/145 496/644/145 305/645/145
f 311/646/146 306/647/146 304/648/146 309/649/146
f 310/650/147 311/651/147 309/652/147 308/653/147
f 497/654/148 498/655/148 305/656/148
f 310/657/149 307/658/149 306/659/149 311/660/149
f 315/661/144 318/662/144 316/663/144 313/664/144
f 314/665/150 315/666/150 313/667/150 312/661/150
f 319/662/146 314/668/146 312/669/146 317/663/146
f 318/670/151 319/671/151 317/672/151 316/673/151
f 317/674/152 312/675/152 313/676/152 316/677/152
f 318/678/153 315/679/153 314/680/153 319/681/153
f 326/682/144 550/683/144 500/684/144
f 503/685/154 499/686/154 321/687/154
f 327/688/146 322/689/146 320/690/146 504/691/146 325/692/146
f 501/693/155 505/684/155 324/694/155
f 320/695/156 551/696/156 504/697/156
f 326/698/157 500/699/157 323/700/157 322/701/157 327/702/157
f 331/703/144 334/704/144 332/705/144 329/706/144 506/707/144
f 330/708/158 331/709/158 506/710/158 329/711/158 328/712/158
f 335/713/146 330/694/146 328/704/146 333/703/146
f 334/714/159 335/715/159 333/716/159 332/717/159
f 333/718/160 328/719/160 329/720/160 332/721/160
f 334/722/161 331/721/161 330/718/161 335/723/161
f 339/724/144 507/725/144 342/726/144 340/727/144 337/669/144
f 338/728/150 339/729/150 337/730/150 336/731/150
f 343/732/146 338/733/146 336/734/146 341/735/146
f 342/736/151 343/737/151 341/738/151 340/739/151
f 341/740/152 336/741/152 337/742/152 340/743/152
f 342/744/153 507/745/153 339/746/153 338/747/153 343/748/153
f 347/749/144 508/750/144 350/751/144 348/752/144 345/753/144
f 346/754/150 347/755/150 345/756/150 344/757/150
f 351/758/146 346/759/146 344/760/146 349/761/146
f 350/762/151 351/763/151 349/764/151 348/765/151
f 349/766/152 344/767/152 345/768/152 348/769/152
f 350/770/153 508/771/153 347/772/153 346/773/153 351/774/153
f 355/775/144 552/776/144 509/777/144
f 513/778/158 355/779/158 509/780/158
f 515/781/146 354/782/146 352/783/146 357/784/146 514/785/146
f 359/786/159 553/787/159 516/788/159
f 517/789/160 512/790/160 356/791/160
f 355/792/161 554/793/161 510/794/161
f 363/795/144 366/796/144 364/797/144 361/798/144
f 362/799/162 363/800/162 361/801/162 360/802/162
f 367/803/146 362/804/146 360/805/146 365/806/146
f 366/807/163 367/808/163 365/809/163 364/810/163
f 365/811/164 360/812/164 361/813/164 364/814/164
f 366/815/165 363/816/165 362/817/165 367/818/165
f 371/819/144 374/820/144 372/647/144 369/646/144
f 370/821/166 371/822/166 369/823/166 368/824/166
f 375/825/146 370/826/146 368/827/146 373/828/146
f 374/829/167 375/830/167 373/831/167 372/832/167
f 373/833/168 368/834/168 369/835/168 372/836/168
f 374/837/169 371/838/169 370/839/169 375/840/169
f 379/841/144 382/842/144 380/843/144 377/844/144
f 378/845/158 379/846/158 377/847/158 376/848/158
f 383/849/146 378/850/146 376/851/146 381/723/146
f 382/852/159 383/853/159 381/854/159 380/855/159
f 381/856/160 376/857/160 377/858/160 380/859/160
f 382/860/161 379/861/161 378/862/161 383/863/161
f 387/692/144 390/864/144 388/865/144 385/866/144
f 386/867/158 387/693/158 385/694/158 384/713/158
f 391/864/146 386/868/146 384/869/146 389/865/146
f 390/870/159 391/871/159 389/693/159 388/867/159
f 389/872/160 384/869/160 385/868/160 388/873/160
f 390/874/161 387/875/161 386/870/161 391/871/161
f 395/876/144 398/877/144 396/878/144 393/879/144
f 394/880/158 395/881/158 393/882/158 392/883/158
f 399/884/146 394/885/146 392/886/146 397/887/146
f 398/888/159 399/889/159 397/890/159 396/891/159
f 397/892/160 392/893/160 393/894/160 396/895/160
f 398/896/161 395/897/161 394/898/161 399/899/161
f 403/675/144 406/900/144 404/901/144 401/902/144
f 402/903/170 403/904/170 401/905/170 400/864/170
f 407/906/146 402/907/146 400/908/146 405/909/146
f 406/902/171 407/910/171 405/911/171 404/868/171
f 405/912/172 400/913/172 401/914/172 404/915/172
f 406/916/173 403/917/173 402/918/173 407/919/173
f 411/873/144 414/920/144 412/921/144 409/872/144
f 410/922/158 411/798/158 409/874/158 408/875/158
f 415/920/146 410/802/146 408/923/146 413/921/146
f 414/924/159 415/925/159 413/798/159 412/922/159
f 413/926/160 408/923/160 409/802/160 412/927/160
f 414/806/161 411/642/161 410/924/161 415/925/161
f 419/674/144 422/928/144 420/929/144 417/930/144
f 418/874/174 419/931/174 417/932/174 416/871/174
f 423/933/146 418/934/146 416/907/146 421/906/146
f 422/930/175 423/935/175 421/936/175 420/873/175
f 421/651/176 416/650/176 417/937/176 420/938/176
f 422/939/177 419/940/177 418/941/177 423/942/177
f 427/855/144 430/943/144 428/944/144 518/945/144 425/946/144
f 426/862/150 427/863/150 425/947/150 424/670/150
f 431/948/146 426/949/146 424/950/146 429/951/146
f 430/952/151 431/953/151 429/949/151 428/948/151
f 429/928/152 424/674/152 425/954/152 518/955/152 428/956/152
f 430/957/153 427/958/153 426/959/153 431/960/153
f 435/961/144 438/962/144 436/963/144 433/964/144
f 434/965/150 435/966/150 433/967/150 432/968/150
f 439/969/146 434/746/146 432/747/146 437/933/146
f 438/970/151 439/971/151 437/972/151 436/973/151
f 437/906/152 432/874/152 433/974/152 436/975/152
f 438/976/153 435/977/153 434/920/153 439/802/153
f 443/978/144 446/979/144 444/980/144 441/662/144
f 442/981/158 443/982/158 441/983/158 440/952/158
f 447/984/146 442/985/146 440/986/146 445/987/146
f 446/988/159 447/989/159 445/990/159 444/991/159
f 445/992/160 440/993/160 441/994/160 444/995/160
f 446/996/161 443/997/161 442/998/161 447/999/161
f 451/1000/144 454/1001/144 452/1002/144 449/1003/144
f 450/1004/162 451/1005/162 449/1006/162 448/1007/162
f 455/1008/146 450/1009/146 448/1010/146 453/1011/146
f 454/1012/163 455/1013/163 453/1014/163 452/1015/163
f 453/1016/164 448/1017/164 449/1018/164 452/1019/164
f 454/1020/165 451/1021/165 450/1022/165 455/1023/165
f 459/1024/144 462/1025/144 460/1026/144 457/1027/144
f 458/1028/166 459/1029/166 457/1030/166 456/1031/166
f 463/1032/146 458/1033/146 456/1034/146 461/1035/146
f 462/1036/167 463/1037/167 461/1038/167 460/1039/167
f 461/1040/168 456/1041/168 457/1042/168 460/1043/168
f 462/1044/169 459/1045/169 458/1046/169 463/1047/169
f 470/1048/144 555/1049/144 520/1050/144
f 466/1051/150 467/1052/150 519/1053/150 465/1054/150 464/1055/150
f 471/1056/146 466/1057/146 464/1058/146 469/1059/146 523/1060/146
f 471/1061/151 556/1062/151 524/1063/151
f 525/1064/152 522/1065/152 468/1066/152
f 520/1067/153 467/1068/153 466/1069/153 471/1070/153 524/1071/153
f 478/1072/178 557/1073/178 527/1074/178
f 475/1075/179 558/1076/179 531/1077/179
f 474/1078/180 559/1079/180 534/1080/180
f 479/1081/181 560/1082/181 536/1083/181
f 477/1084/144 561/1085/144 537/1086/144
f 475/1087/146 562/1088/146 527/1089/146
f 486/1090/144 563/1091/144 539/1092/144
f 482/1093/150 483/1094/150 538/1095/150 481/1096/150 480/1097/150
f 487/1098/146 482/1099/146 480/1100/146 485/1101/146
f 540/1102/151 542/1103/151 484/1104/151
f 542/1105/152 541/1106/152 484/1107/152
f 486/1108/153 539/1109/153 483/1110/153 482/1111/153 487/1112/153
f 494/1048/144 564/1049/144 544/1050/144
f 490/1051/150 491/1052/150 543/1053/150 489/1054/150 488/1055/150
f 495/1056/146 490/1057/146 488/1058/146 493/1059/146 547/1060/146
f 495/1061/151 565/1062/151 548/1063/151
f 549/1064/152 546/1065/152 492/1066/152
f 544/1067/153 491/1068/153 490/1069/153 495/1070/153 548/1071/153
f 326/682/144 501/1113/144 550/683/144
f 320/695/156 503/1114/156 551/696/156
f 355/775/144 510/1115/144 552/776/144
f 359/786/159 514/1116/159 553/787/159
f 355/792/161 513/1117/161 554/793/161
f 470/1048/144 521/1118/144 555/1049/144
f 471/1061/151 523/1119/151 556/1062/151
f 478/1072/178 528/1120/178 557/1073/178
f 475/1075/179 526/1121/179 558/1076/179
f 474/1078/180 530/1122/180 559/1079/180
f 479/1081/181 533/1123/181 560/1082/181
f 477/1084/144 535/1124/144 561/1085/144
f 475/1087/146 531/1125/146 562/1088/146
f 486/1090/144 540/1126/144 563/1091/144
f 494/1048/144 545/1118/144 564/1049/144
f 495/1061/151 547/1119/151 565/1062/151
f 565/1062/151 549/1127/151 492/1128/151
f 565/1062/151 547/1119/151 549/1127/151
f 547/1119/151 493/1129/151 549/1127/151
f 564/1049/144 546/1130/144 489/1131/144
f 564/1049/144 545/1118/144 546/1130/144
f 545/1118/144 492/1132/144 546/1130/144
f 563/1091/144 541/1133/144 481/1134/144
f 563/1091/144 540/1126/144 541/1133/144
f 540/1126/144 484/1135/144 541/1133/144
f 562/1088/146 534/1136/146 479/1137/146
f 562/1088/146 531/1125/146 534/1136/146
f 531/1125/146 474/1138/146 534/1136/146
f 561/1085/144 532/1139/144 473/1140/144
f 561/1085/144 535/1124/144 532/1139/144
f 535/1124/144 472/1141/144 532/1139/144
f 560/1082/181 537/1142/181 476/1143/181
f 560/1082/181 533/1123/181 537/1142/181
f 533/1123/181 477/1144/181 537/1142/181
f 559/1079/180 535/1145/180 477/1146/180
f 559/1079/180 530/1122/180 535/1145/180
f 530/1122/180 472/1147/180 535/1145/180
f 558/1076/179 532/1148/179 472/1149/179
f 558/1076/179 526/1121/179 532/1148/179
f 526/1121/179 473/1150/179 532/1148/179
f 557/1073/178 529/1151/178 473/1152/178
f 557/1073/178 528/1120/178 529/1151/178
f 528/1120/178 476/1153/178 529/1151/178
f 556/1062/151 525/1127/151 468/1128/151
f 556/1062/151 523/1119/151 525/1127/151
f 523/1119/151 469/1129/151 525/1127/151
f 555/1049/144 522/1130/144 465/1131/144
f 555/1049/144 521/1118/144 522/1130/144
f 521/1118/144 468/1132/144 522/1130/144
f 554/793/161 515/1154/161 359/1155/161
f 554/793/161 513/1117/161 515/1154/161
f 513/1117/161 354/1156/161 515/1154/161
f 553/787/159 517/1157/159 356/1158/159
f 553/787/159 514/1116/159 517/1157/159
f 514/1116/159 357/1159/159 517/1157/159
f 552/776/144 511/1160/144 356/904/144
f 552/776/144 510/1115/144 511/1160/144
f 510/1115/144 358/1161/144 511/1160/144
f 551/696/156 502/1162/156 324/1163/156
f 551/696/156 503/1114/156 502/1162/156
f 503/1114/156 321/1164/156 502/1162/156
f 550/683/144 502/1165/144 321/705/144
f 550/683/144 501/1113/144 502/1165/144
f 501/1113/144 324/1166/144 502/1165/144
f 494/1167/153 544/1067/153 548/1071/153
f 493/1168/152 488/681/152 489/1169/152 546/1065/152 549/1064/152
f 548/1063/151 545/1170/151 494/1171/151
f 548/1063/151 565/1062/151 545/1170/151
f 565/1062/151 492/1128/151 545/1170/151
f 544/1050/144 543/1172/144 491/1173/144
f 544/1050/144 564/1049/144 543/1172/144
f 564/1049/144 489/1131/144 543/1172/144
f 485/1174/152 480/1175/152 481/1176/152 541/1106/152 542/1105/152
f 486/1177/151 487/1178/151 485/1179/151 542/1103/151 540/1102/151
f 539/1092/144 538/1180/144 483/1181/144
f 539/1092/144 563/1091/144 538/1180/144
f 563/1091/144 481/1134/144 538/1180/144
f 527/1089/146 536/1182/146 478/1183/146
f 527/1089/146 562/1088/146 536/1182/146
f 562/1088/146 479/1137/146 536/1182/146
f 537/1086/144 529/1184/144 476/1185/144
f 537/1086/144 561/1085/144 529/1184/144
f 561/1085/144 473/1140/144 529/1184/144
f 536/1083/181 528/1186/181 478/1187/181
f 536/1083/181 560/1082/181 528/1186/181
f 560/1082/181 476/1143/181 528/1186/181
f 534/1080/180 533/1188/180 479/1189/180
f 534/1080/180 559/1079/180 533/1188/180
f 559/1079/180 477/1146/180 533/1188/180
f 531/1077/179 530/1190/179 474/1191/179
f 531/1077/179 558/1076/179 530/1190/179
f 558/1076/179 472/1149/179 530/1190/179
f 527/1074/178 526/1192/178 475/1193/178
f 527/1074/178 557/1073/178 526/1192/178
f 557/1073/178 473/1152/178 526/1192/178
f 470/1167/153 520/1067/153 524/1071/153
f 469/1168/152 464/681/152 465/1169/152 522/1065/152 525/1064/152
f 524/1063/151 521/1170/151 470/1171/151
f 524/1063/151 556/1062/151 521/1170/151
f 556/1062/151 468/1128/151 521/1170/151
f 520/1050/144 519/1172/144 467/1173/144
f 520/1050/144 555/1049/144 519/1172/144
f 555/1049/144 465/1131/144 519/1172/144
f 510/794/161 516/1194/161 358/1195/161
f 510/794/161 554/793/161 516/1194/161
f 554/793/161 359/1155/161 516/1194/161
f 357/1196/160 352/688/160 353/1197/160 512/790/160 517/789/160
f 516/788/159 511/1198/159 358/1199/159
f 516/788/159 553/787/159 511/1198/159
f 553/787/159 356/1158/159 511/1198/159
f 359/1200/146 515/781/146 514/785/146
f 354/1201/158 513/778/158 509/780/158 353/1202/158 352/1203/158
f 509/777/144 512/1204/144 353/903/144
f 509/777/144 552/776/144 512/1204/144
f 552/776/144 356/904/144 512/1204/144
f 504/697/156 505/1205/156 325/1206/156
f 504/697/156 551/696/156 505/1205/156
f 551/696/156 324/1163/156 505/1205/156
f 326/871/155 327/1207/155 325/682/155 505/684/155 501/693/155
f 322/1203/154 323/1202/154 499/686/154 503/685/154 320/1208/154
f 500/684/144 499/704/144 323/694/144
f 500/684/144 550/683/144 499/704/144
f 550/683/144 321/705/144 499/704/144
f 309/1209/148 304/1210/148 498/655/148 497/654/148 308/1211/148
f 306/891/145 307/1212/145 496/644/145 498/643/145 304/1213/145
f 307/649/144 310/648/144 308/1214/144 497/641/144 496/640/144
o item_back
v 0.000000 70.710701 -0.000020
v 70.710701 0.000000 0.000000
v -70.710701 0.000000 0.000000
v 0.000000 -70.710602 0.000020
v 0.000000 55.656200 3.999984
v 55.656200 0.000000 4.000000
v -55.656101 0.000000 4.000000
v 0.000000 -55.656101 4.000016
v 0.000000 70.710701 -0.000020
v 70.710701 0.000000 0.000000
v -70.710701 0.000000 0.000000
v 0.000000 -70.710602 0.000020
v 0.000000 55.656200 -4.000016
v 55.656200 -0.000000 -4.000000
v -55.656101 -0.000000 -4.000000
v 0.000000 -55.656101 -3.999984
vn 0.2559 0.0853 0.9629
vn -0.0853 0.2559 0.9629
vn 0.0639 0.1919 0.9793
vn 0.1532 -0.0510 0.9869
vn 0.0853 -0.2559 0.9629
vn -0.0639 -0.1919 0.9793
vn -0.2558 -0.0853 0.9630
vn -0.1532 0.0510 0.9869
vn 0.0639 0.1919 -0.9793
vn -0.0853 0.2558 -0.9630
vn 0.2558 0.0853 -0.9630
vn 0.1532 -0.0510 -0.9869
vn 0.0853 -0.2558 -0.9630
vn -0.0639 -0.1919 -0.9793
vn -0.2558 -0.0853 -0.9630
vn -0.1532 0.0510 -0.9869
vt 0.291780 0.675050
vt 0.283050 0.675050
vt 0.285960 0.673600
vt 0.288870 0.673600
vt 0.291780 0.670690
vt 0.288870 0.672140
vt 0.283050 0.670690
vt 0.285960 0.672140
vt 0.125920 0.709470
vt 0.264800 0.569660
vt 0.403700 0.709470
vt 0.264800 0.849250
vt 0.285630 0.666000
vt 0.282440 0.667600
vt 0.292010 0.667600
vt 0.288820 0.666000
vt 0.292010 0.662810
vt 0.288820 0.664410
vt 0.282440 0.662810
vt 0.285630 0.664410
vt 0.125110 0.711360
vt 0.263090 0.572480
vt 0.401060 0.711360
vt 0.263090 0.850220
s 1
usemtl 握把
f 567/1215/182 566/1216/183 570/1217/184
f 571/1218/185 567/1215/182 570/1217/184
f 569/1219/186 567/1215/182 571/1218/185
f 573/1220/187 569/1219/186 571/1218/185
f 568/1221/188 569/1219/186 573/1220/187
f 572/1222/189 568/1221/188 573/1220/187
f 566/1216/183 568/1221/188 572/1222/189
f 570/1217/184 566/1216/183 572/1222/189
f 572/1223/189 573/1224/187 571/1225/185
f 570/1226/184 572/1223/189 571/1225/185
f 578/1227/190 574/1228/191 575/1229/192
f 579/1230/193 578/1227/190 575/1229/192
f 579/1230/193 575/1229/192 577/1231/194
f 581/1232/195 579/1230/193 577/1231/194
f 581/1232/195 577/1231/194 576/1233/196
f 580/1234/197 581/1232/195 576/1233/196
f 580/1234/197 576/1233/196 574/1228/191
f 578/1227/190 580/1234/197 574/1228/191
f 579/1235/193 581/1236/195 580/1237/197
f 578/1238/190 579/1235/193 580/1237/197
o item_bladens
v 0.000000 70.710701 -0.000020
v 70.710701 0.000000 0.000000
v -70.710701 0.000000 0.000000
v 0.000000 -70.710602 0.000020
v 0.000000 55.656200 3.999984
v 55.656200 0.000000 4.000000
v -55.656101 0.000000 4.000000
v 0.000000 -55.656101 4.000016
v 0.000000 70.710701 -0.000020
v 70.710701 0.000000 0.000000
v -70.710701 0.000000 0.000000
v 0.000000 -70.710602 0.000020
v 0.000000 55.656200 -4.000016
v 55.656200 -0.000000 -4.000000
v -55.656101 -0.000000 -4.000000
v 0.000000 -55.656101 -3.999984
vn 0.2559 0.0853 0.9629
vn -0.0853 0.2559 0.9629
vn 0.0639 0.1919 0.9793
vn 0.1532 -0.0510 0.9869
vn 0.0853 -0.2559 0.9629
vn -0.0639 -0.1919 0.9793
vn -0.2558 -0.0853 0.9630
vn -0.1532 0.0510 0.9869
vn 0.0639 0.1919 -0.9793
vn -0.0853 0.2558 -0.9630
vn 0.2558 0.0853 -0.9630
vn 0.1532 -0.0510 -0.9869
vn 0.0853 -0.2558 -0.9630
vn -0.0639 -0.1919 -0.9793
vn -0.2558 -0.0853 -0.9630
vn -0.1532 0.0510 -0.9869
vt 0.291780 0.675050
vt 0.283050 0.675050
vt 0.285960 0.673600
vt 0.288870 0.673600
vt 0.291780 0.670690
vt 0.288870 0.672140
vt 0.283050 0.670690
vt 0.285960 0.672140
vt 0.125920 0.709470
vt 0.264800 0.569660
vt 0.403700 0.709470
vt 0.264800 0.849250
vt 0.285630 0.666000
vt 0.282440 0.667600
vt 0.292010 0.667600
vt 0.288820 0.666000
vt 0.292010 0.662810
vt 0.288820 0.664410
vt 0.282440 0.662810
vt 0.285630 0.664410
vt 0.125110 0.711360
vt 0.263090 0.572480
vt 0.401060 0.711360
vt 0.263090 0.850220
s 1
usemtl 握把
f 583/1239/198 582/1240/199 586/1241/200
f 587/1242/201 583/1239/198 586/1241/200
f 585/1243/202 583/1239/198 587/1242/201
f 589/1244/203 585/1243/202 587/1242/201
f 584/1245/204 585/1243/202 589/1244/203
f 588/1246/205 584/1245/204 589/1244/203
f 582/1240/199 584/1245/204 588/1246/205
f 586/1241/200 582/1240/199 588/1246/205
f 588/1247/205 589/1248/203 587/1249/201
f 586/1250/200 588/1247/205 587/1249/201
f 594/1251/206 590/1252/207 591/1253/208
f 595/1254/209 594/1251/206 591/1253/208
f 595/1254/209 591/1253/208 593/1255/210
f 597/1256/211 595/1254/209 593/1255/210
f 597/1256/211 593/1255/210 592/1257/212
f 596/1258/213 597/1256/211 592/1257/212
f 596/1258/213 592/1257/212 590/1252/207
f 594/1251/206 596/1258/213 590/1252/207
f 595/1259/209 597/1260/211 596/1261/213
f 594/1262/206 595/1259/209 596/1261/213
o item_damaged
v 0.000000 70.710701 -0.000020
v 70.710701 0.000000 0.000000
v -70.710701 0.000000 0.000000
v 0.000000 -70.710602 0.000020
v 0.000000 55.656200 3.999984
v 55.656200 0.000000 4.000000
v -55.656101 0.000000 4.000000
v 0.000000 -55.656101 4.000016
v 0.000000 70.710701 -0.000020
v 70.710701 0.000000 0.000000
v -70.710701 0.000000 0.000000
v 0.000000 -70.710602 0.000020
v 0.000000 55.656200 -4.000016
v 55.656200 -0.000000 -4.000000
v -55.656101 -0.000000 -4.000000
v 0.000000 -55.656101 -3.999984
v 35.355350 27.828100 -2.000008
v 0.000000 63.183449 -2.000018
v 35.355350 35.355350 -0.000010
v 63.183449 -0.000000 -2.000000
v 27.828100 27.828100 -4.000008
v 27.828100 -35.355301 -1.999990
v 35.355350 -35.355301 0.000010
v 0.000000 -63.183350 -1.999982
v 27.828100 -27.828051 -3.999992
vn 0.2559 0.0853 0.9629
vn -0.0853 0.2559 0.9629
vn 0.0639 0.1919 0.9793
vn 0.1532 -0.0510 0.9869
vn 0.0853 -0.2559 0.9629
vn -0.0639 -0.1919 0.9793
vn -0.2558 -0.0853 0.9630
vn -0.1532 0.0510 0.9869
vn 0.0639 0.1919 -0.9793
vn 0.0489 0.2105 -0.9764
vn 0.1940 0.2907 -0.9369
vn 0.1532 -0.0510 -0.9869
vn 0.1117 0.1845 -0.9765
vn 0.1845 -0.0000 -0.9828
vn 0.2906 -0.1941 -0.9369
vn -0.0639 -0.1919 -0.9793
vn 0.1862 -0.1269 -0.9743
vn -0.0000 -0.1808 -0.9835
vn 0.0853 -0.2558 -0.9630
vn -0.2558 -0.0853 -0.9630
vn -0.1532 0.0510 -0.9869
vn -0.0853 0.2558 -0.9630
vn 0.3221 -0.2252 -0.9195
vn 0.2558 0.0853 -0.9630
vn 0.2252 0.3221 -0.9195
vt 0.291780 0.675050
vt 0.283050 0.675050
vt 0.285960 0.673600
vt 0.288870 0.673600
vt 0.291780 0.670690
vt 0.288870 0.672140
vt 0.283050 0.670690
vt 0.285960 0.672140
vt 0.125920 0.709470
vt 0.264800 0.569660
vt 0.403700 0.709470
vt 0.264800 0.849250
vt 0.285630 0.666000
vt 0.284035 0.666800
vt 0.288820 0.666800
vt 0.288820 0.666000
vt 0.287225 0.666000
vt 0.290415 0.666800
vt 0.290415 0.664405
vt 0.288820 0.664410
vt 0.288820 0.665205
vt 0.290415 0.663610
vt 0.292010 0.662810
vt 0.282440 0.662810
vt 0.285630 0.664410
vt 0.282440 0.667600
vt 0.125110 0.711360
vt 0.194100 0.641920
vt 0.263090 0.572480
vt 0.401060 0.711360
vt 0.263090 0.850220
vt 0.194100 0.780790
vt 0.292010 0.665205
vt 0.292010 0.667600
vt 0.287225 0.667600
s 1
usemtl 握把
f 599/1263/214 598/1264/215 602/1265/216
f 603/1266/217 599/1263/214 602/1265/216
f 601/1267/218 599/1263/214 603/1266/217
f 605/1268/219 601/1267/218 603/1266/217
f 600/1269/220 601/1267/218 605/1268/219
f 604/1270/221 600/1269/220 605/1268/219
f 598/1264/215 600/1269/220 604/1270/221
f 602/1265/216 598/1264/215 604/1270/221
f 604/1271/221 605/1272/219 603/1273/217
f 602/1274/216 604/1271/221 603/1273/217
f 610/1275/222 615/1276/223 614/1277/224
f 611/1278/225 618/1279/226 617/1280/227
f 611/1278/225 617/1280/227 619/1281/228
f 613/1282/229 622/1283/230 621/1284/231
f 613/1282/229 621/1284/231 609/1285/232 608/1286/233
f 612/1287/234 613/1282/229 608/1286/233
f 612/1287/234 608/1286/233 606/1288/235
f 610/1275/222 612/1287/234 606/1288/235 615/1276/223
f 611/1289/225 622/1290/230 613/1291/229 612/1292/234
f 610/1293/222 618/1294/226 611/1289/225 612/1292/234
f 621/1284/231 619/1281/228 609/1285/232
f 621/1284/231 622/1283/230 619/1281/228
f 622/1283/230 611/1278/225 619/1281/228
f 619/1281/228 620/1295/236 609/1285/232
f 619/1281/228 617/1280/227 620/1295/236
f 617/1280/227 607/1296/237 620/1295/236
f 617/1280/227 614/1277/224 607/1296/237
f 617/1280/227 618/1279/226 614/1277/224
f 618/1279/226 610/1275/222 614/1277/224
f 614/1277/224 616/1297/238 607/1296/237
f 614/1277/224 615/1276/223 616/1297/238
f 615/1276/223 606/1288/235 616/1297/238
